<?xml version="1.0" standalone="no"?>
<!DOCTYPE svg PUBLIC "-//W3C//DTD SVG 1.1//EN" "http://www.w3.org/Graphics/SVG/1.1/DTD/svg11.dtd" >
<svg xmlns="http://www.w3.org/2000/svg">
<metadata>
This is a custom SVG webfont generated by Font Squirrel.
Copyright   : Copyright 19901993 Bitstream Inc  All rights reserved
</metadata>
<defs>
<font id="webfontGoQ7Aigs" horiz-adv-x="1239" >
<font-face units-per-em="2048" ascent="1638" descent="-410" />
<missing-glyph horiz-adv-x="577" />
<glyph unicode=" "  horiz-adv-x="577" />
<glyph unicode="&#x09;" horiz-adv-x="577" />
<glyph unicode="&#xa0;" horiz-adv-x="577" />
<glyph unicode="!" horiz-adv-x="587" d="M80 0l43 227h145l-45 -227h-143zM152 375l210 1081h144l-209 -1081h-145z" />
<glyph unicode="&#x22;" horiz-adv-x="567" d="M98 881v553h101v-553h-101zM371 881v553h102v-553h-102z" />
<glyph unicode="#" horiz-adv-x="1574" d="M117 479l39 109h325l101 276h-353l35 107h354l173 483h127l-168 -483h264l172 483h127l-170 -483h315l-37 -107h-317l-98 -276h340l-37 -109h-340l-170 -479h-129l172 479h-269l-172 -479h-127l170 479h-327zM612 588h267l96 276h-266z" />
<glyph unicode="$" horiz-adv-x="1155" d="M106 418q0 8 5 53v6h139v-6q-4 -41 -4 -45q0 -125 78 -190q82 -70 219 -70q131 0 202 70q74 71 74 190q0 156 -258 303q-4 2 -8 6q-158 90 -213 168q-55 76 -55 193q0 158 104 266q104 106 268 106h9l36 201h111l-39 -209q132 -28 203 -123q72 -96 72 -239v-29h-138v27 q0 109 -67.5 176t-175.5 67q-106 0 -179 -65q-70 -63 -69 -166q0 -47 18 -90q18 -41 54 -74q51 -47 170 -117l63 -36q127 -82 180 -166t53 -203q0 -174 -110.5 -278.5t-304.5 -110.5l-43 -223h-121l49 235q-157 40 -240 135q-82 95 -82 238z" />
<glyph unicode="%" horiz-adv-x="1794" d="M90 1126.5q0 75.5 27 137.5q28 65 80 116q49 49 116 78q61 27 136 27q76 0 137 -27q74 -31 116 -78q52 -52 80 -116q27 -61 27 -137t-27 -138q-28 -65 -80 -117q-49 -49 -116 -77q-61 -27 -137 -27q-74 0 -136 27q-63 27 -116 77q-52 52 -80 117q-27 62 -27 137.5z M219 1126q0 -96 65.5 -161.5t161.5 -65.5q94 0 160 65.5t66 161.5q0 94 -65.5 160t-160.5 66q-96 0 -161.5 -66t-65.5 -160zM451 -31l778 1518h117l-779 -1518h-116zM987 330q0 76 27 137q29 68 78 117t116 78q61 27 137 26.5t138 -26.5q68 -29 117 -78t77 -117 q27 -61 27 -137t-27 -137q-29 -68 -78 -117q-43 -47 -116 -78q-61 -27 -137 -27t-138 27q-74 31 -116 78q-47 43 -78 117q-27 61 -27 137zM1114 330q0 -96 65.5 -162t162 -66t162 65.5t65.5 162.5q0 94 -65.5 159.5t-162 65.5t-162 -65.5t-65.5 -159.5z" />
<glyph unicode="&#x26;" horiz-adv-x="1388" d="M31 391q0 156 100 275q98 115 297 190q-66 88 -90 150q-29 70 -29 133q0 152 103 250q100 98 260 98q147 0 235 -82q90 -84 90 -211q0 -121 -86 -221q-86 -102 -241 -172l243 -256l244 416h162l-307 -521l305 -342l-90 -98l-297 317q-104 -174 -223 -258 q-121 -86 -261 -86q-178 0 -296.5 119t-118.5 299zM174 385q0 -121 78 -198.5t194 -77.5q104 0 201 77q98 80 184 236l-301 321q-170 -57 -264 -151q-92 -92 -92 -207zM453 1151q0 -61 32 -127q31 -63 95 -117q135 49 202.5 117t67.5 156q0 76 -49 125t-125 49 q-96 0 -159.5 -57.5t-63.5 -145.5z" />
<glyph unicode="'" horiz-adv-x="294" d="M98 881v553h101v-553h-101z" />
<glyph unicode="(" horiz-adv-x="540" d="M-41 -43q0 12 4 57q2 18 14 82l189 977q39 195 151 297q109 98 308 115l-25 -131q-135 -25 -205 -97q-68 -71 -98 -233l-191 -979q-2 -14 -8 -53q-2 -14 -2 -35q0 -92 49.5 -155.5t135.5 -88.5l-25 -129q-129 27 -215 131q-82 101 -82 242z" />
<glyph unicode=")" horiz-adv-x="540" d="M-160 -416l27 129q137 25 203 97q68 76 98 235l190 979q2 14 9 53q2 14 2 35q0 94 -47 156q-49 63 -136 88l25 129q133 -27 215 -131q80 -100 80 -242q0 -16 -4 -65q-2 -35 -13 -76l-190 -977q-41 -201 -149.5 -297.5t-309.5 -112.5z" />
<glyph unicode="*" horiz-adv-x="1024" d="M184 1128l39 121l291 -98v305h115v-305l289 94l40 -115l-303 -83l207 -259l-104 -69l-187 262l-182 -264l-106 74l198 251z" />
<glyph unicode="+" horiz-adv-x="1705" d="M254 561v98h551v562h98v-562h549v-98h-549v-561h-98v561h-551z" />
<glyph unicode="," horiz-adv-x="577" d="M-72 -147l254 376h156l-254 -376h-156z" />
<glyph unicode="-" horiz-adv-x="657" d="M84 483l25 133h471l-25 -133h-471z" />
<glyph unicode="." horiz-adv-x="577" d="M92 0l45 233h142l-43 -233h-144z" />
<glyph unicode="/" horiz-adv-x="567" d="M-47 -190l508 1675h119l-506 -1675h-121z" />
<glyph unicode="0" horiz-adv-x="1155" d="M31 387q0 23 4 68q4 35 12 77l94 480q47 233 176 354q131 121 342 121q217 0 340 -109q125 -111 125 -297q0 -20 -4 -73q-2 -23 -14 -86l-94 -478q-49 -237 -178 -356q-127 -119 -340 -119q-225 0 -342 109q-121 110 -121 309zM168 365q0 -119 88 -191t233 -72 q174 0 259 82q88 84 126 281l93 471q4 20 8 51t6 37q6 37 6 66q0 117 -88 190.5t-235 73.5q-170 0 -258.5 -82t-126.5 -281l-93 -473q-12 -63 -14 -84q-4 -49 -4 -69z" />
<glyph unicode="1" horiz-adv-x="1155" d="M199 821l583 635h154l-283 -1456h-139l236 1225l-451 -490z" />
<glyph unicode="2" horiz-adv-x="1155" d="M6 0l25 119l430 375l71 61q403 348 404 547q0 115 -70 182q-72 68 -188 68q-141 0 -232 -92q-90 -94 -120 -279h-138q25 240 150 371q127 133 326 133q180 0 294.5 -110.5t114.5 -282.5q0 -125 -78 -246q-78 -123 -313 -330l-453 -397h729l-22 -119h-930z" />
<glyph unicode="3" horiz-adv-x="1155" d="M61 387v35q0 14 2 22h136v-18q0 -4 -1 -11t-1 -9q0 -143 81.5 -223.5t231.5 -80.5q158 0 254 92.5t96 241.5q0 143 -90 221q-86 74 -270 84l24 125h17q162 0 256 76q96 78 96 203q0 101 -68 160q-70 59 -182 59q-123 0 -192.5 -63.5t-100.5 -196.5h-133q43 199 145 289 q104 92 285 92q176 0 279 -101q106 -102 106 -262q0 -125 -69 -213q-66 -84 -201 -121q123 -41 184 -131q61 -88 62 -225q0 -201 -139.5 -332t-356.5 -131q-209 0 -330 110.5t-121 307.5z" />
<glyph unicode="4" horiz-adv-x="1155" d="M-10 274l30 160l881 1022h172l-203 -1046h183l-27 -136h-182l-53 -274h-142l53 274h-712zM170 410h559l164 831z" />
<glyph unicode="5" horiz-adv-x="1155" d="M39 422v10h135v-26q0 -133 94 -220q92 -84 244 -84q180 0 287 119q109 121 108 320q0 143 -92 229q-94 88 -246 88q-104 0 -182 -39q-82 -41 -137 -117l-113 39l260 715h701l-33 -129h-569l-138 -397q80 33 136 47q57 14 112 14q197 0 316 -129q121 -131 120 -338 q0 -248 -145 -399q-147 -154 -381 -154q-225 0 -350 119q-127 121 -127 332z" />
<glyph unicode="6" horiz-adv-x="1155" d="M33 446q0 55 14 132q12 61 41 127q55 117 225 292l49 52l381 405h172l-411 -453l47 5q16 2 47 2q211 0 332 -121t121 -334q0 -254 -149.5 -418t-381.5 -164q-212 0 -350 135q-137 135 -137 340zM172 461q0 -160 92 -258.5t244 -98.5q178 0 291 125q115 127 114 320 q0 156 -96 252t-252 96q-172 0 -282.5 -123t-110.5 -313z" />
<glyph unicode="7" horiz-adv-x="1155" d="M125 0l825 1319h-661l24 137h838l-23 -115l-845 -1341h-158z" />
<glyph unicode="8" horiz-adv-x="1155" d="M51 397q0 154 82 262q82 111 225 156q-70 63 -98 121q-31 61 -31 133q0 176 123 297q121 119 307 119q170 0 273 -101q106 -102 106 -258q0 -115 -55 -194q-53 -76 -170 -127q102 -57 152 -141q49 -82 49 -203q0 -209 -146 -348q-147 -141 -362 -142q-211 0 -332 115 q-123 116 -123 311zM197 395q0 -131 84 -211t219 -80q157 0 264 99q109 98 108 239q0 131 -86 211t-231 80q-160 0 -260 -94q-98 -92 -98 -244zM365 1059q0 -96 69.5 -153.5t181.5 -57.5q127 0 205 76q80 76 80 200q0 102 -67 164q-66 59 -181 64q-129 0 -208.5 -80 t-79.5 -213z" />
<glyph unicode="9" horiz-adv-x="1155" d="M106 901q0 254 150 418q151 166 381 166q211 0 348 -135q139 -135 139 -340q0 -57 -14 -133q-10 -59 -41 -125q-53 -117 -231 -301l-43 -45l-381 -406h-172l411 453l-47 -4q-16 -2 -47 -3q-211 0 -332 121t-121 334zM244 905q0 -156 96 -252t252 -96q172 0 282.5 123 t110.5 313q0 162 -92 260.5t-244 98.5q-178 0 -291 -125q-114 -127 -114 -322z" />
<glyph unicode=":" horiz-adv-x="587" d="M96 0l45 233h142l-45 -233h-142zM262 866l47 234h142l-45 -234h-144z" />
<glyph unicode=";" horiz-adv-x="587" d="M-61 -147l254 376h155l-254 -376h-155zM256 866l45 234h141l-45 -234h-141z" />
<glyph unicode="&#x3c;" horiz-adv-x="1705" d="M264 569v82l1178 484v-109l-1022 -416l1022 -413v-109z" />
<glyph unicode="=" horiz-adv-x="1705" d="M254 375v98h1198v-98h-1198zM254 748v98h1198v-98h-1198z" />
<glyph unicode="&#x3e;" horiz-adv-x="1705" d="M264 88v109l1022 413l-1022 416v109l1178 -484v-82z" />
<glyph unicode="?" horiz-adv-x="946" d="M72 1038q39 211 172 328q135 119 325 119q186 0 297 -98.5t111 -266.5q0 -68 -21 -127q-23 -66 -61 -112q-51 -63 -170 -154q-12 -10 -33.5 -26.5l-29.5 -22.5q-76 -63 -119 -137q-41 -72 -58 -170h-141q16 131 59 215q47 90 134 164q63 53 114 92q72 53 92 78 q43 49 62 96q18 46 18 98q0 106 -71 174q-74 70 -185 70q-139 0 -229 -84q-92 -86 -123 -236h-143zM272 0l45 229h140l-45 -229h-140z" />
<glyph unicode="@" horiz-adv-x="2048" d="M117 537q0 203 86 381q86 176 252 315q137 113 299 166q166 55 360 55q154 0 307 -45q143 -43 250 -123q131 -100 195 -227q66 -131 65 -281q0 -172 -61.5 -309t-181.5 -233q-70 -53 -150 -82q-82 -29 -160 -29q-100 0 -145 37q-47 37 -47 114l1 6q1 5 1 9v14 q-55 -90 -127 -133q-78 -47 -168 -47q-154 0 -234 84q-80 82 -79 244q0 231 135 388.5t329 157.5q92 0 158 -41q63 -39 96 -122l60 125h94l-139 -562q-8 -35 -13 -63q-4 -25 -4 -29q0 -43 29 -67q27 -25 78 -25q53 0 106 21q55 22 105 61q96 76 151 205q53 125 54 282 q0 252 -197 416q-199 164 -510 164q-175 0 -319 -49q-147 -51 -263 -150q-152 -129 -223 -291q-74 -166 -74 -362q0 -178 60 -305q59 -129 184 -232q100 -82 244 -129q137 -45 301 -45q170 0 334 49q166 49 301 144l39 -55q-147 -111 -311 -166.5t-343 -55.5q-188 0 -348 47 q-156 45 -274 138q-156 119 -229.5 274.5t-73.5 360.5zM702 444q0 -113 55.5 -174t151.5 -61q104 0 189 72q86 72 112 188l62 248q-18 94 -76 145q-59 53 -139 53q-152 0 -254 -133q-101 -131 -101 -338z" />
<glyph unicode="A" horiz-adv-x="1222" d="M-158 0l791 1458h221l287 -1458h-144l-88 453h-667l-244 -453h-156zM313 586h570l-146 770z" />
<glyph unicode="B" horiz-adv-x="1083" d="M-10 0l282 1456h375q180 0 285 -92q102 -90 102 -254q0 -121 -63 -209q-65 -89 -191 -147q90 -45 139.5 -129t49.5 -193q0 -102 -45 -190t-127 -152q-61 -47 -150 -70q-80 -20 -250 -20h-407zM156 131h250q221 0 313 74t92 246q0 131 -86 184q-88 53 -305 53 q-10 0 -137 -4h-19zM291 825l76 -6q25 -2 77 -2q215 0 324 74q106 74 106 225q0 119 -83 168q-86 51 -283 51q-8 0 -115 -4h-6z" />
<glyph unicode="C" horiz-adv-x="1538" d="M51 627q0 184 58 338q59 158 163 266q123 125 267 188q145 63 315 64q268 0 451 -133q178 -129 231 -371h-158q-53 180 -184 274.5t-326 94.5q-135 0 -253.5 -49.5t-211.5 -141.5q-95 -95 -147 -227q-51 -129 -51 -277q0 -258 143 -403q143 -147 389 -148q176 0 317.5 80 t239.5 238h166q-100 -215 -293 -332q-190 -117 -440 -117q-309 0 -491 181q-185 180 -185 475z" />
<glyph unicode="D" horiz-adv-x="1359" d="M-18 0l278 1456h358q319 0 495.5 -166t176.5 -467q0 -373 -227 -598q-229 -225 -606 -225h-475zM145 131h304q311 0 503 188q190 188 191 496q0 250 -131 379q-135 131 -383 131h-254z" />
<glyph unicode="E" horiz-adv-x="1026" d="M-8 0l280 1456h748l-25 -135h-606l-100 -518h604l-25 -133h-606l-104 -537h606l-27 -133h-745z" />
<glyph unicode="F" horiz-adv-x="989" d="M-8 0l280 1456h748l-25 -135h-606l-100 -518h604l-25 -133h-606l-129 -670h-141z" />
<glyph unicode="G" horiz-adv-x="1601" d="M55 637q0 184 58 336q59 158 163 264q125 125 267 184q147 61 321 62q274 0 441 -127q168 -129 227 -379h-152q-47 176 -176 272q-131 96 -315 97q-152 0 -274.5 -51.5t-223.5 -151.5q-90 -92 -139 -223q-49 -129 -49 -275q0 -240 145 -389q143 -147 383 -147 q219 0 391 122.5t236 323.5h-740l29 133h889q-6 -90 -39 -192q-33 -100 -82 -170q-117 -172 -295 -264.5t-387 -92.5q-313 0 -495.5 180.5t-182.5 487.5z" />
<glyph unicode="H" horiz-adv-x="1249" d="M-10 0l282 1456h140l-125 -651h708l127 651h140l-283 -1456h-139l129 672h-709l-131 -672h-139z" />
<glyph unicode="I" horiz-adv-x="411" d="M-4 0l283 1456h141l-283 -1456h-141z" />
<glyph unicode="J" horiz-adv-x="866" d="M-106 291v26q0 4 1 8.5t1 6.5h139v-17q0 -102 55 -157q53 -53 156 -54q135 0 209 95q72 92 127 379l170 878h139l-193 -1020q-47 -246 -155 -354q-111 -111 -299 -111q-156 0 -254 88q-96 87 -96 232z" />
<glyph unicode="K" horiz-adv-x="1013" d="M-10 0l282 1456h140l-150 -778l731 778h181l-654 -690l406 -766h-158l-354 647l-201 -203l-84 -444h-139z" />
<glyph unicode="L" horiz-adv-x="843" d="M-8 0l280 1456h140l-254 -1323h606l-27 -133h-745z" />
<glyph unicode="M" horiz-adv-x="1800" d="M-14 0l282 1456h197l317 -1343l793 1343h242l-283 -1456h-148l265 1327l-793 -1327h-180l-303 1286l-250 -1286h-139z" />
<glyph unicode="N" horiz-adv-x="1425" d="M-10 0l282 1456h154l629 -1257l239 1257h142l-283 -1456h-152l-628 1257l-244 -1257h-139z" />
<glyph unicode="O" horiz-adv-x="1601" d="M57 633q0 195 61.5 354.5t182.5 274.5q117 113 260.5 168t317.5 55q303 0 485 -182q180 -180 180 -486q0 -379 -227 -612.5t-596 -233.5q-303 0 -483.5 180.5t-180.5 481.5zM205 635q0 -240 143.5 -383t380.5 -143q293 0 481 198q186 195 187 512q0 242 -143.5 385.5 t-383.5 143.5q-129 0 -241 -43q-106 -41 -207 -131q-106 -98 -162 -236q-55 -139 -55 -303z" />
<glyph unicode="P" horiz-adv-x="1126" d="M-12 0l284 1456h316q132 0 209 -18q76 -18 133 -58q86 -57 127 -143q45 -94 45 -195q0 -223 -152 -350q-150 -125 -428 -125h-280l-111 -567h-143zM268 700h230q129 0 198 13q63 10 115 45q63 43 100 121q39 84 39 172q0 145 -88 209q-86 61 -297 61h-178z" />
<glyph unicode="Q" horiz-adv-x="1601" d="M57 635q0 193 61.5 352.5t182.5 274.5q119 113 262 168q145 55 316 55q303 0 485 -182q180 -180 180 -488q0 -190 -59 -346q-59 -158 -174 -272q37 -20 90 -35q43 -12 84 -12q6 0 16 1t15 1q8 0 28 4l-18 -111q-10 -2 -31 -2q-4 0 -18.5 -1t-26.5 -1q-68 0 -135 20 q-63 18 -109 56q-104 -74 -219 -111q-106 -35 -252 -35q-313 0 -495.5 180.5t-182.5 483.5zM205 655q0 -23 4 -76t10 -79q115 43 199 59q92 18 174 19q166 0 315.5 -72t282.5 -217q101 92 153 227q53 137 54 303q0 244 -143.5 385.5t-383.5 141.5q-164 0 -301 -70 q-139 -72 -231 -197q-63 -88 -98 -198.5t-35 -225.5zM254 387q70 -141 190.5 -211t296.5 -70q96 0 179 27q100 33 174 80q-131 131 -250 188q-117 57 -258 58q-74 0 -156 -19q-90 -20 -176 -53z" />
<glyph unicode="R" horiz-adv-x="1202" d="M-12 0l282 1456h344q283 0 416 -106q137 -109 137 -324q0 -197 -131 -326q-131 -127 -366 -155l299 -545h-170l-342 662h47q244 0 379 98q137 100 137 274q0 72 -24.5 127.5t-75.5 93.5q-53 41 -127 56q-82 16 -265 16h-141l-256 -1327h-143z" />
<glyph unicode="S" horiz-adv-x="976" d="M0 369v28q0 10 2 17h143q0 -2 -1 -7.5t-1 -7.5v-22q0 -125 76 -199t203 -74q125 0 209 84t84 205q0 86 -43 147.5t-168 137.5q-6 4 -21.5 13l-38.5 22q-147 80 -213 151q-41 47 -61 100.5t-20 116.5q0 166 122.5 283t296.5 117q170 0 271 -101q102 -102 102 -266v-33 q0 -4 -1 -10t-1 -8h-143q0 2 1 8t1 10v17q0 123 -61.5 188.5t-176.5 65.5q-117 0 -188 -70q-74 -70 -74 -176q0 -143 260 -291l74 -41q117 -68 178 -160q59 -90 59 -211q0 -178 -135 -307q-133 -127 -325 -127q-186 0 -299 109q-111 107 -111 291z" />
<glyph unicode="T" horiz-adv-x="784" d="M84 1331l25 125h819l-23 -125h-334l-256 -1331h-139l250 1331h-342z" />
<glyph unicode="U" horiz-adv-x="1185" d="M70 369q0 47 26 202v4l166 881h141l-184 -948q-4 -20 -8 -61t-4 -60q0 -139 76 -213q78 -74 215 -74q158 0 239 101q84 102 142 401l163 854h142l-166 -881q-59 -293 -125 -403q-63 -104 -164 -152q-104 -49 -248 -49q-195 0 -303 105t-108 293z" />
<glyph unicode="V" horiz-adv-x="1095" d="M72 1456h139l205 -1247l684 1247h151l-809 -1456h-125z" />
<glyph unicode="W" horiz-adv-x="1730" d="M96 1456h137l95 -1302l598 1302h123l88 -1304l608 1304h145l-688 -1456h-176l-84 1204l-553 -1204h-176z" />
<glyph unicode="X" horiz-adv-x="1052" d="M-178 0l643 764l-320 692h148l266 -579l483 579h166l-594 -708l336 -748h-149l-281 629l-530 -629h-168z" />
<glyph unicode="Y" horiz-adv-x="946" d="M61 1456h158l221 -799l523 799h159l-637 -977l-102 -479h-139l94 481z" />
<glyph unicode="Z" horiz-adv-x="1013" d="M-90 0l20 133l990 1198h-723l22 125h907l-26 -131l-989 -1204h768l-23 -121h-946z" />
<glyph unicode="[" horiz-adv-x="540" d="M-109 -397l359 1853h342l-25 -133h-198l-310 -1589h199l-27 -131h-340z" />
<glyph unicode="\" horiz-adv-x="567" d="M162 1485h119l141 -1675h-121z" />
<glyph unicode="]" horiz-adv-x="540" d="M-127 -401l25 129h198l310 1589h-201l26 139h340l-358 -1857h-340z" />
<glyph unicode="^" horiz-adv-x="2048" d="M422 901l532 557h140l530 -557h-143l-457 455l-459 -455h-143z" />
<glyph unicode="_" horiz-adv-x="1024" d="M0 -383h1024v-100h-1024v100z" />
<glyph unicode="`" horiz-adv-x="1024" d="M326 1597h147l223 -350h-88z" />
<glyph unicode="a" horiz-adv-x="1282" d="M55 502q0 133 47 252q45 115 138 207q84 84 190.5 126.5t228.5 42.5q158 0 271 -59q111 -59 176 -176l41 205h139l-211 -1100h-145l18 84q-90 -59 -176 -84q-88 -27 -190 -27q-231 0 -379 148t-148 381zM201 498q0 -178 108 -291q109 -111 287 -111q193 0 324 144 q133 145 133 358q0 184 -104.5 297t-278.5 113q-84 0 -156 -27q-74 -28 -135 -80q-86 -74 -131 -178q-47 -110 -47 -225z" />
<glyph unicode="b" horiz-adv-x="1282" d="M-4 0l287 1456h135l-88 -459q78 66 172 98.5t192 32.5q233 0 383 -149.5t150 -380.5q0 -133 -47 -252q-45 -115 -138 -207q-84 -84 -190.5 -127t-228.5 -43q-162 0 -271 58q-111 59 -176 176l-43 -203h-137zM229 502q0 -184 106.5 -297t278.5 -113q82 0 154 27 q74 28 135 80q82 70 131 178q49 106 49 225q0 180 -110.5 291t-286.5 111q-190 0 -323.5 -145.5t-133.5 -356.5z" />
<glyph unicode="c" d="M53 502q0 141 56 266q55 127 157 217q82 74 180 109q102 37 220 36q209 0 348 -114.5t176 -321.5h-148q-20 143 -124 228q-102 84 -254 84q-200 0 -332 -142q-133 -143 -133 -356q0 -188 106 -301q109 -115 281 -115q145 0 253.5 76t170.5 219h155q-74 -203 -223 -309 q-152 -109 -356 -109q-233 0 -383 150t-150 383z" />
<glyph unicode="d" horiz-adv-x="1282" d="M55 502q0 133 47 252q45 115 138 207q84 84 190.5 126.5t228.5 42.5q156 0 268.5 -59t184.5 -176l111 561h133l-287 -1456h-145l24 104q-82 -63 -176 -98q-90 -33 -194 -33q-227 0 -375 150q-148 152 -148 379zM201 498q0 -178 108 -291q109 -111 287 -111q193 0 324 144 q133 145 133 358q0 184 -104.5 297t-278.5 113q-84 0 -156 -27q-74 -28 -135 -80q-86 -74 -131 -178q-47 -110 -47 -225z" />
<glyph unicode="e" d="M45 502q0 141 55 266q55 127 158 217q82 72 182.5 108.5t216.5 36.5q240 0 383 -153q145 -156 146 -406v-39q0 -16 -2 -24h-994q0 -186 107 -299q109 -115 276 -115q141 0 246 68q106 70 170 205h160q-82 -201 -223 -297q-143 -98 -351 -99q-236 0 -383 150t-147 381z M207 629h837q-16 176 -120 278q-102 100 -271 101q-162 0 -282.5 -102.5t-163.5 -276.5z" />
<glyph unicode="f" horiz-adv-x="561" d="M78 0l190 985h-176l27 115h174q25 197 117 284q90 88 268 89h24l-24 -117h-21q-113 0 -164 -55.5t-69 -200.5h180l-24 -115h-183l-186 -985h-133z" />
<glyph unicode="g" horiz-adv-x="1282" d="M47 -68h123q34 -117 123 -178t227 -61q190 0 293 96q104 98 131 301q-74 -55 -170 -88q-86 -29 -192 -29q-231 0 -379 150q-147 152 -148 379q0 133 47 252q45 115 138 207q84 84 190.5 126.5t228.5 42.5q158 0 271 -59q111 -59 176 -176l39 195h139l-180 -922 q0 -2 -2 -13.5t-4 -19.5q-51 -268 -121 -375q-63 -96 -170 -143q-111 -49 -258 -49q-211 0 -344 96t-158 268zM201 498q0 -178 108 -291q109 -111 287 -111q193 0 324 144q133 145 133 358q0 184 -104.5 297t-278.5 113q-84 0 -156 -27q-74 -28 -135 -80q-86 -74 -131 -178 q-47 -110 -47 -225z" />
<glyph unicode="h" horiz-adv-x="1142" d="M-2 0l285 1456h131l-92 -461q80 63 165 95q82 31 164 30q180 0 289 -100q111 -102 111 -260q0 -59 -7 -127q-6 -61 -22 -133l-100 -500h-136l113 563q12 63 14 84q4 53 5 78q0 127 -70 196.5t-195 69.5q-168 0 -266 -98t-141 -307l-119 -586h-129z" />
<glyph unicode="i" horiz-adv-x="411" d="M27 0l215 1100h129l-213 -1100h-131zM262 1208l47 248h131l-47 -248h-131z" />
<glyph unicode="j" horiz-adv-x="411" d="M-326 -420l29 127q29 -4 41 -4q6 0 18.5 -1t18.5 -1q104 0 158 61q53 63 84 220l219 1118h129l-217 -1118q-45 -229 -129 -322q-82 -92 -244 -92q-10 0 -47 4t-60 8zM262 1208l47 248h131l-47 -248h-131z" />
<glyph unicode="k" horiz-adv-x="937" d="M25 0l282 1456h131l-186 -964l579 608h177l-504 -522l356 -578h-162l-297 473l-192 -199l-53 -274h-131z" />
<glyph unicode="l" horiz-adv-x="411" d="M25 0l282 1456h131l-282 -1456h-131z" />
<glyph unicode="m" horiz-adv-x="1927" d="M-2 0l213 1100h133l-22 -105q80 63 165 95q82 31 164 30q133 0 225.5 -53t145.5 -160q84 109 188 160q111 53 236 53q178 0 287 -100q111 -102 110 -260q0 -37 -8 -127q-6 -76 -20 -133l-101 -500h-135l113 563q12 57 14 84q4 53 4 78q0 127 -69.5 196.5t-194.5 69.5 q-164 0 -266 -98q-100 -98 -142 -307l-116 -586h-136l113 563q12 63 14 84q4 53 5 78q0 127 -70 196.5t-195 69.5q-168 0 -266 -98t-141 -307l-119 -586h-129z" />
<glyph unicode="n" horiz-adv-x="1142" d="M-2 0l213 1100h133l-22 -105q80 63 165 95q82 31 164 30q180 0 289 -100q111 -102 111 -260q0 -59 -7 -127q-6 -61 -22 -133l-100 -500h-136l113 563q12 63 14 84q4 53 5 78q0 127 -70 196.5t-195 69.5q-168 0 -266 -98t-141 -307l-119 -586h-129z" />
<glyph unicode="o" d="M45 504q0 145 55 268q57 127 158 213q76 68 186 111q98 39 213 39q231 0 383 -152q150 -150 150 -381q0 -127 -47 -246q-46 -117 -135 -209q-90 -90 -197 -133q-111 -45 -246 -45q-225 0 -372 152q-148 150 -148 383zM190 492q0 -170 109 -285t268 -115q88 0 162 27 q78 29 137 82q86 78 131 180q47 111 47 225q0 182 -110.5 293t-286.5 113q-194 0 -325 -148q-132 -145 -132 -372z" />
<glyph unicode="p" horiz-adv-x="1282" d="M-76 -356l287 1456h143l-26 -111q78 76 164 107q94 35 200 34q229 0 383 -149q150 -147 150 -381q0 -137 -47 -250q-51 -121 -140 -209q-80 -80 -188 -125q-104 -43 -229 -43q-160 0 -269 58q-113 59 -184 176l-111 -563h-133zM225 504q0 -186 107 -295 q109 -113 278 -113q84 0 156 27q74 28 135 80q86 74 131 178q47 111 47 225q0 178 -108 291q-106 111 -287 111q-193 0 -326 -145.5t-133 -358.5z" />
<glyph unicode="q" horiz-adv-x="1282" d="M55 502q0 133 47 252q45 115 138 207q84 84 190.5 126.5t228.5 42.5q158 0 271 -59q111 -59 176 -176l39 195h139l-285 -1446h-135l88 450q-82 -61 -176 -92q-92 -31 -192 -31q-233 0 -381 147.5t-148 383.5zM201 498q0 -178 108 -291q109 -111 287 -111q193 0 324 144 q133 145 133 358q0 184 -104.5 297t-278.5 113q-84 0 -156 -27q-74 -28 -135 -80q-86 -74 -131 -178q-47 -110 -47 -225z" />
<glyph unicode="r" horiz-adv-x="634" d="M-4 0l213 1100h129l-19 -90q63 61 146 92q80 31 184 31h31l-27 -136h-6q-160 0 -262 -86q-101 -86 -135 -258l-125 -653h-129z" />
<glyph unicode="s" horiz-adv-x="749" d="M18 274v25q0 10 2 14h132v-4q0 -92 51 -153q49 -57 131 -58q76 0 131 59.5t55 139.5q0 104 -166 215q-4 4 -6 4q-133 90 -178 156q-43 65 -43 153q0 129 86 219q86 88 215 89q119 0 195 -72q74 -70 73 -189v-28q0 -4 -1 -9.5t-1 -7.5h-129v13q0 4 1 9l1 5q0 68 -39 113 q-35 41 -102 41q-70 0 -117 -47.5t-47 -116.5q0 -89 172 -209l25 -17h2q201 -137 201 -292q0 -154 -97 -256q-94 -100 -246 -101q-129 0 -215 86t-86 219z" />
<glyph unicode="t" horiz-adv-x="571" d="M53 977l23 123h231l70 356h133l-70 -356h232l-25 -123h-231l-189 -977h-133l191 977h-232z" />
<glyph unicode="u" horiz-adv-x="1142" d="M76 332q0 39 8 129q6 72 20 133l105 506h133l-115 -572q-12 -63 -14 -84q-4 -53 -4 -77q0 -125 69.5 -195t194.5 -70q168 0 266.5 98.5t141.5 305.5l120 594h129l-212 -1100h-134l23 104q-86 -70 -162 -100q-80 -33 -170 -33q-180 0 -289 101q-110 100 -110 260z" />
<glyph unicode="v" horiz-adv-x="886" d="M8 1100h148l170 -924l499 924h156l-608 -1100h-144z" />
<glyph unicode="w" horiz-adv-x="1495" d="M25 1100h145l113 -914l440 914h141l133 -903l433 903h143l-533 -1100h-145l-129 891l-434 -891h-146z" />
<glyph unicode="x" horiz-adv-x="817" d="M-139 0l469 557l-262 543h147l203 -426l352 426h154l-449 -539l262 -561h-145l-207 444l-367 -444h-157z" />
<glyph unicode="y" horiz-adv-x="876" d="M-41 -356l277 456l-189 1000h127l158 -846l508 846h145l-881 -1456h-145z" />
<glyph unicode="z" horiz-adv-x="899" d="M-43 0l25 129l698 838h-535l27 133h713l-23 -119l-706 -848h608l-25 -133h-782z" />
<glyph unicode="{" horiz-adv-x="1024" d="M174 477v109h23q6 0 13 -1t9 -1q137 0 194.5 63.5t57.5 216.5v242q0 225 70 297q70 74 266 74h47v-107h-37q-132 0 -178 -49q-45 -47 -45 -205v-242q0 -169 -43 -239q-45 -74 -154 -105q109 -31 154 -104q43 -71 43 -240v-241q0 -158 45 -205q45 -49 170 -49q2 0 9 1 t13 1h23v-107h-47q-197 0 -266.5 72t-69.5 297v244q0 154 -57.5 217t-194.5 63q-2 0 -9 -1t-13 -1h-23z" />
<glyph unicode="|" horiz-adv-x="1024" d="M459 -483v2048h108v-2048h-108z" />
<glyph unicode="}" horiz-adv-x="1024" d="M172 -307h39q129 0 176 49q45 47 45 203v241q0 170 43 242t154 102q-111 31 -154 103t-43 241v242q0 160 -45 207q-47 49 -170 49q-2 0 -9 -1t-13 -1h-23v107h47q195 0 266 -74q70 -72 70 -297v-242q0 -154 57.5 -217t194.5 -63q2 0 9 1t13 1h23v-109h-23q-6 0 -13 1 t-9 1q-137 0 -194.5 -63.5t-57.5 -216.5v-244q0 -225 -69.5 -297t-266.5 -72h-47v107z" />
<glyph unicode="~" horiz-adv-x="1705" d="M178 471v113q100 70 203 108q95 37 184 37q102 0 273 -61q8 -2 16 -6q18 -6 33 -13q160 -59 256 -59q82 0 178 39q88 35 209 121v-113q-96 -68 -199 -107q-94 -37 -188 -36q-102 0 -260 57q-12 4 -18.5 7t-10.5 3q-8 4 -16 6q-172 63 -273 64q-84 0 -176 -37 q-80 -31 -211 -123z" />
<glyph unicode="&#xa1;" horiz-adv-x="587" d="M80 0l209 1081h143l-209 -1081h-143zM317 1229l45 227h144l-45 -227h-144z" />
<glyph unicode="&#xa2;" horiz-adv-x="1155" d="M33 678q0 135 49 258q47 117 143 213q80 76 174 113q95 37 215 36h11l41 209h114l-41 -219q151 -34 246 -141q94 -106 125 -277h-139q-20 137 -121 226q-98 86 -240 86q-186 0 -311 -144q-127 -145 -127 -354q0 -188 100.5 -301t266.5 -113q139 0 241 76q104 78 160 217 h147q-70 -205 -213 -311q-141 -104 -356 -105l-45 -227h-115l45 242q-174 53 -272 190q-98 140 -98 326z" />
<glyph unicode="&#xa3;" horiz-adv-x="1155" d="M-72 0l25 135h211q98 82 143 162q45 78 45 168q0 39 -14 106q-10 53 -41 129h-238l27 131h168q-20 70 -29 117q-10 61 -10 105q0 193 127 311q131 121 330 121q209 0 332 -111q121 -109 131 -315h-138q-8 141 -94 217q-84 76 -231 76q-143 0 -233.5 -90.5t-90.5 -231.5 q0 -41 12 -90q8 -31 39 -109h492l-25 -131h-432q25 -61 39 -127q14 -68 14 -106q0 -78 -36 -162q-37 -82 -113 -170h231q166 0 262 96q95 95 117 283h123q-6 -96 -33 -184q-25 -78 -71 -142q-78 -102 -180.5 -145t-299.5 -43h-559z" />
<glyph unicode="&#xa4;" d="M90 420l205 207q-47 61 -68 125q-23 68 -22.5 133t22.5 133q23 66 68 127l-205 205l66 65l204 -205q61 47 125 68q68 23 135.5 22.5t139.5 -22.5q61 -20 123 -68l204 205l66 -65l-205 -205q43 -59 66 -125q23 -68 22 -135q0 -66 -22 -133q-23 -66 -66 -125l205 -207 l-66 -66l-204 205q-57 -45 -125 -67.5t-137 -22.5q-68 0 -136 23q-63 20 -125 67l-204 -205zM297 887q0 -133 96 -229.5t230 -96.5q131 0 227 96q94 94 94 230q0 133 -94 227t-227 94q-135 0 -230 -94q-96 -96 -96 -227z" />
<glyph unicode="&#xa5;" horiz-adv-x="1155" d="M80 557l22 111h318l-53 168h-232l21 110h174l-162 502h156l225 -768l514 768h160l-349 -502h177l-23 -110h-231l-115 -168h313l-20 -111h-369l-119 -557h-139l109 557h-377z" />
<glyph unicode="&#xa6;" horiz-adv-x="1024" d="M459 -350v758h108v-758h-108zM459 674v758h108v-758h-108z" />
<glyph unicode="&#xa7;" horiz-adv-x="1024" d="M55 113h148v-7q0 -98 49 -149q49 -53 137 -53q84 0 139.5 49t55.5 121q0 61 -33 114.5t-105 112.5l-170 141q-82 68 -126 142q-43 72 -44 139q0 90 52 162q49 68 155 127q-22 40 -30 80q-10 45 -11 79q0 139 94.5 227.5t245.5 88.5q147 0 228 -78q82 -80 82 -217v-18 q0 -4 -1 -10.5t-1 -8.5h-138v21q0 84 -47 137q-45 51 -125 51q-82 0 -133 -45t-51 -119q0 -51 29 -94q31 -47 127 -125l153 -127q98 -84 137 -147q41 -70 41 -142q0 -88 -57 -168q-53 -76 -160 -125q23 -41 37 -88q12 -43 12 -92q0 -135 -100 -225q-96 -88 -252 -88 q-160 0 -248 88q-90 90 -90 246zM252 758q0 -43 27 -84q23 -35 110 -117l227 -205q68 39 109 92q39 51 39 107q0 70 -107 162q-4 4 -9.5 7.5t-8.5 6.5l-248 215q-66 -35 -102.5 -84t-36.5 -100z" />
<glyph unicode="&#xa8;" horiz-adv-x="1024" d="M332 1294l33 164h143l-35 -164h-141zM700 1294l35 164h142l-35 -164h-142z" />
<glyph unicode="&#xa9;" horiz-adv-x="1705" d="M121 723q0 141 57 281q55 135 162 241q100 102 231 158q127 53 281 53q147 0 282.5 -55t239.5 -160q98 -98 156 -235q55 -132 55 -283q0 -145 -53 -281q-51 -131 -158 -233q-106 -106 -241 -162q-139 -57 -281 -57q-147 0 -279 55q-135 57 -237 162 q-104 104 -159.5 237.5t-55.5 278.5zM201 723q0 -131 49 -248q47 -111 143 -211q100 -96 211 -143q117 -49 248 -49q125 0 250 51t217 143q94 92 139 205q47 119 47 252q0 132 -49 252q-49 119 -139 209q-94 94 -213 143q-120 49 -252 49q-133 0 -250 -49t-207 -139 q-94 -94 -143 -215q-51 -125 -51 -250zM469 727q0 205 106 326q109 123 285 123q133 0 227 -72q90 -70 103 -189h-117q-18 80 -76 123q-61 45 -141 45q-123 0 -190 -96q-68 -94 -68 -266q0 -162 70 -260q68 -94 188 -94q88 0 152 51q61 49 77 137h115q-12 -127 -108 -205 q-98 -80 -242 -80q-178 0 -279 121q-102 125 -102 336z" />
<glyph unicode="&#xaa;" horiz-adv-x="962" d="M41 1038q0 92 37 176t102 144q59 57 142 88q80 31 174 31q117 0 202 -41q82 -39 131 -123l31 143h105l-158 -770h-109l13 59q-72 -41 -131 -57q-76 -20 -144 -20q-174 0 -284.5 104t-110.5 266zM152 1034q0 -125 81.5 -202.5t212.5 -77.5q143 0 244 100t101 250 q0 129 -80 209q-78 78 -209 78q-61 0 -117 -19q-53 -18 -100 -55q-65 -49 -99 -123q-34 -76 -34 -160z" />
<glyph unicode="&#xab;" horiz-adv-x="933" d="M82 551l280 317h132l-275 -317l205 -320h-131zM385 551l281 317h131l-275 -317l205 -320h-131z" />
<glyph unicode="&#xac;" horiz-adv-x="1705" d="M254 758v100h1198v-502h-96v402h-1102z" />
<glyph unicode="&#xad;" horiz-adv-x="657" d="M84 483l25 133h471l-25 -133h-471z" />
<glyph unicode="&#xae;" horiz-adv-x="1705" d="M121 723q0 141 57 281q55 135 162 241q100 102 231 158q127 53 281 53q152 0 285 -55t237 -160q98 -98 156 -235q55 -132 55 -283q0 -145 -53 -281q-51 -131 -158 -233q-106 -106 -241 -162q-139 -57 -281 -57q-147 0 -279 55q-135 57 -237 162q-104 104 -159.5 237.5 t-55.5 278.5zM201 723q0 -131 49 -248q47 -111 143 -211q100 -96 211 -143q117 -49 248 -49q125 0 250 51t217 143q94 92 139 205q47 119 47 250q0 135 -49 254q-47 117 -137 209q-100 96 -213 143q-119 49 -254 49q-129 0 -246 -49q-121 -51 -209 -139q-98 -100 -145 -217 q-51 -125 -51 -248zM565 313v844h309q178 0 263 -57q86 -59 86 -176q0 -90 -53.5 -149.5t-145.5 -72.5l188 -389h-145l-178 371h-197v-371h-127zM692 768h158q135 0 188.5 33t53.5 114.5t-58 118.5q-59 37 -184 37h-158v-303z" />
<glyph unicode="&#xaf;" horiz-adv-x="1024" d="M332 1348l24 114h512l-24 -114h-512z" />
<glyph unicode="&#xb0;" horiz-adv-x="673" d="M59 1173.5q0 116.5 82 196.5q86 82 197 82q115 0 194 -82q82 -86 82 -196q0 -115 -81.5 -197t-196.5 -82t-197 82q-80 80 -80 196.5zM129 1173.5q0 -86.5 61 -147.5q59 -59 147.5 -59t148 59t59.5 147.5t-60 147.5q-61 61 -147 61t-147.5 -61t-61.5 -147.5z" />
<glyph unicode="&#xb1;" horiz-adv-x="1705" d="M254 51v99h1198v-99h-1198zM254 723v98h551v348h98v-348h549v-98h-549v-348h-98v348h-551z" />
<glyph unicode="&#xb2;" horiz-adv-x="763" d="M4 582l16 71l285 226q16 12 49 39q264 206 264 325q0 68 -47 109t-125 41q-94 0 -151 -56q-59 -55 -80 -168h-90q14 143 98 224q83 80 215 80q121 0 195 -66q76 -68 76 -170q0 -76 -52 -147q-49 -70 -206 -199l-299 -238h481l-15 -71h-614z" />
<glyph unicode="&#xb3;" horiz-adv-x="763" d="M41 813v35h90l-1 -4q-1 -4 -1 -8v-11q0 -84 55.5 -133t151.5 -49q102 0 168 55q63 55 63 146q0 84 -59 131q-57 45 -178 51l16 76h10q106 0 170 45t64 121q0 59 -45 96t-121 37q-82 0 -127 -39q-47 -41 -66 -119h-88q27 117 97 174q68 55 188 56q117 0 184 -60 q70 -61 70 -158q0 -78 -45 -129t-133 -71q80 -25 121 -78t41 -135q0 -121 -93 -201q-90 -78 -235 -78q-139 0 -217 66q-80 67 -80 184z" />
<glyph unicode="&#xb4;" horiz-adv-x="1024" d="M453 1247l245 350h146l-299 -350h-92z" />
<glyph unicode="&#xb5;" horiz-adv-x="1107" d="M-111 -426l316 1491h139l-125 -592q-9 -40 -12 -74q-4 -45 -4 -65q0 -117 57 -180.5t168 -63.5q127 0 215 107q90 109 133 311l121 557h139l-164 -770q-16 -74 -18 -84q-4 -20 -4 -49q0 -35 16 -49q20 -16 52 -17h16q4 0 10 1t10 1l-20 -110q-12 -4 -41 -8q-14 -2 -45 -3 q-70 0 -103 35q-35 39 -34 111v14q-43 -76 -119 -119t-180 -43q-94 0 -160 39q-70 41 -109 117l-114 -557h-140z" />
<glyph unicode="&#xb6;" horiz-adv-x="1024" d="M84 1130q0 156 108.5 252.5t284.5 96.5h463v-70h-127v-1409h-82v1409h-186v-1409h-84v782q-176 10 -275 103q-102 95 -102 245z" />
<glyph unicode="&#xb7;" horiz-adv-x="577" d="M199 727q0 39 26 66q29 29 66 28.5t65.5 -29t28.5 -65.5q0 -39 -26.5 -65.5t-67.5 -26.5q-39 0 -65.5 26.5t-26.5 65.5z" />
<glyph unicode="&#xb8;" horiz-adv-x="1024" d="M104 -416l27 78q80 -23 121 -29q61 -10 92 -10q66 0 105 29q35 27 34 82q0 47 -38.5 67.5t-131.5 20.5h-30l61 178h64l-37 -111h20q100 0 152 -39q53 -41 53 -116q0 -90 -64 -144q-59 -51 -174 -51q-66 0 -116 10q-46 8 -138 35z" />
<glyph unicode="&#xb9;" horiz-adv-x="763" d="M131 1075l385 381h102l-188 -874h-90l154 735l-297 -295z" />
<glyph unicode="&#xba;" horiz-adv-x="931" d="M35 1038q0 100 41 189q39 86 119 149q57 47 139 78q74 27 160 27q174 0 286.5 -106.5t112.5 -266.5q0 -86 -35 -172q-33 -82 -102 -148q-63 -63 -146 -92q-86 -31 -186 -30q-166 0 -279 106q-110 104 -110 266zM143 1030q0 -119 80 -198.5t203 -79.5q65 0 123 18 q53 16 100 57q57 45 99 125q37 74 36 158q0 129 -82 205q-84 78 -217 80q-147 0 -243 -103q-99 -104 -99 -262z" />
<glyph unicode="&#xbb;" horiz-adv-x="933" d="M96 236l271 325l-203 303h139l197 -303l-267 -325h-137zM383 236l272 325l-202 303h139l194 -303l-264 -325h-139z" />
<glyph unicode="&#xbc;" horiz-adv-x="1798" d="M125 1100l367 354h96l-178 -815h-86l147 686l-285 -274zM387 -31l905 1516h119l-903 -1516h-121zM1065 154l18 90l555 571h109l-127 -586h115l-17 -75h-114l-35 -154h-88l32 154h-448zM1178 229h352l104 465z" />
<glyph unicode="&#xbd;" horiz-adv-x="1798" d="M125 1100l367 354h96l-178 -815h-86l147 686l-285 -274zM387 -31l905 1516h119l-903 -1516h-121zM1075 0l15 66l272 210q6 6 10 9.5t12.5 8.5t18.5 13q258 197 258 309q0 63 -43 103q-41 39 -119 39q-94 0 -147.5 -51.5t-75.5 -157.5h-86q16 135 94 207q82 76 205 75 q109 0 184 -63q74 -61 74 -158q0 -72 -47 -137q-51 -70 -199 -184l-284 -223h458l-14 -66h-586z" />
<glyph unicode="&#xbe;" horiz-adv-x="1798" d="M39 856v21q0 2 1 6t1 6h84v-12q0 -2 -1 -7l-1 -4q0 -78 53 -125q51 -45 146 -45q100 0 159 52q61 52 62 135q0 80 -55.5 123t-172.5 49l15 69h10q100 0 161.5 43t61.5 113q0 55 -43 90q-41 33 -114 33q-78 0 -121 -35q-45 -37 -64 -111h-84q27 109 92 162q63 51 179 51 q109 0 176 -55t67 -147q0 -72 -45 -121q-43 -47 -127 -66q74 -25 117 -75q39 -47 39 -125q0 -111 -88 -184.5t-223 -73.5q-131 0 -209 61q-76 61 -76 172zM387 -31l905 1516h119l-903 -1516h-121zM1065 154l18 90l555 571h109l-127 -586h115l-17 -75h-114l-35 -154h-88 l32 154h-448zM1178 229h352l104 465z" />
<glyph unicode="&#xbf;" horiz-adv-x="946" d="M-12 334q0 72 20 131q23 66 60 110q47 61 165 150q55 39 68 51q78 66 121 139.5t55 169.5h141q-14 -125 -61 -217q-47 -96 -131 -163q-4 -4 -115 -91q-72 -55 -90 -77q-45 -55 -61 -97q-18 -47 -19 -100q0 -106 72 -174q70 -68 182 -68q139 0 230 84q94 88 125 236h143 q-41 -213 -172 -330t-328 -117q-188 0 -296.5 98.5t-108.5 264.5zM506 1227l45 229h139l-43 -229h-141z" />
<glyph unicode="&#xc0;" horiz-adv-x="1222" d="M-158 0l791 1458h221l287 -1458h-144l-88 453h-667l-244 -453h-156zM313 586h570l-146 770zM512 1947h147l223 -350h-88z" />
<glyph unicode="&#xc1;" horiz-adv-x="1222" d="M-158 0l791 1458h221l287 -1458h-144l-88 453h-667l-244 -453h-156zM313 586h570l-146 770zM639 1597l245 350h146l-299 -350h-92z" />
<glyph unicode="&#xc2;" horiz-adv-x="1222" d="M-158 0l791 1458h221l287 -1458h-144l-88 453h-667l-244 -453h-156zM313 586h570l-146 770zM487 1597l266 350h131l154 -350h-80l-145 250l-236 -250h-90z" />
<glyph unicode="&#xc3;" horiz-adv-x="1222" d="M-158 0l791 1458h221l287 -1458h-144l-88 453h-667l-244 -453h-156zM313 586h570l-146 770zM505 1650q37 101 80 142q45 41 109 41q20 0 29 -2q4 -2 13 -4t13 -2l94 -29q6 0 11 -2q37 -10 47 -10q34 0 55.5 18t36.5 55h80q-35 -100 -78 -139q-47 -43 -113 -43 q-16 0 -26 2q-4 0 -17.5 4t-23.5 6l-94 29q-18 6 -27 6q-4 0 -10 1t-9 1q-31 0 -53 -18t-37 -56h-80z" />
<glyph unicode="&#xc4;" horiz-adv-x="1222" d="M-158 0l791 1458h221l287 -1458h-144l-88 453h-667l-244 -453h-156zM313 586h570l-146 770zM518 1644l33 164h143l-35 -164h-141zM886 1644l35 164h142l-35 -164h-142z" />
<glyph unicode="&#xc5;" horiz-adv-x="1222" d="M-158 0l791 1458h221l287 -1458h-144l-88 453h-667l-244 -453h-156zM313 586h570l-146 770zM530 1743q0 96 68 163.5t164 67.5q94 0 161.5 -67.5t67.5 -163.5q0 -94 -65 -164q-63 -66 -164 -66q-98 0 -164 66q-68 68 -68 164zM616 1743q0 -57 43 -100.5t101 -43.5 q61 0 102 41q43 43 43 102.5t-43 102.5t-102 43q-55 0 -98.5 -43t-45.5 -102z" />
<glyph unicode="&#xc6;" horiz-adv-x="1781" d="M-158 0l1010 1456h915l-26 -135h-606l-101 -518h606l-26 -133h-604l-105 -537h604l-24 -133h-748l88 453h-518l-309 -453h-156zM397 586h455l137 735h-80z" />
<glyph unicode="&#xc7;" horiz-adv-x="1538" d="M51 627q0 184 58 338q59 158 163 266q123 125 267 188q145 63 315 64q268 0 451 -133q178 -129 231 -371h-158q-53 180 -184 274.5t-326 94.5q-135 0 -253.5 -49.5t-211.5 -141.5q-95 -95 -147 -227q-51 -129 -51 -277q0 -258 143 -403q143 -147 389 -148q176 0 317.5 80 t239.5 238h166q-100 -215 -293 -332q-190 -117 -440 -117q-309 0 -491 181q-185 180 -185 475zM428 -416l27 78q80 -23 121 -29q61 -10 92 -10q66 0 105 29q35 27 34 82q0 47 -38.5 67.5t-131.5 20.5h-30l61 178h64l-37 -111h20q100 0 152 -39q53 -41 53 -116 q0 -90 -64 -144q-59 -51 -174 -51q-66 0 -116 10q-46 8 -138 35z" />
<glyph unicode="&#xc8;" horiz-adv-x="1026" d="M-8 0l280 1456h748l-25 -135h-606l-100 -518h604l-25 -133h-606l-104 -537h606l-27 -133h-745zM402 1947h147l223 -350h-88z" />
<glyph unicode="&#xc9;" horiz-adv-x="1026" d="M-8 0l280 1456h748l-25 -135h-606l-100 -518h604l-25 -133h-606l-104 -537h606l-27 -133h-745zM529 1597l245 350h146l-299 -350h-92z" />
<glyph unicode="&#xca;" horiz-adv-x="1026" d="M-8 0l280 1456h748l-25 -135h-606l-100 -518h604l-25 -133h-606l-104 -537h606l-27 -133h-745zM377 1597l266 350h131l154 -350h-80l-145 250l-236 -250h-90z" />
<glyph unicode="&#xcb;" horiz-adv-x="1026" d="M-8 0l280 1456h748l-25 -135h-606l-100 -518h604l-25 -133h-606l-104 -537h606l-27 -133h-745zM408 1644l33 164h143l-35 -164h-141zM776 1644l35 164h142l-35 -164h-142z" />
<glyph unicode="&#xcc;" horiz-adv-x="411" d="M-4 0l283 1456h141l-283 -1456h-141zM123 1947h147l223 -350h-88z" />
<glyph unicode="&#xcd;" horiz-adv-x="411" d="M-4 0l283 1456h141l-283 -1456h-141zM250 1597l245 350h146l-299 -350h-92z" />
<glyph unicode="&#xce;" horiz-adv-x="411" d="M-4 0l283 1456h141l-283 -1456h-141zM98 1597l266 350h131l154 -350h-80l-145 250l-236 -250h-90z" />
<glyph unicode="&#xcf;" horiz-adv-x="411" d="M-4 0l283 1456h141l-283 -1456h-141zM129 1644l33 164h143l-35 -164h-141zM497 1644l35 164h142l-35 -164h-142z" />
<glyph unicode="&#xd0;" horiz-adv-x="1378" d="M-2 674l25 127h131l127 655h358q319 0 494 -166q176 -166 176 -467q0 -373 -228 -598q-229 -225 -606 -225h-473l127 674h-131zM164 131h303q311 0 504 188q190 188 190 496q0 250 -131 379q-135 131 -381 131h-256l-100 -524h342l-23 -127h-344z" />
<glyph unicode="&#xd1;" horiz-adv-x="1425" d="M-10 0l282 1456h154l629 -1257l239 1257h142l-283 -1456h-152l-628 1257l-244 -1257h-139zM616 1650q37 101 80 142q45 41 109 41q20 0 29 -2q4 -2 13 -4t13 -2l94 -29q6 0 11 -2q37 -10 47 -10q34 0 55.5 18t36.5 55h80q-35 -100 -78 -139q-47 -43 -113 -43q-16 0 -26 2 q-4 0 -17.5 4t-23.5 6l-94 29q-18 6 -27 6q-4 0 -10 1t-9 1q-31 0 -53 -18t-37 -56h-80z" />
<glyph unicode="&#xd2;" horiz-adv-x="1601" d="M57 633q0 195 61.5 354.5t182.5 274.5q117 113 260.5 168t317.5 55q303 0 485 -182q180 -180 180 -486q0 -379 -227 -612.5t-596 -233.5q-303 0 -483.5 180.5t-180.5 481.5zM205 635q0 -240 143.5 -383t380.5 -143q293 0 481 198q186 195 187 512q0 242 -143.5 385.5 t-383.5 143.5q-129 0 -241 -43q-106 -41 -207 -131q-106 -98 -162 -236q-55 -139 -55 -303zM662 1947h147l223 -350h-88z" />
<glyph unicode="&#xd3;" horiz-adv-x="1601" d="M57 633q0 195 61.5 354.5t182.5 274.5q117 113 260.5 168t317.5 55q303 0 485 -182q180 -180 180 -486q0 -379 -227 -612.5t-596 -233.5q-303 0 -483.5 180.5t-180.5 481.5zM205 635q0 -240 143.5 -383t380.5 -143q293 0 481 198q186 195 187 512q0 242 -143.5 385.5 t-383.5 143.5q-129 0 -241 -43q-106 -41 -207 -131q-106 -98 -162 -236q-55 -139 -55 -303zM789 1597l245 350h146l-299 -350h-92z" />
<glyph unicode="&#xd4;" horiz-adv-x="1601" d="M57 633q0 195 61.5 354.5t182.5 274.5q117 113 260.5 168t317.5 55q303 0 485 -182q180 -180 180 -486q0 -379 -227 -612.5t-596 -233.5q-303 0 -483.5 180.5t-180.5 481.5zM205 635q0 -240 143.5 -383t380.5 -143q293 0 481 198q186 195 187 512q0 242 -143.5 385.5 t-383.5 143.5q-129 0 -241 -43q-106 -41 -207 -131q-106 -98 -162 -236q-55 -139 -55 -303zM637 1597l266 350h131l154 -350h-80l-145 250l-236 -250h-90z" />
<glyph unicode="&#xd5;" horiz-adv-x="1601" d="M57 633q0 195 61.5 354.5t182.5 274.5q117 113 260.5 168t317.5 55q303 0 485 -182q180 -180 180 -486q0 -379 -227 -612.5t-596 -233.5q-303 0 -483.5 180.5t-180.5 481.5zM205 635q0 -240 143.5 -383t380.5 -143q293 0 481 198q186 195 187 512q0 242 -143.5 385.5 t-383.5 143.5q-129 0 -241 -43q-106 -41 -207 -131q-106 -98 -162 -236q-55 -139 -55 -303zM655 1650q37 101 80 142q45 41 109 41q20 0 29 -2q4 -2 13 -4t13 -2l94 -29q6 0 11 -2q37 -10 47 -10q34 0 55.5 18t36.5 55h80q-35 -100 -78 -139q-47 -43 -113 -43q-16 0 -26 2 q-4 0 -17.5 4t-23.5 6l-94 29q-18 6 -27 6q-4 0 -10 1t-9 1q-31 0 -53 -18t-37 -56h-80z" />
<glyph unicode="&#xd6;" horiz-adv-x="1601" d="M57 633q0 195 61.5 354.5t182.5 274.5q117 113 260.5 168t317.5 55q303 0 485 -182q180 -180 180 -486q0 -379 -227 -612.5t-596 -233.5q-303 0 -483.5 180.5t-180.5 481.5zM205 635q0 -240 143.5 -383t380.5 -143q293 0 481 198q186 195 187 512q0 242 -143.5 385.5 t-383.5 143.5q-129 0 -241 -43q-106 -41 -207 -131q-106 -98 -162 -236q-55 -139 -55 -303zM668 1644l33 164h143l-35 -164h-141zM1036 1644l35 164h142l-35 -164h-142z" />
<glyph unicode="&#xd7;" horiz-adv-x="1705" d="M305 129l481 481l-481 482l70 69l481 -481l481 481l70 -69l-481 -482l481 -481l-70 -70l-481 482l-481 -482z" />
<glyph unicode="&#xd8;" horiz-adv-x="1601" d="M14 -18l193 206q-80 98 -113 203q-37 114 -37 252q0 141 37 270q35 123 113 236q113 162 285 248q176 88 378 88q133 0 248 -35q106 -33 195 -104l172 180l88 -78l-178 -184q78 -102 112 -209q37 -111 37 -242q0 -182 -63 -348q-63 -164 -178 -272q-109 -104 -261 -164 q-147 -57 -317 -58q-141 0 -246 33q-109 35 -186 102l-193 -202zM205 627q0 -94 26 -185q23 -80 78 -149l899 946q-63 53 -149 82q-82 27 -193 27q-289 0 -475 -203q-186 -201 -186 -518zM393 211q61 -51 146 -76q92 -27 192 -26q132 0 246 43q115 43 205 127 q106 96 161 233q53 131 54 305q0 108 -25 191q-25 82 -78 147z" />
<glyph unicode="&#xd9;" horiz-adv-x="1185" d="M70 369q0 47 26 202v4l166 881h141l-184 -948q-4 -20 -8 -61t-4 -60q0 -139 76 -213q78 -74 215 -74q158 0 239 101q84 102 142 401l163 854h142l-166 -881q-59 -293 -125 -403q-63 -104 -164 -152q-104 -49 -248 -49q-195 0 -303 105t-108 293zM488 1947h147l223 -350 h-88z" />
<glyph unicode="&#xda;" horiz-adv-x="1185" d="M70 369q0 47 26 202v4l166 881h141l-184 -948q-4 -20 -8 -61t-4 -60q0 -139 76 -213q78 -74 215 -74q158 0 239 101q84 102 142 401l163 854h142l-166 -881q-59 -293 -125 -403q-63 -104 -164 -152q-104 -49 -248 -49q-195 0 -303 105t-108 293zM615 1597l245 350h146 l-299 -350h-92z" />
<glyph unicode="&#xdb;" horiz-adv-x="1185" d="M70 369q0 47 26 202v4l166 881h141l-184 -948q-4 -20 -8 -61t-4 -60q0 -139 76 -213q78 -74 215 -74q158 0 239 101q84 102 142 401l163 854h142l-166 -881q-59 -293 -125 -403q-63 -104 -164 -152q-104 -49 -248 -49q-195 0 -303 105t-108 293zM463 1597l266 350h131 l154 -350h-80l-145 250l-236 -250h-90z" />
<glyph unicode="&#xdc;" horiz-adv-x="1185" d="M70 369q0 47 26 202v4l166 881h141l-184 -948q-4 -20 -8 -61t-4 -60q0 -139 76 -213q78 -74 215 -74q158 0 239 101q84 102 142 401l163 854h142l-166 -881q-59 -293 -125 -403q-63 -104 -164 -152q-104 -49 -248 -49q-195 0 -303 105t-108 293zM494 1644l33 164h143 l-35 -164h-141zM862 1644l35 164h142l-35 -164h-142z" />
<glyph unicode="&#xdd;" horiz-adv-x="946" d="M61 1456h158l221 -799l523 799h159l-637 -977l-102 -479h-139l94 481zM519 1597l245 350h146l-299 -350h-92z" />
<glyph unicode="&#xde;" horiz-adv-x="1126" d="M-12 0l284 1456h140l-52 -274h177q261 0 387 -99q127 -98 127 -297q0 -219 -152 -342q-150 -123 -428 -122h-276l-64 -322h-143zM223 471h223q127 0 199 12q74 12 115 39q61 39 100 113q39 72 39 153q0 129 -88 187q-90 57 -297 57h-182z" />
<glyph unicode="&#xdf;" horiz-adv-x="1083" d="M-8 0l215 1090q37 184 151 286q113 100 289 101q156 0 256 -101q102 -102 103 -252q0 -137 -66 -233q-68 -98 -188 -148q104 -31 166 -116q59 -84 59 -205q0 -197 -121 -324q-123 -129 -305 -129q-144 0 -240 68q-94 68 -141 201l-47 -238h-131zM201 403l92 -4v-14 q0 -123 73.5 -203t186.5 -80q121 0 199 84q80 86 79 211q0 139 -94 217t-264 78h-31l23 117q2 0 7 -1t9 -1h25q160 0 262 90q100 88 100 231q0 98 -65 164q-63 63 -170 64q-121 0 -201 -86q-78 -84 -113 -260z" />
<glyph unicode="&#xe0;" horiz-adv-x="1282" d="M55 502q0 133 47 252q45 115 138 207q84 84 190.5 126.5t228.5 42.5q158 0 271 -59q111 -59 176 -176l41 205h139l-211 -1100h-145l18 84q-90 -59 -176 -84q-88 -27 -190 -27q-231 0 -379 148t-148 381zM201 498q0 -178 108 -291q109 -111 287 -111q193 0 324 144 q133 145 133 358q0 184 -104.5 297t-278.5 113q-84 0 -156 -27q-74 -28 -135 -80q-86 -74 -131 -178q-47 -110 -47 -225zM508 1597h147l223 -350h-88z" />
<glyph unicode="&#xe1;" horiz-adv-x="1282" d="M55 502q0 133 47 252q45 115 138 207q84 84 190.5 126.5t228.5 42.5q158 0 271 -59q111 -59 176 -176l41 205h139l-211 -1100h-145l18 84q-90 -59 -176 -84q-88 -27 -190 -27q-231 0 -379 148t-148 381zM201 498q0 -178 108 -291q109 -111 287 -111q193 0 324 144 q133 145 133 358q0 184 -104.5 297t-278.5 113q-84 0 -156 -27q-74 -28 -135 -80q-86 -74 -131 -178q-47 -110 -47 -225zM635 1247l245 350h146l-299 -350h-92z" />
<glyph unicode="&#xe2;" horiz-adv-x="1282" d="M55 502q0 133 47 252q45 115 138 207q84 84 190.5 126.5t228.5 42.5q158 0 271 -59q111 -59 176 -176l41 205h139l-211 -1100h-145l18 84q-90 -59 -176 -84q-88 -27 -190 -27q-231 0 -379 148t-148 381zM201 498q0 -178 108 -291q109 -111 287 -111q193 0 324 144 q133 145 133 358q0 184 -104.5 297t-278.5 113q-84 0 -156 -27q-74 -28 -135 -80q-86 -74 -131 -178q-47 -110 -47 -225zM483 1247l266 350h131l154 -350h-80l-145 250l-236 -250h-90z" />
<glyph unicode="&#xe3;" horiz-adv-x="1282" d="M55 502q0 133 47 252q45 115 138 207q84 84 190.5 126.5t228.5 42.5q158 0 271 -59q111 -59 176 -176l41 205h139l-211 -1100h-145l18 84q-90 -59 -176 -84q-88 -27 -190 -27q-231 0 -379 148t-148 381zM201 498q0 -178 108 -291q109 -111 287 -111q193 0 324 144 q133 145 133 358q0 184 -104.5 297t-278.5 113q-84 0 -156 -27q-74 -28 -135 -80q-86 -74 -131 -178q-47 -110 -47 -225zM501 1300q37 101 80 142q45 41 109 41q20 0 29 -2q4 -2 13 -4t13 -2l94 -29q6 0 11 -2q37 -10 47 -10q34 0 55.5 18t36.5 55h80q-35 -100 -78 -139 q-47 -43 -113 -43q-16 0 -26 2q-4 0 -17.5 4t-23.5 6l-94 29q-18 6 -27 6q-4 0 -10 1t-9 1q-31 0 -53 -18t-37 -56h-80z" />
<glyph unicode="&#xe4;" horiz-adv-x="1282" d="M55 502q0 133 47 252q45 115 138 207q84 84 190.5 126.5t228.5 42.5q158 0 271 -59q111 -59 176 -176l41 205h139l-211 -1100h-145l18 84q-90 -59 -176 -84q-88 -27 -190 -27q-231 0 -379 148t-148 381zM201 498q0 -178 108 -291q109 -111 287 -111q193 0 324 144 q133 145 133 358q0 184 -104.5 297t-278.5 113q-84 0 -156 -27q-74 -28 -135 -80q-86 -74 -131 -178q-47 -110 -47 -225zM514 1294l33 164h143l-35 -164h-141zM882 1294l35 164h142l-35 -164h-142z" />
<glyph unicode="&#xe5;" horiz-adv-x="1282" d="M55 502q0 133 47 252q45 115 138 207q84 84 190.5 126.5t228.5 42.5q158 0 271 -59q111 -59 176 -176l41 205h139l-211 -1100h-145l18 84q-90 -59 -176 -84q-88 -27 -190 -27q-231 0 -379 148t-148 381zM201 498q0 -178 108 -291q109 -111 287 -111q193 0 324 144 q133 145 133 358q0 184 -104.5 297t-278.5 113q-84 0 -156 -27q-74 -28 -135 -80q-86 -74 -131 -178q-47 -110 -47 -225zM565 1411q0 98 66 164q68 68 164 67.5t163.5 -68t67.5 -163.5q0 -94 -67.5 -161.5t-163.5 -67.5q-94 0 -164 65q-66 64 -66 164zM651 1413 q0 -59 43 -102t101 -43q59 0 102 43t43 102.5t-43 102.5q-41 41 -102 40q-53 0 -99 -40q-41 -40 -45 -103z" />
<glyph unicode="&#xe6;" horiz-adv-x="2213" d="M45 502q0 137 47 250q49 115 139 209q84 84 190.5 126.5t229.5 42.5q156 0 269 -59q115 -59 178 -176l37 195h139l-33 -117q72 76 174 117q100 41 215 40q237 0 381 -153q145 -156 146 -404v-41q0 -16 -3 -24h-993v-29q0 -162 109 -274q108 -111 270 -111 q143 0 247.5 67.5t172.5 205.5h160q-82 -201 -224 -297q-143 -98 -348 -99q-150 0 -260 55.5t-186 172.5l-41 -213h-141l28 120q-86 -70 -174 -102q-90 -33 -199 -33q-231 0 -380.5 150t-149.5 381zM190 498q0 -180 111 -291q113 -113 287 -113q190 0 323 145.5t133 358.5 q0 184 -106.5 297t-278.5 113q-84 0 -155 -27q-74 -28 -135 -80q-86 -74 -131 -178q-48 -110 -48 -225zM1178 629h837q-18 180 -121 278q-102 100 -268 101q-164 0 -284.5 -102.5t-163.5 -276.5z" />
<glyph unicode="&#xe7;" d="M53 502q0 141 56 266q55 127 157 217q82 74 180 109q102 37 220 36q209 0 348 -114.5t176 -321.5h-148q-20 143 -124 228q-102 84 -254 84q-200 0 -332 -142q-133 -143 -133 -356q0 -188 106 -301q109 -115 281 -115q145 0 253.5 76t170.5 219h155q-74 -203 -223 -309 q-152 -109 -356 -109q-233 0 -383 150t-150 383zM286 -416l27 78q80 -23 121 -29q61 -10 92 -10q66 0 105 29q35 27 34 82q0 47 -38.5 67.5t-131.5 20.5h-30l61 178h64l-37 -111h20q100 0 152 -39q53 -41 53 -116q0 -90 -64 -144q-59 -51 -174 -51q-66 0 -116 10 q-46 8 -138 35z" />
<glyph unicode="&#xe8;" d="M45 502q0 141 55 266q55 127 158 217q82 72 182.5 108.5t216.5 36.5q240 0 383 -153q145 -156 146 -406v-39q0 -16 -2 -24h-994q0 -186 107 -299q109 -115 276 -115q141 0 246 68q106 70 170 205h160q-82 -201 -223 -297q-143 -98 -351 -99q-236 0 -383 150t-147 381z M207 629h837q-16 176 -120 278q-102 100 -271 101q-162 0 -282.5 -102.5t-163.5 -276.5zM441 1597h147l223 -350h-88z" />
<glyph unicode="&#xe9;" d="M45 502q0 141 55 266q55 127 158 217q82 72 182.5 108.5t216.5 36.5q240 0 383 -153q145 -156 146 -406v-39q0 -16 -2 -24h-994q0 -186 107 -299q109 -115 276 -115q141 0 246 68q106 70 170 205h160q-82 -201 -223 -297q-143 -98 -351 -99q-236 0 -383 150t-147 381z M207 629h837q-16 176 -120 278q-102 100 -271 101q-162 0 -282.5 -102.5t-163.5 -276.5zM568 1247l245 350h146l-299 -350h-92z" />
<glyph unicode="&#xea;" d="M45 502q0 141 55 266q55 127 158 217q82 72 182.5 108.5t216.5 36.5q240 0 383 -153q145 -156 146 -406v-39q0 -16 -2 -24h-994q0 -186 107 -299q109 -115 276 -115q141 0 246 68q106 70 170 205h160q-82 -201 -223 -297q-143 -98 -351 -99q-236 0 -383 150t-147 381z M207 629h837q-16 176 -120 278q-102 100 -271 101q-162 0 -282.5 -102.5t-163.5 -276.5zM416 1247l266 350h131l154 -350h-80l-145 250l-236 -250h-90z" />
<glyph unicode="&#xeb;" d="M45 502q0 141 55 266q55 127 158 217q82 72 182.5 108.5t216.5 36.5q240 0 383 -153q145 -156 146 -406v-39q0 -16 -2 -24h-994q0 -186 107 -299q109 -115 276 -115q141 0 246 68q106 70 170 205h160q-82 -201 -223 -297q-143 -98 -351 -99q-236 0 -383 150t-147 381z M207 629h837q-16 176 -120 278q-102 100 -271 101q-162 0 -282.5 -102.5t-163.5 -276.5zM447 1294l33 164h143l-35 -164h-141zM815 1294l35 164h142l-35 -164h-142z" />
<glyph unicode="&#xec;" horiz-adv-x="411" d="M371 1100l-213 -1100h-131l215 1100h129zM72 1597h147l223 -350h-88z" />
<glyph unicode="&#xed;" horiz-adv-x="411" d="M371 1100l-213 -1100h-131l215 1100h129zM199 1247l245 350h146l-299 -350h-92z" />
<glyph unicode="&#xee;" horiz-adv-x="411" d="M371 1100l-213 -1100h-131l215 1100h129zM47 1247l266 350h131l154 -350h-80l-145 250l-236 -250h-90z" />
<glyph unicode="&#xef;" horiz-adv-x="411" d="M371 1100l-213 -1100h-131l215 1100h129zM78 1294l33 164h143l-35 -164h-141zM446 1294l35 164h142l-35 -164h-142z" />
<glyph unicode="&#xf0;" d="M45 504q0 139 55 266q55 125 158 215q76 68 186 111q98 39 211 39q68 0 123 -15q53 -14 105 -43l-109 203l-336 -70l-20 97l311 61l-59 117h149l47 -88l226 47l22 -94l-205 -41l146 -277q72 -139 102 -237q31 -101 31 -197q0 -127 -47 -246q-43 -111 -133 -207 q-82 -84 -197 -131q-111 -45 -246 -45q-225 0 -372 150q-148 152 -148 385zM190 492q0 -170 109 -285t268 -115q88 0 162 27q78 29 137 82q86 74 131 180q45 104 45 227q0 178 -108 291q-106 109 -287 113q-194 0 -325 -148q-132 -145 -132 -372z" />
<glyph unicode="&#xf1;" horiz-adv-x="1142" d="M-2 0l213 1100h133l-22 -105q80 63 165 95q82 31 164 30q180 0 289 -100q111 -102 111 -260q0 -59 -7 -127q-6 -61 -22 -133l-100 -500h-136l113 563q12 63 14 84q4 53 5 78q0 127 -70 196.5t-195 69.5q-168 0 -266 -98t-141 -307l-119 -586h-129zM417 1300 q37 101 80 142q45 41 109 41q20 0 29 -2q4 -2 13 -4t13 -2l94 -29q6 0 11 -2q37 -10 47 -10q34 0 55.5 18t36.5 55h80q-35 -100 -78 -139q-47 -43 -113 -43q-16 0 -26 2q-4 0 -17.5 4t-23.5 6l-94 29q-18 6 -27 6q-4 0 -10 1t-9 1q-31 0 -53 -18t-37 -56h-80z" />
<glyph unicode="&#xf2;" d="M45 504q0 145 55 268q57 127 158 213q76 68 186 111q98 39 213 39q231 0 383 -152q150 -150 150 -381q0 -127 -47 -246q-46 -117 -135 -209q-90 -90 -197 -133q-111 -45 -246 -45q-225 0 -372 152q-148 150 -148 383zM190 492q0 -170 109 -285t268 -115q88 0 162 27 q78 29 137 82q86 78 131 180q47 111 47 225q0 182 -110.5 293t-286.5 113q-194 0 -325 -148q-132 -145 -132 -372zM441 1597h147l223 -350h-88z" />
<glyph unicode="&#xf3;" d="M45 504q0 145 55 268q57 127 158 213q76 68 186 111q98 39 213 39q231 0 383 -152q150 -150 150 -381q0 -127 -47 -246q-46 -117 -135 -209q-90 -90 -197 -133q-111 -45 -246 -45q-225 0 -372 152q-148 150 -148 383zM190 492q0 -170 109 -285t268 -115q88 0 162 27 q78 29 137 82q86 78 131 180q47 111 47 225q0 182 -110.5 293t-286.5 113q-194 0 -325 -148q-132 -145 -132 -372zM568 1247l245 350h146l-299 -350h-92z" />
<glyph unicode="&#xf4;" d="M45 504q0 145 55 268q57 127 158 213q76 68 186 111q98 39 213 39q231 0 383 -152q150 -150 150 -381q0 -127 -47 -246q-46 -117 -135 -209q-90 -90 -197 -133q-111 -45 -246 -45q-225 0 -372 152q-148 150 -148 383zM190 492q0 -170 109 -285t268 -115q88 0 162 27 q78 29 137 82q86 78 131 180q47 111 47 225q0 182 -110.5 293t-286.5 113q-194 0 -325 -148q-132 -145 -132 -372zM416 1247l266 350h131l154 -350h-80l-145 250l-236 -250h-90z" />
<glyph unicode="&#xf5;" d="M45 504q0 145 55 268q57 127 158 213q76 68 186 111q98 39 213 39q231 0 383 -152q150 -150 150 -381q0 -127 -47 -246q-46 -117 -135 -209q-90 -90 -197 -133q-111 -45 -246 -45q-225 0 -372 152q-148 150 -148 383zM190 492q0 -170 109 -285t268 -115q88 0 162 27 q78 29 137 82q86 78 131 180q47 111 47 225q0 182 -110.5 293t-286.5 113q-194 0 -325 -148q-132 -145 -132 -372zM434 1300q37 101 80 142q45 41 109 41q20 0 29 -2q4 -2 13 -4t13 -2l94 -29q6 0 11 -2q37 -10 47 -10q34 0 55.5 18t36.5 55h80q-35 -100 -78 -139 q-47 -43 -113 -43q-16 0 -26 2q-4 0 -17.5 4t-23.5 6l-94 29q-18 6 -27 6q-4 0 -10 1t-9 1q-31 0 -53 -18t-37 -56h-80z" />
<glyph unicode="&#xf6;" d="M45 504q0 145 55 268q57 127 158 213q76 68 186 111q98 39 213 39q231 0 383 -152q150 -150 150 -381q0 -127 -47 -246q-46 -117 -135 -209q-90 -90 -197 -133q-111 -45 -246 -45q-225 0 -372 152q-148 150 -148 383zM190 492q0 -170 109 -285t268 -115q88 0 162 27 q78 29 137 82q86 78 131 180q47 111 47 225q0 182 -110.5 293t-286.5 113q-194 0 -325 -148q-132 -145 -132 -372zM447 1294l33 164h143l-35 -164h-141zM815 1294l35 164h142l-35 -164h-142z" />
<glyph unicode="&#xf7;" horiz-adv-x="1705" d="M254 561v98h1198v-98h-1198zM748 258q0 45 30.5 76t75.5 31t76 -31t31 -76t-31 -75.5t-76 -30.5t-75.5 30.5t-30.5 75.5zM748 963q0 43 32.5 75.5t73.5 32.5q43 0 76 -33q31 -31 31 -75.5t-31 -75.5t-76 -31t-75.5 31t-30.5 76z" />
<glyph unicode="&#xf8;" d="M-43 -59l205 219q-58 80 -86 166q-29 90 -29 186q0 129 49 246q47 111 146 207q80 76 190 120q109 43 232 43q82 0 159 -22q82 -25 144 -66l143 156l84 -74l-141 -157q68 -78 100 -166q35 -94 35 -199q0 -131 -47 -250q-43 -111 -133 -207q-76 -80 -191 -127 q-109 -45 -235 -45q-102 0 -183 27q-88 29 -157 82l-203 -223zM190 510q0 -68 15 -125q16 -61 47 -125l625 680q-43 31 -99 49q-49 16 -116 17q-201 0 -336 -144q-136 -145 -136 -352zM330 176q43 -39 102 -61q55 -20 135 -21q92 0 172 31q82 31 146 92q74 68 116.5 172.5 t42.5 208.5q0 84 -20 145q-23 68 -63 121z" />
<glyph unicode="&#xf9;" horiz-adv-x="1142" d="M76 332q0 39 8 129q6 72 20 133l105 506h133l-115 -572q-12 -63 -14 -84q-4 -53 -4 -77q0 -125 69.5 -195t194.5 -70q168 0 266.5 98.5t141.5 305.5l120 594h129l-212 -1100h-134l23 104q-86 -70 -162 -100q-80 -33 -170 -33q-180 0 -289 101q-110 100 -110 260z M435 1597h147l223 -350h-88z" />
<glyph unicode="&#xfa;" horiz-adv-x="1142" d="M76 332q0 39 8 129q6 72 20 133l105 506h133l-115 -572q-12 -63 -14 -84q-4 -53 -4 -77q0 -125 69.5 -195t194.5 -70q168 0 266.5 98.5t141.5 305.5l120 594h129l-212 -1100h-134l23 104q-86 -70 -162 -100q-80 -33 -170 -33q-180 0 -289 101q-110 100 -110 260z M562 1247l245 350h146l-299 -350h-92z" />
<glyph unicode="&#xfb;" horiz-adv-x="1142" d="M76 332q0 39 8 129q6 72 20 133l105 506h133l-115 -572q-12 -63 -14 -84q-4 -53 -4 -77q0 -125 69.5 -195t194.5 -70q168 0 266.5 98.5t141.5 305.5l120 594h129l-212 -1100h-134l23 104q-86 -70 -162 -100q-80 -33 -170 -33q-180 0 -289 101q-110 100 -110 260z M410 1247l266 350h131l154 -350h-80l-145 250l-236 -250h-90z" />
<glyph unicode="&#xfc;" horiz-adv-x="1142" d="M76 332q0 39 8 129q6 72 20 133l105 506h133l-115 -572q-12 -63 -14 -84q-4 -53 -4 -77q0 -125 69.5 -195t194.5 -70q168 0 266.5 98.5t141.5 305.5l120 594h129l-212 -1100h-134l23 104q-86 -70 -162 -100q-80 -33 -170 -33q-180 0 -289 101q-110 100 -110 260z M441 1294l33 164h143l-35 -164h-141zM809 1294l35 164h142l-35 -164h-142z" />
<glyph unicode="&#xfd;" horiz-adv-x="876" d="M-41 -356l277 456l-189 1000h127l158 -846l508 846h145l-881 -1456h-145zM379 1247l245 350h146l-299 -350h-92z" />
<glyph unicode="&#xfe;" horiz-adv-x="1282" d="M-76 -356l359 1812h133l-94 -479q70 72 167 115q90 39 201 38q231 0 385 -149q150 -147 150 -381q0 -137 -47 -250q-51 -121 -140 -209q-80 -80 -188 -125q-104 -43 -229 -43q-166 0 -281 64q-119 66 -170 184l-113 -577h-133zM225 494q0 -174 109 -287 q108 -111 276 -111q84 0 156 27q74 28 135 80q86 74 131 178q47 111 47 225q0 178 -108 291q-106 111 -287 111q-197 0 -328 -145.5t-131 -368.5z" />
<glyph unicode="&#xff;" horiz-adv-x="876" d="M-41 -356l277 456l-189 1000h127l158 -846l508 846h145l-881 -1456h-145zM258 1294l33 164h143l-35 -164h-141zM626 1294l35 164h142l-35 -164h-142z" />
<glyph unicode="&#x131;" horiz-adv-x="411" d="M371 1100l-213 -1100h-131l215 1100h129z" />
<glyph unicode="&#x152;" horiz-adv-x="2285" d="M57 635q0 150 37 278.5t111 233.5q106 158 284 250q170 88 381 88q215 0 365 -82q152 -84 231 -248l62 301h747l-24 -135h-606l-103 -518h606l-24 -133h-606l-105 -537h606l-26 -133h-746l35 170q-129 -104 -262 -152q-139 -49 -297 -49q-301 0 -483.5 182.5 t-182.5 483.5zM205 635q0 -242 143.5 -385.5t380.5 -143.5q297 0 483.5 199t186.5 514q0 242 -143.5 385.5t-387.5 143.5q-295 0 -479 -199t-184 -514z" />
<glyph unicode="&#x153;" horiz-adv-x="2213" d="M47 502q0 141 55.5 266t159.5 217q82 72 184 109q104 37 226 36q150 0 270.5 -71.5t183.5 -198.5q95 135 221.5 202.5t282.5 67.5q236 0 383 -153q145 -152 146 -404v-41q0 -16 -2 -24h-994v-29q0 -164 109 -276q106 -109 268 -109q143 0 249.5 67.5t172.5 205.5h160 q-80 -199 -227.5 -297.5t-362.5 -98.5q-152 0 -266.5 67.5t-184.5 199.5q-92 -135 -217 -201t-284 -66q-231 0 -383 148q-150 147 -150 383zM193 502q0 -178 106 -295q104 -113 276 -113q84 0 156 27q78 29 135 78q86 74 131 178q47 111 47 225q0 176 -108 291 q-106 111 -283 115q-195 0 -327.5 -145.5t-132.5 -360.5zM1178 629h839q-14 174 -120.5 276.5t-270.5 102.5q-162 0 -280 -101q-121 -102 -168 -278z" />
<glyph unicode="&#x178;" horiz-adv-x="946" d="M61 1456h158l221 -799l523 799h159l-637 -977l-102 -479h-139l94 481zM398 1644l33 164h143l-35 -164h-141zM766 1644l35 164h142l-35 -164h-142z" />
<glyph unicode="&#x2c6;" horiz-adv-x="1024" d="M301 1247l266 350h131l154 -350h-80l-145 250l-236 -250h-90z" />
<glyph unicode="&#x2dc;" horiz-adv-x="1024" d="M319 1300q37 101 80 142q45 41 109 41q20 0 29 -2q4 -2 13 -4t13 -2l94 -29q6 0 11 -2q37 -10 47 -10q34 0 55.5 18t36.5 55h80q-35 -100 -78 -139q-47 -43 -113 -43q-16 0 -26 2q-4 0 -17.5 4t-23.5 6l-94 29q-18 6 -27 6q-4 0 -10 1t-9 1q-31 0 -53 -18t-37 -56h-80z " />
<glyph unicode="&#x2000;" horiz-adv-x="985" />
<glyph unicode="&#x2001;" horiz-adv-x="1972" />
<glyph unicode="&#x2002;" horiz-adv-x="985" />
<glyph unicode="&#x2003;" horiz-adv-x="1972" />
<glyph unicode="&#x2004;" horiz-adv-x="657" />
<glyph unicode="&#x2005;" horiz-adv-x="491" />
<glyph unicode="&#x2006;" horiz-adv-x="327" />
<glyph unicode="&#x2007;" horiz-adv-x="327" />
<glyph unicode="&#x2008;" horiz-adv-x="245" />
<glyph unicode="&#x2009;" horiz-adv-x="393" />
<glyph unicode="&#x200a;" horiz-adv-x="108" />
<glyph unicode="&#x2010;" horiz-adv-x="657" d="M84 483l25 133h471l-25 -133h-471z" />
<glyph unicode="&#x2011;" horiz-adv-x="657" d="M84 483l25 133h471l-25 -133h-471z" />
<glyph unicode="&#x2012;" horiz-adv-x="657" d="M84 483l25 133h471l-25 -133h-471z" />
<glyph unicode="&#x2013;" horiz-adv-x="1024" d="M0 492l23 112h1001l-23 -112h-1001z" />
<glyph unicode="&#x2014;" horiz-adv-x="2048" d="M0 492l23 112h2048l-23 -112h-2048z" />
<glyph unicode="&#x2018;" horiz-adv-x="395" d="M197 1456h133l76 -383h-136z" />
<glyph unicode="&#x2019;" horiz-adv-x="395" d="M113 1071l239 385h144l-240 -385h-143z" />
<glyph unicode="&#x201a;" horiz-adv-x="395" d="M-164 -147l254 376h156l-254 -376h-156z" />
<glyph unicode="&#x201c;" horiz-adv-x="690" d="M199 1456h133l74 -383h-134zM494 1456h133l75 -383h-135z" />
<glyph unicode="&#x201d;" horiz-adv-x="690" d="M102 1071l240 385h143l-239 -385h-144zM420 1071l239 385h144l-240 -385h-143z" />
<glyph unicode="&#x201e;" horiz-adv-x="690" d="M-164 -147l254 376h156l-254 -376h-156zM154 -147l254 376h155l-254 -376h-155z" />
<glyph unicode="&#x2022;" horiz-adv-x="1206" d="M307 762q0 123 86 209t211 86q123 0 209 -86t86 -209q0 -121 -88 -209t-209 -88t-209 88q-86 86 -86 209z" />
<glyph unicode="&#x2026;" horiz-adv-x="2048" d="M145 0l45 233h142l-43 -233h-144zM827 0l45 233h142l-43 -233h-144zM1511 0l45 233h142l-43 -233h-144z" />
<glyph unicode="&#x202f;" horiz-adv-x="393" />
<glyph unicode="&#x2039;" horiz-adv-x="630" d="M82 551l280 317h132l-275 -317l205 -320h-131z" />
<glyph unicode="&#x203a;" horiz-adv-x="630" d="M96 236l271 325l-203 303h139l197 -303l-267 -325h-137z" />
<glyph unicode="&#x205f;" horiz-adv-x="491" />
<glyph unicode="&#x2122;" horiz-adv-x="1705" d="M264 1397v57h430v-57h-172v-473h-82v473h-176zM821 924v530h117l166 -422l156 422h116v-530h-71v467l-177 -467h-49l-186 467v-467h-72z" />
<glyph unicode="&#xe000;" horiz-adv-x="1100" d="M0 1100h1100v-1100h-1100v1100z" />
<glyph unicode="&#xfb01;" horiz-adv-x="974" d="M590 0l215 1100h129l-213 -1100h-131zM825 1208l47 248h131l-47 -248h-131zM78 0l190 985h-176l27 115h174q25 197 117 284q90 88 268 89h24l-24 -117h-21q-113 0 -164 -55.5t-69 -200.5h180l-24 -115h-183l-186 -985h-133z" />
<glyph unicode="&#xfb02;" horiz-adv-x="974" d="M588 0l282 1456h131l-282 -1456h-131zM78 0l190 985h-176l27 115h174q25 197 117 284q90 88 268 89h24l-24 -117h-21q-113 0 -164 -55.5t-69 -200.5h180l-24 -115h-183l-186 -985h-133z" />
<glyph unicode="&#xfb03;" horiz-adv-x="1536" d="M1153 0l215 1100h129l-213 -1100h-131zM1388 1208l47 248h131l-47 -248h-131zM641 0l190 985h-176l27 115h174q25 197 117 284q90 88 268 89h24l-24 -117h-21q-113 0 -164 -55.5t-69 -200.5h180l-24 -115h-183l-186 -985h-133zM78 0l190 985h-176l27 115h174 q25 197 117 284q90 88 268 89h24l-24 -117h-21q-113 0 -164 -55.5t-69 -200.5h180l-24 -115h-183l-186 -985h-133z" />
<glyph unicode="&#xfb04;" horiz-adv-x="1536" d="M1151 0l282 1456h131l-282 -1456h-131zM641 0l190 985h-176l27 115h174q25 197 117 284q90 88 268 89h24l-24 -117h-21q-113 0 -164 -55.5t-69 -200.5h180l-24 -115h-183l-186 -985h-133zM78 0l190 985h-176l27 115h174q25 197 117 284q90 88 268 89h24l-24 -117h-21 q-113 0 -164 -55.5t-69 -200.5h180l-24 -115h-183l-186 -985h-133z" />
</font>
</defs>
</svg>
