<?xml version="1.0" standalone="no"?>
<!DOCTYPE svg PUBLIC "-//W3C//DTD SVG 1.1//EN" "http://www.w3.org/Graphics/SVG/1.1/DTD/svg11.dtd" >
<svg xmlns="http://www.w3.org/2000/svg">
<metadata>
This is a custom SVG webfont generated by Font Squirrel.
Copyright   : Copyright 19901993 Bitstream Inc  All rights reserved
</metadata>
<defs>
<font id="webfontFFQ16Rof" horiz-adv-x="1239" >
<font-face units-per-em="2048" ascent="1638" descent="-410" />
<missing-glyph horiz-adv-x="585" />
<glyph unicode=" "  horiz-adv-x="585" />
<glyph unicode="&#x09;" horiz-adv-x="585" />
<glyph unicode="&#xa0;" horiz-adv-x="585" />
<glyph unicode="!" horiz-adv-x="591" d="M70 0l45 238h204l-45 -238h-204zM139 362l213 1094h205l-213 -1094h-205z" />
<glyph unicode="&#x22;" horiz-adv-x="612" d="M90 881v555h139v-555h-139zM385 881v555h139v-555h-139z" />
<glyph unicode="#" horiz-adv-x="1574" d="M88 449l53 147h310l92 262h-330l51 146h332l162 454h166l-162 -454h256l164 454h164l-160 -454h301l-51 -146h-303l-93 -262h322l-51 -147h-322l-162 -453h-165l161 453h-258l-162 -453h-165l159 453h-309zM616 594h261l92 264h-260z" />
<glyph unicode="$" horiz-adv-x="1169" d="M106 446v37q0 4 1.5 12.5t1.5 10.5h200q0 -2 -1 -7t-1 -10v-26q0 -111 64 -172q61 -59 178 -60q106 0 166 60q61 61 61 164q0 131 -215 241q-18 8 -30.5 16.5t-18.5 10.5q-143 76 -204.5 160t-61.5 200q0 160 100 266.5t264 118.5l39 201h185l-39 -203q126 -37 190 -129 q66 -94 66 -237v-25h-203v19q0 94 -51 147q-52 55 -135 55q-88 0 -146 -55q-59 -55 -59 -133q0 -43 14 -73.5t45 -61.5q53 -47 168 -105l27.5 -14l26 -13t16.5 -10q125 -70 182 -159q55 -86 55 -209q0 -174 -108 -289q-106 -113 -295 -137l-45 -227h-181l48 247 q-152 41 -228 137t-76 252z" />
<glyph unicode="%" horiz-adv-x="1794" d="M88 1126.5q0 75.5 27 137.5q31 74 78 116q43 47 116 78q61 27 137 27t138 -27q74 -31 116 -78q47 -43 78 -116q27 -61 27 -137t-27 -138q-29 -68 -78 -117t-116 -77q-61 -27 -137 -27t-138 27q-68 29 -117 78t-77 116q-27 62 -27 137.5zM246 1126q0 -82 57 -139t139 -57 q84 0 141.5 57t57.5 139t-57.5 139.5t-141.5 57.5t-139 -57q-57 -62 -57 -140zM442 -31l779 1516h143l-776 -1516h-146zM1004 330q0 76 26 137q29 68 78 117q53 51 117 78q61 27 137 26.5t137 -26.5q63 -27 117 -78q51 -53 78 -117q27 -61 26.5 -137t-26.5 -137 q-29 -68 -78 -117t-117 -78q-61 -27 -137 -27t-137 27q-68 29 -117 78q-47 43 -78 117q-26 61 -26 137zM1161 330q0 -84 57.5 -141.5t139.5 -57.5q84 0 141 57.5t57 141.5q0 82 -57 139t-141 57q-78 0 -139 -57q-58 -55 -58 -139z" />
<glyph unicode="&#x26;" horiz-adv-x="1388" d="M31 377q0 145 88 268q84 119 246 186q-53 59 -84 134q-29 70 -29 141q0 170 115 274q113 104 297 105q145 0 243 -94q94 -92 94 -240q0 -131 -75 -221q-80 -96 -228 -156l185 -192l223 376h219l-309 -532l280 -307l-149 -135l-250 272q-109 -145 -221 -215 q-106 -68 -230 -68q-175 0 -294 117q-121 117 -121 287zM246 387q0 -98 57 -156q59 -59 154 -59q84 0 155 53q70 51 150 174l-266 289q-121 -47 -187 -127q-63 -76 -63 -174zM463 1120q0 -55 29 -108q27 -51 88 -107q111 49 170 115q57 63 57 135q0 66 -45 109 q-46 43 -117 43q-80 0 -131 -51.5t-51 -135.5z" />
<glyph unicode="'" horiz-adv-x="315" d="M90 881v555h139v-555h-139z" />
<glyph unicode="(" horiz-adv-x="567" d="M-27 -18q0 49 9 106q6 39 34 193l131 682q6 31 9 38q47 240 143 342q68 70 145 103q80 33 189 39l-43 -217q-104 -8 -155.5 -76t-94.5 -283l-135 -704q-18 -84 -23 -129q-8 -74 -8 -86q0 -70 33 -121q35 -55 96 -82l-43 -217q-139 51 -213 155.5t-74 256.5z" />
<glyph unicode=")" horiz-adv-x="567" d="M-143 -430l41 217q102 8 155 76q51 63 94 282l138 705q18 84 22 129q8 74 8 86q0 68 -34 121q-37 55 -95 82l43 217q139 -51 213 -155.5t74 -256.5q0 -49 -8 -106q-6 -39 -35 -193l-133 -682l-8 -47q-43 -229 -142 -334q-66 -70 -147 -102q-80 -33 -186 -39z" />
<glyph unicode="*" horiz-adv-x="1024" d="M172 1098l51 157l275 -94v295h153v-295l273 94l53 -157l-287 -78l199 -244l-137 -100l-179 258l-174 -252l-139 92l197 246z" />
<glyph unicode="+" horiz-adv-x="1705" d="M254 541v139h528v541h142v-541h528v-139h-528v-541h-142v541h-528z" />
<glyph unicode="," horiz-adv-x="585" d="M27 -254l24 125q39 8 66 41q25 31 30 88h-71l45 233h201l-50 -251q-25 -125 -79 -179q-55 -51 -166 -57z" />
<glyph unicode="-" horiz-adv-x="677" d="M74 457l35 184h501l-37 -184h-499z" />
<glyph unicode="." horiz-adv-x="585" d="M88 0l47 244h197l-47 -244h-197z" />
<glyph unicode="/" horiz-adv-x="567" d="M-51 -190l487 1646h158l-490 -1646h-155z" />
<glyph unicode="0" horiz-adv-x="1169" d="M35 385q0 16 4 66q2 35 12 81l92 480q47 236 181 354q137 121 348 121q221 0 346 -111q127 -111 127 -305q0 -16 -4 -65q-4 -39 -13 -84l-92 -478q-43 -229 -180 -354q-133 -121 -348 -121q-221 0 -348 111q-125 110 -125 305zM250 408q0 -115 65.5 -174.5t192.5 -59.5 q144 0 215 68q72 68 108 254l82 415q10 49 13 82q4 45 4 56q0 115 -65.5 174t-194.5 59q-141 0 -215 -70q-72 -70 -109 -251l-80 -416q-10 -47 -12 -78q-4 -45 -4 -59z" />
<glyph unicode="1" horiz-adv-x="1169" d="M193 844l536 612h266l-282 -1456h-215l225 1161l-391 -446z" />
<glyph unicode="2" horiz-adv-x="1169" d="M-10 0l37 195l458 399l25.5 20.5l36.5 30.5q317 272 317 442q0 86 -53 139.5t-139 53.5q-121 0 -192.5 -78t-96.5 -231h-205q25 242 152 379q125 135 329 135q186 0 307 -115t121 -289q0 -129 -79 -252q-84 -129 -320 -331l-346 -303h643l-37 -195h-958z" />
<glyph unicode="3" horiz-adv-x="1169" d="M63 397v29q0 12 3 18h217v-28q0 -115 59 -180q57 -63 166 -64q127 0 200.5 73.5t73.5 203.5q0 127 -77 192q-74 61 -242 68l37 186q2 0 7 -1t9 -1h25q123 0 190 59q72 61 72 162q0 80 -45 125q-47 47 -121 47q-78 0 -125 -45q-53 -49 -76 -137h-217q43 199 146 289 q104 92 282 92q174 0 280.5 -100.5t106.5 -262.5q0 -131 -69 -217q-68 -82 -201 -110q125 -49 184 -140q61 -92 62 -221q0 -199 -144 -330q-145 -133 -354 -133q-213 0 -332 113q-117 110 -117 313z" />
<glyph unicode="4" horiz-adv-x="1169" d="M-39 274l45 222l828 960h249l-200 -983h161l-38 -199h-162l-58 -274h-215l58 274h-668zM252 473h416l139 676z" />
<glyph unicode="5" horiz-adv-x="1169" d="M27 424v22h223v-20q0 -114 74 -184q72 -70 192 -70q137 0 223 100.5t86 264.5q0 115 -77 188q-74 72 -197 72q-76 0 -137.5 -31t-104.5 -96l-205 55l269 731h719l-39 -199h-535l-119 -307q63 20 121 31q61 10 105 10q187 0 307 -129q121 -131 121 -330q0 -248 -152 -405 q-150 -156 -389 -156q-229 0 -356 119q-129 119 -129 334z" />
<glyph unicode="6" horiz-adv-x="1169" d="M27 455q0 250 321 577l17 17l397 405h293l-461 -467h24q209 0 334 -121t125 -325q0 -246 -155.5 -408t-391.5 -162q-221 0 -362 135.5t-141 348.5zM246 457q0 -123 78 -205q78 -80 200 -80q143 0 240 100q94 96 94 254q0 125 -78 201t-209 76q-143 0 -233 -96 q-92 -98 -92 -250z" />
<glyph unicode="7" horiz-adv-x="1169" d="M80 0l782 1262h-622l36 194h869l-41 -213l-764 -1243h-260z" />
<glyph unicode="8" horiz-adv-x="1169" d="M51 403q0 150 80 256q82 109 229 156q-63 57 -98 121q-33 59 -33 133q0 174 123 297q121 121 305 121q178 0 287 -101q111 -100 111 -260q0 -117 -58 -194q-59 -82 -172 -127q104 -58 153.5 -141t49.5 -203q0 -207 -149.5 -348.5t-366.5 -141.5q-209 0 -334 119 q-127 120 -127 313zM289 410q0 -100 65 -166q63 -63 166 -64q119 0 201 82q84 84 84 203q0 111 -66 174q-70 66 -178 66q-121 0 -196.5 -82t-75.5 -213zM446 1067q0 -72 50 -119q47 -45 133 -45q94 0 149 58q55 59 56 155q0 80 -48 127q-49 49 -127 49q-92 0 -153 -63 q-60 -62 -60 -162z" />
<glyph unicode="9" horiz-adv-x="1169" d="M88 913q0 246 156 408q158 164 391 164q223 0 362 -137q141 -139 142 -349q0 -248 -322 -575l-14 -16l-397 -408h-293l460 469h-24q-209 0 -336 121q-125 118 -125 323zM307 928q0 -123 82 -199t211 -76q139 0 229.5 96.5t90.5 249.5q0 127 -76 205q-78 80 -201 80 q-145 0 -237 -98q-97 -102 -99 -258z" />
<glyph unicode=":" horiz-adv-x="591" d="M78 0l47 246h197l-48 -246h-196zM250 854l47 246h197l-48 -246h-196z" />
<glyph unicode=";" horiz-adv-x="591" d="M27 -254l24 125q39 8 66 41q25 31 30 88h-71l45 233h201l-50 -251q-25 -125 -79 -179q-55 -51 -166 -57zM250 852l47 248h197l-48 -248h-196z" />
<glyph unicode="&#x3c;" horiz-adv-x="1705" d="M264 547v129l1178 483v-153l-969 -396l969 -393v-154z" />
<glyph unicode="=" horiz-adv-x="1705" d="M254 342v139h1198v-139h-1198zM254 739v140h1198v-140h-1198z" />
<glyph unicode="&#x3e;" horiz-adv-x="1705" d="M264 63v154l971 393l-971 396v153l1178 -483v-129z" />
<glyph unicode="?" horiz-adv-x="993" d="M96 1038q18 211 140 330q121 117 321 117q184 0 299 -109q113 -106 113 -284q0 -113 -47 -195q-49 -88 -187 -203q-6 -6 -22 -18q-197 -162 -215 -297h-199q10 125 66 221q57 98 174 195q8 8 21 18l30 23q168 135 168 247q0 92 -62 150q-59 57 -161 57q-96 0 -162 -67 q-63 -68 -76 -185h-201zM229 0l47 238h205l-45 -238h-207z" />
<glyph unicode="@" horiz-adv-x="2048" d="M106 522q0 168 52 314q51 147 151 268q147 178 353 270t454 92q166 0 309 -45q150 -47 254 -127q131 -102 197 -231q68 -132 68 -283q0 -176 -63.5 -315t-184.5 -236q-70 -57 -150 -84q-86 -29 -166 -28q-102 0 -149 39q-51 41 -51 118v19q-55 -88 -129 -131t-172 -43 q-154 0 -234 86t-80 246q0 238 137.5 395.5t339.5 157.5q84 0 146 -37q57 -35 96 -113l57 115h132l-146 -576l-6 -31q-2 -10 -2 -28q0 -45 24.5 -69.5t75.5 -24.5q49 0 103 26q55 29 106 76q80 76 125 186q45 109 45 234q0 260 -190 420q-193 162 -500 161q-127 0 -246 -28 q-113 -27 -211 -86q-193 -115 -297 -299.5t-104 -409.5q0 -176 61 -307q63 -135 193 -231q98 -74 237 -119q129 -41 287 -41q168 0 328 49q162 49 293 141l55 -82q-152 -113 -315 -168q-166 -55 -349 -55q-188 0 -348 47q-156 45 -280 140q-152 115 -230 274 q-76 153 -76 354zM725 446q0 -102 49 -161q49 -57 137 -58q94 0 174 70q77 68 105 178l59 236q-18 88 -69 137q-49 47 -129 47q-137 0 -232 -129q-94 -127 -94 -320z" />
<glyph unicode="A" horiz-adv-x="1232" d="M-168 0l799 1456h243l295 -1456h-221l-82 418h-577l-226 -418h-231zM397 621h432l-108 612z" />
<glyph unicode="B" horiz-adv-x="1052" d="M-31 0l283 1456h381q180 0 285 -92q102 -90 102 -254q0 -119 -63.5 -207t-192.5 -149q92 -46 141 -129q49 -84 49 -193q0 -102 -45 -190q-45 -86 -129 -152q-63 -47 -149 -70q-82 -20 -250 -20h-412zM219 184h174q181 0 258 62q78 61 78 205q0 106 -67.5 149t-239.5 43 h-66q-8 0 -22.5 -1t-20.5 -1zM350 840q37 -4 53 -4q10 0 26.5 -1t25.5 -1q174 0 258 63q88 66 88 186q0 98 -67.5 141.5t-227.5 43.5h-45q-20 0 -31 -2z" />
<glyph unicode="C" horiz-adv-x="1538" d="M33 641q0 166 63 328q59 152 180 278q113 115 259 176q147 61 313 62q258 0 442.5 -135.5t245.5 -370.5h-238q-59 150 -176 227q-120 80 -282 80q-111 0 -217 -45q-101 -43 -185 -129t-129 -205q-47 -123 -47 -241q0 -213 131 -355q129 -139 332 -139q147 0 272 64 q123 63 199 180h260q-104 -213 -295 -330q-186 -115 -432 -115q-131 0 -246 37q-111 37 -202 109q-119 94 -185 231q-63 133 -63 293z" />
<glyph unicode="D" horiz-adv-x="1382" d="M-18 0l280 1456h383q322 0 496 -166q176 -166 176 -467q0 -373 -227 -598q-229 -225 -605 -225h-503zM229 195h256q279 0 447 167.5t168 442.5q0 223 -117 340t-338 117h-211z" />
<glyph unicode="E" horiz-adv-x="1013" d="M-16 0l282 1456h752l-41 -205h-539l-78 -415h537l-37 -199h-538l-84 -428h536l-39 -209h-751z" />
<glyph unicode="F" horiz-adv-x="980" d="M-16 0l282 1456h752l-41 -205h-539l-78 -415h537l-37 -199h-538l-125 -637h-213z" />
<glyph unicode="G" horiz-adv-x="1601" d="M53 649q0 168 60 324q57 152 168 268q113 119 260 180.5t323 61.5q267 0 436 -129q166 -127 232 -377h-227q-45 152 -160 235q-113 82 -279 82q-254 0 -424 -182t-170 -461q0 -223 127 -356q129 -135 338 -135q178 0 330 102q147 100 213 270h-664l37 183h889 q-39 -338 -260 -543q-217 -203 -549 -203q-315 0 -497.5 182.5t-182.5 497.5z" />
<glyph unicode="H" horiz-adv-x="1269" d="M-14 0l282 1456h211l-119 -618h592l121 618h213l-282 -1456h-213l122 635h-591l-123 -635h-213z" />
<glyph unicode="I" horiz-adv-x="464" d="M-16 0l282 1456h213l-282 -1456h-213z" />
<glyph unicode="J" horiz-adv-x="946" d="M-70 322v18h226v-4q0 -72 45 -111q47 -41 125 -41q94 0 145 58q57 63 80 186l199 1028h215l-211 -1098q-41 -207 -144 -297q-104 -92 -293 -92q-186 0 -286.5 92.5t-100.5 260.5z" />
<glyph unicode="K" horiz-adv-x="1013" d="M-37 0l283 1456h213l-129 -663l639 663h266l-666 -692l455 -764h-248l-450 768l-150 -768h-213z" />
<glyph unicode="L" horiz-adv-x="808" d="M-14 0l282 1456h215l-241 -1247h489l-41 -209h-704z" />
<glyph unicode="M" horiz-adv-x="1800" d="M-2 0l285 1456h331l203 -1151l656 1151h350l-283 -1456h-213l240 1245l-707 -1245h-192l-215 1243l-242 -1243h-213z" />
<glyph unicode="N" horiz-adv-x="1425" d="M6 0l285 1456h293l411 -1167l228 1167h213l-283 -1456h-279l-421 1202l-234 -1202h-213z" />
<glyph unicode="O" horiz-adv-x="1601" d="M57 633q0 195 61.5 354.5t182.5 274.5q117 113 260.5 168t317.5 55q303 0 485 -182q180 -180 180 -486q0 -141 -39 -278q-37 -127 -110 -236q-111 -160 -283 -246q-176 -88 -381 -88q-309 0 -491.5 180.5t-182.5 483.5zM274 641q0 -217 127 -350q125 -131 336 -131 q258 0 424 182t166 469q0 225 -125 352q-127 131 -338 131q-258 0 -424 -182t-166 -471z" />
<glyph unicode="P" horiz-adv-x="1126" d="M-16 0l282 1456h293q267 0 399 -104q131 -104 132 -320q0 -106 -39 -190q-43 -94 -111 -150q-82 -70 -172 -96q-96 -29 -254 -29h-207l-110 -567h-213zM346 768h182q102 0 150 12q43 10 86 45q45 35 70 90q27 59 26 113q0 117 -71.5 174.5t-223.5 57.5q-37 0 -57 -3 q-10 -2 -32.5 -3t-35.5 -1z" />
<glyph unicode="Q" horiz-adv-x="1603" d="M57 635q0 193 61.5 352.5t182.5 274.5q119 113 262 168q145 55 316 55q305 0 485 -182.5t180 -489.5q0 -166 -51 -319q-49 -147 -150 -261q47 -25 78 -34q33 -10 78 -11q18 0 29 2q4 0 14 1.5t14 3.5l-36 -185q-25 -4 -35 -4q-6 0 -17.5 -1t-15.5 -1q-68 0 -139 23 q-66 20 -137 69q-111 -66 -215 -96q-115 -33 -230 -33q-305 0 -491 183q-183 180 -183 485zM274 645q0 -6 5 -55q2 -12 2 -27q90 31 155 41q86 14 137 14q176 0 318 -63q143 -63 278 -203q76 82 119 203q39 111 39 256q0 225 -125 352q-127 131 -338 131q-258 0 -424 -182 q-166 -181 -166 -467zM336 381q57 -100 161.5 -161.5t217.5 -61.5q88 0 164 18q74 18 141 53q-106 106 -211 152q-111 47 -246 47q-51 0 -106 -12q-72 -17 -121 -35z" />
<glyph unicode="R" horiz-adv-x="1202" d="M-16 0l282 1456h369q256 0 395 -113q141 -114 141 -319q0 -201 -129 -330q-127 -127 -350 -149l297 -545h-237l-390 715h37q313 4 396 51q68 39 108 106q39 63 39 142q0 117 -78 180t-221 63q-57 0 -92 -2q-52 -3 -111 -6l-243 -1249h-213z" />
<glyph unicode="S" horiz-adv-x="1013" d="M20 430v35h224v-21q0 -4 -1 -10t-1 -8q0 -121 57 -188q55 -63 166 -64q104 0 172 67.5t68 168.5q0 76 -33 122q-34 49 -148 117q-6 4 -55 33q-147 84 -207 145q-45 45 -72 111q-25 61 -24 137q0 174 125 293q123 117 313 117q186 0 289 -101q104 -102 104 -274v-27 q0 -2 -1 -8t-1 -10h-217v14q0 4 1 8.5t1 6.5q0 94 -51 145q-53 53 -137 53q-82 0 -141.5 -59t-59.5 -139q0 -115 248 -258l80 -48q102 -61 158 -157q57 -98 57 -209q0 -193 -135 -322q-137 -131 -336 -131q-215 0 -328 119q-115 121 -115 342z" />
<glyph unicode="T" horiz-adv-x="899" d="M145 1255l39 201h840l-39 -201h-307l-244 -1255h-213l244 1255h-320z" />
<glyph unicode="U" horiz-adv-x="1193" d="M70 346q0 51 6 109t18 123l170 878h213l-172 -889q-6 -29 -16 -100q-6 -45 -6 -84q0 -96 59 -149.5t164 -53.5q135 0 207 84q71 83 116 332l166 860h215l-172 -878q0 -4 -3 -18.5l-5 -24.5q-49 -249 -117 -363q-59 -102 -165 -152q-108 -49 -259 -49q-195 0 -307 100.5 t-112 274.5z" />
<glyph unicode="V" horiz-adv-x="1185" d="M84 1456h215l190 -1218l637 1218h232l-780 -1456h-256z" />
<glyph unicode="W" horiz-adv-x="1816" d="M156 1456h204l60 -1196l506 1196h270l45 -1210l510 1210h203l-621 -1456h-276l-37 1231l-526 -1231h-258z" />
<glyph unicode="X" horiz-adv-x="1159" d="M-182 0l649 745l-340 711h231l260 -555l478 555h252l-627 -731l356 -725h-239l-277 582l-485 -582h-258z" />
<glyph unicode="Y" horiz-adv-x="1013" d="M61 1456h220l194 -721l473 721h236l-635 -958l-103 -498h-210l90 498z" />
<glyph unicode="Z" horiz-adv-x="1056" d="M-86 0l41 213l901 1053h-696l37 190h940l-39 -205l-901 -1056h729l-37 -195h-975z" />
<glyph unicode="[" horiz-adv-x="567" d="M-115 -410l363 1866h411l-28 -151h-209l-305 -1563h209l-29 -152h-412z" />
<glyph unicode="\" horiz-adv-x="567" d="M117 1456h149l191 -1646h-152z" />
<glyph unicode="]" horiz-adv-x="567" d="M-170 -410l31 152h209l303 1563h-209l29 151h411l-362 -1866h-412z" />
<glyph unicode="^" horiz-adv-x="2048" d="M420 901l510 557h186l510 -557h-180l-422 420l-424 -420h-180z" />
<glyph unicode="_" horiz-adv-x="1024" d="M0 -340h1024v-143h-1024v143z" />
<glyph unicode="`" horiz-adv-x="1024" d="M307 1593h201l211 -350h-111z" />
<glyph unicode="a" horiz-adv-x="1296" d="M59 502q0 131 45.5 245.5t133.5 208.5q80 82 188 129q104 45 227 45q133 0 232 -49q100 -51 164 -143l30 162h201l-215 -1100h-199l23 111q-61 -66 -144 -99q-80 -33 -186 -32q-215 0 -358 149q-142 148 -142 373zM262 506q0 -152 94 -250q92 -94 244 -94q166 0 279 123 q113 121 112 307q0 156 -90 252t-237 96q-168 0 -285 -125q-117 -127 -117 -309z" />
<glyph unicode="b" horiz-adv-x="1296" d="M6 0l285 1456h192l-86 -463q61 68 144 101q80 33 184 32q217 0 358.5 -149.5t141.5 -374.5q0 -131 -45 -245.5t-133 -209.5q-84 -84 -188.5 -129t-225.5 -45q-137 0 -234 47q-98 47 -163 146l-31 -166h-199zM293 514q0 -158 92 -254t236 -96q170 0 286.5 127t116.5 309 q0 156 -94 250t-246 94q-164 0 -278 -125q-113 -121 -113 -305z" />
<glyph unicode="c" d="M55 504q0 143 56 268q53 123 157 217q82 72 183 109q102 37 217 37q205 0 342 -117q139 -117 178 -318h-207q-37 119 -119 182.5t-200 63.5q-168 0 -283 -125t-115 -309q0 -156 90 -256q88 -96 238 -96q115 0 205 59q88 57 149 174h217q-63 -201 -217 -313 q-152 -111 -364 -111q-231 0 -379 150q-148 152 -148 385z" />
<glyph unicode="d" horiz-adv-x="1296" d="M59 502q0 131 45.5 245.5t133.5 208.5q80 82 188 129q104 45 227 45q133 0 232 -49q100 -51 164 -143l102 518h199l-285 -1456h-199l23 111q-61 -66 -144 -99q-80 -33 -186 -32q-215 0 -358 149q-142 148 -142 373zM262 506q0 -152 94 -250q92 -94 244 -94q166 0 279 123 q113 121 112 307q0 156 -90 252t-237 96q-168 0 -285 -125q-117 -127 -117 -309z" />
<glyph unicode="e" d="M45 500q0 139 55.5 266t157.5 217q82 72 182.5 108.5t216.5 36.5q242 0 383 -151q141 -150 142 -410q0 -6 -4 -75v-7h-924q8 -150 94 -237.5t221 -87.5q117 0 207 51q86 49 144 156h229q-78 -199 -221 -297q-145 -98 -353 -99q-236 0 -383 148t-147 381zM281 662h684 q-25 138 -105 208q-78 70 -215 70q-127 0 -221 -71.5t-143 -206.5z" />
<glyph unicode="f" horiz-adv-x="567" d="M27 4l178 911h-174l35 185h174q27 199 122 289q90 84 289 84h45q20 0 31 -3l-37 -194h-31q-102 0 -149 -41q-53 -45 -61 -135h180l-37 -185h-180l-176 -911h-209z" />
<glyph unicode="g" horiz-adv-x="1296" d="M41 -68h211q23 -86 94 -135q72 -47 184 -47q164 0 250 92q88 94 109 289q-59 -63 -141 -96q-80 -33 -189 -33q-219 0 -358 145q-141 147 -142 367q0 135 45 246q47 113 134 201q82 82 188 124q113 45 227 45q131 0 231.5 -47t164.5 -141l30 158h201l-182 -932l-6 -31 q-53 -272 -115 -366q-61 -96 -172 -150q-113 -53 -262 -53q-211 0 -344 96t-158 268zM262 518q0 -154 92 -246t246 -92q164 0 277 121q115 125 114 301q0 152 -90 248q-88 94 -237 94q-168 0 -285 -123t-117 -303z" />
<glyph unicode="h" horiz-adv-x="1175" d="M-2 0l285 1456h200l-96 -461q80 63 158 95q80 31 155 30q172 0 275 -100q106 -102 106 -260q0 -57 -6 -125q-4 -45 -20 -135l-97 -500h-196l112 582q8 39 13 77q4 49 4 66q0 96 -55 152q-53 53 -158 53q-145 0 -240 -96q-98 -102 -131 -281l-108 -553h-201z" />
<glyph unicode="i" horiz-adv-x="468" d="M20 0l216 1100h206l-215 -1100h-207zM258 1223l45 233h207l-45 -233h-207z" />
<glyph unicode="j" horiz-adv-x="454" d="M-225 -358l37 188h6q41 -4 45 -4q74 0 112 45q37 43 62 174l201 1055h206l-206 -1071q-43 -221 -125 -310q-78 -84 -240 -84q-31 0 -47 3q-8 2 -25.5 2t-25.5 2zM262 1223l45 233h207l-45 -233h-207z" />
<glyph unicode="k" horiz-adv-x="976" d="M4 0l281 1456h202l-165 -852h18l446 496h242l-473 -520l350 -580h-231l-338 573h-21l-110 -573h-201z" />
<glyph unicode="l" horiz-adv-x="468" d="M23 0l282 1456h203l-283 -1456h-202z" />
<glyph unicode="m" horiz-adv-x="1792" d="M8 0l205 1100h178l-22 -105q70 61 149 95q74 31 154 30q113 0 188 -39q78 -41 129 -125q71 83 154 123q86 41 180 41q172 0 274 -100q104 -102 105 -260q0 -57 -6 -125q-4 -45 -21 -135l-96 -500h-213l117 582q10 37 12 75q4 53 4 72q0 95 -49 148t-137 53 q-129 0 -203 -88q-72 -88 -113 -289l-106 -553h-201l111 582q8 49 10 73q4 49 4 70q0 98 -49 154q-47 53 -137 53q-127 0 -207 -94q-78 -92 -115 -285l-104 -553h-195z" />
<glyph unicode="n" horiz-adv-x="1175" d="M-2 0l223 1100h191l-25 -105q80 63 158 95q80 31 155 30q172 0 275 -100q106 -102 106 -260q0 -57 -6 -125q-4 -45 -20 -135l-97 -500h-196l112 582q8 39 13 77q4 49 4 66q0 96 -55 152q-53 53 -158 53q-145 0 -240 -96q-98 -102 -131 -281l-108 -553h-201z" />
<glyph unicode="o" d="M47 500q0 139 55 266q53 123 160 219q76 70 178 107q101 37 215 36q229 0 383 -149q150 -147 150 -379q0 -129 -47 -248q-45 -117 -133 -207q-84 -84 -192.5 -129t-240.5 -45q-233 0 -380.5 150t-147.5 379zM256 500q0 -147 92 -244q92 -94 236 -94q168 0 284 127 q117 125 117 309q0 154 -92 246q-94 94 -242 94h-4q-170 0 -280.5 -122.5t-110.5 -315.5z" />
<glyph unicode="p" horiz-adv-x="1296" d="M-55 -358l282 1458h201l-22 -109q61 66 143 99q80 33 184 32q213 0 359 -149q143 -145 143 -373q0 -127 -47 -246q-45 -115 -133 -209q-80 -82 -189 -129q-104 -45 -225 -45q-133 0 -231 49q-100 51 -164 144l-103 -522h-198zM303 512q0 -162 90 -254q92 -96 238 -96 q168 0 284 127q117 125 117 309q0 150 -94 248q-92 94 -244 94q-166 0 -278 -123q-113 -121 -113 -305z" />
<glyph unicode="q" horiz-adv-x="1296" d="M63 492q0 131 46 245q46 117 135 209q80 82 188 129q104 45 225 45q132 0 234 -49q100 -49 164 -143l28 166h201l-287 -1452h-192l88 458q-61 -66 -143 -98q-80 -33 -185 -33q-215 0 -358.5 150t-143.5 373zM266 494q0 -154 92.5 -248t245.5 -94q166 0 279 122 q113 121 112 306q0 154 -90 254q-88 96 -237 96q-168 0 -285 -125t-117 -311z" />
<glyph unicode="r" horiz-adv-x="710" d="M8 0l205 1100h178l-22 -105q74 68 159 99q92 33 191 32h31q4 0 10 -1t8 -1l-41 -192q-195 -6 -285 -86q-86 -78 -139 -340l-100 -506h-195z" />
<glyph unicode="s" horiz-adv-x="839" d="M2 342v20h197q2 -96 47 -149q43 -51 119 -51q78 0 122.5 41t44.5 108q0 90 -178 191q-16 8 -36.5 20.5t-22.5 14.5q-92 55 -133 120q-45 74 -45 160q0 141 96 227q98 88 251.5 88.5t235.5 -85.5q86 -90 86 -244h-196v6q0 78 -33 113q-33 37 -100 36q-59 0 -95 -32 q-37 -33 -36 -84q0 -84 147 -170q2 0 2 -1t2 -1q174 -100 221 -170t47 -166q0 -154 -104 -256q-106 -102 -262 -103q-182 0 -279 95q-98 94 -98 272z" />
<glyph unicode="t" horiz-adv-x="591" d="M57 915l37 185h182l68 356h203l-62 -356h179l-37 -185h-178l-185 -915h-203l181 915h-185z" />
<glyph unicode="u" horiz-adv-x="1175" d="M80 340q0 59 6 127q4 45 20 135l99 498h196l-112 -582q-12 -70 -15 -84q-4 -45 -4 -59q0 -96 58 -152q55 -53 157 -53q145 0 240 96q98 102 131 281l107 553h198l-221 -1100h-188l22 104q-88 -68 -158 -94q-80 -31 -155 -30q-172 0 -275 100q-106 102 -106 260z" />
<glyph unicode="v" horiz-adv-x="937" d="M47 1100h193l133 -862l428 862h207l-568 -1100h-207z" />
<glyph unicode="w" horiz-adv-x="1468" d="M70 1100h190l80 -805l360 805h195l49 -805l385 805h201l-549 -1100h-186l-47 840l-365 -840h-188z" />
<glyph unicode="x" horiz-adv-x="882" d="M-141 0l467 580l-250 520h209l174 -369l295 369h221l-432 -537l270 -563h-207l-198 416l-330 -416h-219z" />
<glyph unicode="y" horiz-adv-x="983" d="M-8 -356l244 407l-187 1049h203l139 -797l463 797h215l-854 -1456h-223z" />
<glyph unicode="z" horiz-adv-x="983" d="M-63 0l40 190l605 719h-459l35 191h706l-28 -191l-607 -719h519l-33 -190h-778z" />
<glyph unicode="{" horiz-adv-x="1024" d="M168 457v149q2 0 9 -1t13 -1h23q131 0 184.5 59.5t53.5 208.5v246q0 147 22 211q23 61 78 96q45 27 108 39q66 12 170 13h37v-150h-41q-121 0 -161.5 -45t-40.5 -184v-242q0 -156 -45 -227q-43 -68 -156 -99q115 -29 158 -96t43 -229v-242q0 -143 41 -184q45 -45 163 -45 h39v-148h-43q-119 0 -170 11q-53 10 -102 38q-57 35 -78 97q-23 68 -22 211v245q0 150 -54 209q-55 61 -186 62h-21q-6 0 -13 -1t-9 -1z" />
<glyph unicode="|" horiz-adv-x="1024" d="M438 -483v2048h150v-2048h-150z" />
<glyph unicode="}" horiz-adv-x="1024" d="M160 -266h39q119 0 161.5 45t42.5 186v240q0 156 46 227q45 70 155 98q-113 31 -155 99q-45 72 -46 227v242q0 141 -43 184q-45 45 -161 45h-39v150h37q108 0 172 -13q66 -12 106 -39q55 -35 78 -96q23 -63 22 -211v-246q0 -150 53.5 -209t184.5 -59h23q6 0 13 1t9 1 v-149q-2 0 -9 1t-13 1h-21q-133 0 -186.5 -59.5t-53.5 -211.5v-245q0 -143 -22 -211q-20 -61 -78 -97q-49 -29 -102 -38q-51 -10 -170 -11h-43v148z" />
<glyph unicode="~" horiz-adv-x="1705" d="M178 451v155q111 74 203 109q90 35 184 35q61 0 127 -13q47 -8 164 -49q4 -2 19.5 -7l27.5 -9q158 -57 240 -58q88 0 180 37q90 37 207 119v-156q-113 -76 -199 -106q-98 -35 -190 -35q-96 0 -256 57q-23 10 -33 13q-4 2 -16 6q-170 59 -273 59q-84 0 -176 -37 q-82 -32 -209 -120z" />
<glyph unicode="&#xa1;" horiz-adv-x="591" d="M70 0l213 1094h204l-213 -1094h-204zM307 1219l45 237h205l-45 -237h-205z" />
<glyph unicode="&#xa2;" horiz-adv-x="1169" d="M49 682q0 258 150 428q152 172 389 188l39 209h184l-43 -227q137 -27 233 -135q92 -104 123 -275h-196q-37 125 -115 185q-80 61 -197 61q-158 0 -264 -125t-106 -315q0 -147 88 -246q86 -94 223 -94q106 0 191 57q82 55 145 172l207 2q-61 -197 -195 -301 q-137 -111 -325 -119l-43 -227h-183l47 242q-172 55 -262 188t-90 332z" />
<glyph unicode="&#xa3;" horiz-adv-x="1169" d="M-57 0l41 207h188q98 63 143 141q47 82 47 187q0 18 -4 59q-2 25 -10 68h-272l37 188h161q-20 59 -28 100q-10 55 -10 97q0 195 126 317q123 121 328 121q209 0 334 -115q121 -113 125 -311h-207q-4 104 -65 162q-63 57 -178 57t-185 -69.5t-70 -180.5q0 -47 15 -90 q16 -51 41 -88h407l-33 -188h-313q8 -33 17 -93q6 -41 6 -71q0 -84 -37 -156q-37 -70 -115 -135h152q137 0 207 80q72 82 81 245h211q-2 -102 -28 -192q-23 -78 -76 -152q-76 -102 -174 -145t-297 -43h-565z" />
<glyph unicode="&#xa4;" d="M80 428l207 205q-40 52 -62 117q-23 68 -22 135q0 72 20 133q23 66 64 119l-207 206l82 80l205 -204q63 47 120 65q61 20 134 21q74 0 135 -21q57 -18 121 -65l204 204l82 -80l-205 -206q41 -57 62 -117q20 -61 20 -135q0 -76 -20 -135q-25 -70 -62 -117l205 -205 l-82 -82l-204 205q-63 -47 -121 -66q-61 -20 -133 -20q-68 0 -136 22q-63 20 -120 64l-205 -205zM319 887q0 -127 89 -215q90 -90 215 -90t215 90q88 88 88 215t-88 215t-215 88t-215.5 -88t-88.5 -215z" />
<glyph unicode="&#xa5;" horiz-adv-x="1169" d="M37 537l26 141h322l-47 166h-242l29 143h174l-127 461h219l193 -713l467 713h235l-305 -461h170l-29 -143h-235l-111 -166h314l-27 -141h-401l-109 -537h-209l98 537h-405z" />
<glyph unicode="&#xa6;" horiz-adv-x="1024" d="M438 -350v758h150v-758h-150zM438 674v758h150v-758h-150z" />
<glyph unicode="&#xa7;" horiz-adv-x="1024" d="M63 102h185q6 -74 49 -116.5t117 -42.5q82 0 131 43t49 114q0 77 -135 185l-4 2l-179 141q-92 72 -126 129q-39 61 -39 127q0 86 51 156q51 68 155 127q-29 43 -45 96q-14 45 -14 106q0 135 98.5 227.5t245.5 92.5q163 0 252 -80q90 -80 90 -223q0 -2 -1 -7t-1 -10v-16 h-186q0 90 -39 131q-41 43 -121 43q-68 0 -111 -37q-41 -35 -41 -98q0 -51 31 -94t123 -113l160 -121q90 -68 131 -135q39 -63 39 -143q0 -90 -51 -168q-49 -74 -154 -129q29 -37 43 -82q14 -43 14 -101q0 -145 -100 -239q-98 -92 -258 -92q-172 0 -266 84q-93 83 -93 243z M297 719q0 -39 22 -74q18 -31 89 -86l208 -168q63 29 101 72q35 41 35 88q0 45 -25 82q-27 41 -80 80l-219 166q-63 -25 -98 -66q-33 -39 -33 -94z" />
<glyph unicode="&#xa8;" horiz-adv-x="1024" d="M313 1305l43 208h185l-45 -208h-183zM670 1305l43 208h184l-45 -208h-182z" />
<glyph unicode="&#xa9;" horiz-adv-x="1705" d="M117 727q0 145 55 280.5t164 243.5q102 102 235.5 157.5t280.5 55.5q152 0 285 -55q141 -59 239 -160q104 -104 159.5 -239.5t55.5 -282.5q0 -150 -55 -281q-57 -139 -158 -235q-106 -104 -245 -164q-133 -57 -280.5 -57t-279 55t-239.5 164q-104 100 -162 240 q-55 133 -55 278zM213 727q0 -125 49 -241.5t141 -209.5q90 -90 207 -139t244 -49q125 0 242 49q119 49 213 142q92 92 137 202q47 117 47 246q0 127 -47 246q-45 115 -137 207t-209 141q-113 47 -246 47q-127 0 -244 -47q-115 -47 -204 -137q-96 -96 -144 -211 q-49 -120 -49 -246zM463 733q0 197 108 322q109 123 287 123q141 0 236 -74q94 -72 106 -197h-147q-12 74 -66 119q-49 41 -139 41q-104 0 -166 -90q-59 -86 -59 -250q0 -158 61 -244q63 -88 174 -88q80 0 137 47q51 43 68 129h145q-10 -131 -108 -211q-100 -82 -248 -81 q-180 0 -284.5 120.5t-104.5 333.5z" />
<glyph unicode="&#xaa;" horiz-adv-x="974" d="M45 1038q0 86 35 172q33 80 98 146q63 59 141 90q80 31 170 31q102 0 175 -33q76 -35 122 -101l23 113h152l-162 -770h-150l19 78q-49 -49 -109 -70q-63 -23 -139 -22q-162 0 -268.5 104t-106.5 262zM197 1040q0 -106 69 -174q71 -68 185 -67q121 0 208 88q84 84 84 213 q0 109 -67.5 176t-177.5 67q-125 0 -213 -88t-88 -215z" />
<glyph unicode="&#xab;" horiz-adv-x="1013" d="M137 549l279 313h151l-278 -315l200 -311h-151zM473 549l281 313h149l-278 -315l200 -311h-149z" />
<glyph unicode="&#xac;" horiz-adv-x="1705" d="M254 721v139h1198v-502h-137v363h-1061z" />
<glyph unicode="&#xad;" horiz-adv-x="677" d="M74 457l35 184h501l-37 -184h-499z" />
<glyph unicode="&#xae;" horiz-adv-x="1705" d="M117 727q0 150 57 283q61 141 166 245q98 102 231 156q131 53 281 53q152 0 287 -55q133 -55 239 -164q102 -102 157.5 -237.5t55.5 -280.5q0 -151 -55 -283q-57 -135 -160 -235q-104 -104 -246 -162q-139 -57 -278 -57q-143 0 -281 57q-131 55 -239 164 q-106 109 -160 238q-55 133 -55 278zM213 727q0 -123 49 -240q51 -121 139 -208q88 -92 207 -142q117 -49 240 -49q133 0 246 47q119 49 213 141q90 90 139 203q47 109 47 242t-47 252q-45 115 -135 205q-92 92 -209 141t-248 49q-129 0 -246 -47q-115 -47 -200 -135 q-94 -94 -144 -213q-51 -125 -51 -246zM557 324v835h315q176 0 261 -57q88 -59 88 -172q0 -89 -50 -148q-51 -59 -141 -77l187 -381h-177l-170 356h-155v-356h-158zM715 780h133q113 0 162 31t49 102q0 78 -51.5 111t-163.5 33h-129v-277z" />
<glyph unicode="&#xaf;" horiz-adv-x="1024" d="M322 1337l30 140h539l-29 -140h-540z" />
<glyph unicode="&#xb0;" horiz-adv-x="673" d="M49 1167q0 121 84 205t205 84q119 0 203 -84t84 -205q0 -119 -84 -202.5t-205 -83.5t-205 84q-82 81 -82 202zM143 1169q0 -82 57.5 -139t137.5 -57q82 0 137 57q55 59 55 139q0 82 -55 137.5t-137 55.5q-80 0 -137.5 -55.5t-57.5 -137.5z" />
<glyph unicode="&#xb1;" horiz-adv-x="1705" d="M254 29v141h1198v-141h-1198zM254 713v139h528v340h142v-340h528v-139h-528v-340h-142v340h-528z" />
<glyph unicode="&#xb2;" horiz-adv-x="772" d="M-6 582l24 116l301 240q12 8 33 25q219 170 219 272q0 53 -34 84q-33 31 -95 31q-78 0 -125 -47.5t-65 -139.5h-135q18 150 102 230t217 80q121 0 201 -68t80 -174q0 -76 -53 -152q-55 -78 -209 -198l-230 -183h424l-22 -116h-633z" />
<glyph unicode="&#xb3;" horiz-adv-x="772" d="M41 819v17q0 8 2 12h143v-17q0 -70 39 -108.5t111 -38.5q84 0 131 45q49 45 49 121q0 80 -51 117q-53 39 -160 41l25 110h26q84 0 127 35q47 37 47 96q0 49 -30 76q-33 29 -80 29t-82 -29t-49 -82h-144q29 121 95 174q68 55 188 56q117 0 184 -60q70 -61 70 -158 q0 -82 -45 -129q-45 -49 -133 -67q80 -29 121 -84q41 -57 41 -133q0 -117 -95 -197q-96 -80 -233 -80q-141 0 -219 67.5t-78 186.5z" />
<glyph unicode="&#xb4;" horiz-adv-x="1024" d="M434 1243l230 350h192l-301 -350h-121z" />
<glyph unicode="&#xb5;" horiz-adv-x="1150" d="M-113 -428l318 1499h180l-129 -600q-8 -39 -10 -65q-4 -45 -4 -68q0 -96 53 -154q51 -53 147 -53q132 0 209 92q76 92 123 312l115 536h178l-156 -731l-4 -21q-18 -86 -18 -112q0 -37 16 -53q14 -14 56 -15h18q2 0 7 1t7 1l-30 -143q-14 -4 -52 -8q-16 -2 -57 -2 q-61 0 -96 28.5t-53 100.5q-47 -66 -113 -98.5t-158 -32.5q-80 0 -143 28q-61 27 -113 88l-110 -530h-181z" />
<glyph unicode="&#xb6;" horiz-adv-x="1024" d="M66 1130q0 156 108.5 252.5t284.5 96.5h499v-86h-120v-1393h-111v1393h-176v-1393h-113v782q-172 10 -270 103q-102 95 -102 245z" />
<glyph unicode="&#xb7;" horiz-adv-x="585" d="M182 729q0 45 33 78t80 33q45 0 78 -33t33 -78q0 -47 -33 -80t-78 -33q-47 0 -80 33t-33 80z" />
<glyph unicode="&#xb8;" horiz-adv-x="1024" d="M76 -385l37 90q78 -20 133 -31q57 -10 90 -10q61 0 94 23q31 23 31 65q0 39 -39 58q-35 16 -137 16h-25l66 174h77l-34 -92h18q113 0 164 -39q53 -41 53 -121q0 -82 -63 -131q-66 -49 -174 -49q-68 0 -127 10q-64 10 -164 37z" />
<glyph unicode="&#xb9;" horiz-adv-x="770" d="M127 1087l354 369h174l-186 -874h-141l149 696l-260 -268z" />
<glyph unicode="&#xba;" horiz-adv-x="931" d="M35 1036q0 104 41 187q47 94 121 153q57 49 133 74q80 27 162 27q172 0 286 -105q113 -104 113 -266q0 -94 -35 -172q-39 -86 -100 -146q-63 -61 -144 -90q-88 -33 -180 -32q-174 0 -285 104q-112 106 -112 266zM193 1036q0 -100 69 -170q68 -68 176 -67q127 0 213 88 q88 92 88 217q0 109 -69.5 174t-180.5 65h-4q-125 0 -208.5 -88t-83.5 -219z" />
<glyph unicode="&#xbb;" horiz-adv-x="1013" d="M150 236l278 313l-201 313h150l203 -313l-281 -313h-149zM485 236l279 313l-201 313h152l200 -313l-278 -313h-152z" />
<glyph unicode="&#xbc;" horiz-adv-x="1818" d="M121 1112l338 342h168l-178 -815h-136l142 651l-246 -252zM395 -35l897 1522l127 -2l-895 -1520h-129zM1055 154l28 125l521 536h157l-125 -551h101l-25 -110h-100l-37 -154h-135l35 154h-420zM1237 264h262l88 379z" />
<glyph unicode="&#xbd;" horiz-adv-x="1818" d="M121 1112l338 342h168l-178 -815h-136l142 651l-246 -252zM395 -35l897 1522l127 -2l-895 -1520h-129zM1073 0l23 109l288 223q6 4 16.5 13t24.5 20q199 152 199 243q0 49 -33 80q-31 29 -88 29q-74 0 -121 -43q-45 -43 -61 -131h-129q18 141 96 213q82 76 207 75 q117 0 193 -63q78 -66 77 -162q0 -74 -51 -143q-53 -72 -201 -184l-219 -170h406l-23 -109h-604z" />
<glyph unicode="&#xbe;" horiz-adv-x="1818" d="M41 862v27h137v-17q0 -66 37 -102q35 -35 104 -35q84 0 127 41q47 43 48 115q0 70 -50 106q-47 35 -153 39l24 105l4 -1q4 -1 7 -1h14q74 0 121 35q45 33 45 90q0 41 -29 69q-27 27 -76 27q-45 0 -77 -27q-31 -25 -50 -76h-137q27 109 92 162q63 51 179 51q106 0 176 -57 q68 -55 67 -145q0 -76 -43 -121q-45 -49 -127 -64q80 -29 117 -77q39 -51 39 -123q0 -111 -90 -185q-92 -76 -223 -75q-137 0 -209 63q-74 63 -74 176zM395 -35l897 1522l127 -2l-895 -1520h-129zM1055 154l28 125l521 536h157l-125 -551h101l-25 -110h-100l-37 -154h-135 l35 154h-420zM1237 264h262l88 379z" />
<glyph unicode="&#xbf;" horiz-adv-x="993" d="M31 365q0 104 47 192t188 205l21 16q193 160 215 299h198q-6 -119 -65.5 -221t-173.5 -197q-6 -4 -19.5 -16t-33.5 -27q-166 -133 -166 -243q0 -90 63 -150q59 -57 162 -57q100 0 162 67q66 72 73 185h201q-18 -217 -137 -332q-117 -115 -322 -115q-184 0 -298.5 109 t-114.5 285zM518 1219l47 237h205l-47 -237h-205z" />
<glyph unicode="&#xc0;" horiz-adv-x="1232" d="M-168 0l799 1456h243l295 -1456h-221l-82 418h-577l-226 -418h-231zM397 621h432l-108 612zM491 1943h201l211 -350h-111z" />
<glyph unicode="&#xc1;" horiz-adv-x="1232" d="M-168 0l799 1456h243l295 -1456h-221l-82 418h-577l-226 -418h-231zM397 621h432l-108 612zM618 1593l230 350h192l-301 -350h-121z" />
<glyph unicode="&#xc2;" horiz-adv-x="1232" d="M-168 0l799 1456h243l295 -1456h-221l-82 418h-577l-226 -418h-231zM397 621h432l-108 612zM456 1593l267 350h184l137 -350h-108l-134 219l-225 -219h-121z" />
<glyph unicode="&#xc3;" horiz-adv-x="1232" d="M-168 0l799 1456h243l295 -1456h-221l-82 418h-577l-226 -418h-231zM397 621h432l-108 612zM491 1640q25 102 76 158q49 51 127 51q23 0 33 -2q27 -6 35 -8l88 -27l24 -6q8 -2 23 -2q37 0 55 16q20 16 33 56h102q-27 -100 -78 -152q-49 -49 -129 -49q-23 0 -30 2 q-4 0 -13.5 2t-13.5 4l-88 29q-10 2 -27 6q-8 2 -26 2q-37 0 -58 -20q-23 -23 -30 -60h-103z" />
<glyph unicode="&#xc4;" horiz-adv-x="1232" d="M-168 0l799 1456h243l295 -1456h-221l-82 418h-577l-226 -418h-231zM397 621h432l-108 612zM497 1655l43 208h185l-45 -208h-183zM854 1655l43 208h184l-45 -208h-182z" />
<glyph unicode="&#xc5;" horiz-adv-x="1232" d="M-168 0l799 1448h243l295 -1448h-221l-82 418h-577l-226 -418h-231zM397 621h432l-108 612zM539 1743q0 98 65.5 163.5t163.5 65.5t163.5 -65.5t65.5 -163.5q0 -96 -67 -164q-66 -66 -162 -66q-100 0 -164 66q-65 70 -65 164zM651 1743q0 -47 35 -82t82 -35q45 0 80 35 t35 82q0 43 -35 82q-33 35 -80 35t-82 -35t-35 -82z" />
<glyph unicode="&#xc6;" horiz-adv-x="1824" d="M-156 0l1006 1456h956l-39 -205h-536l-82 -415h539l-37 -199h-539l-84 -428h537l-41 -209h-754l78 406h-483l-277 -406h-244zM504 606h383l129 656h-60z" />
<glyph unicode="&#xc7;" horiz-adv-x="1538" d="M33 641q0 166 63 328q59 152 180 278q113 115 259 176q147 61 313 62q258 0 442.5 -135.5t245.5 -370.5h-238q-59 150 -176 227q-120 80 -282 80q-111 0 -217 -45q-101 -43 -185 -129t-129 -205q-47 -123 -47 -241q0 -213 131 -355q129 -139 332 -139q147 0 272 64 q123 63 199 180h260q-104 -213 -295 -330q-186 -115 -432 -115q-131 0 -246 37q-111 37 -202 109q-119 94 -185 231q-63 133 -63 293zM430 -385l37 90q78 -20 133 -31q57 -10 90 -10q61 0 94 23q31 23 31 65q0 39 -39 58q-35 16 -137 16h-25l66 174h77l-34 -92h18 q113 0 164 -39q53 -41 53 -121q0 -82 -63 -131q-66 -49 -174 -49q-68 0 -127 10q-64 10 -164 37z" />
<glyph unicode="&#xc8;" horiz-adv-x="1013" d="M-16 0l282 1456h752l-41 -205h-539l-78 -415h537l-37 -199h-538l-84 -428h536l-39 -209h-751zM375 1943h201l211 -350h-111z" />
<glyph unicode="&#xc9;" horiz-adv-x="1013" d="M-16 0l282 1456h752l-41 -205h-539l-78 -415h537l-37 -199h-538l-84 -428h536l-39 -209h-751zM502 1593l230 350h192l-301 -350h-121z" />
<glyph unicode="&#xca;" horiz-adv-x="1013" d="M-16 0l282 1456h752l-41 -205h-539l-78 -415h537l-37 -199h-538l-84 -428h536l-39 -209h-751zM340 1593l267 350h184l137 -350h-108l-134 219l-225 -219h-121z" />
<glyph unicode="&#xcb;" horiz-adv-x="1013" d="M-16 0l282 1456h752l-41 -205h-539l-78 -415h537l-37 -199h-538l-84 -428h536l-39 -209h-751zM381 1655l43 208h185l-45 -208h-183zM738 1655l43 208h184l-45 -208h-182z" />
<glyph unicode="&#xcc;" horiz-adv-x="464" d="M-16 0l282 1456h213l-282 -1456h-213zM123 1943h201l211 -350h-111z" />
<glyph unicode="&#xcd;" horiz-adv-x="464" d="M-16 0l282 1456h213l-282 -1456h-213zM250 1593l230 350h192l-301 -350h-121z" />
<glyph unicode="&#xce;" horiz-adv-x="464" d="M-16 0l282 1456h213l-282 -1456h-213zM88 1593l267 350h184l137 -350h-108l-134 219l-225 -219h-121z" />
<glyph unicode="&#xcf;" horiz-adv-x="464" d="M-16 0l282 1456h213l-282 -1456h-213zM129 1655l43 208h185l-45 -208h-183zM486 1655l43 208h184l-45 -208h-182z" />
<glyph unicode="&#xd0;" horiz-adv-x="1406" d="M-23 651l33 170h152l127 635h383q319 0 495 -166t176 -467q0 -373 -227 -598q-229 -225 -604 -225h-504l121 651h-152zM250 195h256q276 0 444 167q170 170 170 443q0 223 -116.5 340t-337.5 117h-211l-86 -441h360l-33 -170h-362z" />
<glyph unicode="&#xd1;" horiz-adv-x="1425" d="M6 0l285 1456h293l411 -1167l228 1167h213l-283 -1456h-279l-421 1202l-234 -1202h-213zM629 1640q25 102 76 158q49 51 127 51q23 0 33 -2q27 -6 35 -8l88 -27l24 -6q8 -2 23 -2q37 0 55 16q20 16 33 56h102q-27 -100 -78 -152q-49 -49 -129 -49q-23 0 -30 2 q-4 0 -13.5 2t-13.5 4l-88 29q-10 2 -27 6q-8 2 -26 2q-37 0 -58 -20q-23 -23 -30 -60h-103z" />
<glyph unicode="&#xd2;" horiz-adv-x="1601" d="M57 633q0 195 61.5 354.5t182.5 274.5q117 113 260.5 168t317.5 55q303 0 485 -182q180 -180 180 -486q0 -141 -39 -278q-37 -127 -110 -236q-111 -160 -283 -246q-176 -88 -381 -88q-309 0 -491.5 180.5t-182.5 483.5zM274 641q0 -217 127 -350q125 -131 336 -131 q258 0 424 182t166 469q0 225 -125 352q-127 131 -338 131q-258 0 -424 -182t-166 -471zM637 1943h201l211 -350h-111z" />
<glyph unicode="&#xd3;" horiz-adv-x="1601" d="M57 633q0 195 61.5 354.5t182.5 274.5q117 113 260.5 168t317.5 55q303 0 485 -182q180 -180 180 -486q0 -141 -39 -278q-37 -127 -110 -236q-111 -160 -283 -246q-176 -88 -381 -88q-309 0 -491.5 180.5t-182.5 483.5zM274 641q0 -217 127 -350q125 -131 336 -131 q258 0 424 182t166 469q0 225 -125 352q-127 131 -338 131q-258 0 -424 -182t-166 -471zM764 1593l230 350h192l-301 -350h-121z" />
<glyph unicode="&#xd4;" horiz-adv-x="1601" d="M57 633q0 195 61.5 354.5t182.5 274.5q117 113 260.5 168t317.5 55q303 0 485 -182q180 -180 180 -486q0 -141 -39 -278q-37 -127 -110 -236q-111 -160 -283 -246q-176 -88 -381 -88q-309 0 -491.5 180.5t-182.5 483.5zM274 641q0 -217 127 -350q125 -131 336 -131 q258 0 424 182t166 469q0 225 -125 352q-127 131 -338 131q-258 0 -424 -182t-166 -471zM602 1593l267 350h184l137 -350h-108l-134 219l-225 -219h-121z" />
<glyph unicode="&#xd5;" horiz-adv-x="1601" d="M57 633q0 195 61.5 354.5t182.5 274.5q117 113 260.5 168t317.5 55q303 0 485 -182q180 -180 180 -486q0 -141 -39 -278q-37 -127 -110 -236q-111 -160 -283 -246q-176 -88 -381 -88q-309 0 -491.5 180.5t-182.5 483.5zM274 641q0 -217 127 -350q125 -131 336 -131 q258 0 424 182t166 469q0 225 -125 352q-127 131 -338 131q-258 0 -424 -182t-166 -471zM637 1640q25 102 76 158q49 51 127 51q23 0 33 -2q27 -6 35 -8l88 -27l24 -6q8 -2 23 -2q37 0 55 16q20 16 33 56h102q-27 -100 -78 -152q-49 -49 -129 -49q-23 0 -30 2q-4 0 -13.5 2 t-13.5 4l-88 29q-10 2 -27 6q-8 2 -26 2q-37 0 -58 -20q-23 -23 -30 -60h-103z" />
<glyph unicode="&#xd6;" horiz-adv-x="1601" d="M57 633q0 195 61.5 354.5t182.5 274.5q117 113 260.5 168t317.5 55q303 0 485 -182q180 -180 180 -486q0 -141 -39 -278q-37 -127 -110 -236q-111 -160 -283 -246q-176 -88 -381 -88q-309 0 -491.5 180.5t-182.5 483.5zM274 641q0 -217 127 -350q125 -131 336 -131 q258 0 424 182t166 469q0 225 -125 352q-127 131 -338 131q-258 0 -424 -182t-166 -471zM643 1655l43 208h185l-45 -208h-183zM1000 1655l43 208h184l-45 -208h-182z" />
<glyph unicode="&#xd7;" horiz-adv-x="1705" d="M293 141l469 469l-469 469l98 99l469 -469l469 469l98 -99l-469 -469l469 -469l-98 -96l-469 467l-469 -467z" />
<glyph unicode="&#xd8;" horiz-adv-x="1601" d="M6 -33l197 226q-74 96 -111 204q-35 104 -35 244q0 188 64 346q66 164 180 275q121 115 264 168q147 55 326 55q94 0 184 -23q88 -23 164 -67l160 186l141 -98l-170 -193q86 -98 131 -219q43 -117 43 -254q0 -141 -39 -278q-37 -127 -110 -236q-111 -160 -283 -246 q-176 -88 -381 -88q-129 0 -223 27q-104 29 -172 80l-199 -234zM274 651q0 -86 19 -159q18 -70 55 -134l756 879q-61 28 -123 43q-57 14 -131 14q-102 0 -203 -41q-96 -39 -180 -116q-92 -86 -143 -213q-50 -123 -50 -273zM467 233q66 -37 131 -55q68 -18 137 -18 q266 0 432 184q164 182 164 485q0 76 -24 150q-23 70 -74 145z" />
<glyph unicode="&#xd9;" horiz-adv-x="1193" d="M70 346q0 51 6 109t18 123l170 878h213l-172 -889q-6 -29 -16 -100q-6 -45 -6 -84q0 -96 59 -149.5t164 -53.5q135 0 207 84q71 83 116 332l166 860h215l-172 -878q0 -4 -3 -18.5l-5 -24.5q-49 -249 -117 -363q-59 -102 -165 -152q-108 -49 -259 -49q-195 0 -307 100.5 t-112 274.5zM479 1943h201l211 -350h-111z" />
<glyph unicode="&#xda;" horiz-adv-x="1193" d="M70 346q0 51 6 109t18 123l170 878h213l-172 -889q-6 -29 -16 -100q-6 -45 -6 -84q0 -96 59 -149.5t164 -53.5q135 0 207 84q71 83 116 332l166 860h215l-172 -878q0 -4 -3 -18.5l-5 -24.5q-49 -249 -117 -363q-59 -102 -165 -152q-108 -49 -259 -49q-195 0 -307 100.5 t-112 274.5zM606 1593l230 350h192l-301 -350h-121z" />
<glyph unicode="&#xdb;" horiz-adv-x="1193" d="M70 346q0 51 6 109t18 123l170 878h213l-172 -889q-6 -29 -16 -100q-6 -45 -6 -84q0 -96 59 -149.5t164 -53.5q135 0 207 84q71 83 116 332l166 860h215l-172 -878q0 -4 -3 -18.5l-5 -24.5q-49 -249 -117 -363q-59 -102 -165 -152q-108 -49 -259 -49q-195 0 -307 100.5 t-112 274.5zM444 1593l267 350h184l137 -350h-108l-134 219l-225 -219h-121z" />
<glyph unicode="&#xdc;" horiz-adv-x="1193" d="M70 346q0 51 6 109t18 123l170 878h213l-172 -889q-6 -29 -16 -100q-6 -45 -6 -84q0 -96 59 -149.5t164 -53.5q135 0 207 84q71 83 116 332l166 860h215l-172 -878q0 -4 -3 -18.5l-5 -24.5q-49 -249 -117 -363q-59 -102 -165 -152q-108 -49 -259 -49q-195 0 -307 100.5 t-112 274.5zM485 1655l43 208h185l-45 -208h-183zM842 1655l43 208h184l-45 -208h-182z" />
<glyph unicode="&#xdd;" horiz-adv-x="1013" d="M61 1456h220l194 -721l473 721h236l-635 -958l-103 -498h-210l90 498zM524 1593l230 350h192l-301 -350h-121z" />
<glyph unicode="&#xde;" horiz-adv-x="1138" d="M-16 0l282 1456h213l-55 -285h82q270 0 399 -104t129 -317q0 -100 -39 -190.5t-110 -149.5q-86 -72 -172 -99q-96 -29 -252 -28h-209l-55 -283h-213zM291 485h182q100 0 150 13q41 10 86 45t69 90q27 59 27 110q0 123 -74 178.5t-237 55.5h-109z" />
<glyph unicode="&#xdf;" horiz-adv-x="1202" d="M14 0l193 997q49 254 162 367q111 111 313 111q182 0 290.5 -96.5t108.5 -256.5q0 -120 -55 -209q-55 -90 -160 -143q133 -37 198.5 -125t65.5 -219q0 -205 -129 -334t-335 -129q-154 0 -256 66q-98 63 -144 192l-45 -221h-207zM297 383h143q10 -117 66 -172 q57 -57 166 -57q114 0 178 73q66 76 65 201q0 115 -83.5 174.5t-249.5 59.5h-41l37 184h22q127 0 196.5 63.5t69.5 177.5q0 86 -55 141.5t-139 55.5q-109 0 -170 -82q-63 -86 -101 -280z" />
<glyph unicode="&#xe0;" horiz-adv-x="1296" d="M59 502q0 131 45.5 245.5t133.5 208.5q80 82 188 129q104 45 227 45q133 0 232 -49q100 -51 164 -143l30 162h201l-215 -1100h-199l23 111q-61 -66 -144 -99q-80 -33 -186 -32q-215 0 -358 149q-142 148 -142 373zM262 506q0 -152 94 -250q92 -94 244 -94q166 0 279 123 q113 121 112 307q0 156 -90 252t-237 96q-168 0 -285 -125q-117 -127 -117 -309zM452 1593h201l211 -350h-111z" />
<glyph unicode="&#xe1;" horiz-adv-x="1296" d="M59 502q0 131 45.5 245.5t133.5 208.5q80 82 188 129q104 45 227 45q133 0 232 -49q100 -51 164 -143l30 162h201l-215 -1100h-199l23 111q-61 -66 -144 -99q-80 -33 -186 -32q-215 0 -358 149q-142 148 -142 373zM262 506q0 -152 94 -250q92 -94 244 -94q166 0 279 123 q113 121 112 307q0 156 -90 252t-237 96q-168 0 -285 -125q-117 -127 -117 -309zM579 1243l230 350h192l-301 -350h-121z" />
<glyph unicode="&#xe2;" horiz-adv-x="1296" d="M59 502q0 131 45.5 245.5t133.5 208.5q80 82 188 129q104 45 227 45q133 0 232 -49q100 -51 164 -143l30 162h201l-215 -1100h-199l23 111q-61 -66 -144 -99q-80 -33 -186 -32q-215 0 -358 149q-142 148 -142 373zM262 506q0 -152 94 -250q92 -94 244 -94q166 0 279 123 q113 121 112 307q0 156 -90 252t-237 96q-168 0 -285 -125q-117 -127 -117 -309zM417 1243l267 350h184l137 -350h-108l-134 219l-225 -219h-121z" />
<glyph unicode="&#xe3;" horiz-adv-x="1296" d="M59 502q0 131 45.5 245.5t133.5 208.5q80 82 188 129q104 45 227 45q133 0 232 -49q100 -51 164 -143l30 162h201l-215 -1100h-199l23 111q-61 -66 -144 -99q-80 -33 -186 -32q-215 0 -358 149q-142 148 -142 373zM262 506q0 -152 94 -250q92 -94 244 -94q166 0 279 123 q113 121 112 307q0 156 -90 252t-237 96q-168 0 -285 -125q-117 -127 -117 -309zM452 1290q25 102 76 158q49 51 127 51q23 0 33 -2q27 -6 35 -8l88 -27l24 -6q8 -2 23 -2q37 0 55 16q20 16 33 56h102q-27 -100 -78 -152q-49 -49 -129 -49q-23 0 -30 2q-4 0 -13.5 2t-13.5 4 l-88 29q-10 2 -27 6q-8 2 -26 2q-37 0 -58 -20q-23 -23 -30 -60h-103z" />
<glyph unicode="&#xe4;" horiz-adv-x="1296" d="M59 502q0 131 45.5 245.5t133.5 208.5q80 82 188 129q104 45 227 45q133 0 232 -49q100 -51 164 -143l30 162h201l-215 -1100h-199l23 111q-61 -66 -144 -99q-80 -33 -186 -32q-215 0 -358 149q-142 148 -142 373zM262 506q0 -152 94 -250q92 -94 244 -94q166 0 279 123 q113 121 112 307q0 156 -90 252t-237 96q-168 0 -285 -125q-117 -127 -117 -309zM458 1305l43 208h185l-45 -208h-183zM815 1305l43 208h184l-45 -208h-182z" />
<glyph unicode="&#xe5;" horiz-adv-x="1296" d="M59 502q0 131 45.5 245.5t133.5 208.5q80 82 188 129q104 45 227 45q133 0 232 -49q100 -51 164 -143l30 162h201l-215 -1100h-199l23 111q-61 -66 -144 -99q-80 -33 -186 -32q-215 0 -358 149q-142 148 -142 373zM262 506q0 -152 94 -250q92 -94 244 -94q166 0 279 123 q113 121 112 307q0 156 -90 252t-237 96q-168 0 -285 -125q-117 -127 -117 -309zM524 1425.5q0 98.5 65.5 164t162.5 65.5q98 0 163.5 -65.5t65.5 -164.5q0 -96 -66 -161q-68 -68 -164 -68t-161.5 65.5t-65.5 164zM637 1425q0 -49 33 -82q35 -35 82 -34.5t81.5 35t34.5 81.5 q0 43 -34 82q-33 35 -82 35q-47 0 -82 -35q-33 -33 -33 -82z" />
<glyph unicode="&#xe6;" horiz-adv-x="2156" d="M59 502q0 131 45.5 245.5t133.5 208.5q82 86 186 127q113 45 227 45q109 0 203 -34q100 -37 174 -103l21 109h192l-20 -86q88 59 170 86q90 29 178 28q244 0 385 -151q141 -150 141 -410v-51q0 -6 -1 -16.5t-1 -14.5h-924v-12q0 -141 88 -227q90 -86 238 -86 q113 0 197 51q82 49 141 156h229q-76 -193 -221 -295q-143 -100 -346 -101q-131 0 -231 41q-102 41 -172 123l-27 -135h-186l26 119q-74 -71 -160 -105q-88 -35 -184 -34q-219 0 -360.5 147.5t-141.5 374.5zM262 506q0 -152 94 -250q92 -94 244 -94q166 0 279 123 q113 121 112 307q0 154 -90 250t-237 96q-168 0 -285 -125t-117 -307zM1194 662h684q-23 135 -102 206q-82 72 -207 72q-131 0 -230 -74q-100 -75 -145 -204z" />
<glyph unicode="&#xe7;" d="M55 504q0 143 56 268q53 123 157 217q82 72 183 109q102 37 217 37q205 0 342 -117q139 -117 178 -318h-207q-37 119 -119 182.5t-200 63.5q-168 0 -283 -125t-115 -309q0 -156 90 -256q88 -96 238 -96q115 0 205 59q88 57 149 174h217q-63 -201 -217 -313 q-152 -111 -364 -111q-231 0 -379 150q-148 152 -148 385zM291 -385l37 90q78 -20 133 -31q57 -10 90 -10q61 0 94 23q31 23 31 65q0 39 -39 58q-35 16 -137 16h-25l66 174h77l-34 -92h18q113 0 164 -39q53 -41 53 -121q0 -82 -63 -131q-66 -49 -174 -49q-68 0 -127 10 q-64 10 -164 37z" />
<glyph unicode="&#xe8;" d="M45 500q0 139 55.5 266t157.5 217q82 72 182.5 108.5t216.5 36.5q242 0 383 -151q141 -150 142 -410q0 -6 -4 -75v-7h-924q8 -150 94 -237.5t221 -87.5q117 0 207 51q86 49 144 156h229q-78 -199 -221 -297q-145 -98 -353 -99q-236 0 -383 148t-147 381zM281 662h684 q-25 138 -105 208q-78 70 -215 70q-127 0 -221 -71.5t-143 -206.5zM416 1593h201l211 -350h-111z" />
<glyph unicode="&#xe9;" d="M45 500q0 139 55.5 266t157.5 217q82 72 182.5 108.5t216.5 36.5q242 0 383 -151q141 -150 142 -410q0 -6 -4 -75v-7h-924q8 -150 94 -237.5t221 -87.5q117 0 207 51q86 49 144 156h229q-78 -199 -221 -297q-145 -98 -353 -99q-236 0 -383 148t-147 381zM281 662h684 q-25 138 -105 208q-78 70 -215 70q-127 0 -221 -71.5t-143 -206.5zM543 1243l230 350h192l-301 -350h-121z" />
<glyph unicode="&#xea;" d="M45 500q0 139 55.5 266t157.5 217q82 72 182.5 108.5t216.5 36.5q242 0 383 -151q141 -150 142 -410q0 -6 -4 -75v-7h-924q8 -150 94 -237.5t221 -87.5q117 0 207 51q86 49 144 156h229q-78 -199 -221 -297q-145 -98 -353 -99q-236 0 -383 148t-147 381zM281 662h684 q-25 138 -105 208q-78 70 -215 70q-127 0 -221 -71.5t-143 -206.5zM381 1243l267 350h184l137 -350h-108l-134 219l-225 -219h-121z" />
<glyph unicode="&#xeb;" d="M45 500q0 139 55.5 266t157.5 217q82 72 182.5 108.5t216.5 36.5q242 0 383 -151q141 -150 142 -410q0 -6 -4 -75v-7h-924q8 -150 94 -237.5t221 -87.5q117 0 207 51q86 49 144 156h229q-78 -199 -221 -297q-145 -98 -353 -99q-236 0 -383 148t-147 381zM281 662h684 q-25 138 -105 208q-78 70 -215 70q-127 0 -221 -71.5t-143 -206.5zM422 1305l43 208h185l-45 -208h-183zM779 1305l43 208h184l-45 -208h-182z" />
<glyph unicode="&#xec;" horiz-adv-x="468" d="M236 1100h206l-215 -1100h-207zM82 1593h201l211 -350h-111z" />
<glyph unicode="&#xed;" horiz-adv-x="468" d="M236 1100h206l-215 -1100h-207zM209 1243l230 350h192l-301 -350h-121z" />
<glyph unicode="&#xee;" horiz-adv-x="468" d="M236 1100h206l-215 -1100h-207zM47 1243l267 350h184l137 -350h-108l-134 219l-225 -219h-121z" />
<glyph unicode="&#xef;" horiz-adv-x="468" d="M236 1100h206l-215 -1100h-207zM88 1305l43 208h185l-45 -208h-183zM445 1305l43 208h184l-45 -208h-182z" />
<glyph unicode="&#xf0;" d="M47 504q0 139 55.5 266t155.5 215q82 72 184 109q104 37 222 36q37 0 81 -4q33 -2 64 -16l-82 152l-285 -60l-26 123l258 53l-60 107h205l37 -68l234 45l28 -123l-205 -41l142 -266q74 -143 100 -235q33 -111 33 -199q0 -127 -47 -246q-43 -111 -133 -207 q-84 -88 -195 -129q-119 -45 -248 -45q-229 0 -372 150q-146 152 -146 383zM256 502q0 -151 92 -246q92 -94 236 -94q168 0 284 127q117 125 117 309q0 152 -92 248q-92 94 -246 94q-166 0 -278.5 -125t-112.5 -313z" />
<glyph unicode="&#xf1;" horiz-adv-x="1175" d="M-2 0l223 1100h191l-25 -105q80 63 158 95q80 31 155 30q172 0 275 -100q106 -102 106 -260q0 -57 -6 -125q-4 -45 -20 -135l-97 -500h-196l112 582q8 39 13 77q4 49 4 66q0 96 -55 152q-53 53 -158 53q-145 0 -240 -96q-98 -102 -131 -281l-108 -553h-201zM428 1290 q25 102 76 158q49 51 127 51q23 0 33 -2q27 -6 35 -8l88 -27l24 -6q8 -2 23 -2q37 0 55 16q20 16 33 56h102q-27 -100 -78 -152q-49 -49 -129 -49q-23 0 -30 2q-4 0 -13.5 2t-13.5 4l-88 29q-10 2 -27 6q-8 2 -26 2q-37 0 -58 -20q-23 -23 -30 -60h-103z" />
<glyph unicode="&#xf2;" d="M47 500q0 139 55 266q53 123 160 219q76 70 178 107q101 37 215 36q229 0 383 -149q150 -147 150 -379q0 -129 -47 -248q-45 -117 -133 -207q-84 -84 -192.5 -129t-240.5 -45q-233 0 -380.5 150t-147.5 379zM256 500q0 -147 92 -244q92 -94 236 -94q168 0 284 127 q117 125 117 309q0 154 -92 246q-94 94 -242 94h-4q-170 0 -280.5 -122.5t-110.5 -315.5zM416 1593h201l211 -350h-111z" />
<glyph unicode="&#xf3;" d="M47 500q0 139 55 266q53 123 160 219q76 70 178 107q101 37 215 36q229 0 383 -149q150 -147 150 -379q0 -129 -47 -248q-45 -117 -133 -207q-84 -84 -192.5 -129t-240.5 -45q-233 0 -380.5 150t-147.5 379zM256 500q0 -147 92 -244q92 -94 236 -94q168 0 284 127 q117 125 117 309q0 154 -92 246q-94 94 -242 94h-4q-170 0 -280.5 -122.5t-110.5 -315.5zM543 1243l230 350h192l-301 -350h-121z" />
<glyph unicode="&#xf4;" d="M47 500q0 139 55 266q53 123 160 219q76 70 178 107q101 37 215 36q229 0 383 -149q150 -147 150 -379q0 -129 -47 -248q-45 -117 -133 -207q-84 -84 -192.5 -129t-240.5 -45q-233 0 -380.5 150t-147.5 379zM256 500q0 -147 92 -244q92 -94 236 -94q168 0 284 127 q117 125 117 309q0 154 -92 246q-94 94 -242 94h-4q-170 0 -280.5 -122.5t-110.5 -315.5zM381 1243l267 350h184l137 -350h-108l-134 219l-225 -219h-121z" />
<glyph unicode="&#xf5;" d="M47 500q0 139 55 266q53 123 160 219q76 70 178 107q101 37 215 36q229 0 383 -149q150 -147 150 -379q0 -129 -47 -248q-45 -117 -133 -207q-84 -84 -192.5 -129t-240.5 -45q-233 0 -380.5 150t-147.5 379zM256 500q0 -147 92 -244q92 -94 236 -94q168 0 284 127 q117 125 117 309q0 154 -92 246q-94 94 -242 94h-4q-170 0 -280.5 -122.5t-110.5 -315.5zM416 1290q25 102 76 158q49 51 127 51q23 0 33 -2q27 -6 35 -8l88 -27l24 -6q8 -2 23 -2q37 0 55 16q20 16 33 56h102q-27 -100 -78 -152q-49 -49 -129 -49q-23 0 -30 2q-4 0 -13.5 2 t-13.5 4l-88 29q-10 2 -27 6q-8 2 -26 2q-37 0 -58 -20q-23 -23 -30 -60h-103z" />
<glyph unicode="&#xf6;" d="M47 500q0 139 55 266q53 123 160 219q76 70 178 107q101 37 215 36q229 0 383 -149q150 -147 150 -379q0 -129 -47 -248q-45 -117 -133 -207q-84 -84 -192.5 -129t-240.5 -45q-233 0 -380.5 150t-147.5 379zM256 500q0 -147 92 -244q92 -94 236 -94q168 0 284 127 q117 125 117 309q0 154 -92 246q-94 94 -242 94h-4q-170 0 -280.5 -122.5t-110.5 -315.5zM422 1305l43 208h185l-45 -208h-183zM779 1305l43 208h184l-45 -208h-182z" />
<glyph unicode="&#xf7;" horiz-adv-x="1705" d="M254 541v139h1198v-139h-1198zM729 241.5q0 51.5 37 88.5t88 37t88 -37t37 -88.5t-37 -88t-88 -36.5t-88 36.5t-37 88zM729 979q0 53 37 90t88 37t88 -37t37 -90q0 -51 -37 -88t-88 -37t-88 37t-37 88z" />
<glyph unicode="&#xf8;" d="M14 -55l162 196q-66 82 -96 170q-33 94 -33 193q0 104 33 201q37 109 92 180q94 123 213 182q123 61 272 61q70 0 138 -18q72 -20 143 -55l162 196l125 -94l-166 -207q66 -76 96 -164q33 -94 33 -194q0 -121 -43 -232q-45 -115 -125 -200q-80 -88 -197 -140 q-115 -49 -243 -49q-66 0 -142 17q-70 14 -137 49l-166 -199zM240 498q0 -49 16 -105q16 -53 45 -106l514 616q-33 18 -74 29q-45 10 -79 10q-184 0 -303 -124.5t-119 -319.5zM420 182q51 -18 84 -24q49 -8 67 -8q182 0 301 124.5t119 319.5q0 66 -14 115q-14 45 -47 96z " />
<glyph unicode="&#xf9;" horiz-adv-x="1175" d="M80 340q0 59 6 127q4 45 20 135l99 498h196l-112 -582q-12 -70 -15 -84q-4 -45 -4 -59q0 -96 58 -152q55 -53 157 -53q145 0 240 96q98 102 131 281l107 553h198l-221 -1100h-188l22 104q-88 -68 -158 -94q-80 -31 -155 -30q-172 0 -275 100q-106 102 -106 260zM426 1593 h201l211 -350h-111z" />
<glyph unicode="&#xfa;" horiz-adv-x="1175" d="M80 340q0 59 6 127q4 45 20 135l99 498h196l-112 -582q-12 -70 -15 -84q-4 -45 -4 -59q0 -96 58 -152q55 -53 157 -53q145 0 240 96q98 102 131 281l107 553h198l-221 -1100h-188l22 104q-88 -68 -158 -94q-80 -31 -155 -30q-172 0 -275 100q-106 102 -106 260zM553 1243 l230 350h192l-301 -350h-121z" />
<glyph unicode="&#xfb;" horiz-adv-x="1175" d="M80 340q0 59 6 127q4 45 20 135l99 498h196l-112 -582q-12 -70 -15 -84q-4 -45 -4 -59q0 -96 58 -152q55 -53 157 -53q145 0 240 96q98 102 131 281l107 553h198l-221 -1100h-188l22 104q-88 -68 -158 -94q-80 -31 -155 -30q-172 0 -275 100q-106 102 -106 260zM391 1243 l267 350h184l137 -350h-108l-134 219l-225 -219h-121z" />
<glyph unicode="&#xfc;" horiz-adv-x="1175" d="M80 340q0 59 6 127q4 45 20 135l99 498h196l-112 -582q-12 -70 -15 -84q-4 -45 -4 -59q0 -96 58 -152q55 -53 157 -53q145 0 240 96q98 102 131 281l107 553h198l-221 -1100h-188l22 104q-88 -68 -158 -94q-80 -31 -155 -30q-172 0 -275 100q-106 102 -106 260zM432 1305 l43 208h185l-45 -208h-183zM789 1305l43 208h184l-45 -208h-182z" />
<glyph unicode="&#xfd;" horiz-adv-x="983" d="M-8 -356l244 407l-187 1049h203l139 -797l463 797h215l-854 -1456h-223zM416 1243l230 350h192l-301 -350h-121z" />
<glyph unicode="&#xfe;" horiz-adv-x="1296" d="M-55 -358l352 1814h199l-90 -465q61 66 143 99q80 33 184 32q217 0 359 -147q143 -150 143 -375q0 -129 -47 -248q-43 -111 -133 -207q-80 -82 -189 -129q-104 -45 -225 -45q-135 0 -233.5 49.5t-161.5 143.5l-103 -522h-198zM303 500q0 -147 92 -244q92 -94 236 -94 q168 0 284 127q117 125 117 309q0 150 -94 248q-92 94 -244 94q-168 0 -278 -125q-113 -129 -113 -315z" />
<glyph unicode="&#xff;" horiz-adv-x="983" d="M-8 -356l244 407l-187 1049h203l139 -797l463 797h215l-854 -1456h-223zM295 1305l43 208h185l-45 -208h-183zM652 1305l43 208h184l-45 -208h-182z" />
<glyph unicode="&#x131;" horiz-adv-x="468" d="M236 1100h206l-215 -1100h-207z" />
<glyph unicode="&#x152;" horiz-adv-x="2217" d="M57 635q0 150 37 278q37 127 111 236q113 162 284 248q176 88 381 88q170 0 312 -62q143 -63 239 -176l43 209h758l-41 -205h-536l-80 -415h538l-39 -199h-538l-84 -428h536l-39 -209h-731l27 135q-117 -88 -236 -125q-129 -41 -270 -41q-307 0 -489.5 180.5 t-182.5 485.5zM274 641q0 -217 127 -350q125 -131 338 -131q258 0 424 182t166 469q0 219 -127 352q-125 131 -338 131q-258 0 -424 -182t-166 -471z" />
<glyph unicode="&#x153;" horiz-adv-x="2156" d="M47 500q0 145 57 272q59 131 160 217q76 63 182 103q102 37 213 36q137 0 252 -57q106 -53 189 -170q102 115 219 170q121 57 250 57q244 0 385 -151q141 -150 141 -410v-51q0 -6 -1 -16.5t-1 -14.5h-924v-4q0 -147 88 -233q92 -88 238 -88q113 0 197 51q82 49 141 156 h229q-78 -199 -221 -297q-145 -98 -348 -99q-156 0 -268 58q-111 57 -176 170q-86 -119 -199 -172q-117 -55 -272 -56q-236 0 -383.5 148t-147.5 381zM256 500q0 -147 92 -244q92 -94 236 -94q168 0 284 127q117 125 117 309q0 152 -92 248q-92 94 -246 94q-170 0 -280 -125 q-111 -127 -111 -315zM1194 662h684q-23 135 -102 206q-82 72 -205 72q-135 0 -234 -74q-102 -75 -143 -204z" />
<glyph unicode="&#x178;" horiz-adv-x="1013" d="M61 1456h220l194 -721l473 721h236l-635 -958l-103 -498h-210l90 498zM403 1655l43 208h185l-45 -208h-183zM760 1655l43 208h184l-45 -208h-182z" />
<glyph unicode="&#x2c6;" horiz-adv-x="1024" d="M272 1243l267 350h184l137 -350h-108l-134 219l-225 -219h-121z" />
<glyph unicode="&#x2dc;" horiz-adv-x="1024" d="M307 1290q25 102 76 158q49 51 127 51q23 0 33 -2q27 -6 35 -8l88 -27l24 -6q8 -2 23 -2q37 0 55 16q20 16 33 56h102q-27 -100 -78 -152q-49 -49 -129 -49q-23 0 -30 2q-4 0 -13.5 2t-13.5 4l-88 29q-10 2 -27 6q-8 2 -26 2q-37 0 -58 -20q-23 -23 -30 -60h-103z" />
<glyph unicode="&#x2000;" horiz-adv-x="985" />
<glyph unicode="&#x2001;" horiz-adv-x="1970" />
<glyph unicode="&#x2002;" horiz-adv-x="985" />
<glyph unicode="&#x2003;" horiz-adv-x="1970" />
<glyph unicode="&#x2004;" horiz-adv-x="655" />
<glyph unicode="&#x2005;" horiz-adv-x="491" />
<glyph unicode="&#x2006;" horiz-adv-x="327" />
<glyph unicode="&#x2007;" horiz-adv-x="327" />
<glyph unicode="&#x2008;" horiz-adv-x="245" />
<glyph unicode="&#x2009;" horiz-adv-x="393" />
<glyph unicode="&#x200a;" horiz-adv-x="108" />
<glyph unicode="&#x2010;" horiz-adv-x="677" d="M74 457l35 184h501l-37 -184h-499z" />
<glyph unicode="&#x2011;" horiz-adv-x="677" d="M74 457l35 184h501l-37 -184h-499z" />
<glyph unicode="&#x2012;" horiz-adv-x="677" d="M74 457l35 184h501l-37 -184h-499z" />
<glyph unicode="&#x2013;" horiz-adv-x="1024" d="M0 477l29 144h995l-29 -144h-995z" />
<glyph unicode="&#x2014;" horiz-adv-x="2048" d="M-14 477l28 144h2048l-28 -144h-2048z" />
<glyph unicode="&#x2018;" horiz-adv-x="411" d="M184 997l49 252q25 133 78 181q55 49 168 55l-24 -125q-39 -8 -66 -41q-25 -31 -31 -88h72l-45 -234h-201z" />
<glyph unicode="&#x2019;" horiz-adv-x="411" d="M121 969l22 125q43 8 68 41q25 31 31 86h-72l45 235h201l-49 -254q-25 -127 -78 -178q-51 -49 -168 -55z" />
<glyph unicode="&#x201a;" horiz-adv-x="411" d="M-61 -254l24 125q41 8 68 43q25 31 30 86h-73l45 233h203l-50 -251q-25 -129 -80 -179q-56 -51 -167 -57z" />
<glyph unicode="&#x201c;" horiz-adv-x="741" d="M184 997l49 252q25 133 78 181q55 49 168 55l-24 -125q-39 -8 -66 -41q-25 -31 -31 -88h72l-45 -234h-201zM516 997l49 252q25 127 78 178q51 47 168 58l-25 -125q-45 -12 -65 -43q-25 -37 -31 -86h72l-45 -234h-201z" />
<glyph unicode="&#x201d;" horiz-adv-x="741" d="M121 969l22 125q43 8 68 41q25 31 31 86h-72l45 235h201l-49 -254q-25 -127 -78 -178q-51 -49 -168 -55zM453 969l22 125q43 8 68 41q25 31 30 86h-71l45 235h201l-50 -254q-25 -127 -77 -178q-51 -49 -168 -55z" />
<glyph unicode="&#x201e;" horiz-adv-x="741" d="M-61 -254l24 125q41 8 68 43q25 31 30 86h-73l45 233h200l-47 -251q-25 -129 -80 -179q-56 -51 -167 -57zM270 -254l25 125q41 8 67 43q25 31 31 86h-74l46 233h202l-49 -251q-25 -129 -80 -179q-57 -51 -168 -57z" />
<glyph unicode="&#x2022;" horiz-adv-x="1206" d="M307 762q0 123 86 209t211 86q123 0 209 -86t86 -209q0 -121 -88 -209t-209 -88t-209 88q-86 86 -86 209z" />
<glyph unicode="&#x2026;" horiz-adv-x="2048" d="M137 0l47 244h197l-47 -244h-197zM819 0l47 244h197l-47 -244h-197zM1503 0l47 244h197l-47 -244h-197z" />
<glyph unicode="&#x202f;" horiz-adv-x="393" />
<glyph unicode="&#x2039;" horiz-adv-x="677" d="M137 549l279 313h151l-278 -315l200 -311h-151z" />
<glyph unicode="&#x203a;" horiz-adv-x="677" d="M150 236l278 313l-201 313h150l201 -313l-279 -313h-149z" />
<glyph unicode="&#x205f;" horiz-adv-x="491" />
<glyph unicode="&#x2122;" horiz-adv-x="1705" d="M242 1378v80h452v-80h-172v-458h-108v458h-172zM813 920v538h150l151 -385l141 385h150v-538h-98v444l-166 -444h-56l-174 444v-444h-98z" />
<glyph unicode="&#xe000;" horiz-adv-x="1100" d="M0 1100h1100v-1100h-1100v1100z" />
<glyph unicode="&#xfb01;" horiz-adv-x="1036" d="M589 0l216 1100h206l-215 -1100h-207zM827 1223l45 233h207l-45 -233h-207zM27 4l178 911h-174l35 185h174q27 199 122 289q90 84 289 84h45q20 0 31 -3l-37 -194h-31q-102 0 -149 -41q-53 -45 -61 -135h180l-37 -185h-180l-176 -911h-209z" />
<glyph unicode="&#xfb02;" horiz-adv-x="1036" d="M592 0l282 1456h203l-283 -1456h-202zM27 4l178 911h-174l35 185h174q27 199 122 289q90 84 289 84h45q20 0 31 -3l-37 -194h-31q-102 0 -149 -41q-53 -45 -61 -135h180l-37 -185h-180l-176 -911h-209z" />
<glyph unicode="&#xfb03;" horiz-adv-x="1605" d="M1159 0l216 1100h206l-215 -1100h-207zM1397 1223l45 233h207l-45 -233h-207zM596 4l178 911h-174l35 185h174q27 199 122 289q90 84 289 84h45q20 0 31 -3l-37 -194h-31q-102 0 -149 -41q-53 -45 -61 -135h180l-37 -185h-180l-176 -911h-209zM27 4l178 911h-174l35 185 h174q27 199 122 289q90 84 289 84h45q20 0 31 -3l-37 -194h-31q-102 0 -149 -41q-53 -45 -61 -135h180l-37 -185h-180l-176 -911h-209z" />
<glyph unicode="&#xfb04;" horiz-adv-x="1605" d="M1162 0l282 1456h203l-283 -1456h-202zM596 4l178 911h-174l35 185h174q27 199 122 289q90 84 289 84h45q20 0 31 -3l-37 -194h-31q-102 0 -149 -41q-53 -45 -61 -135h180l-37 -185h-180l-176 -911h-209zM27 4l178 911h-174l35 185h174q27 199 122 289q90 84 289 84h45 q20 0 31 -3l-37 -194h-31q-102 0 -149 -41q-53 -45 -61 -135h180l-37 -185h-180l-176 -911h-209z" />
</font>
</defs>
</svg>
