<?xml version="1.0" standalone="no"?>
<!DOCTYPE svg PUBLIC "-//W3C//DTD SVG 1.1//EN" "http://www.w3.org/Graphics/SVG/1.1/DTD/svg11.dtd" >
<svg xmlns="http://www.w3.org/2000/svg">
<metadata>
This is a custom SVG webfont generated by Font Squirrel.
Copyright   : Copyright 19901993 Bitstream Inc  All rights reserved
</metadata>
<defs>
<font id="webfontTj9MuTK9" horiz-adv-x="1069" >
<font-face units-per-em="2048" ascent="1638" descent="-410" />
<missing-glyph horiz-adv-x="536" />
<glyph unicode=" "  horiz-adv-x="536" />
<glyph unicode="&#x09;" horiz-adv-x="536" />
<glyph unicode="&#xa0;" horiz-adv-x="536" />
<glyph unicode="!" horiz-adv-x="536" d="M137 80l133 129l138 -103l-134 -131zM160 1313h221q-12 -104 -29 -367q-25 -375 -41 -684l-73 4q-12 218 -31 455q-37 483 -47 592z" />
<glyph unicode="&#x22;" horiz-adv-x="589" d="M94 881v553h117v-553h-117zM377 881v553h119v-553h-119z" />
<glyph unicode="#" horiz-adv-x="1574" d="M104 467l43 123h320l96 272h-342l43 123h344l168 471h146l-166 -471h260l168 471h143l-164 -471h307l-43 -123h-311l-94 -272h330l-43 -123h-332l-166 -469h-145l168 469h-265l-168 -469h-143l166 469h-320zM614 590h263l96 272h-264z" />
<glyph unicode="$" d="M152 74v133q51 -63 133 -96q86 -35 194 -35v555q-170 70 -246 153q-78 88 -77 199q0 125 88 213q90 90 235 111v153h84v-149q84 0 142 -8q72 -10 120 -27l-8 -121q-40 40 -98 62q-55 20 -125 20h-31v-473q184 -76 268 -168q86 -96 87 -213q0 -133 -101 -240 q-98 -104 -254 -133v-180h-84v170q-96 6 -180 25q-82 18 -147 49zM322 1020q0 -74 38 -127q41 -57 119 -96v430q-76 -23 -116.5 -76t-40.5 -131zM563 90q88 29 133 94q47 70 47 162q0 82 -43 143.5t-137 110.5v-510z" />
<glyph unicode="%" horiz-adv-x="1253" d="M74 969q0 188 65.5 278t202.5 90q120 0 178 -80q57 -78 58 -247q0 -193 -66 -281q-66 -86 -207 -86q-119 0 -174 80q-57 82 -57 246zM96 0l944 1313h117l-944 -1313h-117zM201 985q0 -141 30 -205q31 -66 95 -65q66 0 96 69q31 68 31 209q0 133 -31 205q-31 70 -90 70 q-61 0 -96 -74q-35 -76 -35 -209zM676 301q0 188 65.5 278.5t204.5 90.5q120 0 178 -80q57 -78 58 -248q0 -193 -66 -281q-63 -86 -207 -86q-119 0 -176 80q-57 78 -57 246zM805 317q0 -141 31 -204q31 -66 94 -66q66 0 96 70q31 68 31 209q0 133 -31 204q-31 70 -90 70 q-63 0 -96 -74q-35 -76 -35 -209z" />
<glyph unicode="&#x26;" horiz-adv-x="1249" d="M76 303q0 120 74 227q78 113 225 220q-74 94 -115 176q-39 78 -39 139q0 113 94 195q90 78 234 77q121 0 200.5 -61.5t79.5 -157.5q0 -76 -63 -151q-70 -84 -205 -174l324 -451q57 68 84 129q29 68 28 117q0 14 -4 39q-2 14 -14 30h211q-43 -53 -117 -170 q-80 -126 -135 -196l149 -182q22 -28 50 -56q37 -37 57 -53h-264l-113 152q-88 -90 -178 -134q-92 -43 -190 -43q-164 0 -268.5 92.5t-104.5 235.5zM248 383q0 -126 74 -203q74 -76 198 -76q68 0 127 27q55 25 123 86l-348 471q-88 -63 -131 -141q-43 -76 -43 -164z M387 1122q0 -43 29 -106q27 -57 102 -166q76 55 113 113q35 55 35 127q0 78 -39 122q-41 47 -101 48q-61 0 -100 -39.5t-39 -98.5z" />
<glyph unicode="'" horiz-adv-x="303" d="M94 881v553h117v-553h-117z" />
<glyph unicode="(" horiz-adv-x="540" d="M127 567q0 301 102 529q102 225 287 325q-114 -194 -166 -393q-53 -203 -53 -432q0 -240 49 -469q47 -223 152 -463q-178 129 -274.5 364.5t-96.5 538.5z" />
<glyph unicode=")" horiz-adv-x="540" d="M25 -336q114 194 165 393q53 203 54 432q0 240 -49 469q-47 223 -152 463q180 -131 274 -362q96 -236 97 -541q0 -301 -103 -528q-100 -224 -286 -326z" />
<glyph unicode="*" horiz-adv-x="1024" d="M109 961l47 149l315 -143l-29 346h140l-29 -346l315 143l47 -149l-337 -72l235 -256l-129 -96l-172 303l-172 -303l-129 96l235 256z" />
<glyph unicode="+" horiz-adv-x="1705" d="M254 553v117h541v551h118v-551h539v-117h-539v-553h-118v553h-541z" />
<glyph unicode="," horiz-adv-x="536" d="M150 -227q29 49 38 84q12 41 13 82q0 40 -12.5 79.5t-36.5 85.5l167 80q18 -39 35 -92q12 -39 13 -72q0 -59 -48 -116q-42 -51 -169 -131z" />
<glyph unicode="-" horiz-adv-x="677" d="M61 412l91 116h464l-88 -122h-432q-6 0 -13 1t-9 1q-9 0 -13 4z" />
<glyph unicode="." horiz-adv-x="536" d="M133 109l166 100l104 -131l-157 -103z" />
<glyph unicode="/" horiz-adv-x="567" d="M-49 -190l557 1527h110l-557 -1527h-110z" />
<glyph unicode="0" d="M74 614q0 377 119 551q117 172 374 172q227 0 328 -159q102 -162 102 -514q0 -350 -120 -521q-119 -168 -373 -168q-221 0 -325.5 153.5t-104.5 485.5zM258 606q0 -270 70 -413q68 -137 207 -138q141 0 210.5 145.5t69.5 434.5q0 315 -65 471q-65 154 -197 154 q-145 0 -219 -166q-76 -171 -76 -488z" />
<glyph unicode="1" d="M403 0q29 25 41 145q12 117 13 508v88v113q0 248 -13 324q-12 78 -41 100l230 59q-2 -59 -6 -206.5l-6 -217.5q-4 -250 -5 -256q0 -406 13 -516q12 -113 41 -141h-267z" />
<glyph unicode="2" d="M80 0l309 385q166 207 234 340q72 139 71 244q0 115 -67.5 182.5t-186.5 67.5q-74 0 -147.5 -31t-145.5 -90v14q0 102 100.5 163.5t266.5 61.5q163 0 258 -86q96 -86 96 -231q0 -98 -49 -204.5t-151 -225.5l-396 -467l441 8q61 0 106 10.5t76 28.5v-12q0 -4 -1 -7.5 t-1 -5.5q0 -8 -10 -55q-8 -37 -25 -90h-778z" />
<glyph unicode="3" d="M127 178q57 -47 123 -72q68 -25 137 -24q135 0 221 82q82 80 82 213q0 135 -92 227q-94 94 -262 133q145 45 225 121q78 74 78 172q0 96 -57 148q-59 53 -160 53q-53 0 -109 -19q-53 -18 -104 -53q0 92 75.5 135t235.5 43q133 0 211 -69q82 -72 82 -183q0 -121 -72 -204 q-74 -86 -217 -131q178 -58 264 -154t86 -238q0 -162 -122.5 -272.5t-300.5 -110.5q-156 0 -238 51.5t-86 151.5z" />
<glyph unicode="4" d="M33 461l387 518q174 225 291 358h86v-778h47q51 0 82 2l94 6q-23 -53 -66 -75q-45 -23 -157 -29v-68q0 -211 10 -297q10 -78 33 -98h-248q23 20 33 98q10 86 10 297v66h-602zM199 559h438l8 594z" />
<glyph unicode="5" d="M137 205q57 -53 127 -82q61 -27 137 -27q115 0 189 82q72 80 72 209q0 137 -107 244q-113 113 -332 207l84 475q94 -4 148 -4q25 0 78 -1t79 -1q92 0 187 8q70 6 96 22q-4 -31 -12 -63q-10 -37 -31 -78q-37 -8 -96 -12q-78 -4 -170 -4q-37 0 -82 1t-55 1q-35 0 -80 4 l-43 -248q272 -129 395 -262q125 -133 125 -293q0 -174 -117 -291t-289 -117q-152 0 -225.5 55.5t-77.5 174.5z" />
<glyph unicode="6" d="M117 506q0 379 162 606q160 225 434 225q33 0 82 -4q39 -4 71 -12q-276 -49 -405 -207q-133 -160 -154 -473q40 71 123 111q86 41 184 41q160 0 250 -93q90 -94 90 -258q0 -203 -120 -336q-119 -131 -304 -131q-186 0 -299 146q-114 149 -114 385zM307 406 q0 -168 60 -261q61 -94 165 -94q111 0 175 99q63 96 63 266q0 133 -57 213q-55 76 -158 76q-119 0 -182 -78q-66 -82 -66 -221z" />
<glyph unicode="7" d="M123 -33q104 164 256 457q135 256 379 758h-164q-172 0 -291 -11q-100 -8 -149 -32q0 41 8 98q8 53 16 78q49 -4 162 -8q61 -2 227 -2t242 2l217 6l-22 -37q-66 -106 -95 -160l-403 -698q-147 -256 -225 -344q-82 -95 -158 -107z" />
<glyph unicode="8" d="M100 289q0 119 80 223q76 98 252 205q-111 63 -168 145t-57 174q0 141 98 221t277 80q143 0 227 -61q82 -61 82 -168t-60 -190q-59 -82 -184 -152q181 -111 252 -209q72 -100 72 -225q0 -162 -121 -260q-117 -96 -326 -97q-188 0 -307 88q-117 87 -117 226zM266 313 q0 -115 74 -188q76 -76 190.5 -76t188.5 74q72 72 72 190q0 113 -66 197q-70 88 -221 170q-117 -74 -178 -166q-60 -88 -60 -201zM379 1075q0 -80 49 -145q51 -68 158 -131q61 35 100 108q37 72 37 164q0 84 -47 141q-45 53 -119 54q-80 0 -129 -53.5t-49 -137.5z" />
<glyph unicode="9" d="M70 -39q82 25 163 72q74 43 150 114q172 164 268 371q94 203 94 414q0 160 -55 246q-53 84 -160 84q-100 0 -161 -76q-59 -74 -60 -203q0 -147 78 -227q80 -84 217 -84h4q-18 -20 -67 -39q-41 -14 -99 -15q-133 0 -223 96.5t-90 241.5q0 170 119 277q117 104 311 104 q182 0 276.5 -100t94.5 -293q0 -184 -76 -379q-80 -205 -203 -348q-98 -115 -239 -186q-145 -74 -262 -74h-48q-12 0 -32 4z" />
<glyph unicode=":" horiz-adv-x="536" d="M133 109l166 100l104 -131l-157 -103zM133 840l166 98l104 -131l-157 -100z" />
<glyph unicode=";" horiz-adv-x="536" d="M133 840l166 98l104 -131l-157 -100zM150 -227q29 49 38 84q12 41 13 82q0 40 -12.5 79.5t-36.5 85.5l167 80q18 -39 35 -92q12 -39 13 -72q0 -59 -48 -116q-42 -51 -169 -131z" />
<glyph unicode="&#x3c;" horiz-adv-x="1705" d="M264 559v103l1178 483v-127l-1000 -408l1000 -405v-129z" />
<glyph unicode="=" horiz-adv-x="1705" d="M254 360v117h1198v-117h-1198zM254 743v117h1198v-117h-1198z" />
<glyph unicode="&#x3e;" horiz-adv-x="1705" d="M264 76v129l1000 405l-1000 408v127l1178 -483v-103z" />
<glyph unicode="?" horiz-adv-x="720" d="M76 1143l12 110q49 41 119 62q74 23 147 22q143 0 232 -82q86 -80 86 -213q0 -180 -180 -397l-31 -37.5t-29 -36.5q-70 -88 -113 -168q-47 -88 -69 -163q-6 20 -14 65q-4 23 -5 72q0 147 113 297l23 28q86 121 108 179q25 61 25 129q0 90 -60 153q-59 61 -151 62 q-63 0 -117 -21q-51 -20 -96 -61zM127 57l131 142l150 -82l-121 -142z" />
<glyph unicode="@" horiz-adv-x="2048" d="M113 522q0 156 51 309q47 139 149 269q147 174 349 266q203 92 454 92q164 0 311 -43q141 -41 248 -125q127 -96 195 -229q68 -132 67 -283q0 -166 -63 -309q-59 -135 -182 -236q-70 -57 -148 -83q-82 -29 -164 -29q-102 0 -149 39q-49 40 -49 116l1 4q1 3 1 7v12 q-55 -90 -127 -133q-76 -45 -170 -45q-154 0 -234 86t-80 246q0 231 138 389q138 160 331 159q90 0 154 -40.5t96 -116.5l58 121h110l-141 -568q-4 -16 -8 -44.5t-4 -35.5q0 -45 28.5 -67.5t81.5 -22.5q45 0 101 25q53 25 102 63q90 78 139 197q51 125 51 254 q0 266 -196 428q-195 162 -518 162q-170 0 -312 -51q-147 -53 -260 -154q-139 -121 -210.5 -282.5t-71.5 -354.5q0 -170 61 -303q63 -135 186 -231q106 -84 240 -125q138 -43 295 -43q172 0 334 49q166 51 297 139l45 -66q-156 -113 -314 -165q-166 -55 -346 -56 q-188 0 -348 47t-276 138q-152 115 -227.5 272t-75.5 352zM713 446q0 -113 51 -170q53 -59 145 -59q100 0 182.5 69.5t110.5 186.5l60 242q-18 92 -72 139q-57 51 -135 51q-145 0 -243.5 -131t-98.5 -328z" />
<glyph unicode="A" horiz-adv-x="1239" d="M-63 0q94 113 188 281q78 139 197 413q96 229 143 363q57 166 57 192q0 10 -4 31q-2 14 -12 33h254q162 -528 280 -838q131 -338 228 -475h-224l-206 569h-478l-88 -215l-2 -6q-82 -195 -82 -285q0 -20 2 -30q4 -20 9 -33h-262zM393 645h414l-193 529z" />
<glyph unicode="B" horiz-adv-x="1099" d="M119 0q27 29 39 137.5t12 462.5v84q0 385 -12 492q-12 109 -39 137h172q27 0 190 8q123 6 181 6q150 0 233 -65q82 -63 82 -183q0 -111 -80 -196q-74 -80 -238 -138q180 -20 283 -114q100 -92 100 -240q0 -180 -135 -291q-137 -113 -362 -112q-53 0 -149.5 6t-137.5 6 h-139zM346 430q0 -141 4 -201q6 -88 12 -112q6 -23 52 -39q41 -14 112 -15q145 0 226 82q80 84 79 230q0 147 -92 227t-264 80h-129v-252zM346 758h55q180 0 281 71q98 72 98 207q0 100 -75 154q-72 51 -222 51q-8 0 -27.5 -1t-29.5 -1q-20 0 -61 -4q-12 -55 -15 -137 q-4 -127 -4 -273v-18v-49z" />
<glyph unicode="C" horiz-adv-x="1212" d="M76 643q0 326 184 510t512 184q51 0 152 -12t153 -12l-12 -281q-43 106 -123 162q-78 53 -192 53q-217 0 -344 -145.5t-127 -399.5q0 -264 137 -419.5t368 -155.5q108 0 203 43q98 45 164 119q-37 -141 -162 -228q-126 -86 -301 -86q-268 0 -440 186.5t-172 481.5z" />
<glyph unicode="D" horiz-adv-x="1402" d="M119 0q27 29 39 137.5t12 462.5v84q0 385 -12 492q-12 109 -39 137h149q92 0 241.5 12t213.5 12q283 0 442 -166q162 -168 162 -454q0 -336 -192 -531q-193 -197 -525 -196q-74 0 -190 6q-78 4 -162 4h-139zM346 508q0 -162 2 -221q4 -98 8 -125q8 -49 55.5 -67.5 t182.5 -18.5q248 0 387 151q137 150 137 424q0 287 -143.5 442.5t-409.5 155.5q-55 0 -104 -6q-66 -8 -99 -14q-9 -46 -12 -148q-4 -135 -4 -274v-299z" />
<glyph unicode="E" horiz-adv-x="1013" d="M119 0q27 29 39 137.5t12 462.5v84q0 385 -12 492q-12 109 -39 137h127q80 0 309 4q115 2 209 2h12q10 0 30.5 -1t29.5 -1l16 -193q-25 63 -96 88q-74 25 -277 25h-114q-12 -53 -15 -143q-4 -131 -4 -287v-68q33 -4 57 -4h103q120 0 203 6q100 8 147 17q-55 -63 -149 -92 q-88 -27 -308 -27h-22q-6 0 -16.5 1t-14.5 1v-133q0 -154 4 -289q2 -88 15 -143h118q207 0 305 33q104 35 158 108l-35 -205q-39 -8 -94 -12q-70 -4 -110 -4q-94 0 -186.5 2t-233.5 2h-168z" />
<glyph unicode="F" horiz-adv-x="899" d="M119 0q27 29 39 137.5t12 462.5v84q0 385 -12 492q-12 109 -39 137h141l168 4q84 2 211 2q86 0 123 -2q43 -2 98 -10l8 -170q-33 59 -106 80q-80 23 -246 22q-12 0 -37.5 -1t-38.5 -1q-23 0 -75 -4q-12 -57 -15 -146q-4 -131 -4 -280v-98q86 -4 115 -4q18 0 48 -1.5 t44 -1.5q78 0 149 7q70 6 138 18q-43 -66 -123 -92.5t-295 -26.5h-76v-100q0 -303 12 -389q12 -90 39 -119h-278z" />
<glyph unicode="G" horiz-adv-x="1372" d="M76 621q0 330 219 524q217 193 600 192q70 0 149 -6q82 -6 170 -18v-240q-70 82 -174 127q-98 43 -223 43q-248 0 -387 -158q-141 -160 -141 -432q0 -268 155 -424q154 -154 428 -153q33 0 82 4q35 2 70 12q9 52 12 111q4 78 4 131q0 141 -12 217q-12 80 -39 108h275 q-29 -43 -37 -112q-10 -86 -10 -262q0 -125 6 -183q6 -66 16 -92q-133 -8 -264 -20q-145 -14 -203 -15q-338 0 -516 166q-180 169 -180 480z" />
<glyph unicode="H" horiz-adv-x="1304" d="M119 0q27 29 39 137.5t12 462.5v84q0 385 -12 492q-12 109 -39 137h278q-27 -29 -39 -119q-12 -86 -12 -387v-68h612v68q0 289 -12 381q-12 94 -41 125h281q-33 -33 -41 -152q-10 -137 -10 -583q0 -340 12 -445q12 -106 39 -133h-281q29 31 41 133q12 98 12 375v156h-612 v-156q0 -303 12 -389q12 -90 39 -119h-278z" />
<glyph unicode="I" horiz-adv-x="514" d="M119 0q27 29 39 137.5t12 462.5v84q0 385 -12 492q-12 109 -39 137h278q-27 -27 -39 -133q-12 -104 -12 -443v-80v-79q0 -340 12 -445q12 -106 39 -133h-278z" />
<glyph unicode="J" horiz-adv-x="514" d="M90 -307q43 98 61.5 278.5t18.5 712.5q0 385 -12 492q-12 109 -39 137h278q-27 -27 -39 -139q-12 -111 -12 -447v-244q0 -465 -55 -606t-199 -190z" />
<glyph unicode="K" d="M119 0q27 29 39 137.5t12 462.5v84q0 385 -12 492q-12 109 -39 137h278q-27 -29 -39 -119q-12 -86 -12 -387v-88q41 4 88 39q55 41 125 116q199 215 242 277q59 84 59 125v10q0 4 -1 9t-1 7.5t-4 10.5h272q-74 -49 -225 -201q-160 -158 -371 -395l330 -467 q4 -4 11.5 -14.5l17.5 -24.5q115 -162 178 -211h-203q-33 0 -49 8t-33 31l-395 610h-41v-141q0 -303 12 -389q12 -90 39 -119h-278z" />
<glyph unicode="L" horiz-adv-x="899" d="M119 0q27 29 39 137.5t12 462.5v84q0 385 -12 492q-12 109 -39 137h278q-27 -29 -39 -137t-12 -461v-84q0 -268 4 -367q6 -154 15 -188q8 0 22 -1t21 -1h65q162 0 246 32q86 34 141 111l-45 -205q-43 -10 -94 -12q-70 -4 -111 -4q-92 0 -186 2t-234 2h-71z" />
<glyph unicode="M" horiz-adv-x="1585" d="M70 0q59 53 84 326q27 299 26 843q0 53 -12 84q-14 35 -39 60h229q25 0 37 -8q6 -4 17 -29l370 -989l412 979q12 28 25 37q14 10 43 10h200q-25 -35 -37 -107q-12 -74 -12 -213q0 -522 21 -719q20 -205 75 -274h-301q29 45 41.5 108.5t12.5 188.5v12l-5 164l-12 717 l-512 -1219l-473 1219l-4 -895v-64q0 -102 10 -143q12 -53 37 -88h-233z" />
<glyph unicode="N" horiz-adv-x="1355" d="M94 0q39 51 57.5 235.5t18.5 542.5q0 307 -16 410q-14 94 -60 125h213q57 0 129 -109l17.5 -24.5t11.5 -18.5l178 -268q254 -387 451 -660l2 574q0 274 -13 373q-12 102 -41 133h195q-29 -27 -41 -150t-12 -491v-262v-416h-133q-59 96 -338 500l-455 663l6 -661 q4 -254 17 -340q14 -100 51 -156h-238z" />
<glyph unicode="O" horiz-adv-x="1419" d="M76 631q0 342 170 524t491 182q303 0 457 -161q152 -160 152 -482q0 -326 -183 -524q-180 -195 -485 -195q-289 0 -445 170q-157 175 -157 486zM283 686q0 -289 120.5 -450.5t337.5 -161.5q184 0 293 145q106 143 107 402q0 291 -115 458q-113 166 -311 166 q-203 0 -318 -147q-114 -150 -114 -412z" />
<glyph unicode="P" horiz-adv-x="1013" d="M119 0q27 29 39 137.5t12 462.5v84q0 385 -12 492q-12 109 -39 137h65q76 0 226 10q121 8 182 8q186 0 287 -90q98 -90 98 -262q0 -182 -106.5 -295t-272.5 -113q-68 0 -111 11q-47 10 -94 34h21q168 0 262 94.5t94 260.5q0 139 -65.5 208.5t-202.5 69.5q-51 0 -74 -2 q-41 -4 -63 -8q-12 -53 -15 -197q-4 -205 -4 -413q0 -387 12 -494q12 -104 39 -135h-278z" />
<glyph unicode="Q" horiz-adv-x="1382" d="M76 631q0 346 170 524q172 182 491 182q274 0 422 -161q145 -160 146 -465q0 -274 -135.5 -458.5t-372.5 -225.5q158 -82 317 -129q154 -45 281 -45q6 0 20.5 1t22.5 1q18 0 47 4q-55 -55 -127 -82q-76 -29 -162 -29q-147 0 -326 70q-176 70 -360 196q-211 31 -322 189 q-112 160 -112 428zM283 670q0 -258 120.5 -409.5t317.5 -151.5q180 0 280 141q100 139 101 389q0 270 -110.5 438t-280.5 168q-205 0 -316 -149q-112 -154 -112 -426z" />
<glyph unicode="R" horiz-adv-x="1079" d="M119 0q27 29 39 137.5t12 462.5v84q0 385 -12 492q-12 109 -39 137h59q72 0 268 8q147 6 177 6q156 0 235.5 -67.5t79.5 -194.5t-80 -225.5t-231 -161.5l293 -408q70 -96 135 -168q63 -70 110 -102h-194q-35 0 -60 10q-18 8 -43 43l-350 492q-35 51 -72 71q-31 16 -84 17 h-16v-125q0 -303 12 -389q12 -90 39 -119h-278zM346 713q25 -4 39 -6t47 -2q147 0 230 77q80 78 79 224q0 121 -61 180q-63 59 -186 59q-18 0 -43 -1t-33 -1q-20 0 -53 -4q-12 -53 -15 -139q-4 -127 -4 -271v-22v-94z" />
<glyph unicode="S" horiz-adv-x="983" d="M59 53v223q63 -104 156 -155q96 -53 213 -53q121 0 193 69q76 72 75 180q0 82 -51 150q-49 66 -168 129q-8 4 -26 14q-346 190 -347 385q0 151 117 246q119 96 309 96q35 0 134 -4q20 0 40.5 -1t29.5 -2t14 -1l6 -1q6 -1 10 -1h22h52v-213q-41 66 -109 98q-74 35 -162 35 q-129 0 -202.5 -55t-73.5 -152q0 -139 270 -284q12 -4 14 -6q168 -88 242 -179q74 -88 74 -198q0 -164 -135 -281t-334 -117q-78 0 -168 19q-78 16 -195 59z" />
<glyph unicode="T" horiz-adv-x="1112" d="M35 1151l49 162h1040q-34 -55 -86 -80t-135 -25l-250 -2q-4 -90 -8 -278q-2 -94 -2 -299q0 -387 12 -494q12 -104 39 -135h-278q27 31 39 133q12 104 12 445v79q0 209 -2 295q-2 94 -10 250h-217q-71 0 -117 -12q-49 -12 -86 -39z" />
<glyph unicode="U" horiz-adv-x="1345" d="M119 1313h278q-29 -27 -41 -154t-12 -557q0 -313 72 -416q70 -100 248 -100q182 0 258 125q78 127 77 446q0 406 -12 517q-12 109 -39 139h281q-29 -29 -41 -139.5t-12 -516.5t12 -516q12 -113 41 -141h-225l6 193q-68 -109 -174 -162q-111 -55 -250 -56q-217 0 -318 105 q-100 102 -100 334q0 18 1 66t1 77v100q0 403 -12 514q-12 113 -39 142z" />
<glyph unicode="V" horiz-adv-x="1126" d="M-18 1313h149q49 0 66 -10q12 -6 28 -52q27 -61 51 -139q0 -2 24 -73.5l38 -116.5l240 -766l223 559q59 150 100 303q39 150 39 207q0 12 -4 41q-2 14 -10 47h260q-141 -199 -432 -951l-146 -372h-166q-119 455 -249 829q-123 355 -211 494z" />
<glyph unicode="W" horiz-adv-x="1654" d="M8 1313h131q72 0 92 -27q18 -25 48 -153q80 -393 159 -963q0 -4 1 -7l1 -3l199 600q43 133 65.5 233.5t22.5 169.5q0 35 -14 78q-10 33 -39 72h350q-18 -27 -35 -66q-12 -31 -12 -61q0 -18 6 -55t18 -80l238 -891l143 579q35 139 58 262q20 109 20 166q0 45 -10 82 t-29 64h271q-72 -78 -152 -324q-82 -254 -256 -999h-170q-8 61 -24 131q-8 41 -46 168l-229 811q-63 -258 -180 -617q-125 -385 -152 -493h-176q-68 526 -151 887q-90 378 -148 436z" />
<glyph unicode="X" horiz-adv-x="1212" d="M-6 0q59 45 143 131q86 90 144 168l247 330l-229 348q-106 166 -176 250q-55 68 -100 86h219q37 0 59.5 -16.5t67.5 -88.5l268 -434l143 199q72 96 97 155q29 68 28 115q0 12 -4 37q0 6 -14 33h268q-98 -104 -264 -334l-29 -41l-176 -242l379 -542q35 -53 76 -95 q35 -35 78 -59h-195q-53 0 -82 16q-28 15 -61 68l-301 473l-136 -190l-43 -62q-129 -182 -129 -235q0 -20 7 -39q6 -16 22 -31h-307z" />
<glyph unicode="Y" horiz-adv-x="993" d="M-29 1313h166q63 0 94 -25q35 -29 70 -100q61 -125 109 -250q39 -100 106 -305l174 319l12 25q102 193 103 250q0 20 -10 45q-8 20 -27 41h262l-242 -369q-96 -152 -137 -231q-47 -96 -67 -195q-20 -96 -21 -309q0 -53 10 -111q9 -52 31 -98h-268q27 51 39 125 q14 90 14 182q0 193 -51 361q-49 162 -186 401q-43 74 -97 150q-43 59 -84 94z" />
<glyph unicode="Z" horiz-adv-x="1269" d="M0 0l606 793q162 219 305 436h-293q-258 0 -356 -25q-102 -25 -158 -84l29 197q37 -4 119 -4h596q86 0 178 1t98 1q61 0 70 2l-47 -64q-633 -817 -862 -1167q55 -2 120.5 -3t106.5 -3t63 -2q53 -2 123 -2q256 0 357 33q102 33 164 116l-39 -225h-1180z" />
<glyph unicode="[" horiz-adv-x="540" d="M199 -336v1757h284q-84 -37 -114 -114q-33 -82 -33 -312v-905q0 -231 33 -313q31 -76 114 -113h-284z" />
<glyph unicode="\" horiz-adv-x="567" d="M-49 1337h110l557 -1527h-110z" />
<glyph unicode="]" horiz-adv-x="540" d="M57 -336q84 37 115 113q33 82 33 313v905q0 229 -33 312q-31 78 -115 114h285v-1757h-285z" />
<glyph unicode="^" horiz-adv-x="2048" d="M422 901l520 557h162l520 -557h-158l-442 438l-442 -438h-160z" />
<glyph unicode="_" horiz-adv-x="1024" d="M0 -365h1024v-118h-1024v118z" />
<glyph unicode="`" horiz-adv-x="1024" d="M262 1399h178q41 -90 88 -172q49 -84 121 -178q-117 25 -211 110q-92 82 -176 240z" />
<glyph unicode="a" horiz-adv-x="827" d="M41 190q0 82 63 140q68 61 275 151q125 55 153.5 90t28.5 115q0 100 -41 141q-45 45 -131 45q-43 0 -74 -14q-35 -16 -51 -41l-22 -45q-37 -90 -99 -90q-35 0 -55 20.5t-20 55.5q0 80 106 129q113 51 283 51q137 0 194 -45q59 -47 60 -152q0 -16 -6 -149q-4 -88 -5 -250 q0 -160 17 -236q18 -84 53 -106l-184 -12q-12 31 -19 71q-4 27 -8 88q-41 -86 -106 -127q-72 -45 -154 -45q-106 0 -182 63.5t-76 151.5zM209 229q0 -57 45 -96q43 -37 115 -37q95 0 141 62q45 59 45 190v144q-230 -92 -289 -142q-57 -49 -57 -121z" />
<glyph unicode="b" horiz-adv-x="966" d="M57 1399l215 37v-682q49 86 134 135q82 49 176 49q147 0 235 -123q88 -121 88 -330q0 -238 -114 -374q-114 -135 -320 -136q-49 0 -139 13q-104 14 -129 14t-41 -2q-33 -4 -51 -8q6 76 14 231q4 88 4 281q0 530 -16 704q-16 163 -56 191zM270 424q0 -215 49.5 -295 t163.5 -80q121 0 189 105q70 109 69 286q0 174 -67 279q-66 102 -178 102q-117 0 -172 -94q-54 -92 -54 -303z" />
<glyph unicode="c" horiz-adv-x="833" d="M61 438q0 219 136 361q133 139 352 139q57 0 106 -6q43 -6 93 -19l-7 -215q-29 84 -77 125q-53 43 -125 43q-137 0 -224 -114q-84 -111 -84 -301q0 -164 84 -263q86 -100 220 -100q80 0 143 31q70 33 106 84v-4q0 -100 -82 -162q-84 -61 -219 -62q-184 0 -303 129 q-119 127 -119 334z" />
<glyph unicode="d" horiz-adv-x="983" d="M61 424q0 240 145.5 377t401.5 137h56q14 0 43 -4v215q0 123 -9 172q-10 57 -28 84l207 31q-10 -90 -21 -359q-8 -229 -8 -581q0 -319 10 -390q12 -84 41 -106l-192 -12q-2 10 -4.5 26.5t-2.5 18.5q-2 14 -2 45v24q-41 -59 -114 -94q-68 -33 -158 -33q-163 0 -264 123 q-101 121 -101 326zM225 457q0 -168 82 -270.5t209 -102.5q102 0 146 57q43 58 43 228q0 299 -3 350q-2 74 -12 96q-10 27 -39 39q-31 12 -80 12q-162 0 -254 -108q-92 -106 -92 -301z" />
<glyph unicode="e" horiz-adv-x="870" d="M61 453q0 225 115 354q117 131 311 131q143 0 231.5 -76t88.5 -194q0 -49 -53 -64q-59 -16 -312 -16q-29 0 -67.5 1t-50.5 1q-55 0 -80 2q-6 -18 -10.5 -55t-4.5 -62q0 -176 82 -272q82 -98 219 -99q80 0 140 29q68 33 123 90v-24q0 -84 -100.5 -154t-227.5 -70 q-184 0 -295 129q-109 128 -109 349zM256 651h18q18 0 49 -2t89 -2h26q139 0 168 15q31 15 31 55q0 63 -49 106q-51 45 -119 45q-84 0 -143 -61q-58 -60 -70 -156z" />
<glyph unicode="f" horiz-adv-x="481" d="M55 915h82v39v60q0 152 6 213q6 59 25 90q31 55 113 88q80 33 196 33q68 0 107 -23q37 -22 37 -61q0 -25 -23 -43q-22 -18 -55 -19q-39 0 -88 37t-70 37q-53 0 -77.5 -80t-24.5 -260v-68q0 -8 1 -22t1 -21h157v-8q0 -2 1 -5l1 -3q0 -29 -26 -41q-25 -10 -133 -14v-387 v-197q0 -133 10 -190q8 -51 33 -70h-234q25 18 33 70q10 57 10 190v197v387q-6 0 -20.5 1t-20.5 1q-12 0 -41 4v65z" />
<glyph unicode="g" horiz-adv-x="929" d="M2 -326q0 129 209 299q23 18 55.5 46t38.5 34q-104 22 -147 56q-45 35 -45 84q0 57 102 110q90 47 131 82q-90 12 -147.5 84t-57.5 178q0 131 101 211q102 80 262 80q51 0 86 -8q45 -10 74 -25q6 0 29.5 1t39.5 1q88 4 109 11q0 -2 1 -7.5t1 -9.5l2 -8v-8q0 -2 -1 -6.5 t-1 -6.5q-14 -10 -45 -16q-29 -6 -76 -6q29 -31 43 -70q14 -37 14 -90q0 -117 -80 -196q-78 -78 -227 -109q-94 -45 -139 -80q-47 -37 -47 -67q0 -49 243 -111q14 -4 31 -8q227 -59 299 -119q74 -61 74 -166q0 -86 -51 -149q-55 -68 -209 -162q-8 -4 -25 -15 q-174 -106 -303 -106q-141 0 -244 80q-100 79 -100 192zM150 -252q0 -96 92 -157.5t237 -61.5q121 0 205 78q86 80 86 182q0 90 -72 143q-70 51 -297 101q-135 -82 -192 -150q-59 -69 -59 -135zM303 684q0 -100 49 -167.5t125 -67.5q65 0 105 49q39 47 39 133q0 106 -48 178 q-45 70 -116 70q-68 0 -111 -54q-43 -52 -43 -141z" />
<glyph unicode="h" horiz-adv-x="937" d="M94 0q29 18 37 92q10 86 10 270q0 129 -2 262.5t-2 336.5v165q0 139 -10 201q-10 55 -33 74l203 35l-16 -662q68 88 137 127q68 37 162 37q80 0 133 -39t78 -111q14 -37 16 -106q4 -94 4 -240v-196v-31q0 -104 10 -152q8 -43 33 -63h-201q4 68 9 236q2 94 2 372 q0 119 -39 166q-40 49 -136 49q-113 0 -159 -63q-45 -59 -45 -303v-197q0 -133 10 -190q8 -51 33 -70h-234z" />
<glyph unicode="i" horiz-adv-x="421" d="M78 1194l153 96l86 -141l-151 -94zM94 0q25 18 33 70q10 57 10 190v197v114q0 199 -10 267q-8 61 -33 77q102 6 109 7q37 4 92 16q-4 -37 -8 -176q-2 -86 -2 -389v-117q0 -129 10 -186q8 -51 33 -70h-234z" />
<glyph unicode="j" horiz-adv-x="421" d="M45 -592q49 39 72 248q20 199 20 915q0 184 -10 260q-10 70 -33 84l201 23q-4 -47 -8 -145q-4 -102 -4 -183q0 -41 4 -344t4 -338q0 -240 -59.5 -370.5t-182.5 -155.5zM84 1210l162 80l69 -147l-168 -80z" />
<glyph unicode="k" horiz-adv-x="823" d="M76 1405l209 31v-897q125 86 207 178q76 84 75 141q0 10 -4 31q-2 14 -12 26h207l-264 -282q-6 -6 -15.5 -16.5t-15.5 -16.5t-12 -10l-35 -29l248 -340q141 -203 186 -221h-213l-301 455q-12 18 -25 30q-10 10 -20 11h-2l-4 -2v-234q0 -133 10 -190q8 -51 33 -70h-234 q25 16 35 82q10 72 10 235q0 8 -1 66.5t-1 108.5v210v203q0 47 1 103.5t1 64.5q0 176 -14 240q-16 72 -49 92z" />
<glyph unicode="l" horiz-adv-x="421" d="M94 0q27 16 35 82q10 76 10 237q0 8 -1 67.5t-1 109.5v211v315q0 209 -10 291q-8 74 -33 88l201 35q-4 -47 -8 -285q-2 -150 -2 -727v-162q0 -135 10 -192q8 -51 33 -70h-234z" />
<glyph unicode="m" horiz-adv-x="1411" d="M94 0q25 18 33 70q10 57 10 190v197v63q0 215 -10 291q-8 66 -33 84l187 20q4 -14 8 -47q2 -14 2 -43v-20q57 63 133 98t151 35q70 0 125 -39q51 -35 76 -108q68 74 139 112q63 35 144 35q74 0 129 -39t76 -106q12 -37 16 -105q4 -90 4 -235v-189v-57q0 -102 10 -148 q8 -39 33 -59h-199q4 68 9 203q2 72 2 309v27q0 193 -35 239q-39 51 -127 51q-43 0 -84 -18q-37 -16 -68 -57q-25 -35 -32 -95q-8 -57 -9 -219v-223q0 -94 11 -149q8 -47 32 -68h-231q25 20 33 63q8 41 8 185v78v299q0 104 -39 155q-37 49 -123 49q-47 0 -84 -18t-65 -57 q-23 -29 -33 -92q-10 -68 -10 -201q0 -6 1 -44t1 -69v-131q0 -94 10 -149q10 -49 33 -68h-234z" />
<glyph unicode="n" horiz-adv-x="937" d="M94 0q25 18 33 70q10 57 10 190v197v63q0 215 -10 291q-8 66 -33 84l187 20q4 -12 8 -49q2 -16 2 -53v-27q59 76 129 115q68 37 160 37q131 0 180 -86q51 -90 51 -379v-209v-57q0 -102 10 -148q8 -39 33 -59h-201q4 76 9 236q2 82 2 274v49q0 172 -39 217q-41 47 -136 47 q-113 0 -159 -63q-45 -59 -45 -303v-197q0 -133 10 -190q8 -51 33 -70h-234z" />
<glyph unicode="o" horiz-adv-x="993" d="M61 438q0 227 127 363q129 137 334 137q195 0 303.5 -114.5t108.5 -315.5q0 -246 -123 -389.5t-330 -143.5q-201 0 -309 121q-111 123 -111 342zM227 483q0 -199 80 -315q78 -115 219 -115q119 0 181 101q61 101 61 301q0 184 -78 295q-80 113 -203 112q-127 0 -192 -96 q-68 -99 -68 -283z" />
<glyph unicode="p" horiz-adv-x="972" d="M94 -573q29 35 37 124q10 102 10 302v317v106q0 330 -10 478q-8 127 -37 161l187 23q-2 -8 -3.5 -25.5t-1.5 -25.5q-2 -10 -3 -38t-1 -42q72 63 146 98q68 33 135 33q152 0 254 -129q102 -131 102 -328q0 -223 -161 -364q-163 -141 -412 -142q-18 0 -37 2q-4 0 -8 1.5 t-6 1.5v-37v-17q0 -18 -1 -54t-1 -52q0 -193 10 -281q8 -78 35 -112h-234zM274 334q0 -170 39 -211q39 -43 150 -43q139 0 215 88q74 86 74 254q0 175 -80 289q-80 115 -199 114q-39 0 -90 -20q-47 -18 -72 -47q-18 -23 -28 -99q-8 -66 -9 -266v-59z" />
<glyph unicode="q" horiz-adv-x="976" d="M61 438q0 227 127 363q129 137 334 137q184 0 289 -113q104 -114 104 -313q0 -186 -71 -313q-70 -125 -205 -174q186 -115 367 -179q172 -61 315 -61h25q4 0 13 1t15 1q-31 -41 -86 -63q-57 -23 -133 -23q-137 0 -317 70q-166 63 -389 211q-184 6 -285 124 q-103 121 -103 332zM227 483q0 -197 76 -309.5t205 -112.5q121 0 182 99q59 94 60 301q0 182 -72 291q-74 111 -191 110q-127 0 -192 -96q-68 -99 -68 -283z" />
<glyph unicode="r" horiz-adv-x="634" d="M94 0q25 18 33 70q10 57 10 190v197v63q0 215 -10 291q-8 66 -33 84q10 2 41 7t51 9q49 8 62 9q29 0 33 -84q0 -8 1 -22.5t1 -18.5q51 76 100 108q53 35 117 35q51 0 80 -20q31 -20 30 -58q0 -31 -20 -45q-23 -16 -60 -16q-4 0 -53 4q-25 2 -57 2q-83 0 -111 -55 q-27 -53 -26 -265q0 -6 1 -45t1 -71v-142q0 -102 10 -157q10 -53 33 -70h-234z" />
<glyph unicode="s" horiz-adv-x="727" d="M37 68q0 2 4 59q0 10 10 100q35 -92 96.5 -135t157.5 -43q86 0 141.5 49t55.5 123q0 61 -35 103q-37 43 -158 108q-131 72 -178 131q-51 63 -51 144q0 109 82 170q83 61 233 61q47 0 103 -6q33 -4 116 -21l-6 -174q-35 66 -92 99q-55 33 -123 32q-70 0 -114 -34 q-43 -34 -43 -93q0 -100 206 -221q12 -6 19 -10q123 -71 166 -123q41 -49 41 -127q0 -115 -109 -201q-104 -84 -262 -84q-115 0 -186 27q-74 27 -74 66z" />
<glyph unicode="t" horiz-adv-x="557" d="M51 842v65l101 8l4 254l149 45l-6 -299h166q12 0 14 -2t2 -10q0 -33 -41 -47t-125 -14h-16l-10 -539v-14q0 -104 24 -148q27 -45 80 -45q35 0 62 15q29 16 59 47l-6 -92q-35 -41 -88 -68q-45 -23 -107 -23q-88 0 -131 65.5t-43 192.5v17l11 588z" />
<glyph unicode="u" horiz-adv-x="956" d="M88 915l135 21q2 0 4 1t4 1h5q31 0 37 -12.5t6 -59.5l-5 -475v-12q0 -152 45.5 -215.5t145.5 -63.5q115 0 160 78q47 82 47 291v238q0 98 -10 149q-10 47 -31 59l200 23q-4 -59 -8 -229q-4 -201 -4 -328v-115q0 -135 10 -192q8 -51 35 -74l-162 -12h-10l-6 2q-2 4 -2 8v8 l-6 150q-47 -88 -119 -133q-76 -47 -156 -48q-78 0 -141 35q-59 33 -94 96q-23 43 -31 107q-10 72 -10 211v39q0 227 2 338q0 10 1 22l1 13q0 31 -10 51q-6 14 -33 28z" />
<glyph unicode="v" horiz-adv-x="796" d="M-16 911l149 17h19q45 0 155 -381l123 -408q92 246 150 445q55 190 55 256q0 14 -4 39q-2 12 -15 36h213q-43 -41 -149 -299q-104 -255 -227 -626h-121q-131 451 -217 672q-92 241 -131 249z" />
<glyph unicode="w" horiz-adv-x="1189" d="M10 915l117 9q6 0 17.5 1t15.5 3q59 0 127 -473l23.5 -164t25.5 -170q94 254 141 432q51 188 51 256q0 27 -8 59q-6 27 -24 47h247q-12 -20 -16 -32.5t-4 -36.5q0 -53 166 -711q4 -12 4 -14q78 289 108 440q35 178 35 270q0 25 -6 48q-4 18 -20 36h192q-43 -59 -106 -262 q-57 -186 -168 -663h-129l-137 514q-51 184 -70 237q-55 -212 -135 -460q-84 -260 -90 -291h-134q-90 508 -135 696q-45 190 -88 229z" />
<glyph unicode="x" horiz-adv-x="757" d="M-33 0q78 53 197 242l20 32l121 189l-145 291q-45 88 -72 123q-25 31 -47 38l143 11l4 1l5 1h6q23 0 37 -15q10 -10 43 -71l120 -250l142 219q47 74 102 131q47 51 125 107l-322 -519l189 -354q45 -84 74 -121q31 -39 65 -55l-108 -20l-4 -2q-4 -1 -9 -1q-10 -2 -18 -2 q-33 0 -55 21q-25 22 -56 80l-174 330l-145 -254l-2 -5q-49 -86 -49 -124q0 -2 1 -6.5t1 -6.5t4 -10h-193z" />
<glyph unicode="y" horiz-adv-x="770" d="M-305 -498q0 20 20 29q18 8 84 8q6 0 23.5 -1t27.5 -1h39q106 0 154 21q49 20 88 69q72 90 119 193q45 98 45 172q0 45 -49 235q-47 182 -127 416q-55 160 -80 209q-25 51 -49 59l141 17h19q43 0 153 -414q61 -229 105 -375q92 252 147 442.5t55 258.5q0 16 -4 41 q-2 14 -14 34h213q-61 -70 -203 -440l-102 -268q-181 -461 -320 -633t-309 -172q-72 0 -125 31q-51 30 -51 69z" />
<glyph unicode="z" horiz-adv-x="894" d="M-6 0l639 848h-195q-164 0 -243 -29q-78 -29 -117 -94l39 190h733l-639 -849h252q197 0 278.5 28.5t130.5 98.5l-26 -193h-852z" />
<glyph unicode="{" horiz-adv-x="1024" d="M172 467v127h23q6 0 13 -1t9 -1q133 0 188.5 61.5t55.5 214.5v244q0 152 22 215q23 66 78 98q41 27 102.5 39.5t159.5 12.5h35v-127q-2 0 -9 1t-13 1h-23q-121 0 -164 -47q-43 -46 -43 -197v-242q0 -166 -43 -235q-41 -70 -155 -101q115 -31 155 -100q43 -70 43 -235 v-242q0 -150 43 -195q43 -47 170 -47h39v-125h-35q-98 0 -159.5 12.5t-102.5 39.5q-57 39 -78 100q-23 68 -22 213v244q0 152 -55.5 213t-188.5 61h-22q-6 0 -13.5 -1t-9.5 -1z" />
<glyph unicode="|" horiz-adv-x="1024" d="M449 -483v2048h126v-2048h-126z" />
<glyph unicode="}" horiz-adv-x="1024" d="M166 -289q2 0 9 -1t13 -1h23q121 0 164 47t43 199v240q0 166 43 235q41 70 155 100q-115 31 -155 101q-43 70 -43 235v242q0 151 -43 197q-43 47 -170 47h-39v125h35q100 0 161.5 -12.5t102.5 -39.5q53 -33 76 -98q23 -68 22 -215v-244q0 -154 55.5 -215t190.5 -61 q2 0 9 1t13 1h23v-127q-2 0 -9 1t-14 1h-22q-135 0 -190.5 -61.5t-55.5 -214.5v-242q0 -150 -22 -217q-20 -61 -76 -99q-45 -29 -98 -38q-49 -10 -160 -11h-41v125z" />
<glyph unicode="~" horiz-adv-x="1705" d="M178 461v133q98 70 203 108q98 37 184 37q55 0 117 -12q53 -10 174 -53q6 -2 16.5 -6t26.5 -11q154 -57 246 -57q84 0 174 37t211 121v-131q-104 -74 -197 -109q-90 -35 -190 -35q-49 0 -90 9q-57 12 -101 26q-25 8 -88 31q-205 72 -301 72q-84 0 -174 -37 q-94 -39 -211 -123z" />
<glyph unicode="&#xa0;" />
<glyph unicode="&#xa1;" horiz-adv-x="536" d="M127 1206l133 131l137 -102l-133 -131zM154 0q14 174 28 389q25 381 41 662l76 -4q6 -123 29 -447q18 -270 49 -600h-223z" />
<glyph unicode="&#xa2;" d="M174 629q0 195 104.5 328t280.5 159v164h76v-158h10q63 0 121 -14q63 -16 82 -29q10 -6 12 -30q4 -37 4 -70q0 -2 -4 -72v-18q-33 82 -90 123t-135 41v-756h10q65 0 129 31q61 29 100 82q-4 -94 -59 -144q-59 -51 -180 -76v-190h-76v186q-180 16 -282.5 133t-102.5 310z M342 664q0 -145 53 -234q53 -86 164 -127v746q-102 -18 -159.5 -118.5t-57.5 -266.5z" />
<glyph unicode="&#xa3;" d="M37 121q0 58 49 98q47 39 117 39q59 0 106 -16q59 -20 129 -62q12 18 21 45q8 29 8 39q0 55 -37 150t-117 239h-209v72h175q-39 68 -66 143q-20 59 -20 121q0 152 110.5 250t290.5 98q61 0 133 -10q74 -10 123 -29l-10 -159q-55 57 -123 90q-66 31 -142 31 q-111 0 -174 -51.5t-63 -139.5q0 -78 121 -283q8 -12 14 -22t9 -15.5t6.5 -10.5t7.5 -13h268v-72h-232q29 -66 46 -129q14 -51 14 -102q0 -78 -21 -139q-23 -70 -63 -133q33 -16 69.5 -22.5t81.5 -6.5q102 0 183 31q82 31 133 86q0 -2 1 -7l1 -4v-10q0 -94 -82 -168 q-84 -74 -186 -74q-61 0 -123 23q-63 25 -142 78q-53 -51 -106 -76q-52 -25 -117 -25q-84 0 -133 41q-51 44 -51 105zM117 119q0 -33 28 -51t74 -19q49 0 92 18.5t72 53.5q-41 31 -86 51q-43 18 -82 18q-41 0 -72 -20q-26 -18 -26 -51z" />
<glyph unicode="&#xa4;" horiz-adv-x="1239" d="M86 424l207 205q-45 61 -66 123q-23 68 -22.5 133t22.5 133q20 61 66 123l-207 205l72 73l207 -207q61 46 122 68q63 23 134 23q68 0 135 -23q63 -20 125 -68l204 207l72 -73l-205 -205q43 -57 64 -121q23 -68 22.5 -135.5t-22.5 -134.5q-23 -70 -64 -121l205 -205 l-72 -74l-204 207q-63 -47 -121 -65q-68 -23 -139.5 -23t-135.5 23q-68 25 -120 65l-207 -207zM309 887q0 -131 92.5 -223.5t221.5 -92.5t221 92.5t92 223.5q0 129 -92 221t-221 92t-221.5 -92t-92.5 -221z" />
<glyph unicode="&#xa5;" d="M49 1313q4 0 20.5 1t26.5 1q43 2 84 2q55 0 92 -27q33 -25 68 -102q47 -104 98 -244q41 -113 109 -321l174 329l10 21q102 190 103 254q0 27 -9 45q-6 14 -28 41h227l-168 -275q-68 -113 -129 -227h236v-72h-273l-65 -137h338v-72h-359v-135q0 -211 10 -297 q10 -78 33 -98h-246q23 23 31 94q10 82 10 301v135h-333v72h315l-59 137h-256v72h229l-123 258q-49 106 -92 170q-40 59 -74 74z" />
<glyph unicode="&#xa6;" horiz-adv-x="1024" d="M449 -350v758h126v-758h-126zM449 674v758h126v-758h-126z" />
<glyph unicode="&#xa7;" horiz-adv-x="1024" d="M70 575q0 98 59 181q58 80 172 135q-47 41 -70 86q-20 41 -20 96q0 123 92 193q94 72 258 71q27 0 105 -8q74 -8 137 -20l-8 -193q-43 74 -104.5 111t-137.5 37q-84 0 -129 -39q-47 -41 -47 -105q0 -104 268 -268l64 -39q0 -2 2 -2t4 -2q260 -162 260 -330 q0 -98 -62 -176q-59 -76 -184 -131q72 -57 100 -111q31 -55 31 -118q0 -129 -121 -221.5t-286 -92.5q-125 0 -207 29q-80 27 -80 76q0 12 4 69q2 16 10 103q39 -98 113 -154q72 -53 172 -53q101 0 166 55q66 55 65 142q0 113 -243 272q-20 12 -36 22.5t-26 16.5l-61 41 q-260 163 -260 327zM203 637q0 -139 305 -324q102 -61 162 -100q89 43 129 98q41 57 41 133q0 113 -244 263q-158 98 -234 149q-88 -47 -122 -94q-37 -53 -37 -125z" />
<glyph unicode="&#xa8;" horiz-adv-x="1024" d="M229 1208l142 121l102 -123l-143 -119zM549 1208l143 121l103 -123l-144 -119z" />
<glyph unicode="&#xa9;" horiz-adv-x="1705" d="M119 725q0 139 57 278.5t162 243.5q98 100 233 158q133 55 281 55q150 0 285 -55t239 -160q100 -100 155.5 -235.5t55.5 -284.5q0 -156 -53 -283q-57 -135 -158 -233q-104 -104 -246 -162q-139 -57 -278 -57q-147 0 -278.5 55t-237.5 162q-104 100 -162 239 q-55 132 -55 279zM207 725q0 -127 49 -244q49 -115 141 -211q92 -92 209 -141t246 -49q127 0 248 49q117 47 215 143q94 92 139 205q47 119 47 248q0 131 -49 250q-47 113 -139 209q-88 88 -209 139q-117 49 -252 49q-129 0 -248 -47q-113 -45 -205 -139q-96 -100 -143 -213 q-49 -121 -49 -248zM465 721q0 205 108 332q106 125 287 125q137 0 229.5 -74t104.5 -193h-129q-16 80 -70 121q-55 43 -139 43q-119 0 -182 -92q-66 -94 -66 -260q0 -162 66 -252q68 -92 182 -92q86 0 145.5 49t73.5 133h129q-12 -129 -108 -207q-98 -80 -246 -80 q-176 0 -281 121q-104 120 -104 326z" />
<glyph unicode="&#xaa;" horiz-adv-x="622" d="M31 713q0 53 47 96q41 39 207 109q92 35 116 63q20 23 21 80q0 68 -31 98.5t-98 30.5q-29 0 -55 -10q-23 -8 -39 -29l-17 -31q-27 -63 -73 -63q-27 0 -41 14q-16 16 -17 39q0 55 80 92q76 35 211 35q104 0 145 -33q45 -35 45 -106q0 -4 -1 -16.5t-2 -37t-1 -51.5 q-2 -61 -2 -174q0 -106 13 -164q12 -59 39 -75l-138 -9q-6 16 -14 50q0 4 -6 61q-31 -57 -80 -88t-115 -31q-76 0 -137 45q-57 44 -57 105zM158 739q0 -41 32 -65q37 -27 86 -27q72 0 107 43q33 41 33 133v101q-178 -68 -213 -99q-45 -39 -45 -86z" />
<glyph unicode="&#xab;" horiz-adv-x="890" d="M61 465l447 377q-6 -43 -21 -78q-12 -29 -38 -64l-203 -235l203 -236q23 -27 38 -61q14 -31 21 -80zM383 465l446 377q-6 -47 -20 -80q-12 -31 -37 -62l-203 -235l203 -236q20 -23 37 -59q14 -31 20 -82z" />
<glyph unicode="&#xac;" horiz-adv-x="1705" d="M254 741v117h1198v-502h-115v385h-1083z" />
<glyph unicode="&#xad;" horiz-adv-x="677" d="M61 412l91 116h464l-88 -122h-432q-6 0 -13 1t-9 1q-9 0 -13 4z" />
<glyph unicode="&#xae;" horiz-adv-x="1705" d="M119 725q0 150 57 283q59 137 164 241q100 102 231 158q127 53 281 53q150 0 285 -55q131 -53 239 -162q98 -98 156 -235q55 -132 55 -283t-55 -283q-57 -135 -158 -233q-104 -104 -243.5 -161.5t-278.5 -57.5q-147 0 -278.5 55t-239.5 164q-104 104 -160 237 q-55 132 -55 279zM207 725q0 -127 49 -244q49 -115 141 -211q94 -94 207 -141q117 -49 246 -49t250 49q117 47 213 141q90 86 139 205q49 117 49 246q0 132 -49 252q-47 117 -137 209q-96 92 -211 141q-117 49 -252 49q-131 0 -248 -47q-111 -45 -203 -137 q-98 -98 -145 -213q-49 -119 -49 -250zM561 317v840h311q180 0 265 -57q86 -59 86 -174q0 -88 -54 -148q-55 -61 -143 -76l188 -385h-157l-176 365h-179v-365h-141zM702 774h148q123 0 174 33q53 35 53 108q0 78 -55 115q-51 35 -176 35h-144v-291z" />
<glyph unicode="&#xaf;" horiz-adv-x="1024" d="M254 1145v125h516v-125h-516z" />
<glyph unicode="&#xb0;" horiz-adv-x="673" d="M55 1171.5q0 118.5 82 200.5t201 82q117 0 201 -84q82 -82 82 -199q0 -115 -84 -198.5t-201 -83.5t-199 82t-82 200.5zM135 1171q0 -84 59.5 -143t143.5 -59t143 59q57 57 58 143q0 84 -58 142q-59 59 -143 59t-143.5 -59.5t-59.5 -141.5z" />
<glyph unicode="&#xb1;" horiz-adv-x="1705" d="M254 41v117h1198v-117h-1198zM254 719v117h541v344h118v-344h539v-117h-539v-344h-118v344h-541z" />
<glyph unicode="&#xb2;" horiz-adv-x="706" d="M53 524l203 232q104 117 156 202q47 80 47 148q0 70 -45 108q-47 41 -123 41q-47 0 -96 -18q-41 -16 -97 -53v8q0 61 67.5 98t174 37t170 -51t63.5 -139q0 -61 -32 -125q-37 -70 -101 -133l-260 -281l291 4q40 0 68 6q27 6 51 19v-15q0 -8 -6 -32q-2 -4 -17 -56h-514z " />
<glyph unicode="&#xb3;" horiz-adv-x="706" d="M84 631q35 -27 82 -43q41 -14 90 -15q90 0 145 50q53 47 54 127q0 84 -60 137q-61 55 -174 80q96 27 150 73q51 45 51 103q0 55 -39 88t-104 33q-39 0 -70 -11q-37 -12 -72 -32q0 55 49 79q53 27 158 27q84 0 139 -43q53 -41 54 -108q0 -72 -48 -123q-47 -49 -143 -78 q117 -37 174.5 -94.5t57.5 -141.5q0 -94 -80 -161.5t-201 -67.5q-100 0 -156 31q-53 31 -57 90z" />
<glyph unicode="&#xb4;" horiz-adv-x="1024" d="M375 1049q76 102 123 182q53 92 86 168h178q-82 -154 -176 -237.5t-211 -112.5z" />
<glyph unicode="&#xb5;" horiz-adv-x="1126" d="M-111 -426l316 1495h157l-126 -596q-6 -23 -11 -65q-4 -45 -4 -72q0 -111 58 -168q59 -59 159 -59q123 0 207 102q83 101 129 307l121 551h156l-162 -754q-4 -16 -7 -31.5t-5.5 -30.5t-4.5 -22q-6 -31 -6 -51q0 -33 19 -49q20 -16 53 -16h18q2 0 8.5 1t8.5 1l-27 -125 q-12 -4 -45 -8q-14 -2 -47 -2q-70 0 -104.5 34.5t-40.5 112.5q-39 -68 -117 -109q-76 -39 -172 -38q-86 0 -152 34q-68 35 -110 103l-113 -545h-156z" />
<glyph unicode="&#xb6;" horiz-adv-x="1024" d="M76 1130q0 156 108.5 252.5t284.5 96.5h479v-78h-125v-1401h-94v1401h-182v-1401h-96v782q-176 10 -275 103q-100 93 -100 245z" />
<glyph unicode="&#xb7;" horiz-adv-x="536" d="M156 657q0 43 34 78q33 33 78 33t78 -33t33 -78t-33 -77q-35 -35 -78 -35q-45 0 -78 33q-34 34 -34 79z" />
<glyph unicode="&#xb8;" horiz-adv-x="1024" d="M258 -317q74 -33 123 -43q61 -12 133 -13q55 0 88 23q31 23 31 65q0 47 -33 72q-31 23 -102 23h-29q-6 0 -14.5 -1.5t-14.5 -1.5v193h72v-106h23q113 0 170 -45.5t57 -131.5q0 -90 -64 -135q-66 -47 -184 -47q-135 0 -192.5 33t-63.5 115z" />
<glyph unicode="&#xb9;" horiz-adv-x="706" d="M266 1290l152 37l-5 -173t-3 -105q0 -27 -1 -57.5t-2 -47t-1 -24.5q0 -219 8 -310q6 -66 26 -86h-174q20 20 27 90q8 94 8 301v54v67q0 131 -8 193q-7 47 -27 61z" />
<glyph unicode="&#xba;" horiz-adv-x="747" d="M47 887q0 160 94 254q96 96 250 96q145 0 227 -80t82 -221q0 -170 -92 -272q-92 -100 -248 -101q-150 0 -231.5 84t-81.5 240zM170 918q0 -141 61.5 -221.5t163.5 -80.5q90 0 135 70t45 211q0 125 -59 207q-57 80 -149 80q-96 0 -146 -68q-51 -69 -51 -198z" />
<glyph unicode="&#xbb;" horiz-adv-x="890" d="M61 88q8 51 21 80q15 34 37 61l203 236l-203 235q-20 23 -37 60q-14 31 -21 82l447 -377zM383 88q6 43 20 78q12 29 39 63l203 236l-203 235q-27 35 -39 62q-14 31 -20 80l446 -377z" />
<glyph unicode="&#xbc;" horiz-adv-x="1691" d="M254 578q18 14 25 84q8 90 8 282v49v64q0 121 -8 178q-6 45 -25 57l143 35q-2 -47 -5 -125t-3 -106q-2 -70 -2 -150q0 -227 6 -289q6 -59 27 -79h-166zM334 -25l921 1362h103l-922 -1362h-102zM1038 258l254 301l174 191h54v-437h30h62q16 0 49 4q-12 -31 -41 -43 q-25 -10 -100 -14v-39q0 -123 6 -166t20 -55h-155q14 12 20 55t6 166v37h-379zM1143 313h276l4 332z" />
<glyph unicode="&#xbd;" horiz-adv-x="1691" d="M254 578q18 14 25 84q8 90 8 282v49v64q0 121 -8 178q-6 45 -25 57l143 35q-2 -47 -5 -125t-3 -106q-2 -70 -2 -150q0 -227 6 -289q6 -59 27 -79h-166zM334 -25l921 1362h103l-922 -1362h-102zM1069 0l195 215q101 114 147 191q45 76 45 137q0 66 -43 102.5t-119 36.5 q-51 0 -92 -16q-49 -20 -92 -52v9q0 55 64 92q61 35 167 35q102 0 162 -48q61 -49 62 -131q0 -55 -31 -114q-31 -57 -96 -127l-248 -260l276 4q37 0 70 4q20 2 45 16v-12q0 -6 -6 -31q-2 -8 -16 -51h-490z" />
<glyph unicode="&#xbe;" horiz-adv-x="1691" d="M80 678q37 -27 76 -41q41 -14 88 -14q88 0 139 45t51 120q0 78 -57 130q-58 52 -166 73q94 25 143 68t49 96q0 51 -36.5 82t-100.5 31q-33 0 -69 -11q-35 -10 -66 -30q0 51 47 75.5t150 24.5q82 0 133 -39t51 -102q0 -72 -45 -117q-47 -47 -137 -72q109 -29 168 -86 q53 -51 53 -133q0 -92 -78 -153q-76 -61 -188 -62q-102 0 -152 29q-53 31 -53 86zM332 -25l921 1362h103l-922 -1362h-102zM1036 258l254 301l174 191h54v-437h30h62q16 0 49 4q-15 -31 -43 -43q-25 -10 -98 -14v-39q0 -123 6 -166t20 -55h-155q14 12 20 55t6 166v37h-379z M1141 313h276l4 332z" />
<glyph unicode="&#xbf;" horiz-adv-x="720" d="M47 283q0 172 182 387q41 47 60 71q68 86 110 166q43 82 72 168q12 -45 14 -67q4 -45 4 -70q0 -141 -112 -295q-8 -12 -14.5 -19.5t-10.5 -13.5q-86 -121 -108 -178q-25 -61 -25 -129q0 -94 59.5 -153.5t153.5 -59.5q61 0 115 21q55 22 98 61l-12 -113q-53 -41 -121 -61 q-74 -23 -145 -23q-150 0 -234 82q-86 83 -86 226zM313 1196l121 141l158 -82l-131 -141z" />
<glyph unicode="&#xc0;" horiz-adv-x="1239" d="M-63 0q94 113 188 281q78 139 197 413q96 229 143 363q57 166 57 192q0 10 -4 31q-2 14 -12 33h254q162 -528 280 -838q131 -338 228 -475h-224l-206 569h-478l-88 -215l-2 -6q-82 -195 -82 -285q0 -20 2 -30q4 -20 9 -33h-262zM393 645h414l-193 529zM389 1796h178 q41 -90 88 -172q49 -84 121 -178q-117 25 -211 110q-92 82 -176 240z" />
<glyph unicode="&#xc1;" horiz-adv-x="1239" d="M-63 0q94 113 188 281q78 139 197 413q96 229 143 363q57 166 57 192q0 10 -4 31q-2 14 -12 33h254q162 -528 280 -838q131 -338 228 -475h-224l-206 569h-478l-88 -215l-2 -6q-82 -195 -82 -285q0 -20 2 -30q4 -20 9 -33h-262zM393 645h414l-193 529zM502 1446 q76 102 123 182q53 92 86 168h178q-82 -154 -176 -237.5t-211 -112.5z" />
<glyph unicode="&#xc2;" horiz-adv-x="1239" d="M-63 0q94 113 188 281q78 139 197 413q96 229 143 363q57 166 57 192q0 10 -4 31q-2 14 -12 33h254q162 -528 280 -838q131 -338 228 -475h-224l-206 569h-478l-88 -215l-2 -6q-82 -195 -82 -285q0 -20 2 -30q4 -20 9 -33h-262zM393 645h414l-193 529zM352 1446 q61 96 125 208q47 84 72 142h178q25 -57 72 -142q63 -113 125 -208h-90q-70 74 -103 114q-49 61 -92 129q-51 -76 -94 -129q-45 -55 -101 -114h-92z" />
<glyph unicode="&#xc3;" horiz-adv-x="1239" d="M-63 0q94 113 188 281q78 139 197 413q96 229 143 363q57 166 57 192q0 10 -4 31q-2 14 -12 33h254q162 -528 280 -838q131 -338 228 -475h-224l-206 569h-478l-88 -215l-2 -6q-82 -195 -82 -285q0 -20 2 -30q4 -20 9 -33h-262zM393 645h414l-193 529zM348 1505 q23 92 72 139q51 47 125 47q18 0 28 -2q20 -4 33 -8l78 -27q12 -4 33 -8q10 -2 28 -2q37 0 60 17q20 16 37 53h88q-25 -94 -76 -141q-51 -49 -123 -50q-25 0 -35 2q-20 4 -30 9l-80 26q-16 4 -26.5 6t-26.5 2q-39 0 -60 -14q-22 -15 -37 -49h-88z" />
<glyph unicode="&#xc4;" horiz-adv-x="1239" d="M-63 0q94 113 188 281q78 139 197 413q96 229 143 363q57 166 57 192q0 10 -4 31q-2 14 -12 33h254q162 -528 280 -838q131 -338 228 -475h-224l-206 569h-478l-88 -215l-2 -6q-82 -195 -82 -285q0 -20 2 -30q4 -20 9 -33h-262zM393 645h414l-193 529zM356 1605l142 121 l102 -123l-143 -119zM676 1605l143 121l103 -123l-144 -119z" />
<glyph unicode="&#xc5;" horiz-adv-x="1239" d="M-63 0q94 113 188 281q78 139 197 413q96 229 143 363q57 166 57 192q0 10 -4 31q-2 14 -12 33h254q162 -528 280 -838q131 -338 228 -475h-224l-206 569h-478l-88 -215l-2 -6q-82 -195 -82 -285q0 -20 2 -30q4 -20 9 -33h-262zM389 1628.5q0 104.5 71.5 176t176 71.5 t176.5 -71.5t72 -176t-72 -176.5t-176.5 -72t-176 72t-71.5 176.5zM393 645h414l-193 529zM496 1626.5q0 -61.5 41 -100.5q45 -41 102 -41q59 0 100 41t41 100q0 57 -41 103q-39 41 -100 40.5t-102 -41t-41 -102z" />
<glyph unicode="&#xc6;" horiz-adv-x="1650" d="M-96 0q80 86 174 236q109 172 262 458q186 348 215 408q55 117 55 147q0 16 -6 31q-8 20 -16 33h293q66 0 295 4q115 2 223 2h12q10 0 30.5 -1t28.5 -1l17 -193q-25 63 -96 88q-74 25 -277 25h-115q-12 -53 -14 -143q-4 -131 -4 -287v-68q33 -4 57 -4h103q120 0 202 6 q100 8 148 17q-55 -65 -148 -92q-88 -27 -309 -27h-22q-6 0 -16.5 1t-14.5 1v-133q0 -154 4 -289q2 -88 14 -143h119q207 0 305 33q104 35 158 108l-35 -205q-43 -10 -94 -12q-70 -4 -111 -4q-94 0 -186 2t-233 2h-168q47 59 53 438v64h-461l-80 -148q-45 -84 -76 -170 q-29 -80 -28 -118q0 -14 4 -35q2 -10 10 -31h-272zM385 578h422q0 16 -1 52t-1 56v158v151q0 158 -8 199q-10 47 -33 47q-16 0 -33 -16q-15 -15 -43 -68z" />
<glyph unicode="&#xc7;" horiz-adv-x="1212" d="M76 643q0 326 184 510t512 184q51 0 152 -12t153 -12l-12 -281q-43 106 -123 162q-78 53 -192 53q-217 0 -344 -145.5t-127 -399.5q0 -264 137 -419.5t368 -155.5q108 0 203 43q98 45 164 119q-37 -141 -162 -228q-126 -86 -301 -86q-268 0 -440 186.5t-172 481.5z M414 -317q74 -33 123 -43q61 -12 133 -13q55 0 88 23q31 23 31 65q0 47 -33 72q-31 23 -102 23h-29q-6 0 -14.5 -1.5t-14.5 -1.5v193h72v-106h23q113 0 170 -45.5t57 -131.5q0 -90 -64 -135q-66 -47 -184 -47q-135 0 -192.5 33t-63.5 115z" />
<glyph unicode="&#xc8;" horiz-adv-x="1013" d="M119 0q27 29 39 137.5t12 462.5v84q0 385 -12 492q-12 109 -39 137h127q80 0 309 4q115 2 209 2h12q10 0 30.5 -1t29.5 -1l16 -193q-25 63 -96 88q-74 25 -277 25h-114q-12 -53 -15 -143q-4 -131 -4 -287v-68q33 -4 57 -4h103q120 0 203 6q100 8 147 17q-55 -63 -149 -92 q-88 -27 -308 -27h-22q-6 0 -16.5 1t-14.5 1v-133q0 -154 4 -289q2 -88 15 -143h118q207 0 305 33q104 35 158 108l-35 -205q-39 -8 -94 -12q-70 -4 -110 -4q-94 0 -186.5 2t-233.5 2h-168zM231 1796h178q41 -90 88 -172q49 -84 121 -178q-117 25 -211 110q-92 82 -176 240z " />
<glyph unicode="&#xc9;" horiz-adv-x="1013" d="M119 0q27 29 39 137.5t12 462.5v84q0 385 -12 492q-12 109 -39 137h127q80 0 309 4q115 2 209 2h12q10 0 30.5 -1t29.5 -1l16 -193q-25 63 -96 88q-74 25 -277 25h-114q-12 -53 -15 -143q-4 -131 -4 -287v-68q33 -4 57 -4h103q120 0 203 6q100 8 147 17q-55 -63 -149 -92 q-88 -27 -308 -27h-22q-6 0 -16.5 1t-14.5 1v-133q0 -154 4 -289q2 -88 15 -143h118q207 0 305 33q104 35 158 108l-35 -205q-39 -8 -94 -12q-70 -4 -110 -4q-94 0 -186.5 2t-233.5 2h-168zM344 1446q76 102 123 182q53 92 86 168h178q-82 -154 -176 -237.5t-211 -112.5z " />
<glyph unicode="&#xca;" horiz-adv-x="1013" d="M119 0q27 29 39 137.5t12 462.5v84q0 385 -12 492q-12 109 -39 137h127q80 0 309 4q115 2 209 2h12q10 0 30.5 -1t29.5 -1l16 -193q-25 63 -96 88q-74 25 -277 25h-114q-12 -53 -15 -143q-4 -131 -4 -287v-68q33 -4 57 -4h103q120 0 203 6q100 8 147 17q-55 -63 -149 -92 q-88 -27 -308 -27h-22q-6 0 -16.5 1t-14.5 1v-133q0 -154 4 -289q2 -88 15 -143h118q207 0 305 33q104 35 158 108l-35 -205q-39 -8 -94 -12q-70 -4 -110 -4q-94 0 -186.5 2t-233.5 2h-168zM194 1446q61 96 125 208q47 84 72 142h178q25 -57 72 -142q63 -113 125 -208h-90 q-70 74 -103 114q-49 61 -92 129q-51 -76 -94 -129q-45 -55 -101 -114h-92z" />
<glyph unicode="&#xcb;" horiz-adv-x="1013" d="M119 0q27 29 39 137.5t12 462.5v84q0 385 -12 492q-12 109 -39 137h127q80 0 309 4q115 2 209 2h12q10 0 30.5 -1t29.5 -1l16 -193q-25 63 -96 88q-74 25 -277 25h-114q-12 -53 -15 -143q-4 -131 -4 -287v-68q33 -4 57 -4h103q120 0 203 6q100 8 147 17q-55 -63 -149 -92 q-88 -27 -308 -27h-22q-6 0 -16.5 1t-14.5 1v-133q0 -154 4 -289q2 -88 15 -143h118q207 0 305 33q104 35 158 108l-35 -205q-39 -8 -94 -12q-70 -4 -110 -4q-94 0 -186.5 2t-233.5 2h-168zM198 1605l142 121l102 -123l-143 -119zM518 1605l143 121l103 -123l-144 -119z" />
<glyph unicode="&#xcc;" horiz-adv-x="514" d="M119 0q27 29 39 137.5t12 462.5v84q0 385 -12 492q-12 109 -39 137h278q-27 -27 -39 -133q-12 -104 -12 -443v-80v-79q0 -340 12 -445q12 -106 39 -133h-278zM8 1796h178q41 -90 88 -172q49 -84 121 -178q-117 25 -211 110q-92 82 -176 240z" />
<glyph unicode="&#xcd;" horiz-adv-x="514" d="M119 0q27 29 39 137.5t12 462.5v84q0 385 -12 492q-12 109 -39 137h278q-27 -27 -39 -133q-12 -104 -12 -443v-80v-79q0 -340 12 -445q12 -106 39 -133h-278zM121 1446q76 102 123 182q53 92 86 168h178q-82 -154 -176 -237.5t-211 -112.5z" />
<glyph unicode="&#xce;" horiz-adv-x="514" d="M119 0q27 29 39 137.5t12 462.5v84q0 385 -12 492q-12 109 -39 137h278q-27 -27 -39 -133q-12 -104 -12 -443v-80v-79q0 -340 12 -445q12 -106 39 -133h-278zM-29 1446q61 96 125 208q47 84 72 142h178q25 -57 72 -142q63 -113 125 -208h-90q-70 74 -103 114 q-49 61 -92 129q-51 -76 -94 -129q-45 -55 -101 -114h-92z" />
<glyph unicode="&#xcf;" horiz-adv-x="514" d="M119 0q27 29 39 137.5t12 462.5v84q0 385 -12 492q-12 109 -39 137h278q-27 -27 -39 -133q-12 -104 -12 -443v-80v-79q0 -340 12 -445q12 -106 39 -133h-278zM-25 1605l142 121l102 -123l-143 -119zM295 1605l143 121l103 -123l-144 -119z" />
<glyph unicode="&#xd0;" horiz-adv-x="1449" d="M47 659v84h170v56q0 285 -12 383q-12 102 -39 131h149q89 0 240 12t215 12q283 0 442 -166q162 -168 162 -454q0 -336 -192 -531q-195 -197 -525 -196q-74 0 -190 6q-78 4 -162 4h-139q29 33 41 135q10 86 10 434v90h-170zM393 508q0 -162 2 -221q2 -55 8 -125 q8 -49 56 -68q45 -18 182 -18q248 0 387 151.5t139 423.5q0 287 -143 442.5t-410 155.5q-57 0 -106 -6q-72 -8 -98 -14q-9 -46 -13 -148q-4 -135 -4 -274v-64h328v-84h-328v-151z" />
<glyph unicode="&#xd1;" horiz-adv-x="1355" d="M94 0q39 51 57.5 235.5t18.5 542.5q0 307 -16 410q-14 94 -60 125h213q57 0 129 -109l17.5 -24.5t11.5 -18.5l178 -268q254 -387 451 -660l2 574q0 274 -13 373q-12 102 -41 133h195q-29 -27 -41 -150t-12 -491v-262v-416h-133q-59 96 -338 500l-455 663l6 -661 q4 -254 17 -340q14 -100 51 -156h-238zM405 1505q23 92 72 139q51 47 125 47q18 0 28 -2q20 -4 33 -8l78 -27q12 -4 33 -8q10 -2 28 -2q37 0 60 17q20 16 37 53h88q-25 -94 -76 -141q-51 -49 -123 -50q-25 0 -35 2q-20 4 -30 9l-80 26q-16 4 -26.5 6t-26.5 2q-39 0 -60 -14 q-22 -15 -37 -49h-88z" />
<glyph unicode="&#xd2;" horiz-adv-x="1419" d="M76 631q0 342 170 524t491 182q303 0 457 -161q152 -160 152 -482q0 -326 -183 -524q-180 -195 -485 -195q-289 0 -445 170q-157 175 -157 486zM283 686q0 -289 120.5 -450.5t337.5 -161.5q184 0 293 145q106 143 107 402q0 291 -115 458q-113 166 -311 166 q-203 0 -318 -147q-114 -150 -114 -412zM461 1796h178q41 -90 88 -172q49 -84 121 -178q-117 25 -211 110q-92 82 -176 240z" />
<glyph unicode="&#xd3;" horiz-adv-x="1419" d="M76 631q0 342 170 524t491 182q303 0 457 -161q152 -160 152 -482q0 -326 -183 -524q-180 -195 -485 -195q-289 0 -445 170q-157 175 -157 486zM283 686q0 -289 120.5 -450.5t337.5 -161.5q184 0 293 145q106 143 107 402q0 291 -115 458q-113 166 -311 166 q-203 0 -318 -147q-114 -150 -114 -412zM574 1446q76 102 123 182q53 92 86 168h178q-82 -154 -176 -237.5t-211 -112.5z" />
<glyph unicode="&#xd4;" horiz-adv-x="1419" d="M76 631q0 342 170 524t491 182q303 0 457 -161q152 -160 152 -482q0 -326 -183 -524q-180 -195 -485 -195q-289 0 -445 170q-157 175 -157 486zM283 686q0 -289 120.5 -450.5t337.5 -161.5q184 0 293 145q106 143 107 402q0 291 -115 458q-113 166 -311 166 q-203 0 -318 -147q-114 -150 -114 -412zM424 1446q61 96 125 208q47 84 72 142h178q25 -57 72 -142q63 -113 125 -208h-90q-70 74 -103 114q-49 61 -92 129q-51 -76 -94 -129q-45 -55 -101 -114h-92z" />
<glyph unicode="&#xd5;" horiz-adv-x="1419" d="M76 631q0 342 170 524t491 182q303 0 457 -161q152 -160 152 -482q0 -326 -183 -524q-180 -195 -485 -195q-289 0 -445 170q-157 175 -157 486zM283 686q0 -289 120.5 -450.5t337.5 -161.5q184 0 293 145q106 143 107 402q0 291 -115 458q-113 166 -311 166 q-203 0 -318 -147q-114 -150 -114 -412zM420 1505q23 92 72 139q51 47 125 47q18 0 28 -2q20 -4 33 -8l78 -27q12 -4 33 -8q10 -2 28 -2q37 0 60 17q20 16 37 53h88q-25 -94 -76 -141q-51 -49 -123 -50q-25 0 -35 2q-20 4 -30 9l-80 26q-16 4 -26.5 6t-26.5 2q-39 0 -60 -14 q-22 -15 -37 -49h-88z" />
<glyph unicode="&#xd6;" horiz-adv-x="1419" d="M76 631q0 342 170 524t491 182q303 0 457 -161q152 -160 152 -482q0 -326 -183 -524q-180 -195 -485 -195q-289 0 -445 170q-157 175 -157 486zM283 686q0 -289 120.5 -450.5t337.5 -161.5q184 0 293 145q106 143 107 402q0 291 -115 458q-113 166 -311 166 q-203 0 -318 -147q-114 -150 -114 -412zM428 1605l142 121l102 -123l-143 -119zM748 1605l143 121l103 -123l-144 -119z" />
<glyph unicode="&#xd7;" horiz-adv-x="1705" d="M301 135l475 475l-475 477l80 82l477 -477l475 477l82 -82l-475 -477l475 -475l-82 -82l-475 475l-477 -475z" />
<glyph unicode="&#xd8;" horiz-adv-x="1419" d="M25 -61l194 223q-72 88 -108 203q-35 111 -35 264q0 344 170 526t491 182q127 0 229.5 -28.5t174.5 -85.5l131 151h127l-189 -217q66 -84 101 -205q35 -123 35 -260q0 -328 -182.5 -522.5t-485.5 -194.5q-131 0 -217 29q-92 31 -174 94l-137 -159h-125zM283 682 q0 -113 16 -193q16 -84 53 -172l670 766q-53 82 -131 121q-82 41 -176 41q-203 0 -318 -147q-114 -150 -114 -416zM406 233q61 -80 147 -120q80 -39 188 -39q184 0 293 145q106 143 107 402q0 104 -19 202q-18 100 -51 174z" />
<glyph unicode="&#xd9;" horiz-adv-x="1345" d="M119 1313h278q-29 -27 -41 -154t-12 -557q0 -313 72 -416q70 -100 248 -100q182 0 258 125q78 127 77 446q0 406 -12 517q-12 109 -39 139h281q-29 -29 -41 -139.5t-12 -516.5t12 -516q12 -113 41 -141h-225l6 193q-68 -109 -174 -162q-111 -55 -250 -56q-217 0 -318 105 q-100 102 -100 334q0 18 1 66t1 77v100q0 403 -12 514q-12 113 -39 142zM424 1796h178q41 -90 88 -172q49 -84 121 -178q-117 25 -211 110q-92 82 -176 240z" />
<glyph unicode="&#xda;" horiz-adv-x="1345" d="M119 1313h278q-29 -27 -41 -154t-12 -557q0 -313 72 -416q70 -100 248 -100q182 0 258 125q78 127 77 446q0 406 -12 517q-12 109 -39 139h281q-29 -29 -41 -139.5t-12 -516.5t12 -516q12 -113 41 -141h-225l6 193q-68 -109 -174 -162q-111 -55 -250 -56q-217 0 -318 105 q-100 102 -100 334q0 18 1 66t1 77v100q0 403 -12 514q-12 113 -39 142zM537 1446q76 102 123 182q53 92 86 168h178q-82 -154 -176 -237.5t-211 -112.5z" />
<glyph unicode="&#xdb;" horiz-adv-x="1345" d="M119 1313h278q-29 -27 -41 -154t-12 -557q0 -313 72 -416q70 -100 248 -100q182 0 258 125q78 127 77 446q0 406 -12 517q-12 109 -39 139h281q-29 -29 -41 -139.5t-12 -516.5t12 -516q12 -113 41 -141h-225l6 193q-68 -109 -174 -162q-111 -55 -250 -56q-217 0 -318 105 q-100 102 -100 334q0 18 1 66t1 77v100q0 403 -12 514q-12 113 -39 142zM387 1446q61 96 125 208q47 84 72 142h178q25 -57 72 -142q63 -113 125 -208h-90q-70 74 -103 114q-49 61 -92 129q-51 -76 -94 -129q-45 -55 -101 -114h-92z" />
<glyph unicode="&#xdc;" horiz-adv-x="1345" d="M119 1313h278q-29 -27 -41 -154t-12 -557q0 -313 72 -416q70 -100 248 -100q182 0 258 125q78 127 77 446q0 406 -12 517q-12 109 -39 139h281q-29 -29 -41 -139.5t-12 -516.5t12 -516q12 -113 41 -141h-225l6 193q-68 -109 -174 -162q-111 -55 -250 -56q-217 0 -318 105 q-100 102 -100 334q0 18 1 66t1 77v100q0 403 -12 514q-12 113 -39 142zM391 1605l142 121l102 -123l-143 -119zM711 1605l143 121l103 -123l-144 -119z" />
<glyph unicode="&#xdd;" horiz-adv-x="993" d="M-29 1313h166q63 0 94 -25q35 -29 70 -100q61 -125 109 -250q39 -100 106 -305l174 319l12 25q102 193 103 250q0 20 -10 45q-8 20 -27 41h262l-242 -369q-96 -152 -137 -231q-47 -96 -67 -195q-20 -96 -21 -309q0 -53 10 -111q9 -52 31 -98h-268q27 51 39 125 q14 90 14 182q0 193 -51 361q-49 162 -186 401q-43 74 -97 150q-43 59 -84 94zM361 1446q76 102 123 182q53 92 86 168h178q-82 -154 -176 -237.5t-211 -112.5z" />
<glyph unicode="&#xde;" horiz-adv-x="1013" d="M119 0q27 29 39 137.5t12 462.5v84q0 385 -12 492q-12 109 -39 137h278q-23 -31 -35 -88q-12 -61 -12 -144v-4q0 -4 1 -12t1 -12q80 10 137 12q78 4 103 4q186 0 287 -90q98 -90 98 -264q0 -180 -107 -293q-109 -115 -272 -115q-57 0 -110.5 12.5t-94.5 32.5h21 q164 0 262 94q94 92 94 261q0 139 -65 211q-63 70 -203 69q-25 0 -74 -4q-39 -4 -78 -12q-4 -90 -4 -135v-179v-79q0 -340 12 -445q12 -106 39 -133h-278z" />
<glyph unicode="&#xdf;" horiz-adv-x="976" d="M55 915h82v39v66q0 135 6 192q6 63 19 91q29 68 104 100q74 33 201 33q133 0 211 -65.5t78 -174.5q0 -61 -29 -111q-33 -55 -86 -94l-47 -30q-72 -47 -72 -74q0 -20 86 -88l111 -92q111 -102 151 -183q45 -90 45 -194q0 -160 -88 -256q-90 -98 -229 -99q-89 0 -147 25 q-57 25 -58 68q0 14 4 59q3 34 13 86q18 -78 69 -123q49 -43 117 -43q76 0 121 63.5t45 174.5q0 88 -37 163.5t-109 141.5q-6 6 -21 19.5t-24 19.5q-180 160 -180 221q0 27 15 47q15 22 61 55q78 57 106 105q27 45 27 106q0 98 -45 155.5t-119 57.5q-84 0 -119 -65 q-33 -63 -32 -299v-94v-461v-197q0 -133 10 -190q8 -51 33 -70h-234q25 18 33 70q10 57 10 190v197v387q-6 0 -20.5 1t-20.5 1q-12 0 -41 4v65z" />
<glyph unicode="&#xe0;" horiz-adv-x="827" d="M41 190q0 82 63 140q68 61 275 151q125 55 153.5 90t28.5 115q0 100 -41 141q-45 45 -131 45q-43 0 -74 -14q-35 -16 -51 -41l-22 -45q-37 -90 -99 -90q-35 0 -55 20.5t-20 55.5q0 80 106 129q113 51 283 51q137 0 194 -45q59 -47 60 -152q0 -16 -6 -149q-4 -88 -5 -250 q0 -160 17 -236q18 -84 53 -106l-184 -12q-12 31 -19 71q-4 27 -8 88q-41 -86 -106 -127q-72 -45 -154 -45q-106 0 -182 63.5t-76 151.5zM209 229q0 -57 45 -96q43 -37 115 -37q95 0 141 62q45 59 45 190v144q-230 -92 -289 -142q-57 -49 -57 -121zM176 1399h178 q41 -90 88 -172q49 -84 121 -178q-117 25 -211 110q-92 82 -176 240z" />
<glyph unicode="&#xe1;" horiz-adv-x="827" d="M41 190q0 82 63 140q68 61 275 151q125 55 153.5 90t28.5 115q0 100 -41 141q-45 45 -131 45q-43 0 -74 -14q-35 -16 -51 -41l-22 -45q-37 -90 -99 -90q-35 0 -55 20.5t-20 55.5q0 80 106 129q113 51 283 51q137 0 194 -45q59 -47 60 -152q0 -16 -6 -149q-4 -88 -5 -250 q0 -160 17 -236q18 -84 53 -106l-184 -12q-12 31 -19 71q-4 27 -8 88q-41 -86 -106 -127q-72 -45 -154 -45q-106 0 -182 63.5t-76 151.5zM209 229q0 -57 45 -96q43 -37 115 -37q95 0 141 62q45 59 45 190v144q-230 -92 -289 -142q-57 -49 -57 -121zM289 1049q76 102 123 182 q53 92 86 168h178q-82 -154 -176 -237.5t-211 -112.5z" />
<glyph unicode="&#xe2;" horiz-adv-x="827" d="M41 190q0 82 63 140q68 61 275 151q125 55 153.5 90t28.5 115q0 100 -41 141q-45 45 -131 45q-43 0 -74 -14q-35 -16 -51 -41l-22 -45q-37 -90 -99 -90q-35 0 -55 20.5t-20 55.5q0 80 106 129q113 51 283 51q137 0 194 -45q59 -47 60 -152q0 -16 -6 -149q-4 -88 -5 -250 q0 -160 17 -236q18 -84 53 -106l-184 -12q-12 31 -19 71q-4 27 -8 88q-41 -86 -106 -127q-72 -45 -154 -45q-106 0 -182 63.5t-76 151.5zM209 229q0 -57 45 -96q43 -37 115 -37q95 0 141 62q45 59 45 190v144q-230 -92 -289 -142q-57 -49 -57 -121zM139 1049q61 96 125 208 q47 84 72 142h178q25 -57 72 -142q63 -113 125 -208h-90q-70 74 -103 114q-49 61 -92 129q-51 -76 -94 -129q-45 -55 -101 -114h-92z" />
<glyph unicode="&#xe3;" horiz-adv-x="827" d="M41 190q0 82 63 140q68 61 275 151q125 55 153.5 90t28.5 115q0 100 -41 141q-45 45 -131 45q-43 0 -74 -14q-35 -16 -51 -41l-22 -45q-37 -90 -99 -90q-35 0 -55 20.5t-20 55.5q0 80 106 129q113 51 283 51q137 0 194 -45q59 -47 60 -152q0 -16 -6 -149q-4 -88 -5 -250 q0 -160 17 -236q18 -84 53 -106l-184 -12q-12 31 -19 71q-4 27 -8 88q-41 -86 -106 -127q-72 -45 -154 -45q-106 0 -182 63.5t-76 151.5zM209 229q0 -57 45 -96q43 -37 115 -37q95 0 141 62q45 59 45 190v144q-230 -92 -289 -142q-57 -49 -57 -121zM135 1108q23 92 72 139 q51 47 125 47q18 0 28 -2q20 -4 33 -8l78 -27q12 -4 33 -8q10 -2 28 -2q37 0 60 17q20 16 37 53h88q-25 -94 -76 -141q-51 -49 -123 -50q-25 0 -35 2q-20 4 -30 9l-80 26q-16 4 -26.5 6t-26.5 2q-39 0 -60 -14q-22 -15 -37 -49h-88z" />
<glyph unicode="&#xe4;" horiz-adv-x="827" d="M41 190q0 82 63 140q68 61 275 151q125 55 153.5 90t28.5 115q0 100 -41 141q-45 45 -131 45q-43 0 -74 -14q-35 -16 -51 -41l-22 -45q-37 -90 -99 -90q-35 0 -55 20.5t-20 55.5q0 80 106 129q113 51 283 51q137 0 194 -45q59 -47 60 -152q0 -16 -6 -149q-4 -88 -5 -250 q0 -160 17 -236q18 -84 53 -106l-184 -12q-12 31 -19 71q-4 27 -8 88q-41 -86 -106 -127q-72 -45 -154 -45q-106 0 -182 63.5t-76 151.5zM209 229q0 -57 45 -96q43 -37 115 -37q95 0 141 62q45 59 45 190v144q-230 -92 -289 -142q-57 -49 -57 -121zM143 1208l142 121 l102 -123l-143 -119zM463 1208l143 121l103 -123l-144 -119z" />
<glyph unicode="&#xe5;" horiz-adv-x="827" d="M41 190q0 82 63 140q68 61 275 151q125 55 153.5 90t28.5 115q0 100 -41 141q-45 45 -131 45q-43 0 -74 -14q-35 -16 -51 -41l-22 -45q-37 -90 -99 -90q-35 0 -55 20.5t-20 55.5q0 80 106 129q113 51 283 51q137 0 194 -45q59 -47 60 -152q0 -16 -6 -149q-4 -88 -5 -250 q0 -160 17 -236q18 -84 53 -106l-184 -12q-12 31 -19 71q-4 27 -8 88q-41 -86 -106 -127q-72 -45 -154 -45q-106 0 -182 63.5t-76 151.5zM188 1253.5q0 104.5 72 176t176.5 71.5t176 -71.5t71.5 -176t-71.5 -176t-176 -71.5t-176.5 71.5t-72 176zM209 229q0 -57 45 -96 q43 -37 115 -37q95 0 141 62q45 59 45 190v144q-230 -92 -289 -142q-57 -49 -57 -121zM295 1253q0 -57 41 -102q39 -41 100.5 -41t102.5 41t41 102q0 59 -41 100.5t-103 41.5q-59 0 -100 -41.5t-41 -100.5z" />
<glyph unicode="&#xe6;" horiz-adv-x="1335" d="M41 190q0 82 63 140q68 61 275 151q125 55 153.5 90t28.5 115q0 94 -41 139t-131 45q-35 0 -74 -14q-31 -10 -51 -39l-22 -45q-37 -90 -99 -90q-35 0 -55 20.5t-20 55.5q0 80 106 129q113 51 283 51q90 0 153 -23q59 -20 80 -63q51 41 119 63q72 23 145 23 q141 0 229.5 -76t88.5 -194q0 -49 -53 -64q-59 -16 -312 -16q-29 0 -67.5 1t-51.5 1q-55 0 -79 2q-6 -18 -10.5 -55t-4.5 -62q0 -176 82 -272q84 -98 219 -99q80 0 140 29q68 33 122 90v-24q0 -82 -100 -152q-102 -72 -229 -72q-121 0 -207 55.5t-129 153.5 q-33 -96 -109 -153q-74 -55 -170 -56q-119 0 -194 64q-78 65 -78 151zM209 229q0 -57 45 -96q43 -37 115 -37q95 0 141 62q45 59 45 190v144q-230 -92 -289 -142q-57 -49 -57 -121zM721 651h16q20 0 51 -2t89 -2h26q139 0 168 15q31 15 31 55q0 61 -49 108q-47 45 -119 45 q-82 0 -143.5 -61.5t-69.5 -157.5z" />
<glyph unicode="&#xe7;" horiz-adv-x="833" d="M61 438q0 219 136 361q133 139 352 139q57 0 106 -6q43 -6 93 -19l-7 -215q-29 84 -77 125q-53 43 -125 43q-137 0 -224 -114q-84 -111 -84 -301q0 -164 84 -263q86 -100 220 -100q80 0 143 31q70 33 106 84v-4q0 -100 -82 -162q-84 -61 -219 -62q-184 0 -303 129 q-119 127 -119 334zM215 -317q74 -33 123 -43q61 -12 133 -13q55 0 88 23q31 23 31 65q0 47 -33 72q-31 23 -102 23h-29q-6 0 -14.5 -1.5t-14.5 -1.5v193h72v-106h23q113 0 170 -45.5t57 -131.5q0 -90 -64 -135q-66 -47 -184 -47q-135 0 -192.5 33t-63.5 115z" />
<glyph unicode="&#xe8;" horiz-adv-x="870" d="M61 453q0 225 115 354q117 131 311 131q143 0 231.5 -76t88.5 -194q0 -49 -53 -64q-59 -16 -312 -16q-29 0 -67.5 1t-50.5 1q-55 0 -80 2q-6 -18 -10.5 -55t-4.5 -62q0 -176 82 -272q82 -98 219 -99q80 0 140 29q68 33 123 90v-24q0 -84 -100.5 -154t-227.5 -70 q-184 0 -295 129q-109 128 -109 349zM256 651h18q18 0 49 -2t89 -2h26q139 0 168 15q31 15 31 55q0 63 -49 106q-51 45 -119 45q-84 0 -143 -61q-58 -60 -70 -156zM225 1399h178q41 -90 88 -172q49 -84 121 -178q-117 25 -211 110q-92 82 -176 240z" />
<glyph unicode="&#xe9;" horiz-adv-x="870" d="M61 453q0 225 115 354q117 131 311 131q143 0 231.5 -76t88.5 -194q0 -49 -53 -64q-59 -16 -312 -16q-29 0 -67.5 1t-50.5 1q-55 0 -80 2q-6 -18 -10.5 -55t-4.5 -62q0 -176 82 -272q82 -98 219 -99q80 0 140 29q68 33 123 90v-24q0 -84 -100.5 -154t-227.5 -70 q-184 0 -295 129q-109 128 -109 349zM256 651h18q18 0 49 -2t89 -2h26q139 0 168 15q31 15 31 55q0 63 -49 106q-51 45 -119 45q-84 0 -143 -61q-58 -60 -70 -156zM338 1049q76 102 123 182q53 92 86 168h178q-82 -154 -176 -237.5t-211 -112.5z" />
<glyph unicode="&#xea;" horiz-adv-x="870" d="M61 453q0 225 115 354q117 131 311 131q143 0 231.5 -76t88.5 -194q0 -49 -53 -64q-59 -16 -312 -16q-29 0 -67.5 1t-50.5 1q-55 0 -80 2q-6 -18 -10.5 -55t-4.5 -62q0 -176 82 -272q82 -98 219 -99q80 0 140 29q68 33 123 90v-24q0 -84 -100.5 -154t-227.5 -70 q-184 0 -295 129q-109 128 -109 349zM256 651h18q18 0 49 -2t89 -2h26q139 0 168 15q31 15 31 55q0 63 -49 106q-51 45 -119 45q-84 0 -143 -61q-58 -60 -70 -156zM188 1049q61 96 125 208q47 84 72 142h178q25 -57 72 -142q63 -113 125 -208h-90q-70 74 -103 114 q-49 61 -92 129q-51 -76 -94 -129q-45 -55 -101 -114h-92z" />
<glyph unicode="&#xeb;" horiz-adv-x="870" d="M61 453q0 225 115 354q117 131 311 131q143 0 231.5 -76t88.5 -194q0 -49 -53 -64q-59 -16 -312 -16q-29 0 -67.5 1t-50.5 1q-55 0 -80 2q-6 -18 -10.5 -55t-4.5 -62q0 -176 82 -272q82 -98 219 -99q80 0 140 29q68 33 123 90v-24q0 -84 -100.5 -154t-227.5 -70 q-184 0 -295 129q-109 128 -109 349zM256 651h18q18 0 49 -2t89 -2h26q139 0 168 15q31 15 31 55q0 63 -49 106q-51 45 -119 45q-84 0 -143 -61q-58 -60 -70 -156zM192 1208l142 121l102 -123l-143 -119zM512 1208l143 121l103 -123l-144 -119z" />
<glyph unicode="&#xec;" horiz-adv-x="421" d="M94 0q25 18 33 70q10 57 10 190v197v114q0 199 -10 267q-8 61 -33 77q102 6 109 7q37 4 92 16q-4 -37 -8 -176q-2 -86 -2 -389v-117q0 -129 10 -186q8 -51 33 -70h-234zM-39 1399h178q41 -90 88 -172q49 -84 121 -178q-117 25 -211 110q-92 82 -176 240z" />
<glyph unicode="&#xed;" horiz-adv-x="421" d="M94 0q25 18 33 70q10 57 10 190v197v114q0 199 -10 267q-8 61 -33 77q102 6 109 7q37 4 92 16q-4 -37 -8 -176q-2 -86 -2 -389v-117q0 -129 10 -186q8 -51 33 -70h-234zM74 1049q76 102 123 182q53 92 86 168h178q-82 -154 -176 -237.5t-211 -112.5z" />
<glyph unicode="&#xee;" horiz-adv-x="421" d="M94 0q25 18 33 70q10 57 10 190v197v114q0 199 -10 267q-8 61 -33 77q102 6 109 7q37 4 92 16q-4 -37 -8 -176q-2 -86 -2 -389v-117q0 -129 10 -186q8 -51 33 -70h-234zM-76 1049q61 96 125 208q47 84 72 142h178q25 -57 72 -142q63 -113 125 -208h-90q-70 74 -103 114 q-49 61 -92 129q-51 -76 -94 -129q-45 -55 -101 -114h-92z" />
<glyph unicode="&#xef;" horiz-adv-x="421" d="M94 0q25 18 33 70q10 57 10 190v197v114q0 199 -10 267q-8 61 -33 77q102 6 109 7q37 4 92 16q-4 -37 -8 -176q-2 -86 -2 -389v-117q0 -129 10 -186q8 -51 33 -70h-234zM-72 1208l142 121l102 -123l-143 -119zM248 1208l143 121l103 -123l-144 -119z" />
<glyph unicode="&#xf0;" horiz-adv-x="993" d="M61 438q0 223 123 359q125 137 322 137q45 0 78 -8q39 -10 69 -27q-27 63 -71 133q-33 53 -103 144l-313 -132l-31 72l295 123q-29 37 -86 88t-133 109q88 -6 164 -43q74 -35 157 -113l287 121l33 -68l-256 -108q166 -176 252 -361q86 -181 86 -356q0 -246 -123 -389.5 t-330 -143.5q-201 0 -309 121q-111 123 -111 342zM227 483q0 -199 80 -315q78 -115 219 -115q119 0 181 101q61 101 61 301q0 184 -78 295q-80 113 -203 112q-127 0 -192 -96q-68 -99 -68 -283z" />
<glyph unicode="&#xf1;" horiz-adv-x="937" d="M94 0q25 18 33 70q10 57 10 190v197v63q0 215 -10 291q-8 66 -33 84l187 20q4 -12 8 -49q2 -16 2 -53v-27q59 76 129 115q68 37 160 37q131 0 180 -86q51 -90 51 -379v-209v-57q0 -102 10 -148q8 -39 33 -59h-201q4 76 9 236q2 82 2 274v49q0 172 -39 217q-41 47 -136 47 q-113 0 -159 -63q-45 -59 -45 -303v-197q0 -133 10 -190q8 -51 33 -70h-234zM178 1108q23 92 72 139q51 47 125 47q18 0 28 -2q20 -4 33 -8l78 -27q12 -4 33 -8q10 -2 28 -2q37 0 60 17q20 16 37 53h88q-25 -94 -76 -141q-51 -49 -123 -50q-25 0 -35 2q-20 4 -30 9l-80 26 q-16 4 -26.5 6t-26.5 2q-39 0 -60 -14q-22 -15 -37 -49h-88z" />
<glyph unicode="&#xf2;" horiz-adv-x="993" d="M61 438q0 227 127 363q129 137 334 137q195 0 303.5 -114.5t108.5 -315.5q0 -246 -123 -389.5t-330 -143.5q-201 0 -309 121q-111 123 -111 342zM227 483q0 -199 80 -315q78 -115 219 -115q119 0 181 101q61 101 61 301q0 184 -78 295q-80 113 -203 112q-127 0 -192 -96 q-68 -99 -68 -283zM248 1399h178q41 -90 88 -172q49 -84 121 -178q-117 25 -211 110q-92 82 -176 240z" />
<glyph unicode="&#xf3;" horiz-adv-x="993" d="M61 438q0 227 127 363q129 137 334 137q195 0 303.5 -114.5t108.5 -315.5q0 -246 -123 -389.5t-330 -143.5q-201 0 -309 121q-111 123 -111 342zM227 483q0 -199 80 -315q78 -115 219 -115q119 0 181 101q61 101 61 301q0 184 -78 295q-80 113 -203 112q-127 0 -192 -96 q-68 -99 -68 -283zM361 1049q76 102 123 182q53 92 86 168h178q-82 -154 -176 -237.5t-211 -112.5z" />
<glyph unicode="&#xf4;" horiz-adv-x="993" d="M61 438q0 227 127 363q129 137 334 137q195 0 303.5 -114.5t108.5 -315.5q0 -246 -123 -389.5t-330 -143.5q-201 0 -309 121q-111 123 -111 342zM227 483q0 -199 80 -315q78 -115 219 -115q119 0 181 101q61 101 61 301q0 184 -78 295q-80 113 -203 112q-127 0 -192 -96 q-68 -99 -68 -283zM211 1049q61 96 125 208q47 84 72 142h178q25 -57 72 -142q63 -113 125 -208h-90q-70 74 -103 114q-49 61 -92 129q-51 -76 -94 -129q-45 -55 -101 -114h-92z" />
<glyph unicode="&#xf5;" horiz-adv-x="993" d="M61 438q0 227 127 363q129 137 334 137q195 0 303.5 -114.5t108.5 -315.5q0 -246 -123 -389.5t-330 -143.5q-201 0 -309 121q-111 123 -111 342zM227 483q0 -199 80 -315q78 -115 219 -115q119 0 181 101q61 101 61 301q0 184 -78 295q-80 113 -203 112q-127 0 -192 -96 q-68 -99 -68 -283zM207 1108q23 92 72 139q51 47 125 47q18 0 28 -2q20 -4 33 -8l78 -27q12 -4 33 -8q10 -2 28 -2q37 0 60 17q20 16 37 53h88q-25 -94 -76 -141q-51 -49 -123 -50q-25 0 -35 2q-20 4 -30 9l-80 26q-16 4 -26.5 6t-26.5 2q-39 0 -60 -14q-22 -15 -37 -49h-88 z" />
<glyph unicode="&#xf6;" horiz-adv-x="993" d="M61 438q0 227 127 363q129 137 334 137q195 0 303.5 -114.5t108.5 -315.5q0 -246 -123 -389.5t-330 -143.5q-201 0 -309 121q-111 123 -111 342zM227 483q0 -199 80 -315q78 -115 219 -115q119 0 181 101q61 101 61 301q0 184 -78 295q-80 113 -203 112q-127 0 -192 -96 q-68 -99 -68 -283zM215 1208l142 121l102 -123l-143 -119zM535 1208l143 121l103 -123l-144 -119z" />
<glyph unicode="&#xf7;" horiz-adv-x="1705" d="M254 553v117h1198v-117h-1198zM739 250q0 49 33 82t82 33t82 -33t33 -82q0 -47 -33 -80q-35 -35 -82 -35q-49 0 -82 33t-33 82zM739 971q0 47 33 80q35 35 82 34.5t82 -34.5q33 -33 33 -80q0 -49 -33 -82t-82 -33t-82 33t-33 82z" />
<glyph unicode="&#xf8;" horiz-adv-x="993" d="M8 -109l164 209q-53 66 -84 152q-27 78 -27 182q0 227 127 367q125 137 334 137q76 0 137 -16q59 -16 113 -54l111 142h96l-150 -191q49 -59 78 -141q27 -74 27 -170q0 -246 -123 -389.5t-330 -143.5q-76 0 -139 19q-61 18 -113 55l-125 -158h-96zM221 496q0 -74 12 -138 q10 -57 39 -131l414 531q-31 47 -84 78q-47 27 -115 26q-125 0 -196 -96q-70 -94 -70 -270zM313 160q46 -55 99 -80q57 -27 114 -27q125 0 187 101q63 104 63 301q0 61 -12 120q-14 68 -35 117z" />
<glyph unicode="&#xf9;" horiz-adv-x="956" d="M88 915l135 21q2 0 4 1t4 1h5q31 0 37 -12.5t6 -59.5l-5 -475v-12q0 -152 45.5 -215.5t145.5 -63.5q115 0 160 78q47 82 47 291v238q0 98 -10 149q-10 47 -31 59l200 23q-4 -59 -8 -229q-4 -201 -4 -328v-115q0 -135 10 -192q8 -51 35 -74l-162 -12h-10l-6 2q-2 4 -2 8v8 l-6 150q-47 -88 -119 -133q-76 -47 -156 -48q-78 0 -141 35q-59 33 -94 96q-23 43 -31 107q-10 72 -10 211v39q0 227 2 338q0 10 1 22l1 13q0 31 -10 51q-6 14 -33 28zM229 1399h178q41 -90 88 -172q49 -84 121 -178q-117 25 -211 110q-92 82 -176 240z" />
<glyph unicode="&#xfa;" horiz-adv-x="956" d="M88 915l135 21q2 0 4 1t4 1h5q31 0 37 -12.5t6 -59.5l-5 -475v-12q0 -152 45.5 -215.5t145.5 -63.5q115 0 160 78q47 82 47 291v238q0 98 -10 149q-10 47 -31 59l200 23q-4 -59 -8 -229q-4 -201 -4 -328v-115q0 -135 10 -192q8 -51 35 -74l-162 -12h-10l-6 2q-2 4 -2 8v8 l-6 150q-47 -88 -119 -133q-76 -47 -156 -48q-78 0 -141 35q-59 33 -94 96q-23 43 -31 107q-10 72 -10 211v39q0 227 2 338q0 10 1 22l1 13q0 31 -10 51q-6 14 -33 28zM342 1049q76 102 123 182q53 92 86 168h178q-82 -154 -176 -237.5t-211 -112.5z" />
<glyph unicode="&#xfb;" horiz-adv-x="956" d="M88 915l135 21q2 0 4 1t4 1h5q31 0 37 -12.5t6 -59.5l-5 -475v-12q0 -152 45.5 -215.5t145.5 -63.5q115 0 160 78q47 82 47 291v238q0 98 -10 149q-10 47 -31 59l200 23q-4 -59 -8 -229q-4 -201 -4 -328v-115q0 -135 10 -192q8 -51 35 -74l-162 -12h-10l-6 2q-2 4 -2 8v8 l-6 150q-47 -88 -119 -133q-76 -47 -156 -48q-78 0 -141 35q-59 33 -94 96q-23 43 -31 107q-10 72 -10 211v39q0 227 2 338q0 10 1 22l1 13q0 31 -10 51q-6 14 -33 28zM192 1049q61 96 125 208q47 84 72 142h178q25 -57 72 -142q63 -113 125 -208h-90q-70 74 -103 114 q-49 61 -92 129q-51 -76 -94 -129q-45 -55 -101 -114h-92z" />
<glyph unicode="&#xfc;" horiz-adv-x="956" d="M88 915l135 21q2 0 4 1t4 1h5q31 0 37 -12.5t6 -59.5l-5 -475v-12q0 -152 45.5 -215.5t145.5 -63.5q115 0 160 78q47 82 47 291v238q0 98 -10 149q-10 47 -31 59l200 23q-4 -59 -8 -229q-4 -201 -4 -328v-115q0 -135 10 -192q8 -51 35 -74l-162 -12h-10l-6 2q-2 4 -2 8v8 l-6 150q-47 -88 -119 -133q-76 -47 -156 -48q-78 0 -141 35q-59 33 -94 96q-23 43 -31 107q-10 72 -10 211v39q0 227 2 338q0 10 1 22l1 13q0 31 -10 51q-6 14 -33 28zM196 1208l142 121l102 -123l-143 -119zM516 1208l143 121l103 -123l-144 -119z" />
<glyph unicode="&#xfd;" horiz-adv-x="770" d="M-305 -498q0 20 20 29q18 8 84 8q6 0 23.5 -1t27.5 -1h39q106 0 154 21q49 20 88 69q72 90 119 193q45 98 45 172q0 45 -49 235q-47 182 -127 416q-55 160 -80 209q-25 51 -49 59l141 17h19q43 0 153 -414q61 -229 105 -375q92 252 147 442.5t55 258.5q0 16 -4 41 q-2 14 -14 34h213q-61 -70 -203 -440l-102 -268q-181 -461 -320 -633t-309 -172q-72 0 -125 31q-51 30 -51 69zM250 1049q76 102 123 182q53 92 86 168h178q-82 -154 -176 -237.5t-211 -112.5z" />
<glyph unicode="&#xfe;" horiz-adv-x="972" d="M94 -573q25 29 33 114q10 96 10 312v317v852q0 209 -10 291q-8 74 -33 88l201 35q-4 -57 -8 -174q-4 -127 -4 -228v-125q0 -16 1 -47t1 -45q66 57 139 90q68 31 129 31q152 0 254 -129q102 -131 102 -328q0 -223 -161 -364q-163 -141 -412 -142q-18 0 -37 2q-4 0 -8 1.5 t-6 1.5v-37v-17q0 -18 -1 -54t-1 -52q0 -193 10 -281q8 -78 35 -112h-234zM274 334q0 -170 39 -211q39 -43 150 -43q139 0 215 88q74 86 74 254q0 175 -80 289q-80 115 -199 114q-39 0 -90 -20q-47 -18 -72 -47q-18 -23 -28 -99q-8 -66 -9 -266v-59z" />
<glyph unicode="&#xff;" horiz-adv-x="770" d="M-305 -498q0 20 20 29q18 8 84 8q6 0 23.5 -1t27.5 -1h39q106 0 154 21q49 20 88 69q72 90 119 193q45 98 45 172q0 45 -49 235q-47 182 -127 416q-55 160 -80 209q-25 51 -49 59l141 17h19q43 0 153 -414q61 -229 105 -375q92 252 147 442.5t55 258.5q0 16 -4 41 q-2 14 -14 34h213q-61 -70 -203 -440l-102 -268q-181 -461 -320 -633t-309 -172q-72 0 -125 31q-51 30 -51 69zM104 1208l142 121l102 -123l-143 -119zM424 1208l143 121l103 -123l-144 -119z" />
<glyph unicode="&#x131;" horiz-adv-x="421" d="M94 0q25 18 33 70q10 57 10 190v197v114q0 199 -10 267q-8 61 -33 77q102 6 109 7q37 4 92 16q-4 -37 -8 -176q-2 -86 -2 -389v-117q0 -129 10 -186q8 -51 33 -70h-234z" />
<glyph unicode="&#x152;" horiz-adv-x="1931" d="M76 639q0 334 176 516t506 182q37 0 182 -12t254 -12q51 0 268 4q109 2 221 2h9q23 -2 63 -2l17 -193q-25 63 -97 88q-74 25 -276 25h-115q-12 -53 -14 -143q-4 -131 -4 -287v-68q33 -4 57 -4h102q120 0 203 6q100 8 148 17q-59 -66 -150 -92q-88 -27 -307 -27h-23 q-6 0 -16 1t-14 1v-133q0 -154 4 -289q2 -88 14 -143h119q207 0 305 33q100 33 158 108l-35 -205q-43 -8 -96 -12q-70 -4 -109 -4q-117 0 -196.5 2t-161.5 2q-106 0 -290.5 -12.5t-260.5 -12.5q-317 0 -479 168t-162 496zM283 686q0 -299 125 -457q127 -162 354 -161 q182 0 256 73q72 72 72 285v524q0 162 -76 231.5t-248 69.5q-238 0 -360 -143q-123 -146 -123 -422z" />
<glyph unicode="&#x153;" horiz-adv-x="1552" d="M61 438q0 227 127 363q129 137 334 137q111 0 191 -37q82 -39 135 -108q59 72 141 108q84 37 182 37q143 0 231.5 -76t88.5 -194q0 -49 -55 -64q-59 -16 -312 -16q-84 0 -190 4h-6q-6 -18 -10.5 -55t-4.5 -62q0 -176 82 -272q82 -98 219 -99q80 0 140 29q68 33 123 90 v-24q0 -82 -101 -152q-102 -72 -229 -72q-106 0 -182 41q-82 43 -136 125q-61 -80 -151 -123q-89 -43 -197 -43q-201 0 -309 121q-111 123 -111 342zM227 483q0 -197 80 -313.5t217 -116.5q121 0 183 101q61 101 61 301q0 180 -78 295q-76 113 -203 112.5t-192 -96.5 q-68 -99 -68 -283zM938 651h18q18 0 49 -2t89 -2h26q139 0 168 15q31 15 31 55q0 63 -47 106q-49 45 -119 45q-82 0 -143 -61q-64 -64 -72 -156z" />
<glyph unicode="&#x178;" horiz-adv-x="993" d="M-29 1313h166q63 0 94 -25q35 -29 70 -100q61 -125 109 -250q39 -100 106 -305l174 319l12 25q102 193 103 250q0 20 -10 45q-8 20 -27 41h262l-242 -369q-96 -152 -137 -231q-47 -96 -67 -195q-20 -96 -21 -309q0 -53 10 -111q9 -52 31 -98h-268q27 51 39 125 q14 90 14 182q0 193 -51 361q-49 162 -186 401q-43 74 -97 150q-43 59 -84 94zM215 1605l142 121l102 -123l-143 -119zM535 1605l143 121l103 -123l-144 -119z" />
<glyph unicode="&#x2c6;" horiz-adv-x="1024" d="M225 1049q61 96 125 208q47 84 72 142h178q25 -57 72 -142q63 -113 125 -208h-90q-70 74 -103 114q-49 61 -92 129q-51 -76 -94 -129q-45 -55 -101 -114h-92z" />
<glyph unicode="&#x2dc;" horiz-adv-x="1024" d="M221 1108q23 92 72 139q51 47 125 47q18 0 28 -2q20 -4 33 -8l78 -27q12 -4 33 -8q10 -2 28 -2q37 0 60 17q20 16 37 53h88q-25 -94 -76 -141q-51 -49 -123 -50q-25 0 -35 2q-20 4 -30 9l-80 26q-16 4 -26.5 6t-26.5 2q-39 0 -60 -14q-22 -15 -37 -49h-88z" />
<glyph unicode="&#x2000;" horiz-adv-x="937" />
<glyph unicode="&#x2001;" horiz-adv-x="1875" />
<glyph unicode="&#x2002;" horiz-adv-x="937" />
<glyph unicode="&#x2003;" horiz-adv-x="1875" />
<glyph unicode="&#x2004;" horiz-adv-x="624" />
<glyph unicode="&#x2005;" horiz-adv-x="468" />
<glyph unicode="&#x2006;" horiz-adv-x="311" />
<glyph unicode="&#x2007;" horiz-adv-x="311" />
<glyph unicode="&#x2008;" horiz-adv-x="233" />
<glyph unicode="&#x2009;" horiz-adv-x="374" />
<glyph unicode="&#x200a;" horiz-adv-x="102" />
<glyph unicode="&#x2010;" horiz-adv-x="677" d="M61 412l91 116h464l-88 -122h-432q-6 0 -13 1t-9 1q-9 0 -13 4z" />
<glyph unicode="&#x2011;" horiz-adv-x="677" d="M61 412l91 116h464l-88 -122h-432q-6 0 -13 1t-9 1q-9 0 -13 4z" />
<glyph unicode="&#x2012;" horiz-adv-x="677" d="M61 412l91 116h464l-88 -122h-432q-6 0 -13 1t-9 1q-9 0 -13 4z" />
<glyph unicode="&#x2013;" horiz-adv-x="1024" d="M-39 418l78 98h1024l-78 -98h-1024z" />
<glyph unicode="&#x2014;" horiz-adv-x="2048" d="M-39 418l78 98h2048l-78 -98h-2048z" />
<glyph unicode="&#x2018;" horiz-adv-x="536" d="M170 1116q0 68 41 123q45 61 121 102q-10 -20 -19 -53q-6 -25 -6 -51q0 -41 19 -80q18 -41 57 -94l-141 -115q-31 37 -54 88q-18 40 -18 80z" />
<glyph unicode="&#x2019;" horiz-adv-x="536" d="M164 1223l141 114q35 -43 55 -88q16 -35 17 -80q0 -68 -41 -122q-41 -57 -121 -103q14 35 21 55q6 25 6 50q0 37 -19 77q-22 50 -59 97z" />
<glyph unicode="&#x201a;" horiz-adv-x="536" d="M160 94l141 115q35 -43 55 -88q16 -35 17 -80q0 -68 -41 -123t-123 -102q14 35 20 55q6 25 7 49q0 37 -18.5 80t-57.5 94z" />
<glyph unicode="&#x201c;" horiz-adv-x="839" d="M170 1116q0 68 41 123q45 61 121 102q-10 -20 -19 -53q-6 -25 -6 -51q0 -41 19 -80q18 -41 57 -94l-141 -115q-31 37 -54 88q-18 40 -18 80zM473 1116q0 66 41 121q43 58 123 104q-12 -23 -21 -55q-6 -25 -6 -49q0 -41 19 -80q18 -41 57 -94l-141 -115q-31 37 -53 88 q-19 40 -19 80z" />
<glyph unicode="&#x201d;" horiz-adv-x="839" d="M164 1223l141 114q35 -43 55 -88q16 -35 17 -80q0 -68 -41 -122q-41 -57 -121 -103q14 35 21 55q6 25 6 50q0 37 -19 77q-22 50 -59 97zM467 1223l141 114q39 -51 56 -88q18 -40 18 -80q0 -65 -43 -122q-41 -57 -121 -103q12 23 21 55q6 25 6 50q0 37 -19 77 q-22 50 -59 97z" />
<glyph unicode="&#x201e;" horiz-adv-x="839" d="M160 94l141 115q35 -43 55 -88q16 -35 17 -80q0 -68 -41 -123t-123 -102q14 35 20 55q6 25 7 49q0 37 -18.5 80t-57.5 94zM463 94l141 115q35 -43 55 -88q16 -35 17 -80q0 -68 -41 -123t-123 -102q14 35 20 55q6 25 7 49q0 37 -18.5 80t-57.5 94z" />
<glyph unicode="&#x2022;" horiz-adv-x="1206" d="M307 762q0 123 86 209t211 86q123 0 209 -86t86 -209q0 -121 -88 -209t-209 -88t-209 88q-86 86 -86 209z" />
<glyph unicode="&#x2026;" horiz-adv-x="2048" d="M207 109l166 100l104 -131l-157 -103zM889 109l166 100l104 -131l-157 -103zM1573 109l166 100l104 -131l-157 -103z" />
<glyph unicode="&#x202f;" horiz-adv-x="374" />
<glyph unicode="&#x2039;" horiz-adv-x="567" d="M61 465l447 377q-6 -43 -21 -78q-12 -29 -38 -64l-203 -235l203 -236q23 -27 38 -61q14 -31 21 -80z" />
<glyph unicode="&#x203a;" horiz-adv-x="567" d="M61 88q8 51 21 80q15 34 37 61l203 236l-203 235q-20 23 -37 60q-14 31 -21 82l447 -377z" />
<glyph unicode="&#x205f;" horiz-adv-x="468" />
<glyph unicode="&#x2122;" horiz-adv-x="1705" d="M254 1389v67h440v-67h-172v-467h-94v467h-174zM819 922v534h129l160 -405l149 405h132v-534h-82v458l-172 -458h-54l-180 458v-458h-82z" />
<glyph unicode="&#xe000;" horiz-adv-x="1050" d="M0 1050h1050v-1050h-1050v1050z" />
<glyph unicode="&#xfb01;" horiz-adv-x="903" d="M561 1194l153 96l86 -141l-151 -94zM577 0q25 18 33 70q10 57 10 190v197v114q0 199 -10 267q-8 61 -33 77q102 6 109 7q37 4 92 16q-4 -37 -8 -176q-2 -86 -2 -389v-117q0 -129 10 -186q8 -51 33 -70h-234zM55 915h82v39v60q0 152 6 213q6 59 25 90q31 55 113 88 q80 33 196 33q68 0 107 -23q37 -22 37 -61q0 -25 -23 -43q-22 -18 -55 -19q-39 0 -88 37t-70 37q-53 0 -77.5 -80t-24.5 -260v-68q0 -8 1 -22t1 -21h157v-8q0 -2 1 -5l1 -3q0 -29 -26 -41q-25 -10 -133 -14v-387v-197q0 -133 10 -190q8 -51 33 -70h-234q25 18 33 70 q10 57 10 190v197v387q-6 0 -20.5 1t-20.5 1q-12 0 -41 4v65z" />
<glyph unicode="&#xfb02;" horiz-adv-x="903" d="M577 0q27 16 35 82q10 76 10 237q0 8 -1 67.5t-1 109.5v211v315q0 209 -10 291q-8 74 -33 88l201 35q-4 -47 -8 -285q-2 -150 -2 -727v-162q0 -135 10 -192q8 -51 33 -70h-234zM55 915h82v39v60q0 152 6 213q6 59 25 90q31 55 113 88q80 33 196 33q68 0 107 -23 q37 -22 37 -61q0 -25 -23 -43q-22 -18 -55 -19q-39 0 -88 37t-70 37q-53 0 -77.5 -80t-24.5 -260v-68q0 -8 1 -22t1 -21h157v-8q0 -2 1 -5l1 -3q0 -29 -26 -41q-25 -10 -133 -14v-387v-197q0 -133 10 -190q8 -51 33 -70h-234q25 18 33 70q10 57 10 190v197v387q-6 0 -20.5 1 t-20.5 1q-12 0 -41 4v65z" />
<glyph unicode="&#xfb03;" horiz-adv-x="1386" d="M1045 1194l153 96l86 -141l-151 -94zM1061 0q25 18 33 70q10 57 10 190v197v114q0 199 -10 267q-8 61 -33 77q102 6 109 7q37 4 92 16q-4 -37 -8 -176q-2 -86 -2 -389v-117q0 -129 10 -186q8 -51 33 -70h-234zM538 915h82v39v60q0 152 6 213q6 59 25 90q31 55 113 88 q80 33 196 33q68 0 107 -23q37 -22 37 -61q0 -25 -23 -43q-22 -18 -55 -19q-39 0 -88 37t-70 37q-53 0 -77.5 -80t-24.5 -260v-68q0 -8 1 -22t1 -21h157v-8q0 -2 1 -5l1 -3q0 -29 -26 -41q-25 -10 -133 -14v-387v-197q0 -133 10 -190q8 -51 33 -70h-234q25 18 33 70 q10 57 10 190v197v387q-6 0 -20.5 1t-20.5 1q-12 0 -41 4v65zM55 915h82v39v60q0 152 6 213q6 59 25 90q31 55 113 88q80 33 196 33q68 0 107 -23q37 -22 37 -61q0 -25 -23 -43q-22 -18 -55 -19q-39 0 -88 37t-70 37q-53 0 -77.5 -80t-24.5 -260v-68q0 -8 1 -22t1 -21h157 v-8q0 -2 1 -5l1 -3q0 -29 -26 -41q-25 -10 -133 -14v-387v-197q0 -133 10 -190q8 -51 33 -70h-234q25 18 33 70q10 57 10 190v197v387q-6 0 -20.5 1t-20.5 1q-12 0 -41 4v65z" />
<glyph unicode="&#xfb04;" horiz-adv-x="1386" d="M1061 0q27 16 35 82q10 76 10 237q0 8 -1 67.5t-1 109.5v211v315q0 209 -10 291q-8 74 -33 88l201 35q-4 -47 -8 -285q-2 -150 -2 -727v-162q0 -135 10 -192q8 -51 33 -70h-234zM538 915h82v39v60q0 152 6 213q6 59 25 90q31 55 113 88q80 33 196 33q68 0 107 -23 q37 -22 37 -61q0 -25 -23 -43q-22 -18 -55 -19q-39 0 -88 37t-70 37q-53 0 -77.5 -80t-24.5 -260v-68q0 -8 1 -22t1 -21h157v-8q0 -2 1 -5l1 -3q0 -29 -26 -41q-25 -10 -133 -14v-387v-197q0 -133 10 -190q8 -51 33 -70h-234q25 18 33 70q10 57 10 190v197v387q-6 0 -20.5 1 t-20.5 1q-12 0 -41 4v65zM55 915h82v39v60q0 152 6 213q6 59 25 90q31 55 113 88q80 33 196 33q68 0 107 -23q37 -22 37 -61q0 -25 -23 -43q-22 -18 -55 -19q-39 0 -88 37t-70 37q-53 0 -77.5 -80t-24.5 -260v-68q0 -8 1 -22t1 -21h157v-8q0 -2 1 -5l1 -3q0 -29 -26 -41 q-25 -10 -133 -14v-387v-197q0 -133 10 -190q8 -51 33 -70h-234q25 18 33 70q10 57 10 190v197v387q-6 0 -20.5 1t-20.5 1q-12 0 -41 4v65z" />
</font>
</defs>
</svg>
