<?xml version="1.0" standalone="no"?>
<!DOCTYPE svg PUBLIC "-//W3C//DTD SVG 1.1//EN" "http://www.w3.org/Graphics/SVG/1.1/DTD/svg11.dtd" >
<svg xmlns="http://www.w3.org/2000/svg">
<metadata>
This is a custom SVG webfont generated by Font Squirrel.
Copyright   : Generated in 2009 by FontLab Studio Copyright info pending
</metadata>
<defs>
<font id="webfontbdTgSpZT" horiz-adv-x="1085" >
<font-face units-per-em="2048" ascent="1536" descent="-512" />
<missing-glyph horiz-adv-x="481" />
<glyph unicode=" "  horiz-adv-x="481" />
<glyph unicode="&#x09;" horiz-adv-x="481" />
<glyph unicode="&#xa0;" horiz-adv-x="481" />
<glyph unicode="!" horiz-adv-x="948" d="M362 1434h244l-6 -926h-231zM365 0v295h241v-295h-241z" />
<glyph unicode="&#x22;" horiz-adv-x="688" d="M76 1417h217l-8 -502h-205zM424 1417h217l-8 -502h-205z" />
<glyph unicode="#" d="M8 350v189h209v278h-209v189h209v350h197v-350h256v350h196v-350h209v-189h-209v-278h209v-189h-209v-350h-196v350h-256v-350h-197v350h-209zM414 539h256v278h-256v-278z" />
<glyph unicode="$" d="M109 1004q0 371 460 370q45 0 70 -2l49 246h103l-50 -252l230 -25l-6 -206q-141 14 -265 22l-71 -369q227 -66 304 -140.5t77 -258.5q0 -215 -109.5 -313.5t-327.5 -98.5q-27 0 -104 5l-43 -228l-102 15l43 223l-240 28l16 203q133 -18 265 -28l79 407 q-106 31 -166.5 56.5t-114.5 69.5t-75.5 110t-21.5 166zM340 1004q0 -78 39 -114t151 -73l68 346h-29q-115 0 -172 -33.5t-57 -125.5zM510 188h61q106 0 156.5 46.5t50.5 154.5q0 78 -41 116t-151 70z" />
<glyph unicode="%" d="M25 1145q0 291 237.5 291t237.5 -291q0 -147 -61.5 -221t-176.5 -74t-176 74t-61 221zM195 1145q0 -82 14 -119t53 -37t54.5 37t15.5 119q0 80 -15.5 115.5t-54.5 35.5t-53 -34.5t-14 -116.5zM246 12l450 1452l150 -49l-451 -1452zM602 295q0 291 237.5 291t237.5 -291 q0 -147 -61.5 -221t-176 -74t-176 74t-61.5 221zM770 295q0 -82 15.5 -119t54.5 -37t53 36t14 120q0 82 -14 116.5t-53 34.5t-54.5 -35.5t-15.5 -115.5z" />
<glyph unicode="&#x26;" horiz-adv-x="1433" d="M78 426q0 139 82 240.5t219 156.5q-61 80 -85 142.5t-24 160.5q0 147 111 233.5t281 86.5q184 0 287.5 -87t103.5 -251q0 -137 -65.5 -223t-225.5 -185l221 -221q33 90 57 254l215 -4q-29 -199 -100 -389l227 -215l-135 -152l-209 189q-102 -102 -207.5 -143.5 t-267.5 -41.5q-238 0 -361.5 116t-123.5 333zM309 428q0 -117 66.5 -181.5t195.5 -64.5q168 0 299 117l-356 373q-92 -31 -148.5 -95.5t-56.5 -148.5zM496 1096q0 -125 92 -215l43 -43q109 61 151.5 113.5t42.5 133.5q0 158 -163 158q-76 0 -121 -38.5t-45 -108.5z" />
<glyph unicode="'" horiz-adv-x="204" d="M-14 1417h217l-8 -491h-207z" />
<glyph unicode="(" horiz-adv-x="532" d="M37 616.5q0 182.5 49 411.5t98 369l52 139h241q-23 -59 -54.5 -158.5t-85.5 -344.5t-54 -417q0 -342 178 -829l16 -43h-241q-23 51 -56 139t-88 319.5t-55 414z" />
<glyph unicode=")" horiz-adv-x="532" d="M23 -246q23 59 54.5 158.5t85.5 344.5t54 417q0 342 -178 829l-16 43h241q23 -51 55.5 -139t88 -319.5t55.5 -413.5t-49 -411.5t-99 -368.5l-51 -140h-241z" />
<glyph unicode="*" d="M190 926l211 153l-206 152l96 133l203 -145l84 241l157 -55l-82 -238h252v-166h-252l80 -239l-158 -49l-79 243l-209 -157z" />
<glyph unicode="+" d="M84 467v221h346v356h229v-356h353v-221h-353v-354h-229v354h-346z" />
<glyph unicode="," horiz-adv-x="348" d="M14 -252l103 506h241l-120 -506h-224z" />
<glyph unicode="-" horiz-adv-x="901" d="M143 449v210h615v-210h-615z" />
<glyph unicode="." horiz-adv-x="507" d="M119 0v295h241v-295h-241z" />
<glyph unicode="/" d="M141 37l578 1427l213 -73l-578 -1428z" />
<glyph unicode="0" d="M39 662q0 389 129 550.5t374.5 161.5t375 -161.5t129.5 -550.5q0 -377 -129.5 -531t-374.5 -154q-121 0 -209 33t-156.5 110t-103.5 212t-35 330zM285 662q0 -268 61.5 -371t198.5 -103q135 0 194.5 102.5t59.5 371.5q0 281 -59.5 391t-196.5 110t-197.5 -111t-60.5 -390 z" />
<glyph unicode="1" d="M98 1061l426 291h215v-1352h-229v1087l-305 -206z" />
<glyph unicode="2" d="M102 0v207l336 334q147 152 208 239.5t61 186.5q0 188 -244 188q-61 0 -145.5 -9t-137.5 -20l-53 -8l-16 203q221 53 407 53q426 0 426 -377q0 -152 -60.5 -261t-209.5 -259l-271 -262h568v-215h-869z" />
<glyph unicode="3" d="M106 25l23 196q236 -29 387 -28q238 0 238 200q0 184 -222 191h-264v200h262q74 0 134.5 59.5t60.5 133.5q0 182 -225 182l-355 -31l-22 195q223 51 393 51q236 0 341.5 -88t105.5 -274q0 -80 -32 -144.5t-62.5 -92t-80.5 -60.5q104 -47 153.5 -112.5t49.5 -203.5 q0 -422 -444 -422q-90 0 -199.5 11.5t-175.5 23.5z" />
<glyph unicode="4" d="M55 231v185l367 936h250l-357 -906h334v385h230v-385h141v-215h-141v-247h-230v247h-594z" />
<glyph unicode="5" d="M92 41l27 199q252 -49 422 -50q100 0 160.5 61.5t60.5 178.5q0 215 -219 215q-135 0 -244 -51l-180 37l43 723h790v-217h-583l-33 -336q137 53 229 53q434 0 434 -412q0 -229 -120.5 -347t-329.5 -118q-90 0 -205 16.5t-184 31.5z" />
<glyph unicode="6" d="M63 674q0 377 141.5 538.5t397.5 161.5q68 0 163 -11t157 -22l63 -10l-20 -203q-201 33 -363 33q-299 0 -301 -379l43 17q43 18 113.5 36.5t126.5 18.5q451 0 450 -424q0 -221 -125 -337t-352 -116q-246 0 -370 179.5t-124 517.5zM299 600q2 -182 64.5 -298t193.5 -116 q113 0 176.5 62.5t63.5 181.5q0 111 -61.5 167t-170.5 56q-57 0 -123.5 -13t-105.5 -26z" />
<glyph unicode="7" d="M113 1137v217h831v-281l-491 -1106l-215 64l469 1046v60h-594z" />
<glyph unicode="8" d="M49 358q0 125 51.5 203t145.5 139q-96 63 -135 132t-39 182q0 172 132 267t347 95q213 0 348 -96t135 -268q0 -121 -38 -183.5t-142 -128.5q98 -53 149.5 -126.5t51.5 -192.5q0 -207 -139.5 -307.5t-366.5 -100.5t-363.5 92t-136.5 293zM295 393q0 -211 254 -211 q260 0 260 215q0 139 -164 195h-192q-158 -56 -158 -199zM317 981q0 -127 136 -193h192q141 66 141 191q0 188 -235 188q-234 0 -234 -186z" />
<glyph unicode="9" d="M55 926q0 211 133.5 329.5t341.5 118.5q244 0 371 -176t127 -520q0 -377 -141.5 -539t-399.5 -162q-68 0 -163 11.5t-156 21.5l-64 10l21 201q201 -33 362 -33q299 0 304 371l-48 -14q-47 -14 -118.5 -30.5t-122.5 -16.5q-207 0 -327 108.5t-120 319.5zM293 926 q0 -111 60.5 -167.5t168.5 -56.5l271 46q-2 195 -68 306t-195 111q-106 0 -171.5 -63t-65.5 -176z" />
<glyph unicode=":" horiz-adv-x="425" d="M92 0v295h242v-295h-242zM92 621v294h242v-294h-242z" />
<glyph unicode=";" horiz-adv-x="456" d="M25 -238l116 523h242l-150 -523h-208zM125 621v294h242v-294h-242z" />
<glyph unicode="&#x3c;" d="M174 479v234l700 391v-236l-481 -268l481 -281v-235z" />
<glyph unicode="=" d="M111 240v219h862v-219h-862zM111 653v217h862v-217h-862z" />
<glyph unicode="&#x3e;" d="M201 84v235l481 281l-481 268v236l700 -391v-234z" />
<glyph unicode="?" horiz-adv-x="790" d="M18 1389q231 72 357 71q223 0 325.5 -88t102.5 -297q0 -96 -53.5 -189t-116 -151.5t-115.5 -123t-53 -113.5v-78h-227q-12 84 -13 115q0 72 52.5 148.5t114 130.5t113.5 118.5t52 114.5q0 98 -41 138t-166 40q-45 0 -121.5 -9.5t-130.5 -19.5l-53 -8zM225 0v281h242v-281 h-242z" />
<glyph unicode="@" horiz-adv-x="2017" d="M92 535q0 481 247 716.5t693 235.5q893 0 893 -862v-35q0 -346 -93 -478t-288 -132q-184 0 -254 98q-193 -96 -329 -96q-180 0 -276.5 113.5t-96.5 400.5q0 274 86 410t313 136q33 0 86 -11t90 -23l35 -13v29h223v-410q0 -195 12.5 -283.5t35 -112t75.5 -23.5 q57 0 87 25.5t48.5 113.5t18.5 256v37q0 346 -156 494.5t-510 148.5q-358 0 -536.5 -181.5t-178.5 -553.5q0 -406 164 -573t551 -167l293 19l8 -217q-203 -20 -301 -21q-236 0 -403.5 46t-291.5 154.5t-184.5 296.5t-60.5 462zM813 494q0 -166 43 -229.5t121 -63.5 q92 0 237 53q-16 92 -16 268v279q-104 31 -164 30q-133 0 -177 -71t-44 -266z" />
<glyph unicode="A" horiz-adv-x="1239" d="M59 0l344 1417h437l340 -1417h-230l-84 293h-504l-73 -293h-230zM412 506h411l-166 711h-75z" />
<glyph unicode="B" horiz-adv-x="1249" d="M170 0v1417h510q195 0 311.5 -89t116.5 -265q0 -135 -39 -211t-125 -125q100 -41 149.5 -116.5t49.5 -211.5q0 -203 -121 -301t-326 -98h-526zM397 207h287q98 0 159.5 52t61.5 156.5t-68.5 151.5t-156.5 47h-283v-407zM397 813h279q92 0 144 56.5t52 154.5q0 92 -55 140 t-147 48h-273v-399z" />
<glyph unicode="C" horiz-adv-x="1087" d="M100 707q0 389 117 562t401 173l390 -47l-9 -203q-242 29 -350 29q-180 0 -245.5 -114t-65.5 -400q0 -281 64.5 -395.5t252.5 -114.5q43 0 129 6t150 14l65 6l7 -205q-242 -41 -388 -41q-297 0 -407.5 175.5t-110.5 554.5z" />
<glyph unicode="D" horiz-adv-x="1296" d="M170 0v1417h469q313 0 435 -168t122 -516q0 -178 -24.5 -304t-85 -227.5t-172 -151.5t-275.5 -50h-469zM397 213h242q96 0 161.5 39t99.5 114.5t46 161.5t12 205q0 117 -12 197t-46 146.5t-98.5 98t-162.5 31.5h-242v-993z" />
<glyph unicode="E" horiz-adv-x="1142" d="M170 0v1417h862v-211h-635v-397h512v-207h-512v-389h635v-213h-862z" />
<glyph unicode="F" horiz-adv-x="1114" d="M170 0v1417h862v-213h-635v-479h512v-209h-512v-516h-227z" />
<glyph unicode="G" horiz-adv-x="1228" d="M102 711q0 377 125 554t418 177q90 0 207 -12.5t188 -24.5l72 -14l-8 -201q-254 35 -424 35q-193 0 -266.5 -116t-73.5 -398q0 -285 68.5 -401.5t265.5 -116.5q23 0 53.5 2t55.5 4l50 4q24 2 37 4l15 2v346h-170v201h397v-740q-297 -39 -459 -39q-303 0 -427 182.5 t-124 551.5z" />
<glyph unicode="H" horiz-adv-x="1374" d="M170 0v1417h227v-592h580v592h227v-1417h-227v612h-580v-612h-227z" />
<glyph unicode="I" horiz-adv-x="542" d="M156 0v1417h231v-1417h-231z" />
<glyph unicode="J" horiz-adv-x="636" d="M74 59q102 4 139 40t37 139v1181h227l2 -1190q0 -221 -84 -296.5t-321 -75.5v202z" />
<glyph unicode="K" horiz-adv-x="1212" d="M170 0v1417h227v-633l185 17l284 616h267l-347 -706l361 -711h-268l-293 590l-189 -15v-575h-227z" />
<glyph unicode="L" horiz-adv-x="1015" d="M170 0v1417h227v-1202h537v-215h-764z" />
<glyph unicode="M" horiz-adv-x="1738" d="M170 0v1417h379l321 -1108l324 1108h373v-1417h-228v1149h-28l-322 -1092h-237l-324 1092h-31v-1149h-227z" />
<glyph unicode="N" horiz-adv-x="1427" d="M170 0v1417h391l436 -1179h31v1179h229v-1417h-380l-447 1180h-29v-1180h-231z" />
<glyph unicode="O" horiz-adv-x="1325" d="M102 700.5q0 370.5 130 556t430 185.5q301 0 431 -184.5t130 -557t-129 -548t-432.5 -175.5t-431.5 176.5t-128 547zM340 700q0 -274 71.5 -393t250.5 -119q180 0 251.5 118t71.5 394q0 274 -72.5 401.5t-251 127.5t-250 -126.5t-71.5 -402.5z" />
<glyph unicode="P" horiz-adv-x="1224" d="M170 0v1417h494q231 0 355 -121.5t124 -355.5q0 -238 -126 -372t-353 -134h-263v-434h-231zM401 645h263q121 0 182 80t61 215q0 266 -243 266h-263v-561z" />
<glyph unicode="Q" horiz-adv-x="1325" d="M102 700.5q0 368.5 128 555t432 186.5q305 0 433 -185.5t128 -556.5q0 -244 -50.5 -401.5t-168.5 -235.5l149 -274l-203 -100l-164 299q-61 -10 -124 -11q-307 0 -433.5 177.5t-126.5 546zM340 700q0 -270 69.5 -391t252.5 -121q186 0 254.5 119t68.5 393 q0 272 -70.5 400.5t-253 128.5t-252 -127.5t-69.5 -401.5z" />
<glyph unicode="R" horiz-adv-x="1261" d="M170 0v1417h510q475 0 475 -452q0 -305 -225 -410l227 -555h-252l-200 500l-46 -2h-262v-498h-227zM397 702h287q115 0 175.5 72t60.5 187q0 117 -64.5 181t-175.5 64h-283v-504z" />
<glyph unicode="S" horiz-adv-x="1087" d="M106 1044q0 197 120 297.5t345 100.5q84 0 188.5 -12.5t168.5 -24.5l63 -10l-8 -195q-281 29 -399 29q-250 0 -250 -182q0 -92 62.5 -139.5t240.5 -102.5q227 -76 310 -151.5t83 -245.5q0 -223 -113.5 -327t-359.5 -104l-430 43l12 201q270 -31 400 -31q131 0 196.5 48.5 t65.5 160.5q0 80 -60.5 122t-226.5 93q-231 76 -319.5 165t-88.5 265z" />
<glyph unicode="T" horiz-adv-x="993" d="M16 1196v221h959v-221h-361v-1196h-227v1196h-371z" />
<glyph unicode="U" horiz-adv-x="1320" d="M154 453v964h229v-964q0 -135 66.5 -193.5t207.5 -58.5q143 0 212 58t69 194v964h229v-964q0 -248 -121.5 -359.5t-388.5 -111.5q-262 0 -382.5 111.5t-120.5 359.5z" />
<glyph unicode="V" horiz-adv-x="1236" d="M59 1417h240l279 -1210h81l279 1210h242l-344 -1417h-435z" />
<glyph unicode="W" horiz-adv-x="1892" d="M70 1417h241l226 -1210h41l237 1190h262l238 -1190h43l223 1210h240l-287 -1417h-379l-211 1092l-205 -1092h-379z" />
<glyph unicode="X" horiz-adv-x="1189" d="M53 0l400 702l-400 715h258l285 -549l283 549h258l-394 -715l394 -702h-258l-283 539l-285 -539h-258z" />
<glyph unicode="Y" horiz-adv-x="1153" d="M39 1417h256l283 -567l280 567h256l-422 -811v-606h-227v606z" />
<glyph unicode="Z" horiz-adv-x="1167" d="M133 0v233l619 934v35h-619v215h901v-233l-618 -934v-35h618v-215h-901z" />
<glyph unicode="[" horiz-adv-x="614" d="M68 1534h481v-219h-252v-1348h252v-219h-479z" />
<glyph unicode="\" horiz-adv-x="1081" d="M100 1430l234 8l627 -1432l-232 -6z" />
<glyph unicode="]" horiz-adv-x="614" d="M61 -33h252v1348h-252v219h482l-2 -1786h-480v219z" />
<glyph unicode="^" d="M57 651l365 701h235l371 -701h-237l-248 479l-250 -479h-236z" />
<glyph unicode="_" d="M55 -174h975v-205h-975v205z" />
<glyph unicode="`" horiz-adv-x="1116" d="M213 1354l76 211l493 -191l-69 -186z" />
<glyph unicode="a" horiz-adv-x="1075" d="M102 303q0 285 332 311l248 21v70q0 135 -125 135q-82 0 -180 -5.5t-156 -11.5l-59 -4l-8 185q262 41 415 40q168 0 253 -80.5t85 -263.5v-430q4 -51 25.5 -71.5t71.5 -32.5l-15 -189q-174 0 -270 74q-147 -74 -307 -74q-135 0 -222.5 89.5t-87.5 236.5zM328 309 q0 -66 31.5 -104.5t84.5 -38.5q49 0 108.5 11t94.5 22l35 10v260l-221 -14q-66 -4 -99.5 -43.5t-33.5 -102.5z" />
<glyph unicode="b" horiz-adv-x="1114" d="M168 2v1446h223v-457q127 53 242 53q389 0 389 -520q0 -285 -115.5 -416t-376.5 -131q-49 0 -139 6.5t-158 12.5zM391 182q98 -10 139 -10q152 0 208.5 91t56.5 261q0 319 -191 320q-49 0 -102 -8.5t-82 -16.5l-29 -10v-627z" />
<glyph unicode="c" horiz-adv-x="892" d="M96 524q0 262 103.5 391t318.5 129l295 -30l-8 -191q-150 16 -227 17q-139 0 -195.5 -73t-56.5 -243q0 -180 55 -261t199 -81l227 15l6 -191q-164 -29 -299 -29q-221 0 -319.5 133t-98.5 414z" />
<glyph unicode="d" horiz-adv-x="1114" d="M96 516q0 262 106.5 395t311.5 133q66 0 213 -24v428h225v-1448h-225v49q-131 -72 -252 -72q-201 0 -290 138.5t-89 400.5zM324 514q0 -336 186 -336q43 0 97.5 13.5t86.5 25.5l33 14v596q-135 23 -197 23q-206 0 -206 -336z" />
<glyph unicode="e" horiz-adv-x="1038" d="M94 502q0 262 110.5 402t321.5 140t316.5 -119.5t105.5 -346.5l-14 -160h-615q4 -244 224 -244q66 0 158 5t151 9l59 5l4 -168q-195 -47 -389 -48q-229 0 -330.5 130.5t-101.5 394.5zM319 588h408q0 137 -47 202.5t-154 65.5q-207 0 -207 -268z" />
<glyph unicode="f" horiz-adv-x="694" d="M51 827v195h111v68q0 203 68.5 290.5t220.5 87.5l211 -20l-5 -186q-88 10 -151 10q-68 0 -94.5 -44t-26.5 -141v-65h262v-195h-262v-827h-223v827h-111z" />
<glyph unicode="g" horiz-adv-x="1083" d="M92 -180q0 135 152 252q-66 45 -66 145q0 47 76 168q-150 94 -150 301q0 176 114 267t286 91q35 0 83 -6t79 -14l30 -6l316 6v-180h-156q51 -63 51 -158q0 -354 -407 -354q-41 0 -82 8q-27 -68 -27 -94q0 -51 34 -65.5t173 -14.5q227 0 323.5 -65.5t96.5 -233.5 q0 -180 -130 -269.5t-335 -89.5q-461 1 -461 312zM313 -160q0 -135 242 -135q238 0 238 150q0 74 -48.5 98t-162.5 24l-189 13q-80 -74 -80 -150zM328 686q0 -172 172 -172q184 0 184 172t-182 172q-174 0 -174 -172z" />
<glyph unicode="h" horiz-adv-x="1150" d="M162 0v1448h223v-461q156 57 268 57q193 0 269.5 -124.5t76.5 -384.5v-535h-223v537q0 154 -33.5 230.5t-132.5 76.5q-41 0 -97 -11.5t-91 -21.5l-37 -12v-799h-223z" />
<glyph unicode="i" horiz-adv-x="522" d="M150 0v1022h223v-1022h-223zM150 1184v235h223v-235h-223z" />
<glyph unicode="j" horiz-adv-x="534" d="M-63 -307q150 82 187.5 137t37.5 182v1010h225v-1012q0 -205 -66.5 -300t-283.5 -204zM162 1182v235h225v-235h-225z" />
<glyph unicode="k" horiz-adv-x="1042" d="M168 0v1448h223v-825l109 14l241 385h252l-295 -477l306 -545h-252l-248 422l-113 -16v-406h-223z" />
<glyph unicode="l" horiz-adv-x="526" d="M152 0v1448h223v-1448h-223z" />
<glyph unicode="m" horiz-adv-x="1748" d="M172 0v1022h223v-57q152 80 252 79q158 0 252 -90q231 90 356 90q190 0 268.5 -122.5t78.5 -386.5v-535h-224v524q0 166 -31.5 242t-134.5 76q-45 0 -102 -15.5t-90 -29.5l-35 -15q18 -61 19 -252v-530h-226v526q0 164 -36.5 240t-137.5 76q-41 0 -93 -14.5t-85 -28.5 l-31 -15v-784h-223z" />
<glyph unicode="n" horiz-adv-x="1155" d="M168 0v1022h223v-53q152 76 266 75q195 0 272 -124.5t77 -384.5v-535h-226v532q0 156 -33.5 233t-132.5 77q-96 0 -223 -54v-788h-223z" />
<glyph unicode="o" horiz-adv-x="1083" d="M94 518q0 252 102.5 389t346.5 137q446 0 446 -528q0 -256 -101.5 -397.5t-344.5 -141.5q-246 0 -347.5 140.5t-101.5 400.5zM322 518q0 -174 46 -260t175 -86t173 86t44 258q0 164 -48 249t-169 85q-125 0 -173 -82t-48 -250z" />
<glyph unicode="p" horiz-adv-x="1114" d="M168 -440v1462h223v-55q127 78 250 77q381 0 381 -522q0 -297 -108.5 -421t-340.5 -124q-127 0 -182 19v-436h-223zM391 190q92 -18 166 -18q131 0 184.5 86t53.5 264q0 322 -195 322q-43 0 -95 -14.5t-83 -30.5l-31 -15v-594z" />
<glyph unicode="q" horiz-adv-x="1110" d="M96 504q0 266 107.5 403t347.5 137l397 -22v-1464h-223v456q-119 -37 -215 -37q-221 0 -317.5 131.5t-96.5 395.5zM322 504q0 -326 204 -326l199 33v627q-119 12 -174 12q-127 0 -178 -87t-51 -259z" />
<glyph unicode="r" horiz-adv-x="733" d="M154 0v1022h225v-113q129 102 301 138v-240q-82 -16 -158 -42t-108 -44l-35 -16v-705h-225z" />
<glyph unicode="s" horiz-adv-x="1009" d="M113 727q0 160 109.5 238.5t264.5 78.5l377 -45l-4 -182q-248 33 -356 33q-166 0 -166 -119q0 -47 41 -69.5t166 -45.5q199 -35 275.5 -100t76.5 -213q0 -326 -397 -326l-377 46l8 184q242 -35 346.5 -35t149.5 29.5t45 95.5q0 51 -36 73.5t-159 47.5 q-193 37 -278.5 100.5t-85.5 208.5z" />
<glyph unicode="t" horiz-adv-x="727" d="M49 825v195h123v301h223v-301h271v-195h-271v-436q0 -113 25.5 -162t87.5 -49l154 6l10 -182q-123 -27 -195 -27q-164 0 -234.5 89.5t-70.5 293.5v467h-123z" />
<glyph unicode="u" horiz-adv-x="1146" d="M152 487v535h225v-533q0 -174 33.5 -244.5t132.5 -70.5q41 0 95 14.5t87 28.5l35 14v791h225v-1022h-225v53q-152 -76 -260 -76q-195 0 -271.5 118t-76.5 392z" />
<glyph unicode="v" horiz-adv-x="989" d="M41 1022h231l199 -838h47l203 838h227l-262 -1022h-385z" />
<glyph unicode="w" horiz-adv-x="1542" d="M39 1022h223l156 -819h49l186 801h236l186 -801h47l158 819h221l-211 -1022h-370l-152 698l-154 -698h-364z" />
<glyph unicode="x" horiz-adv-x="950" d="M45 0l293 510l-293 512h240l190 -352l191 352h239l-295 -512l295 -510h-239l-191 350l-190 -350h-240z" />
<glyph unicode="y" horiz-adv-x="991" d="M39 1022h223l211 -807h43l213 807h221l-383 -1460h-223l117 440h-156z" />
<glyph unicode="z" horiz-adv-x="978" d="M119 199l479 626h-479v199h739l2 -199l-479 -626h479v-199h-739z" />
<glyph unicode="{" horiz-adv-x="665" d="M37 545v188q113 29 154.5 74t41.5 127q0 27 -7 123t-7 137q0 190 98.5 270t323.5 88l2 -219q-111 -8 -146.5 -39.5t-35.5 -115.5q0 -35 7 -131.5t7 -124.5q0 -123 -45 -183.5t-160 -97.5q113 -37 159 -102.5t46 -188.5q0 -31 -7 -117t-7 -122q0 -84 37 -119t145 -43 l-2 -219q-221 8 -321.5 91t-100.5 265q0 43 7 134t7 114q0 82 -41.5 131t-154.5 80z" />
<glyph unicode="|" d="M418 -512v2048h229v-2048h-229z" />
<glyph unicode="}" horiz-adv-x="665" d="M18 -57q111 8 147 39.5t36 115.5q0 35 -7.5 131.5t-7.5 124.5q0 123 45 183.5t160 97.5q-113 37 -159 102.5t-46 188.5q0 31 7.5 116.5t7.5 122.5q0 84 -37 119t-146 43l2 219q221 -8 321.5 -91t100.5 -265q0 -43 -7 -134t-7 -114q0 -82 42 -131t155 -80v-188 q-113 -29 -155 -74t-42 -127q0 -27 7 -123t7 -137q0 -190 -98 -270t-324 -88z" />
<glyph unicode="~" d="M123 684q12 12 34.5 30.5t88 48.5t125.5 30q57 0 190 -47.5t180 -47.5q78 0 205 86l15 -211q-12 -12 -32 -29.5t-80.5 -47t-117.5 -29.5q-59 0 -196.5 47t-176.5 47q-41 0 -95 -22.5t-87 -42.5l-33 -23z" />
<glyph unicode="&#xa1;" horiz-adv-x="948" d="M362 -412l7 926h231l6 -926h-244zM362 727v295h242v-295h-242z" />
<glyph unicode="&#xa2;" horiz-adv-x="894" d="M49 510q0 422 369 448v222h188v-230l178 -20l-6 -195q-174 8 -252 8q-139 0 -193 -50t-54 -183q0 -135 53 -183t203 -48l243 10l8 -195q-96 -12 -178 -20v-234h-190v226q-184 10 -276.5 114.5t-92.5 329.5z" />
<glyph unicode="&#xa3;" d="M111 0v207h196v481h-166v205h166v86q0 225 79 319.5t232 94.5q49 0 131 -11.5t140 -21.5l59 -12l-10 -191q-211 18 -262 19q-82 0 -115 -42t-33 -157v-84h400v-205h-402v-481h271l147 33l37 -203l-166 -35q-106 0 -352 -1t-352 -1z" />
<glyph unicode="&#xa4;" d="M55 182l148 148q-47 86 -48 185t46 185l-146 150l154 154l147 -148q86 47 185.5 47t185.5 -47l150 148l153 -154l-147 -150q47 -86 47 -185t-47 -185l147 -148l-153 -153l-150 145q-86 -47 -185.5 -46t-185.5 48l-147 -147zM360 516q0 -78 52 -131q53 -53 129.5 -53 t130 53t53.5 131t-53 129q-53 53 -130 53t-130 -53q-52 -51 -52 -129z" />
<glyph unicode="&#xa5;" horiz-adv-x="1105" d="M4 1352h256l295 -529l291 529h256l-326 -561h232v-191h-326l-10 -22v-97h336v-190h-336v-291h-232v291h-342v190h342v97l-10 22h-332v191h236z" />
<glyph unicode="&#xa6;" d="M424 354h229v-866h-229v866zM424 696v842h229v-842h-229z" />
<glyph unicode="&#xa7;" d="M117 471q0 74 42 154t85 114q-90 66 -90 224q0 354 421 354q63 0 150.5 -11.5t142.5 -21.5l58 -10l-11 -182q-227 31 -325 30q-123 0 -171 -34.5t-48 -120.5q0 -66 59 -96.5t225 -65.5q182 -41 251 -100.5t69 -204.5q0 -137 -98 -279q41 -35 59 -81t18 -134 q0 -188 -102 -274t-320 -86q-61 0 -154 10t-157 20l-61 11l22 182q221 -31 334 -31q223 0 223 154q0 72 -54 98.5t-239 67.5q-180 41 -254.5 105.5t-74.5 207.5zM342 512q0 -72 35 -101.5t133 -52.5q123 -29 195 -55q12 16 27.5 68.5t15.5 97.5q0 68 -41 97.5t-154 56.5 q-158 39 -162 41q-49 -74 -49 -152z" />
<glyph unicode="&#xa8;" horiz-adv-x="1257" d="M160 1257v234h215v-234h-215zM590 1257v234h213v-234h-213z" />
<glyph unicode="&#xa9;" d="M20 889q0 227 149.5 386t373 159t374 -159t150.5 -386t-150.5 -385t-374 -158t-373 158t-149.5 385zM86 889q0 -201 130 -339t326.5 -138t327.5 138t131 339t-131 340t-327.5 139t-326.5 -139t-130 -340zM319 887q0 156 47.5 235.5t176.5 79.5l151 -14l-2 -66 q-84 14 -149 15q-100 0 -129 -57.5t-29 -192.5q0 -127 33 -186.5t125 -59.5l149 16l2 -65q-88 -16 -151 -17q-127 0 -175.5 79t-48.5 233z" />
<glyph unicode="&#xaa;" d="M248 950q0 174 201 187l159 8v18q0 70 -63 70l-256 -10l-4 125q205 23 280 22q88 0 139.5 -56.5t51.5 -152.5v-227q2 -27 12 -40t41 -20l-10 -124q-115 4 -152 38q-113 -39 -207 -38q-92 0 -142 51t-50 149zM397 948q0 -72 64 -71q25 0 61 6l62 10l24 6v131l-145 -6 q-35 -4 -50.5 -20.5t-15.5 -55.5z" />
<glyph unicode="&#xab;" horiz-adv-x="1179" d="M123 418v166l428 317v-227l-238 -170l238 -191v-229zM629 418v166l428 317v-227l-238 -170l238 -191v-229z" />
<glyph unicode="&#xac;" d="M109 518v217h864v-526h-217v309h-647z" />
<glyph unicode="&#xad;" horiz-adv-x="901" d="M143 449v210h615v-210h-615z" />
<glyph unicode="&#xae;" d="M20 889q0 227 149.5 386t373 159t374 -159t150.5 -386t-150.5 -385t-374 -158t-373 158t-149.5 385zM86 889q0 -201 130 -339t326.5 -138t327.5 138t131 339t-131 340t-327.5 139t-326.5 -139t-130 -340zM334 565v645h186q131 0 183.5 -41t52.5 -143q0 -156 -121 -186 l133 -275h-72l-135 269h-162v-269h-65zM399 899h164q70 0 98.5 27.5t28.5 99.5q0 68 -39 93.5t-125 25.5h-127v-246z" />
<glyph unicode="&#xaf;" horiz-adv-x="974" d="M158 1284v195h639v-195h-639z" />
<glyph unicode="&#xb0;" d="M199 1155q0 133 84 216t217 83t216 -83t83 -216t-83 -216t-216 -83t-217 83t-84 216zM332 1155q0 -76 46 -123t121.5 -47t124 47t48.5 123t-48.5 124t-124 48t-121.5 -48t-46 -124z" />
<glyph unicode="&#xb1;" d="M76 61v222h934v-222h-934zM76 586v221h352v235h229v-235h353v-221h-353v-221h-229v221h-352z" />
<glyph unicode="&#xb2;" horiz-adv-x="542" d="M35 979v156l164 143q98 86 98 139q0 47 -86 47l-164 -14l-6 168q137 20 227 20q119 0 169 -46t50 -150q0 -119 -120 -215l-97 -84h219v-164h-454z" />
<glyph unicode="&#xb3;" horiz-adv-x="542" d="M45 975l10 160q123 -14 199 -14.5t76 55.5q0 51 -70 51h-135v149h131q25 0 41 14.5t16 39.5q0 47 -71 47l-179 -13l-10 156q131 18 217 18q233 0 234 -176q0 -109 -68 -147q82 -31 82 -154q0 -205 -231 -205q-45 0 -105.5 5.5t-99.5 9.5z" />
<glyph unicode="&#xb4;" horiz-adv-x="1191" d="M213 1376l494 191l75 -211l-499 -168z" />
<glyph unicode="&#xb5;" d="M133 -457v1479h225v-557q0 -156 35 -223.5t137 -67.5q92 0 211 51v797h226v-1022h-226v53q-143 -76 -237 -76q-109 2 -146 66v-500h-225z" />
<glyph unicode="&#x3bc;" d="M133 -457v1479h225v-557q0 -156 35 -223.5t137 -67.5q92 0 211 51v797h226v-1022h-226v53q-143 -76 -237 -76q-109 2 -146 66v-500h-225z" />
<glyph unicode="&#xb6;" d="M16 1038q0 174 105.5 285t275.5 111h680v-177h-131v-1257h-190v1257h-152v-1257h-192v649h-15q-170 0 -275.5 108.5t-105.5 280.5z" />
<glyph unicode="&#xb7;" horiz-adv-x="507" d="M119 457v295h241v-295h-241z" />
<glyph unicode="&#xb8;" horiz-adv-x="1705" d="M762 -438l6 133q72 -4 115 -4q82 0 82 63q0 55 -82 56h-66v192h98v-88q131 -2 187.5 -37t56.5 -137q0 -96 -57.5 -147.5t-155.5 -51.5q-39 0 -85 5t-73 12z" />
<glyph unicode="&#xb9;" horiz-adv-x="542" d="M45 1468l213 150h166v-639h-182v438l-113 -78z" />
<glyph unicode="&#xba;" d="M252 1063q0 307 272 307q279 0 279 -307q0 -313 -279 -313q-272 0 -272 313zM406 1063q0 -98 27.5 -136t90.5 -38q68 0 96.5 38t28.5 136q0 92 -29.5 130t-95.5 38q-63 0 -90.5 -38t-27.5 -130z" />
<glyph unicode="&#xbb;" horiz-adv-x="1179" d="M123 100v228l235 192l-235 170v228l428 -320v-166zM629 100v228l235 192l-235 170v228l428 -320v-166z" />
<glyph unicode="&#xbf;" horiz-adv-x="790" d="M18 -53q0 96 53.5 189t116 151.5t115.5 123t53 113.5v78h228q12 -84 12 -115q0 -72 -52 -148.5t-113.5 -130.5t-114 -118.5t-52.5 -114.5q0 -98 41 -138t166 -40q45 0 122 9.5t130 17.5l53 10l27 -201q-231 -72 -357 -71q-223 0 -325.5 88t-102.5 297zM354 741v281h242 v-281h-242z" />
<glyph unicode="&#xc0;" horiz-adv-x="1239" d="M59 0l344 1417h437l340 -1417h-230l-84 293h-504l-73 -293h-230zM305 1729l76 210l493 -190l-69 -188zM412 506h411l-166 711h-75z" />
<glyph unicode="&#xc1;" horiz-adv-x="1239" d="M59 0l344 1417h437l340 -1417h-230l-84 293h-504l-73 -293h-230zM315 1765l494 191l76 -211l-500 -168zM412 506h411l-166 711h-75z" />
<glyph unicode="&#xc2;" horiz-adv-x="1239" d="M59 0l344 1417h437l340 -1417h-230l-84 293h-504l-73 -293h-230zM240 1618l270 293h205l270 -293h-254l-117 115l-114 -115h-260zM412 506h411l-166 711h-75z" />
<glyph unicode="&#xc3;" horiz-adv-x="1239" d="M59 0l344 1417h437l340 -1417h-230l-84 293h-504l-73 -293h-230zM238 1792q12 14 33.5 35.5t78 56.5t99.5 35q66 0 190.5 -49t147 -49t63.5 21.5t72 41.5l28 23l49 -170q-12 -14 -32.5 -35t-75.5 -55.5t-98 -34.5q-55 0 -183.5 50t-156.5 50q-25 0 -66 -22.5t-70 -44.5 l-28 -23zM412 506h411l-166 711h-75z" />
<glyph unicode="&#xc4;" horiz-adv-x="1239" d="M59 0l344 1417h437l340 -1417h-230l-84 293h-504l-73 -293h-230zM295 1649v233h215v-233h-215zM412 506h411l-166 711h-75zM737 1649v233h213v-233h-213z" />
<glyph unicode="&#xc5;" horiz-adv-x="1239" d="M59 0l328 1356q-43 59 -43 139q0 113 79 177.5t199.5 64.5t200.5 -64.5t80 -177.5q0 -84 -49 -143l326 -1352h-230l-84 293h-504l-73 -293h-230zM412 506h411l-166 711h-75zM518 1495q0 -61 66 -78h78q68 16 67 78q0 39 -28.5 60.5t-77.5 21.5q-47 0 -76 -21.5t-29 -60.5 z" />
<glyph unicode="&#xc6;" horiz-adv-x="1677" d="M35 0l346 1417h1186v-213h-635v-397h512v-203h-512v-391h635v-213h-860v293h-367l-74 -293h-231zM389 506h318v700h-150z" />
<glyph unicode="&#xc7;" horiz-adv-x="1099" d="M100 707q0 389 117 562t401 173l390 -47l-9 -203q-242 29 -350 29q-180 0 -245.5 -114t-65.5 -400q0 -281 64.5 -395.5t252.5 -114.5q43 0 129 6t150 14l65 6l7 -205q-211 -35 -357 -41v-63q131 -2 187.5 -37t56.5 -137q0 -96 -57.5 -147.5t-155.5 -51.5q-39 0 -85 5 t-73 12l-26 4l6 133q72 -4 114 -4q82 0 82 63q0 55 -82 56h-65v172q-256 18 -353.5 192.5t-97.5 532.5z" />
<glyph unicode="&#xc8;" horiz-adv-x="1142" d="M170 0v1417h862v-211h-635v-397h512v-207h-512v-389h635v-213h-862zM326 1729l75 210l494 -190l-70 -188z" />
<glyph unicode="&#xc9;" horiz-adv-x="1142" d="M170 0v1417h862v-211h-635v-397h512v-207h-512v-389h635v-213h-862zM346 1765l494 191l75 -211l-499 -168z" />
<glyph unicode="&#xca;" horiz-adv-x="1142" d="M170 0v1417h862v-211h-635v-397h512v-207h-512v-389h635v-213h-862zM238 1622l270 293h205l270 -293h-254l-117 115l-114 -115h-260z" />
<glyph unicode="&#xcb;" horiz-adv-x="1142" d="M170 0v1417h862v-211h-635v-397h512v-207h-512v-389h635v-213h-862zM297 1649v233h215v-233h-215zM739 1649v233h213v-233h-213z" />
<glyph unicode="&#xcc;" horiz-adv-x="542" d="M-76 1729l76 210l494 -190l-70 -188zM156 0v1417h231v-1417h-231z" />
<glyph unicode="&#xcd;" horiz-adv-x="542" d="M31 1765l493 191l76 -211l-500 -168zM156 0v1417h231v-1417h-231z" />
<glyph unicode="&#xce;" horiz-adv-x="542" d="M-104 1622l270 293h205l270 -293h-254l-117 115l-114 -115h-260zM156 0v1417h231v-1417h-231z" />
<glyph unicode="&#xcf;" horiz-adv-x="542" d="M-53 1667v234h215v-234h-215zM156 0v1417h231v-1417h-231zM389 1667v234h213v-234h-213z" />
<glyph unicode="&#xd0;" horiz-adv-x="1296" d="M37 596v221h133v600h469q313 0 435 -168t122 -516q0 -178 -24.5 -304t-85 -227.5t-172 -151.5t-275.5 -50h-469v596h-133zM397 213h242q96 0 161.5 39t99.5 114.5t46 161.5t12 205q0 117 -12 197t-46 146.5t-98.5 98t-162.5 31.5h-242v-389h281v-221h-281v-383z" />
<glyph unicode="&#xd1;" horiz-adv-x="1427" d="M170 0v1417h391l436 -1179h31v1179h229v-1417h-380l-447 1180h-29v-1180h-231zM338 1788q12 14 33.5 35.5t78 56.5t99.5 35q66 0 190.5 -49t147 -49t63.5 21.5t70 41.5l31 23l49 -170q-12 -14 -32.5 -35t-76 -55.5t-98.5 -34.5q-55 0 -183 50t-157 50q-25 0 -66 -22.5 t-69 -45.5l-29 -22z" />
<glyph unicode="&#xd2;" horiz-adv-x="1325" d="M102 700.5q0 370.5 130 556t430 185.5q301 0 431 -184.5t130 -557t-129 -548t-432.5 -175.5t-431.5 176.5t-128 547zM340 700q0 -274 71.5 -393t250.5 -119q180 0 251.5 118t71.5 394q0 274 -72.5 401.5t-251 127.5t-250 -126.5t-71.5 -402.5zM371 1729l75 210l494 -190 l-70 -188z" />
<glyph unicode="&#xd3;" horiz-adv-x="1325" d="M102 700.5q0 370.5 130 556t430 185.5q301 0 431 -184.5t130 -557t-129 -548t-432.5 -175.5t-431.5 176.5t-128 547zM340 700q0 -274 71.5 -393t250.5 -119q180 0 251.5 118t71.5 394q0 274 -72.5 401.5t-251 127.5t-250 -126.5t-71.5 -402.5zM354 1765l494 191l76 -211 l-500 -168z" />
<glyph unicode="&#xd4;" horiz-adv-x="1325" d="M102 700.5q0 370.5 130 556t430 185.5q301 0 431 -184.5t130 -557t-129 -548t-432.5 -175.5t-431.5 176.5t-128 547zM299 1620l270 293h205l270 -293h-253l-117 115l-115 -115h-260zM340 700q0 -274 71.5 -393t250.5 -119q180 0 251.5 118t71.5 394q0 274 -72.5 401.5 t-251 127.5t-250 -126.5t-71.5 -402.5z" />
<glyph unicode="&#xd5;" horiz-adv-x="1325" d="M102 700.5q0 370.5 130 556t430 185.5q301 0 431 -184.5t130 -557t-129 -548t-432.5 -175.5t-431.5 176.5t-128 547zM283 1788q12 14 33.5 35.5t78 56.5t99.5 35q66 0 190.5 -49t147 -49t63.5 21.5t72 41.5l28 23l49 -170q-12 -14 -32.5 -35t-75.5 -55.5t-98 -34.5 q-55 0 -183.5 50t-156.5 50q-25 0 -66 -22.5t-70 -45.5l-28 -22zM340 700q0 -274 71.5 -393t250.5 -119q180 0 251.5 118t71.5 394q0 274 -72.5 401.5t-251 127.5t-250 -126.5t-71.5 -402.5z" />
<glyph unicode="&#xd6;" horiz-adv-x="1325" d="M102 700.5q0 370.5 130 556t430 185.5q301 0 431 -184.5t130 -557t-129 -548t-432.5 -175.5t-431.5 176.5t-128 547zM340 700q0 -274 71.5 -393t250.5 -119q180 0 251.5 118t71.5 394q0 274 -72.5 401.5t-251 127.5t-250 -126.5t-71.5 -402.5zM340 1649v233h215v-233 h-215zM782 1649v233h213v-233h-213z" />
<glyph unicode="&#xd7;" d="M96 274l287 285l-281 281l158 157l279 -280l286 284l156 -155l-285 -287l281 -278l-158 -158l-280 280l-285 -286z" />
<glyph unicode="&#xd8;" horiz-adv-x="1343" d="M102 700q0 371 130 556.5t430 185.5q139 0 245 -41l113 241l145 -53l-127 -272q184 -170 185 -617q0 -373 -129 -548t-432 -175q-133 0 -234 35l-119 -256l-139 68l123 262q-191 159 -191 614zM340 700q0 -264 61 -378l410 876q-61 31 -149 31q-178 0 -250 -126.5 t-72 -402.5zM522 211q53 -23 140 -23q180 0 251.5 118t71.5 394q0 250 -59 375z" />
<glyph unicode="&#xd9;" horiz-adv-x="1320" d="M154 453v964h229v-964q0 -135 66.5 -193.5t207.5 -58.5q143 0 212 58t69 194v964h229v-964q0 -248 -121.5 -359.5t-388.5 -111.5q-262 0 -382.5 111.5t-120.5 359.5zM356 1729l76 210l494 -190l-70 -188z" />
<glyph unicode="&#xda;" horiz-adv-x="1320" d="M154 453v964h229v-964q0 -135 66.5 -193.5t207.5 -58.5q143 0 212 58t69 194v964h229v-964q0 -248 -121.5 -359.5t-388.5 -111.5q-262 0 -382.5 111.5t-120.5 359.5zM356 1765l494 191l76 -211l-500 -168z" />
<glyph unicode="&#xdb;" horiz-adv-x="1320" d="M154 453v964h229v-964q0 -135 66.5 -193.5t207.5 -58.5q143 0 212 58t69 194v964h229v-964q0 -248 -121.5 -359.5t-388.5 -111.5q-262 0 -382.5 111.5t-120.5 359.5zM287 1618l270 293h205l270 -293h-254l-116 115l-115 -115h-260z" />
<glyph unicode="&#xdc;" horiz-adv-x="1320" d="M154 453v964h229v-964q0 -135 66.5 -193.5t207.5 -58.5q143 0 212 58t69 194v964h229v-964q0 -248 -121.5 -359.5t-388.5 -111.5q-262 0 -382.5 111.5t-120.5 359.5zM334 1667v234h215v-234h-215zM776 1667v234h213v-234h-213z" />
<glyph unicode="&#xdd;" horiz-adv-x="1153" d="M39 1417h256l283 -567l280 567h256l-422 -811v-606h-227v606zM338 1765l493 191l76 -211l-499 -168z" />
<glyph unicode="&#xde;" horiz-adv-x="1224" d="M170 0v1417h231v-213h263q240 0 359.5 -123t119.5 -358q0 -242 -121 -371t-358 -129h-263v-223h-231zM401 444h263q244 0 243 279q0 262 -243 262h-263v-541z" />
<glyph unicode="&#xdf;" horiz-adv-x="1265" d="M154 0v1090q0 205 107.5 291.5t336.5 86.5q233 0 336.5 -70.5t103.5 -236.5q0 -109 -38.5 -159t-141.5 -99q-72 -35 -97.5 -59.5t-25.5 -59.5q0 -29 33 -53t154 -78q143 -66 193 -125t50 -178q0 -211 -92 -289.5t-321 -78.5l-269 34l9 181q209 -8 243 -9q117 0 158 32 t41 114q0 49 -38 83t-148 79q-143 57 -193.5 115.5t-50.5 166.5q0 88 37 136.5t123 91.5q86 41 114.5 68.5t28.5 72.5q0 68 -49 93.5t-160 25.5t-165 -42t-54 -147v-1077h-225z" />
<glyph unicode="&#xe0;" d="M102 303q0 285 332 311l248 21v70q0 135 -125 135q-82 0 -180 -5.5t-156 -11.5l-59 -4l-8 185q262 41 415 40q168 0 253 -80.5t85 -263.5v-430q4 -51 25.5 -71.5t71.5 -32.5l-15 -189q-174 0 -270 74q-147 -74 -307 -74q-135 0 -222.5 89.5t-87.5 236.5zM238 1354l75 211 l494 -191l-70 -186zM328 309q0 -66 31.5 -104.5t84.5 -38.5q49 0 108.5 11t94.5 22l35 10v260l-221 -14q-66 -4 -99.5 -43.5t-33.5 -102.5z" />
<glyph unicode="&#xe1;" d="M102 303q0 285 332 311l248 21v70q0 135 -125 135q-82 0 -180 -5.5t-156 -11.5l-59 -4l-8 185q262 41 415 40q168 0 253 -80.5t85 -263.5v-430q4 -51 25.5 -71.5t71.5 -32.5l-15 -189q-174 0 -270 74q-147 -74 -307 -74q-135 0 -222.5 89.5t-87.5 236.5zM322 1376 l493 191l76 -211l-500 -168zM328 309q0 -66 31.5 -104.5t84.5 -38.5q49 0 108.5 11t94.5 22l35 10v260l-221 -14q-66 -4 -99.5 -43.5t-33.5 -102.5z" />
<glyph unicode="&#xe2;" d="M102 303q0 285 332 311l248 21v70q0 135 -125 135q-82 0 -180 -5.5t-156 -11.5l-59 -4l-8 185q262 41 415 40q168 0 253 -80.5t85 -263.5v-430q4 -51 25.5 -71.5t71.5 -32.5l-15 -189q-174 0 -270 74q-147 -74 -307 -74q-135 0 -222.5 89.5t-87.5 236.5zM160 1198 l262 332h180l266 -332h-241l-113 145l-113 -145h-241zM328 309q0 -66 31.5 -104.5t84.5 -38.5q49 0 108.5 11t94.5 22l35 10v260l-221 -14q-66 -4 -99.5 -43.5t-33.5 -102.5z" />
<glyph unicode="&#xe3;" d="M102 303q0 285 332 311l248 21v70q0 135 -125 135q-82 0 -180 -5.5t-156 -11.5l-59 -4l-8 185q262 41 415 40q168 0 253 -80.5t85 -263.5v-430q4 -51 25.5 -71.5t71.5 -32.5l-15 -189q-174 0 -270 74q-147 -74 -307 -74q-135 0 -222.5 89.5t-87.5 236.5zM158 1401 q12 14 32.5 33.5t76 53.5t98.5 34q63 0 170.5 -46t130 -46t61.5 20t68 41l28 18l49 -170l-31 -32q-19 -20 -73.5 -53t-97.5 -33q-55 0 -165 48t-138 48q-25 0 -65 -21.5t-69 -42.5l-26 -22zM328 309q0 -66 31.5 -104.5t84.5 -38.5q49 0 108.5 11t94.5 22l35 10v260l-221 -14 q-66 -4 -99.5 -43.5t-33.5 -102.5z" />
<glyph unicode="&#xe4;" d="M102 303q0 285 332 311l248 21v70q0 135 -125 135q-82 0 -180 -5.5t-156 -11.5l-59 -4l-8 185q262 41 415 40q168 0 253 -80.5t85 -263.5v-430q4 -51 25.5 -71.5t71.5 -32.5l-15 -189q-174 0 -270 74q-147 -74 -307 -74q-135 0 -222.5 89.5t-87.5 236.5zM248 1257v234 h215v-234h-215zM328 309q0 -66 31.5 -104.5t84.5 -38.5q49 0 108.5 11t94.5 22l35 10v260l-221 -14q-66 -4 -99.5 -43.5t-33.5 -102.5zM678 1257v234h213v-234h-213z" />
<glyph unicode="&#xe5;" d="M102 303q0 285 332 311l248 21v70q0 135 -125 135q-82 0 -180 -5.5t-156 -11.5l-59 -4l-8 185q262 41 415 40q168 0 253 -80.5t85 -263.5v-430q4 -51 25.5 -71.5t71.5 -32.5l-15 -189q-174 0 -270 74q-147 -74 -307 -74q-135 0 -222.5 89.5t-87.5 236.5zM305 1354 q0 96 65.5 161.5t164.5 65.5q96 0 161.5 -65.5t65.5 -161.5q0 -98 -65.5 -164t-161.5 -66q-98 0 -164 66t-66 164zM328 309q0 -66 31.5 -104.5t84.5 -38.5q49 0 108.5 11t94.5 22l35 10v260l-221 -14q-66 -4 -99.5 -43.5t-33.5 -102.5zM457 1354q0 -35 23.5 -57.5t56 -22.5 t55 23.5t22.5 56t-22.5 55.5t-55 23t-56 -22.5t-23.5 -55.5z" />
<glyph unicode="&#xe6;" horiz-adv-x="1695" d="M123 303q0 158 87 227.5t259 85.5l240 19v70q0 66 -33 100.5t-92 34.5q-68 0 -166.5 -6.5t-163.5 -12.5l-66 -6l-6 191q252 39 406 38q197 0 272 -110q98 111 289 110q418 0 418 -466l-15 -160h-618q2 -119 54 -181.5t171 -62.5q66 0 158 5t153 9l60 5l4 -168 q-199 -47 -391 -48q-217 0 -318 103l-55 -25q-184 -78 -340 -78q-135 0 -221 88t-86 238zM350 309q0 -68 33 -105.5t82 -37.5t112.5 12t100.5 22.5t45 14.5q-14 84 -14 250l-228 -14q-131 -11 -131 -142zM932 588h414q0 139 -46.5 203.5t-156.5 64.5q-109 0 -159 -66.5 t-52 -201.5z" />
<glyph unicode="&#xe7;" horiz-adv-x="892" d="M96 524q0 262 103.5 391t318.5 129l295 -30l-8 -191q-150 16 -227 17q-139 0 -195.5 -73t-56.5 -243q0 -180 55 -261t199 -81l227 15l6 -191q-137 -25 -262 -29v-63q131 -2 187.5 -37t56.5 -137q0 -96 -57.5 -147.5t-155.5 -51.5q-39 0 -85 5t-73 12l-27 4l6 133 q72 -4 115 -4q82 0 82 63q0 55 -82 56h-65v172q-188 16 -272.5 149t-84.5 393z" />
<glyph unicode="&#xe8;" horiz-adv-x="1038" d="M94 502q0 262 110.5 402t321.5 140t316.5 -119.5t105.5 -346.5l-14 -160h-615q4 -244 224 -244q66 0 158 5t151 9l59 5l4 -168q-195 -47 -389 -48q-229 0 -330.5 130.5t-101.5 394.5zM188 1354l76 211l494 -191l-70 -186zM319 588h408q0 137 -47 202.5t-154 65.5 q-207 0 -207 -268z" />
<glyph unicode="&#xe9;" horiz-adv-x="1038" d="M94 502q0 262 110.5 402t321.5 140t316.5 -119.5t105.5 -346.5l-14 -160h-615q4 -244 224 -244q66 0 158 5t151 9l59 5l4 -168q-195 -47 -389 -48q-229 0 -330.5 130.5t-101.5 394.5zM252 1376l493 191l76 -211l-499 -168zM319 588h408q0 137 -47 202.5t-154 65.5 q-207 0 -207 -268z" />
<glyph unicode="&#xea;" horiz-adv-x="1038" d="M94 502q0 262 110.5 402t321.5 140t316.5 -119.5t105.5 -346.5l-14 -160h-615q4 -244 224 -244q66 0 158 5t151 9l59 5l4 -168q-195 -47 -389 -48q-229 0 -330.5 130.5t-101.5 394.5zM184 1198l262 332h181l266 -332h-242l-112 145l-113 -145h-242zM319 588h408 q0 137 -47 202.5t-154 65.5q-207 0 -207 -268z" />
<glyph unicode="&#xeb;" horiz-adv-x="1038" d="M94 502q0 262 110.5 402t321.5 140t316.5 -119.5t105.5 -346.5l-14 -160h-615q4 -244 224 -244q66 0 158 5t151 9l59 5l4 -168q-195 -47 -389 -48q-229 0 -330.5 130.5t-101.5 394.5zM262 1257v234h215v-234h-215zM319 588h408q0 137 -47 202.5t-154 65.5 q-207 0 -207 -268zM692 1257v234h213v-234h-213z" />
<glyph unicode="&#xec;" horiz-adv-x="544" d="M-104 1354l75 211l494 -191l-70 -186zM160 0v1022h225v-1022h-225z" />
<glyph unicode="&#xed;" horiz-adv-x="534" d="M23 1376l493 191l76 -211l-500 -168zM160 0v1022h225v-1022h-225z" />
<glyph unicode="&#xee;" horiz-adv-x="544" d="M-90 1198l262 332h180l266 -332h-241l-113 145l-112 -145h-242zM160 0v1022h225v-1022h-225z" />
<glyph unicode="&#xef;" horiz-adv-x="544" d="M-12 1257v234h215v-234h-215zM160 0v1022h225v-1022h-225zM418 1257v234h213v-234h-213z" />
<glyph unicode="&#xf0;" d="M59 469q0 193 121 307.5t320 114.5q66 0 138.5 -15.5t113.5 -29.5l41 -15q-10 119 -68.5 199t-194.5 135l-215 -164l-94 132l123 92q-66 16 -186 39l35 190q221 -31 356 -76l196 150l93 -129l-123 -92q317 -178 317 -592q0 -385 -117.5 -559t-384.5 -174 q-229 0 -350 124.5t-121 362.5zM299 469q0 -281 231 -281q135 0 199 104.5t64 342.5q-133 57 -281 57q-96 0 -154.5 -64.5t-58.5 -158.5z" />
<glyph unicode="&#xf1;" horiz-adv-x="1175" d="M182 0v1022h224v-53q152 76 266 75q195 0 271.5 -124.5t76.5 -384.5v-535h-225v532q0 156 -34 233t-132 77q-96 0 -223 -54v-788h-224zM238 1401q12 14 32.5 33.5t75.5 53.5t98 34q63 0 171 -46t130.5 -46t61.5 20t67 41l29 18l49 -170l-31 -32q-19 -20 -73.5 -53 t-97.5 -33q-55 0 -165 48t-139 48q-25 0 -64.5 -21.5t-66.5 -42.5l-28 -22z" />
<glyph unicode="&#xf2;" horiz-adv-x="1087" d="M94 518q0 252 102.5 389t346.5 137q446 0 446 -528q0 -256 -101.5 -397.5t-344.5 -141.5q-246 0 -347.5 140.5t-101.5 400.5zM156 1354l75 211l494 -191l-70 -186zM322 518q0 -174 46 -260t175 -86t173 86t44 258q0 164 -48 249t-169 85q-125 0 -173 -82t-48 -250z" />
<glyph unicode="&#xf3;" horiz-adv-x="1087" d="M94 518q0 252 102.5 389t346.5 137q446 0 446 -528q0 -256 -101.5 -397.5t-344.5 -141.5q-246 0 -347.5 140.5t-101.5 400.5zM238 1376l493 191l76 -211l-500 -168zM322 518q0 -174 46 -260t175 -86t173 86t44 258q0 164 -48 249t-169 85q-125 0 -173 -82t-48 -250z" />
<glyph unicode="&#xf4;" horiz-adv-x="1087" d="M94 518q0 252 102.5 389t346.5 137q446 0 446 -528q0 -256 -101.5 -397.5t-344.5 -141.5q-246 0 -347.5 140.5t-101.5 400.5zM147 1198l263 332h180l266 -332h-242l-112 145l-113 -145h-242zM322 518q0 -174 46 -260t175 -86t173 86t44 258q0 164 -48 249t-169 85 q-125 0 -173 -82t-48 -250z" />
<glyph unicode="&#xf5;" horiz-adv-x="1087" d="M94 518q0 252 102.5 389t346.5 137q446 0 446 -528q0 -256 -101.5 -397.5t-344.5 -141.5q-246 0 -347.5 140.5t-101.5 400.5zM131 1401q12 14 32.5 33.5t76 53.5t98.5 34q63 0 170.5 -46t130.5 -46t61.5 20t67.5 41l29 18l49 -170l-32 -32q-19 -20 -73.5 -53t-97.5 -33 q-55 0 -164.5 48t-138.5 48q-25 0 -64.5 -21.5t-66.5 -42.5l-29 -22zM322 518q0 -174 46 -260t175 -86t173 86t44 258q0 164 -48 249t-169 85q-125 0 -173 -82t-48 -250z" />
<glyph unicode="&#xf6;" horiz-adv-x="1087" d="M94 518q0 252 102.5 389t346.5 137q446 0 446 -528q0 -256 -101.5 -397.5t-344.5 -141.5q-246 0 -347.5 140.5t-101.5 400.5zM225 1257v234h215v-234h-215zM322 518q0 -174 46 -260t175 -86t173 86t44 258q0 164 -48 249t-169 85q-125 0 -173 -82t-48 -250zM655 1257v234 h213v-234h-213z" />
<glyph unicode="&#xf7;" d="M96 467v223h887v-223h-887zM428 86v244h223v-244h-223zM428 825v244h223v-244h-223z" />
<glyph unicode="&#xf8;" horiz-adv-x="1083" d="M94 518q0 252 102.5 389t346.5 137q68 0 127 -12l-6 -18l-9 -29l-57 -141q-25 6 -55 6q-125 0 -173 -82t-48 -250q0 -178 45 -258l-66 -162l-22 -26l-11 -25q-174 119 -174 471zM176 -174l92 221q55 -37 135 -55l-88 -217zM367 260l231 584q78 -18 115 -82l-236 -584 q-75 19 -110 82zM403 -8l15 35l8 26l51 125q27 -6 66 -6q129 0 173 86t44 258q0 168 -47 246l69 174l19 27l6 14q182 -121 182 -461q0 -256 -101.5 -397.5t-344.5 -141.5q-68 1 -140 15zM670 1032l86 209l139 -51l-88 -213q-59 37 -137 55z" />
<glyph unicode="&#xf9;" horiz-adv-x="1146" d="M152 487v535h225v-533q0 -174 33.5 -244.5t132.5 -70.5q41 0 95 14.5t87 28.5l35 14v791h225v-1022h-225v53q-152 -76 -260 -76q-195 0 -271.5 118t-76.5 392zM184 1354l76 211l494 -191l-70 -186z" />
<glyph unicode="&#xfa;" horiz-adv-x="1146" d="M152 487v535h225v-533q0 -174 33.5 -244.5t132.5 -70.5q41 0 95 14.5t87 28.5l35 14v791h225v-1022h-225v53q-152 -76 -260 -76q-195 0 -271.5 118t-76.5 392zM266 1376l494 191l76 -211l-500 -168z" />
<glyph unicode="&#xfb;" horiz-adv-x="1146" d="M152 487v535h225v-533q0 -174 33.5 -244.5t132.5 -70.5q41 0 95 14.5t87 28.5l35 14v791h225v-1022h-225v53q-152 -76 -260 -76q-195 0 -271.5 118t-76.5 392zM176 1198l262 332h180l267 -332h-242l-113 145l-112 -145h-242z" />
<glyph unicode="&#xfc;" horiz-adv-x="1146" d="M152 487v535h225v-533q0 -174 33.5 -244.5t132.5 -70.5q41 0 95 14.5t87 28.5l35 14v791h225v-1022h-225v53q-152 -76 -260 -76q-195 0 -271.5 118t-76.5 392zM254 1257v234h215v-234h-215zM684 1257v234h213v-234h-213z" />
<glyph unicode="&#xfd;" horiz-adv-x="983" d="M23 1022h223l211 -807h43l213 807h221l-383 -1460h-223l116 440h-155zM238 1376l493 191l76 -211l-500 -168z" />
<glyph unicode="&#xfe;" horiz-adv-x="1118" d="M168 -440v1888h223v-463q123 59 236 59q201 0 298 -126.5t97 -393.5q0 -299 -107.5 -423t-345.5 -124l-178 9v-426h-223zM391 186q78 -14 174 -14q125 0 177.5 87t52.5 265q0 150 -49.5 235t-145.5 85q-43 0 -95 -9.5t-83 -19.5l-31 -8v-621z" />
<glyph unicode="&#xff;" horiz-adv-x="991" d="M39 1022h223l211 -807h43l213 807h221l-383 -1460h-223l117 440h-156zM174 1257v234h215v-234h-215zM604 1257v234h213v-234h-213z" />
<glyph unicode="&#x152;" horiz-adv-x="1843" d="M80 707q0 377 128 556t404 179q100 0 260 -25h861v-213h-633v-397h510v-203h-510v-391h633v-213h-856q-154 -23 -265 -23q-289 0 -410.5 180.5t-121.5 549.5zM317 707q0 -276 70 -395t256 -119q57 0 229 14v1003q-176 14 -233 15q-174 0 -248 -119.5t-74 -398.5z" />
<glyph unicode="&#x153;" horiz-adv-x="1794" d="M135 518q0 254 102.5 390t348.5 136q236 0 336 -143q104 143 319 143q424 0 424 -466l-14 -160h-619q2 -119 54.5 -181.5t170.5 -62.5q66 0 158 5t154 9l59 5l4 -168q-199 -47 -391 -48q-225 0 -328 129q-102 -129 -327 -129q-250 0 -350.5 138.5t-100.5 402.5zM362 518 q0 -178 45.5 -262t178.5 -84q131 0 176 85t45 259t-49 254t-172 80q-129 0 -176.5 -81t-47.5 -251zM1030 588h414q0 143 -42 200.5t-153 57.5q-217 0 -219 -258z" />
<glyph unicode="&#x178;" horiz-adv-x="1153" d="M39 1417h256l283 -567l280 567h256l-422 -811v-606h-227v606zM266 1649v233h215v-233h-215zM709 1649v233h213v-233h-213z" />
<glyph unicode="&#x2c6;" horiz-adv-x="1705" d="M483 1198l262 332h181l266 -332h-242l-112 145l-113 -145h-242z" />
<glyph unicode="&#x2dc;" horiz-adv-x="944" d="M100 1401q12 14 33 33.5t76 53.5t98 34q63 0 171 -46t130.5 -46t61.5 20t67 41l29 18l49 -170l-32 -32q-19 -20 -73.5 -53t-97.5 -33q-55 0 -164.5 48t-138.5 48q-25 0 -64.5 -21.5t-68.5 -42.5l-26 -22z" />
<glyph unicode="&#x2000;" horiz-adv-x="976" />
<glyph unicode="&#x2001;" horiz-adv-x="1955" />
<glyph unicode="&#x2002;" horiz-adv-x="976" />
<glyph unicode="&#x2003;" horiz-adv-x="1955" />
<glyph unicode="&#x2004;" horiz-adv-x="651" />
<glyph unicode="&#x2005;" horiz-adv-x="487" />
<glyph unicode="&#x2006;" horiz-adv-x="325" />
<glyph unicode="&#x2007;" horiz-adv-x="325" />
<glyph unicode="&#x2008;" horiz-adv-x="243" />
<glyph unicode="&#x2009;" horiz-adv-x="391" />
<glyph unicode="&#x200a;" horiz-adv-x="108" />
<glyph unicode="&#x2010;" horiz-adv-x="901" d="M143 449v210h615v-210h-615z" />
<glyph unicode="&#x2011;" horiz-adv-x="901" d="M143 449v210h615v-210h-615z" />
<glyph unicode="&#x2012;" horiz-adv-x="901" d="M143 449v210h615v-210h-615z" />
<glyph unicode="&#x2013;" horiz-adv-x="1024" d="M0 457v205h1024v-205h-1024z" />
<glyph unicode="&#x2014;" horiz-adv-x="2048" d="M0 457v205h2048v-205h-2048z" />
<glyph unicode="&#x2018;" horiz-adv-x="430" d="M49 1042l113 482h213l-99 -482h-227z" />
<glyph unicode="&#x2019;" horiz-adv-x="430" d="M55 1042l99 482h227l-113 -482h-213z" />
<glyph unicode="&#x201a;" horiz-adv-x="430" d="M55 -178l99 481h227l-113 -481h-213z" />
<glyph unicode="&#x201c;" horiz-adv-x="894" d="M92 834l113 481h213l-99 -481h-227zM473 834l113 481h213l-99 -481h-227z" />
<glyph unicode="&#x201d;" horiz-adv-x="868" d="M88 1040l98 482h228l-113 -482h-213zM469 1040l98 482h228l-113 -482h-213z" />
<glyph unicode="&#x201e;" horiz-adv-x="868" d="M88 -178l98 481h228l-113 -481h-213zM469 -178l98 481h228l-113 -481h-213z" />
<glyph unicode="&#x2022;" d="M295 209v579h496v-579h-496z" />
<glyph unicode="&#x2026;" horiz-adv-x="1523" d="M137 0v295h242v-295h-242zM659 0v295h242v-295h-242zM1182 0v295h241v-295h-241z" />
<glyph unicode="&#x202f;" horiz-adv-x="391" />
<glyph unicode="&#x2039;" horiz-adv-x="1073" d="M123 418v166l428 317v-227l-238 -170l238 -191v-229z" />
<glyph unicode="&#x203a;" horiz-adv-x="1073" d="M123 100v228l235 192l-235 170v228l428 -320v-166z" />
<glyph unicode="&#x205f;" horiz-adv-x="487" />
<glyph unicode="&#x20ac;" horiz-adv-x="1181" d="M106 418v176h113q0 2 -1 32.5t-1 47.5q0 14 1 40.5t1 30.5h-113v179h125q29 244 142.5 349t357.5 105q80 0 171 -9t142 -19l52 -11l-15 -190q-195 23 -319 22q-150 0 -214.5 -59t-74.5 -190h479v-177h-495q0 -4 -1 -30.5t-1 -40.5q0 -16 1 -47t1 -33h495v-176h-479 q12 -121 77.5 -177.5t217.5 -56.5l317 21l9 -193q-201 -35 -363 -35q-244 0 -358.5 104.5t-141.5 336.5h-125z" />
<glyph unicode="&#x2122;" d="M14 1208v64h410v-64h-170v-528h-68v528h-172zM496 678v594h102l172 -496l178 496h103v-594h-66v528l-180 -506h-72l-172 506v-528h-65z" />
<glyph unicode="&#xe000;" horiz-adv-x="1020" d="M0 1020h1020v-1020h-1020v1020z" />
<glyph unicode="&#xfb01;" horiz-adv-x="1216" d="M844 0v1022h223v-1022h-223zM844 1184v235h223v-235h-223zM51 827v195h111v68q0 203 68.5 290.5t220.5 87.5l211 -20l-5 -186q-88 10 -151 10q-68 0 -94.5 -44t-26.5 -141v-65h262v-195h-262v-827h-223v827h-111z" />
<glyph unicode="&#xfb02;" horiz-adv-x="1220" d="M846 0v1448h223v-1448h-223zM51 827v195h111v68q0 203 68.5 290.5t220.5 87.5l211 -20l-5 -186q-88 10 -151 10q-68 0 -94.5 -44t-26.5 -141v-65h262v-195h-262v-827h-223v827h-111z" />
<glyph unicode="&#xfb03;" horiz-adv-x="1910" d="M1539 0v1022h223v-1022h-223zM1539 1184v235h223v-235h-223zM745 827v195h111v68q0 203 68.5 290.5t220.5 87.5l211 -20l-5 -186q-88 10 -151 10q-68 0 -94.5 -44t-26.5 -141v-65h262v-195h-262v-827h-223v827h-111zM51 827v195h111v68q0 203 68.5 290.5t220.5 87.5 l211 -20l-5 -186q-88 10 -151 10q-68 0 -94.5 -44t-26.5 -141v-65h262v-195h-262v-827h-223v827h-111z" />
<glyph unicode="&#xfb04;" horiz-adv-x="1914" d="M1541 0v1448h223v-1448h-223zM745 827v195h111v68q0 203 68.5 290.5t220.5 87.5l211 -20l-5 -186q-88 10 -151 10q-68 0 -94.5 -44t-26.5 -141v-65h262v-195h-262v-827h-223v827h-111zM51 827v195h111v68q0 203 68.5 290.5t220.5 87.5l211 -20l-5 -186q-88 10 -151 10 q-68 0 -94.5 -44t-26.5 -141v-65h262v-195h-262v-827h-223v827h-111z" />
<glyph horiz-adv-x="481" />
</font>
</defs>
</svg>
