<?xml version="1.0" standalone="no"?>
<!DOCTYPE svg PUBLIC "-//W3C//DTD SVG 1.1//EN" "http://www.w3.org/Graphics/SVG/1.1/DTD/svg11.dtd" >
<svg xmlns="http://www.w3.org/2000/svg">
<metadata>
This is a custom SVG webfont generated by Font Squirrel.
Copyright   : Generated in 2009 by FontLab Studio Copyright info pending
</metadata>
<defs>
<font id="webfont0ski8a0N" horiz-adv-x="1085" >
<font-face units-per-em="2048" ascent="1536" descent="-512" />
<missing-glyph horiz-adv-x="481" />
<glyph unicode=" "  horiz-adv-x="481" />
<glyph unicode="&#x09;" horiz-adv-x="481" />
<glyph unicode="&#xa0;" horiz-adv-x="481" />
<glyph unicode="!" horiz-adv-x="811" d="M317 0v252h189v-252h-189zM317 1432h189l-6 -949h-176z" />
<glyph unicode="&#x22;" horiz-adv-x="649" d="M84 1423h170l-6 -491h-162zM418 1423h170l-6 -491h-162z" />
<glyph unicode="#" d="M14 362v148h222v340h-222v147h222v365h155v-365h299v365h156v-365h221v-147h-221v-340h221v-148h-221v-362h-156v362h-299v-362h-155v362h-222zM391 510h299v340h-299v-340z" />
<glyph unicode="$" d="M113 1014q0 190 116.5 275t339.5 85q39 0 62 -2l43 246h92l-45 -252l250 -25l-6 -161q-145 16 -271 24l-76 -434q227 -57 309.5 -129t82.5 -252q0 -215 -109.5 -312t-327.5 -97q-27 0 -92 4l-39 -230l-92 15l39 221l-260 30l14 158q139 -18 273 -28l84 475 q-213 51 -300 126t-87 263zM295 1014q0 -100 49 -143.5t184 -77.5l74 417h-33q-137 0 -205.5 -41.5t-68.5 -154.5zM510 143h61q131 0 193.5 57.5t62.5 186.5q0 98 -50 140t-187 77z" />
<glyph unicode="%" d="M39 1151q0 285 227 285q229 0 230 -285q0 -145 -60.5 -218t-169.5 -73q-227 0 -227 291zM174 1151q0 -176 92 -176q51 0 71.5 43t20.5 133t-20.5 130t-71.5 40q-49 0 -70.5 -40t-21.5 -130zM291 12l399 1442l121 -35l-399 -1444zM614 291q0 285 230 284q227 0 227 -284 q0 -145 -60.5 -218t-166.5 -73q-109 0 -169.5 73t-60.5 218zM752 291q0 -90 20.5 -133t71.5 -43t71.5 43t20.5 133t-20.5 130t-71.5 40t-71.5 -40t-20.5 -130z" />
<glyph unicode="&#x26;" horiz-adv-x="1433" d="M92 426q0 285 311 401q-59 74 -82.5 139.5t-23.5 159.5q0 143 101.5 227.5t263.5 84.5q176 0 270 -84t94 -240q0 -141 -68.5 -226t-236.5 -171l274 -275q37 115 60 271l168 -4q-33 -211 -95 -377l246 -236l-106 -119l-228 213q-94 -115 -201.5 -164t-267.5 -49 q-240 0 -359.5 116t-119.5 333zM268 428q0 -139 78 -215t232 -76q205 0 333 162l-401 410q-242 -76 -242 -281zM471 1106q0 -137 90 -227l53 -54q133 61 185.5 118.5t52.5 156.5q0 180 -190 180q-90 0 -140.5 -47t-50.5 -127z" />
<glyph unicode="'" horiz-adv-x="204" d="M10 1423h170l-6 -471h-160z" />
<glyph unicode="(" horiz-adv-x="532" d="M61 616.5q0 182.5 49.5 411.5t98.5 369l51 139h186q-23 -59 -54.5 -158.5t-85.5 -344.5t-54 -417q0 -342 178 -829l16 -43h-186q-23 51 -55.5 139t-88 319.5t-55.5 414z" />
<glyph unicode=")" horiz-adv-x="532" d="M53 -246q23 59 54.5 158.5t86 344.5t54.5 417q0 342 -178 829l-17 43h187q23 -51 55.5 -139t87.5 -319.5t55 -413.5t-49 -411.5t-98 -368.5l-51 -140h-187z" />
<glyph unicode="*" d="M213 924l223 163l-219 160l78 107l215 -156l88 254l127 -43l-86 -254h266v-133h-268l84 -256l-125 -39l-86 258l-219 -164z" />
<glyph unicode="+" d="M92 504v172h363v366h180v-366h362v-172h-362v-367h-180v367h-363z" />
<glyph unicode="," horiz-adv-x="348" d="M41 -252l96 481h189l-115 -481h-170z" />
<glyph unicode="-" horiz-adv-x="901" d="M143 471v164h615v-164h-615z" />
<glyph unicode="." horiz-adv-x="507" d="M145 0v252h189v-252h-189z" />
<glyph unicode="/" d="M168 33l573 1423l166 -59l-573 -1424z" />
<glyph unicode="0" d="M51 657q0 397 125 557t365 160q119 0 204.5 -34.5t152.5 -114.5t100.5 -222.5t33.5 -347.5q0 -375 -126 -526.5t-363 -151.5q-115 0 -201 33t-153.5 108t-102.5 209.5t-35 329.5zM242 655q0 -291 73.5 -401.5t227.5 -110.5q156 0 227.5 111t71.5 403q0 311 -71 431 t-228.5 120t-229 -121t-71.5 -432z" />
<glyph unicode="1" d="M129 1065l422 287h168v-1352h-178v1149l-330 -225z" />
<glyph unicode="2" d="M104 0v160l385 387q141 143 204 237.5t63 202.5q0 217 -275 217q-63 0 -151 -10t-146 -23l-57 -10l-12 160q223 53 403 53q422 0 422 -366q0 -150 -62.5 -259.5t-205.5 -252.5l-334 -328h635v-168h-869z" />
<glyph unicode="3" d="M109 25l18 155l70 -10q43 -6 149.5 -15.5t181.5 -9.5q270 0 271 238q0 225 -256 231h-264v158h264q82 0 153.5 65.5t71.5 159.5q0 111 -63.5 160t-192.5 49l-369 -37l-18 154q221 51 395 51q227 0 329.5 -87t102.5 -269q0 -37 -7 -70t-15 -57.5t-26 -47.5l-28 -38 q-11 -14 -33 -31.5t-31 -23.5l-30 -21l-22 -12q115 -43 169 -111.5t54 -216.5q0 -412 -434 -412q-90 0 -199.5 11.5t-175.5 23.5z" />
<glyph unicode="4" d="M59 244v143l394 965h192l-381 -942h418v421h178v-421h158v-166h-158v-254h-178v254h-623z" />
<glyph unicode="5" d="M102 39l21 156q246 -49 420 -50q121 0 194.5 75t73.5 216q0 252 -262 252q-66 0 -136.5 -18.5t-109.5 -34.5l-37 -19l-143 27l43 709h776v-168h-614l-35 -404q156 70 272 70q430 0 430 -406q0 -229 -120.5 -346.5t-325.5 -117.5q-199 0 -447 59z" />
<glyph unicode="6" d="M72 680q0 694 526 694q68 0 160 -10t151 -21l58 -10l-17 -157q-193 33 -352 32q-340 0 -342 -442q182 80 317 80q449 0 449 -416q0 -217 -125 -335t-344 -118q-238 0 -359.5 181.5t-121.5 521.5zM254 621q4 -215 76.5 -347.5t222.5 -132.5q133 0 209 75t76 214 q0 129 -74 193.5t-203 64.5q-63 0 -140 -16.5t-122 -32.5z" />
<glyph unicode="7" d="M115 1184v168h821v-238l-508 -1143l-166 52l490 1099v62h-637z" />
<glyph unicode="8" d="M49 354q0 135 58.5 213t166.5 138q-106 57 -154 127.5t-48 189.5q0 170 129 261t348 91t351 -91t132 -263q0 -125 -48 -191.5t-167 -123.5q115 -49 175.5 -125t60.5 -203q0 -209 -138.5 -305.5t-365.5 -96.5q-225 0 -362.5 90t-137.5 289zM242 377q0 -238 307 -238 q313 0 313 248q0 98 -55 149.5t-162 81.5h-201q-102 -29 -152 -85t-50 -156zM262 997q0 -84 44 -136t138 -89h201q100 35 148.5 88t48.5 137q0 215 -291 215q-289 0 -289 -215z" />
<glyph unicode="9" d="M72 930q0 209 129 326.5t334 117.5q240 0 362.5 -178t122.5 -522q0 -375 -137.5 -536t-390.5 -161q-68 0 -160 11.5t-152 23.5l-59 11l18 153q193 -35 353 -35q344 0 346 434l-54 -16q-53 -16 -135 -34.5t-139 -18.5q-205 0 -321.5 107.5t-116.5 316.5zM256 930 q0 -264 268 -264q129 0 316 59q-2 229 -77 357t-226 128q-127 0 -204 -74.5t-77 -205.5z" />
<glyph unicode=":" horiz-adv-x="378" d="M115 0v252h188v-252h-188zM115 647v252h188v-252h-188z" />
<glyph unicode=";" horiz-adv-x="419" d="M41 -242l106 492h191l-137 -492h-160zM133 647v252h189v-252h-189z" />
<glyph unicode="&#x3c;" d="M178 512v180l690 412v-184l-522 -314l522 -327v-185z" />
<glyph unicode="=" d="M117 285v170h850v-170h-850zM117 674v170h850v-170h-850z" />
<glyph unicode="&#x3e;" d="M209 94v185l522 327l-522 314v184l690 -412v-180z" />
<glyph unicode="?" horiz-adv-x="790" d="M27 1393q223 63 344 63q215 0 314 -83t99 -281q0 -78 -36.5 -153t-89.5 -132l-103 -111q-51 -53 -88 -107t-37 -102v-77h-174q-8 84 -8 104q0 61 35.5 126t87.5 119l103 105q52 51 88 105.5t36 103.5q0 113 -53 159t-191 46q-45 0 -121.5 -10.5t-130.5 -22.5l-55 -10z M246 0v242h188v-242h-188z" />
<glyph unicode="@" horiz-adv-x="2017" d="M102 535q0 948 930 948q457 0 670 -212t213 -646v-35q0 -190 -23.5 -314t-75 -187.5t-113 -86t-153.5 -22.5q-98 0 -153.5 21.5t-89.5 86.5q-203 -106 -351 -106q-61 0 -110 11t-98.5 44t-82 88t-53 149.5t-20.5 221.5q0 274 90 410t322 136l229 -51v33h174v-410 q0 -225 13.5 -322t39 -123t90.5 -26q68 0 104 25t60.5 125t24.5 297v37q0 369 -164 528.5t-543 159.5q-385 0 -569 -186.5t-184 -593.5q0 -434 174 -610.5t579 -176.5l293 21l8 -168q-203 -18 -301 -19q-238 0 -403.5 45t-287.5 152.5t-180.5 294.5t-58.5 461zM768 494 q0 -201 54.5 -272.5t146.5 -71.5q117 0 282 75q-18 117 -18 328v289q-119 37 -199 37q-158 0 -212 -86t-54 -299z" />
<glyph unicode="A" horiz-adv-x="1236" d="M66 0l376 1423h357l372 -1423h-178l-100 342h-553l-96 -342h-178zM379 506h477l-197 760h-79z" />
<glyph unicode="B" horiz-adv-x="1261" d="M186 0v1423h498q197 0 310.5 -90t113.5 -264q0 -252 -176 -338q217 -78 217 -332q0 -205 -119 -302t-323 -97h-521zM362 160h338q121 0 193 62.5t72 189.5q0 88 -50.5 143t-106.5 71.5t-116 16.5h-330v-483zM362 797h326q115 0 176.5 66.5t61.5 180.5q0 104 -65.5 161 t-184.5 57h-314v-465z" />
<glyph unicode="C" horiz-adv-x="1091" d="M111 709q0 381 110.5 558t399.5 177q78 0 173 -11.5t152 -21.5l58 -10l-7 -160q-227 33 -356 33q-207 0 -276.5 -131t-69.5 -434q0 -301 69.5 -431.5t280.5 -130.5q51 0 139 8.5t150 16.5l63 8l7 -162q-231 -41 -383 -41q-154 0 -255.5 47.5t-156.5 146.5t-76.5 226.5 t-21.5 311.5z" />
<glyph unicode="D" horiz-adv-x="1308" d="M186 0v1423h484q152 0 257 -49t163.5 -144t84 -215t25.5 -280q0 -129 -14.5 -234.5t-51 -200.5t-96 -159.5t-152.5 -102.5t-216 -38h-484zM362 164h308q346 0 346 571q0 117 -15.5 205t-52.5 163t-106.5 114.5t-171.5 39.5h-308v-1093z" />
<glyph unicode="E" horiz-adv-x="1150" d="M186 0v1423h848v-166h-672v-460h549v-162h-549v-471h672v-164h-848z" />
<glyph unicode="F" horiz-adv-x="1126" d="M186 0v1423h848v-166h-672v-536h549v-162h-549v-559h-176z" />
<glyph unicode="G" horiz-adv-x="1241" d="M113 711q0 371 119.5 552t416.5 181q205 0 459 -49l-8 -158q-252 39 -428 39q-217 0 -296 -133t-79 -432t77 -432.5t294 -133.5q29 0 66.5 2.5t70.5 6.5t61.5 8t46 6t19.5 2v414h-213v155h389v-716q-291 -45 -453 -46q-301 0 -421.5 184.5t-120.5 549.5z" />
<glyph unicode="H" horiz-adv-x="1390" d="M186 0v1423h176v-622h666v622h176v-1423h-176v637h-666v-637h-176z" />
<glyph unicode="I" horiz-adv-x="516" d="M168 0v1423h178v-1423h-178z" />
<glyph unicode="J" horiz-adv-x="632" d="M76 12q125 2 167 45t42 181v1185h174l2 -1198q0 -225 -79 -297.5t-306 -72.5v157z" />
<glyph unicode="K" horiz-adv-x="1216" d="M186 0v1423h176v-653l205 10l340 643h207l-389 -712l410 -711h-211l-353 618l-209 -10v-608h-176z" />
<glyph unicode="L" horiz-adv-x="1038" d="M186 0v1423h176v-1257h584v-166h-760z" />
<glyph unicode="M" horiz-adv-x="1738" d="M186 0v1423h306l378 -1179l381 1179h301v-1423h-176v1221h-30l-381 -1170h-193l-379 1170h-31v-1221h-176z" />
<glyph unicode="N" horiz-adv-x="1421" d="M186 0v1423h320l510 -1241h39v1241h178v-1423h-311l-519 1241h-38v-1241h-179z" />
<glyph unicode="O" horiz-adv-x="1331" d="M113 702.5q0 374.5 128 558t425 183.5t425 -183.5t128 -558.5q0 -379 -126 -552t-427 -173q-299 0 -426 175.5t-127 550zM297 702q0 -299 81 -429t287.5 -130t287.5 128t81 431q0 299 -84 438.5t-284 139.5q-203 0 -286 -138.5t-83 -439.5z" />
<glyph unicode="P" horiz-adv-x="1234" d="M186 0v1423h498q225 0 342 -118.5t117 -343.5q0 -231 -119 -363.5t-340 -132.5h-319v-465h-179zM365 629h317q139 0 209 90t70 242q0 299 -279 299h-317v-631z" />
<glyph unicode="Q" horiz-adv-x="1331" d="M113 702.5q0 368.5 123.5 555t429 186.5t429.5 -185.5t124 -556.5q0 -252 -51.5 -411.5t-174.5 -235.5l156 -278l-160 -78l-166 295q-76 -16 -157 -17q-309 0 -431 178.5t-122 547zM297 702q0 -293 78 -426t291 -133q215 0 291.5 130t76.5 429q0 295 -78.5 436.5 t-289.5 141.5q-213 0 -291 -140.5t-78 -437.5z" />
<glyph unicode="R" horiz-adv-x="1271" d="M186 0v1423h506q459 0 459 -440q0 -326 -250 -412l260 -571h-196l-240 530l-47 -2h-316v-528h-176zM362 690h332q139 0 206 80t67 211q0 133 -72 204.5t-203 71.5h-330v-567z" />
<glyph unicode="S" horiz-adv-x="1091" d="M111 1061q0 190 116.5 287.5t335.5 97.5l414 -41l-8 -156q-279 33 -398 33q-283 0 -282 -217q0 -117 68.5 -168t256.5 -102q223 -59 310.5 -137t87.5 -248q0 -223 -110.5 -326.5t-344.5 -103.5l-430 40l10 156q270 -31 406 -31q291 0 291 258q0 98 -67 147.5t-241 94.5 q-231 63 -323 148.5t-92 267.5z" />
<glyph unicode="T" horiz-adv-x="1003" d="M16 1251v172h969v-172h-393v-1251h-176v1251h-400z" />
<glyph unicode="U" horiz-adv-x="1318" d="M164 436v987h178v-987q0 -150 78 -218t233 -68q162 0 243 68.5t81 217.5v987h176v-987q0 -236 -122 -345t-378 -109q-248 0 -368.5 109t-120.5 345z" />
<glyph unicode="V" horiz-adv-x="1220" d="M66 1423h186l311 -1261h96l310 1261h184l-356 -1423h-371z" />
<glyph unicode="W" horiz-adv-x="1855" d="M80 1423h184l248 -1261h55l260 1241h201l266 -1241h54l243 1261h185l-291 -1423h-318l-239 1167l-234 -1167h-319z" />
<glyph unicode="X" horiz-adv-x="1189" d="M66 0l417 705l-417 718h200l330 -589l326 589h200l-409 -718l409 -705h-200l-326 578l-330 -578h-200z" />
<glyph unicode="Y" horiz-adv-x="1136" d="M45 1423h199l325 -624l322 624h201l-433 -813v-610h-176v610z" />
<glyph unicode="Z" horiz-adv-x="1167" d="M133 -2v203l686 1016v38h-686v168h901v-204l-688 -1016v-37h688v-168h-901z" />
<glyph unicode="[" horiz-adv-x="614" d="M78 -252v1786h446v-168h-268v-1450h268v-168h-446z" />
<glyph unicode="\" horiz-adv-x="1083" d="M133 1421l178 15l623 -1422l-178 -14z" />
<glyph unicode="]" horiz-adv-x="614" d="M74 -84h268v1450h-268v168h446v-1786h-446v168z" />
<glyph unicode="^" d="M86 662l360 690h181l370 -690h-186l-272 518l-269 -518h-184z" />
<glyph unicode="_" d="M55 -174h975v-160h-975v160z" />
<glyph unicode="`" horiz-adv-x="1116" d="M244 1380l61 162l461 -192l-57 -144z" />
<glyph unicode="a" horiz-adv-x="1071" d="M113 295q0 281 319 307l285 27v82q0 174 -160 174l-387 -27l-6 146q244 41 401 40q162 0 243 -80.5t81 -254.5v-484q12 -49 38.5 -69.5t78.5 -28.5l-11 -147q-166 0 -250 77q-160 -80 -335 -80q-131 0 -214 88.5t-83 229.5zM289 299q0 -76 39 -125t102.5 -49t135 14.5 t110.5 28.5l41 14v314l-266 -21q-162 -12 -162 -176z" />
<glyph unicode="b" horiz-adv-x="1110" d="M186 0v1464h174v-481q135 61 271 61q377 0 377 -516q0 -281 -111 -416t-373 -135zM360 139q111 -8 162 -8q94 0 156.5 29.5t94.5 87t44 122t12 156.5q0 362 -217 363q-135 0 -252 -49v-701z" />
<glyph unicode="c" horiz-adv-x="892" d="M113 528q0 264 100 390t319 126q53 0 121 -7t109 -13l43 -8l-6 -148q-147 16 -226 17q-158 0 -221 -83t-63 -274q0 -209 60.5 -300t223.5 -91l228 15l6 -148q-160 -27 -277 -27q-229 0 -323 130t-94 421z" />
<glyph unicode="d" horiz-adv-x="1110" d="M113 510q0 535 422 534q51 0 225 -26v446h172v-1464h-172v57q-145 -78 -281 -77q-366 0 -366 530zM287 506q0 -371 217 -371q51 0 114.5 16.5t102.5 32.5l39 17v669q-133 20 -215 21q-258 0 -258 -385z" />
<glyph unicode="e" horiz-adv-x="1038" d="M106 504q0 266 111 403t313 137q408 0 408 -475l-10 -129h-645q0 -309 249 -309q66 0 157 4t151 8l57 7l4 -134q-203 -39 -381 -39q-221 0 -317.5 134.5t-96.5 392.5zM281 575h483q0 166 -56.5 244t-177.5 78q-247 0 -249 -322z" />
<glyph unicode="f" horiz-adv-x="686" d="M57 870v152h121v86q0 203 66.5 289t214.5 86l194 -17l-2 -143q-94 6 -155 6q-80 0 -112 -51t-32 -172v-84h285v-152h-285v-870h-174v870h-121z" />
<glyph unicode="g" horiz-adv-x="1067" d="M100 -176q0 78 40 136t120 120q-59 41 -59 141l71 166q-158 94 -157 305q0 168 107.5 260t273.5 92q41 0 88 -6t73 -14l27 -6l313 6v-143h-180q63 -76 64 -189q0 -348 -392 -348q-47 0 -88 8q-35 -86 -34 -112q0 -57 35.5 -72.5t191.5 -15.5q217 0 309 -62.5t92 -230.5 q0 -174 -123.5 -262.5t-330.5 -88.5q-217 0 -329 74t-112 242zM272 -160q0 -178 271 -178q276 0 276 188q0 92 -53 122t-186 30l-203 10q-55 -47 -80 -84t-25 -88zM289 692q0 -207 200 -207q219 0 219.5 207t-214.5 207q-100 0 -152.5 -54.5t-52.5 -152.5z" />
<glyph unicode="h" horiz-adv-x="1155" d="M176 0v1464h174v-485q164 66 289 65q197 0 270.5 -120.5t73.5 -388.5v-535h-174v532q0 188 -39 271.5t-160 83.5q-51 0 -115.5 -13.5t-105.5 -27.5l-39 -15v-831h-174z" />
<glyph unicode="i" horiz-adv-x="493" d="M160 0v1022h174v-1022h-174zM160 1229v194h174v-194h-174z" />
<glyph unicode="j" horiz-adv-x="516" d="M-55 -332q152 86 194.5 147.5t42.5 196.5v1010h172v-1012q0 -195 -63.5 -288t-270.5 -199zM182 1229v194h172v-194h-172z" />
<glyph unicode="k" horiz-adv-x="1024" d="M186 0v1464h174v-850l132 9l284 399h195l-324 -473l332 -549h-197l-286 457l-136 -11v-446h-174z" />
<glyph unicode="l" horiz-adv-x="503" d="M166 0v1464h172v-1464h-172z" />
<glyph unicode="m" horiz-adv-x="1763" d="M197 0v1022h172v-66q156 88 274 88q164 0 256 -96q221 96 358 96q195 0 270 -118.5t75 -393.5v-532h-175v526q0 199 -37.5 280t-160.5 81q-53 0 -120 -18.5t-105 -37.5l-41 -18q29 -78 28 -283v-530h-172v526q0 193 -44 277t-161 84q-51 0 -111.5 -17.5t-96.5 -35.5 l-35 -19v-815h-174z" />
<glyph unicode="n" horiz-adv-x="1161" d="M186 0v1022h174v-64q154 86 291 86q197 0 269.5 -120.5t72.5 -391.5v-532h-172v530q0 190 -39 273.5t-159 83.5q-55 0 -121 -17.5t-105 -33.5l-37 -19v-817h-174z" />
<glyph unicode="o" horiz-adv-x="1081" d="M106 522q0 260 99.5 391t337.5 131q227 0 328.5 -135t101.5 -389q0 -266 -96.5 -404.5t-333.5 -138.5q-244 0 -340.5 135.5t-96.5 409.5zM285 522q0 -205 52 -299t206 -94q150 0 202 97.5t52 293.5q0 186 -58.5 279.5t-195.5 93.5q-143 0 -200.5 -89t-57.5 -282z" />
<glyph unicode="p" horiz-adv-x="1112" d="M186 -451v1473h174v-64q133 86 277 86q373 0 373 -522q0 -289 -106.5 -417t-338.5 -128q-92 0 -205 21v-449h-174zM360 150q102 -18 195 -19q152 0 214 95.5t62 299.5q0 172 -56 267.5t-165 95.5q-123 0 -250 -76v-663z" />
<glyph unicode="q" horiz-adv-x="1107" d="M113 498q0 274 106.5 410t349.5 136l361 -22v-1475h-172v482q-123 -51 -248 -52q-215 0 -306 131.5t-91 389.5zM287 500q0 -367 233 -367q55 0 114.5 12.5t90.5 24.5l33 12v699q-125 10 -187 10q-156 0 -220 -96t-64 -295z" />
<glyph unicode="r" horiz-adv-x="731" d="M172 0v1022h172v-127q147 113 330 149v-182q-82 -16 -165 -48t-124 -56l-41 -23v-735h-172z" />
<glyph unicode="s" horiz-adv-x="1003" d="M119 739q0 158 105.5 231.5t258.5 73.5q68 0 159 -10t149 -20l57 -10l-4 -144q-231 31 -350 31q-199 0 -199 -146q0 -61 47 -91.5t184 -53.5q201 -33 278 -94.5t77 -204.5q0 -324 -392 -324q-59 0 -148 10.5t-148 20.5l-62 10l8 146q231 -33 336 -33q121 0 176.5 37 t55.5 127q0 70 -44.5 97.5t-187.5 51.5q-190 35 -273 95.5t-83 199.5z" />
<glyph unicode="t" horiz-adv-x="739" d="M55 868v154h138v311h172v-311h297v-154h-297v-469q0 -150 28.5 -208t108.5 -58l164 10l8 -143q-121 -23 -193 -23q-156 0 -222 86.5t-66 290.5v514h-138z" />
<glyph unicode="u" horiz-adv-x="1144" d="M172 489v533h172v-530q0 -201 40 -281t159 -80q51 0 113.5 18.5t101.5 34.5l37 19v819h172v-1022h-172v61q-156 -84 -281 -84q-197 0 -269.5 115.5t-72.5 396.5z" />
<glyph unicode="v" horiz-adv-x="987" d="M53 1022h180l230 -879h61l232 879h178l-281 -1022h-323z" />
<glyph unicode="w" horiz-adv-x="1546" d="M55 1022h172l189 -866h49l217 848h182l217 -848h47l191 866h172l-231 -1022h-299l-189 772l-190 -772h-297z" />
<glyph unicode="x" horiz-adv-x="944" d="M57 1022h189l225 -387l227 387h189l-309 -512l307 -510h-189l-225 385l-223 -385h-189l308 510z" />
<glyph unicode="y" horiz-adv-x="987" d="M53 1022h172l238 -856h59l240 856h172l-410 -1473h-172l127 451h-147z" />
<glyph unicode="z" horiz-adv-x="980" d="M121 154l536 714h-536v156h737l2 -156l-536 -714h536v-154h-737z" />
<glyph unicode="{" horiz-adv-x="638" d="M25 563v148q115 29 158.5 78t43.5 137q0 27 -7 124t-7 138q0 188 93 270t308 90l2 -168q-129 -8 -174 -53t-45 -149q0 -35 7.5 -130.5t7.5 -123.5q0 -127 -45 -187.5t-160 -97.5q113 -37 159 -101.5t46 -189.5q0 -35 -7.5 -118t-7.5 -119q0 -104 45 -151.5t174 -55.5 l-2 -168q-213 8 -307 91t-94 265q0 43 7 135t7 115q0 88 -44.5 139t-157.5 82z" />
<glyph unicode="|" d="M442 -512v2048h179v-2048h-179z" />
<glyph unicode="}" horiz-adv-x="638" d="M10 -104q129 8 174 53t45 149q0 35 -7 130.5t-7 123.5q0 127 45 187.5t160 97.5q-113 37 -159 101.5t-46 189.5q0 35 7 117.5t7 119.5q0 104 -45 151.5t-174 55.5l2 168q213 -8 307.5 -91t94.5 -265q0 -43 -7.5 -135.5t-7.5 -114.5q0 -88 45 -139.5t158 -81.5v-148 q-115 -29 -159 -78t-44 -137q0 -27 7.5 -124t7.5 -138q0 -188 -93.5 -270t-308.5 -90z" />
<glyph unicode="~" d="M129 672q12 12 34.5 30.5t84 49t114.5 30.5q61 0 196.5 -50t180.5 -50q78 0 201 94l16 -166q-12 -12 -32.5 -30.5t-79 -48t-109.5 -29.5q-61 0 -200.5 50t-180.5 50q-86 0 -209 -94z" />
<glyph unicode="&#xa1;" horiz-adv-x="811" d="M319 -410l7 949h176l6 -949h-189zM319 770v252h189v-252h-189z" />
<glyph unicode="&#xa2;" horiz-adv-x="894" d="M72 508q0 424 364 444v238h152v-244l196 -20l-6 -154q-182 14 -260 14q-150 0 -208 -61t-58 -217q0 -158 58.5 -214t217.5 -56l252 12l6 -154q-113 -14 -198 -20v-240h-150v236q-190 10 -278 107.5t-88 328.5z" />
<glyph unicode="&#xa3;" d="M111 0v162h200v553h-164v157h164v101q0 236 73 328t228 92q43 0 122 -9.5t136 -19.5l58 -8l-8 -150q-211 18 -271 19q-96 0 -132 -51.5t-36 -202.5v-99h426v-157h-426v-553h305l156 33l29 -158l-166 -35q-104 0 -346 -1t-348 -1z" />
<glyph unicode="&#xa4;" horiz-adv-x="1083" d="M78 172l145 145q-57 90 -57 198t57 198l-145 145l121 121l145 -145q90 57 197.5 57t197.5 -57l146 145l121 -121l-146 -145q57 -90 57.5 -197.5t-57.5 -198.5l146 -145l-121 -121l-146 146q-90 -57 -197.5 -57.5t-197.5 57.5l-145 -146zM330 515q0 -89 61.5 -150.5 t150.5 -61.5t152 62q61 61 61.5 150t-61.5 153q-63 61 -152 61t-151 -61q-61 -64 -61 -153z" />
<glyph unicode="&#xa5;" horiz-adv-x="1105" d="M20 1352h199l336 -564l332 564h198l-346 -576h269v-149h-346l-17 -29v-131h363v-150h-363v-317h-178v317h-369v150h369v131l-16 29h-355v149h275z" />
<glyph unicode="&#xa6;" d="M444 356h179v-868h-179v868zM444 692v844h179v-844h-179z" />
<glyph unicode="&#xa7;" d="M133 508q0 78 43 154.5t78 105.5q-90 66 -90 227q0 334 401 334l340 -39l-8 -143q-225 31 -324 31q-129 0 -185 -42t-56 -139q0 -88 61.5 -122.5t229.5 -69.5q180 -37 252.5 -95.5t72.5 -201.5q0 -74 -29.5 -151.5t-60.5 -120.5q76 -66 76 -207q0 -178 -98.5 -264.5 t-300.5 -86.5q-59 0 -149.5 9.5t-152.5 17.5l-61 10l16 144q223 -29 336 -29q242 0 242 186q0 37 -12.5 63.5t-28.5 43t-61.5 31t-78 22.5t-112.5 25q-184 37 -262 100.5t-78 206.5zM307 535q0 -84 47 -121t166 -58q150 -33 205 -57q12 16 30.5 74.5t18.5 111.5 q0 84 -50 119t-175 60q-127 23 -180 43q-62 -92 -62 -172z" />
<glyph unicode="&#xa8;" horiz-adv-x="1406" d="M182 1274v199h168v-199h-168zM598 1274v199h168v-199h-168z" />
<glyph unicode="&#xa9;" d="M20 889q0 227 149.5 386t373 159t374 -159t150.5 -386t-150.5 -385t-374 -158t-373 158t-149.5 385zM86 889q0 -201 130 -339t326.5 -138t327.5 138t131 339t-131 340t-327.5 139t-326.5 -139t-130 -340zM319 887q0 156 47.5 235.5t176.5 79.5l151 -14l-2 -66 q-84 14 -149 15q-100 0 -129 -57.5t-29 -192.5q0 -127 33 -186.5t125 -59.5l149 16l2 -65q-88 -16 -151 -17q-127 0 -175.5 79t-48.5 233z" />
<glyph unicode="&#xaa;" d="M252 950q0 168 184 176l178 11v28q0 84 -79 84l-242 -12l-4 106q184 20 260 21q88 0 136 -52t48 -149v-243q6 -45 60 -54l-7 -104q-98 4 -139 43q-119 -43 -219 -43q-82 0 -129 49t-47 139zM375 948q0 -78 69 -78q31 0 73 6.5t69 12.5l28 6v145l-163 -8q-76 -2 -76 -84z " />
<glyph unicode="&#xab;" horiz-adv-x="1112" d="M113 438v135l399 299v-178l-250 -184l250 -209v-180zM590 438v135l399 299v-178l-250 -184l250 -209v-180z" />
<glyph unicode="&#xac;" d="M119 549v168h848v-492h-170v324h-678z" />
<glyph unicode="&#xad;" horiz-adv-x="901" d="M143 471v164h615v-164h-615z" />
<glyph unicode="&#xae;" d="M20 889q0 227 149.5 386t373 159t374 -159t150.5 -386t-150.5 -385t-374 -158t-373 158t-149.5 385zM86 889q0 -201 130 -339t326.5 -138t327.5 138t131 339t-131 340t-327.5 139t-326.5 -139t-130 -340zM334 565v645h186q131 0 183.5 -41t52.5 -143q0 -156 -121 -186 l133 -275h-72l-135 269h-162v-269h-65zM399 899h164q70 0 98.5 27.5t28.5 99.5q0 68 -39 93.5t-125 25.5h-127v-246z" />
<glyph unicode="&#xaf;" horiz-adv-x="954" d="M166 1294v152h608v-152h-608z" />
<glyph unicode="&#xb0;" d="M207 1155q0 131 81 212t212 81t212 -81t81 -212t-81 -211t-212 -80t-212 80t-81 211zM317 1155q0 -84 50.5 -134t132.5 -50t133 51t51 133t-51 133t-133 51t-132.5 -51t-50.5 -133z" />
<glyph unicode="&#xb1;" d="M88 80v172h909v-172h-909zM88 584v172h365v274h180v-274h364v-172h-364v-252h-180v252h-365z" />
<glyph unicode="&#xb2;" horiz-adv-x="542" d="M43 979v127l174 166q102 92 102 159.5t-96 67.5l-170 -18l-6 135q127 23 217 22q109 0 158 -46t49 -144q0 -68 -29.5 -118t-93.5 -107l-117 -113h248v-131h-436z" />
<glyph unicode="&#xb3;" horiz-adv-x="542" d="M49 977l10 129q117 -16 203 -16q94 0 94 75q0 78 -88 78h-135v121h133q27 0 49.5 22.5t22.5 57.5q0 61 -86 61l-184 -14l-11 127q125 20 211 20q223 0 224 -174q0 -104 -80 -151q49 -16 71.5 -49t22.5 -107q0 -199 -223 -199q-45 0 -103.5 4.5t-93.5 8.5z" />
<glyph unicode="&#xb4;" horiz-adv-x="1179" d="M244 1352l461 192l61 -162l-465 -174z" />
<glyph unicode="&#xb5;" d="M160 -461v1483h172v-547q0 -190 40 -267t163 -77q51 0 112.5 17.5t97.5 35.5l37 17v821h172v-1022h-172v61q-152 -84 -266 -84q-66 0 -111 21.5t-58 38t-15 26.5v-524h-172z" />
<glyph unicode="&#x3bc;" d="M160 -461v1483h172v-547q0 -190 40 -267t163 -77q51 0 112.5 17.5t97.5 35.5l37 17v821h172v-1022h-172v61q-152 -84 -266 -84q-66 0 -111 21.5t-58 38t-15 26.5v-524h-172z" />
<glyph unicode="&#xb6;" d="M16 1051q0 168 107.5 275.5t273.5 107.5h676v-140h-151v-1294h-154v1294h-205v-1294h-151v672h-15q-166 0 -273.5 105.5t-107.5 273.5z" />
<glyph unicode="&#xb7;" horiz-adv-x="507" d="M145 487v252h189v-252h-189z" />
<glyph unicode="&#xb8;" horiz-adv-x="1705" d="M778 -428l6 109q76 -4 129 -5q88 0 88 74q0 66 -88 66h-79v186h88v-98q125 -2 178 -36t53 -128q0 -90 -52 -136t-145 -46q-41 0 -85 4t-68 8z" />
<glyph unicode="&#xb9;" horiz-adv-x="542" d="M55 1473l211 145h135v-639h-145v479l-133 -90z" />
<glyph unicode="&#xba;" d="M260 1067q0 156 65.5 225.5t194.5 69.5q262 0 262 -295q0 -305 -262 -305q-260 0 -260 305zM385 1067q0 -104 30.5 -147t104.5 -43t105.5 43t31.5 147q0 98 -32.5 139t-104.5 41q-74 0 -104.5 -40t-30.5 -140z" />
<glyph unicode="&#xbb;" horiz-adv-x="1112" d="M123 131v180l250 209l-250 185v178l399 -299v-135zM600 131v180l250 209l-250 185v178l399 -299v-135z" />
<glyph unicode="&#xbf;" horiz-adv-x="790" d="M27 -70q0 78 36.5 153t88.5 132l103 111q52 53 89 107t37 102v77h174q8 -84 8 -104q0 -61 -35.5 -126t-87.5 -119l-103 -105q-52 -51 -88 -105.5t-36 -103.5q0 -113 53 -159t191 -46q45 0 121.5 11.5t130.5 21.5l55 10l20 -158q-223 -63 -344 -63q-215 0 -314 82.5 t-99 281.5zM377 780v242h188v-242h-188z" />
<glyph unicode="&#xc0;" horiz-adv-x="1236" d="M66 0l376 1423h357l372 -1423h-178l-100 342h-553l-96 -342h-178zM332 1759l61 162l461 -192l-57 -144zM379 506h477l-197 760h-79z" />
<glyph unicode="&#xc1;" horiz-adv-x="1236" d="M66 0l376 1423h357l372 -1423h-178l-100 342h-553l-96 -342h-178zM352 1741l461 192l61 -161l-464 -175zM379 506h477l-197 760h-79z" />
<glyph unicode="&#xc2;" horiz-adv-x="1236" d="M66 0l376 1423h357l372 -1423h-178l-100 342h-553l-96 -342h-178zM264 1626l271 281h157l271 -281h-199l-150 141l-147 -141h-203zM379 506h477l-197 760h-79z" />
<glyph unicode="&#xc3;" horiz-adv-x="1236" d="M66 0l376 1423h357l372 -1423h-178l-100 342h-553l-96 -342h-178zM256 1780q12 14 33.5 34.5t75 55.5t92.5 35q59 0 184 -54.5t150 -54.5q45 0 157 92l41 -133q-12 -14 -31.5 -33.5t-71.5 -53.5t-91 -34q-51 0 -178.5 55.5t-157.5 55.5q-23 0 -64 -24.5t-71 -49.5 l-29 -24zM379 506h477l-197 760h-79z" />
<glyph unicode="&#xc4;" horiz-adv-x="1236" d="M66 0l376 1423h357l372 -1423h-178l-100 342h-553l-96 -342h-178zM324 1671v199h168v-199h-168zM379 506h477l-197 760h-79zM752 1671v199h168v-199h-168z" />
<glyph unicode="&#xc5;" horiz-adv-x="1236" d="M66 0l360 1362q-59 63 -59 154q0 104 71.5 163.5t182 59.5t181 -59.5t70.5 -163.5q0 -92 -59 -152l358 -1364h-178l-100 342h-553l-96 -342h-178zM379 506h477l-197 760h-79zM506 1516q0 -76 74 -93h79q74 16 74 93q0 45 -29.5 71.5t-83 26.5t-84 -26.5t-30.5 -71.5z" />
<glyph unicode="&#xc6;" horiz-adv-x="1695" d="M41 0l377 1423h1161v-166h-672v-462h549v-158h-549v-471h672v-166h-848v342h-418l-94 -342h-178zM352 506h379v751h-178z" />
<glyph unicode="&#xc7;" horiz-adv-x="1099" d="M111 709q0 381 110.5 558t399.5 177q78 0 173 -11.5t152 -21.5l58 -10l-7 -160q-227 33 -356 33q-207 0 -276.5 -131t-69.5 -434q0 -301 69.5 -431.5t280.5 -130.5q51 0 139 8.5t150 16.5l63 8l7 -162q-203 -35 -353 -41v-73q125 -2 178.5 -36t53.5 -128 q0 -90 -52.5 -136t-144.5 -46q-41 0 -85 4t-69 8l-24 2l6 109q76 -4 129 -5q88 0 88 74q0 66 -88 66h-80v164q-262 18 -357 194.5t-95 534.5z" />
<glyph unicode="&#xc8;" horiz-adv-x="1150" d="M186 0v1423h848v-166h-672v-460h549v-162h-549v-471h672v-164h-848zM346 1759l62 162l460 -192l-57 -144z" />
<glyph unicode="&#xc9;" horiz-adv-x="1150" d="M186 0v1423h848v-166h-672v-460h549v-162h-549v-471h672v-164h-848zM383 1741l461 192l61 -161l-465 -175z" />
<glyph unicode="&#xca;" horiz-adv-x="1150" d="M186 0v1423h848v-166h-672v-460h549v-162h-549v-471h672v-164h-848zM268 1630l271 281h157l271 -281h-199l-150 142l-147 -142h-203z" />
<glyph unicode="&#xcb;" horiz-adv-x="1150" d="M186 0v1423h848v-166h-672v-460h549v-162h-549v-471h672v-164h-848zM336 1671v199h168v-199h-168zM764 1671v199h168v-199h-168z" />
<glyph unicode="&#xcc;" horiz-adv-x="516" d="M-45 1759l61 162l461 -192l-57 -144zM168 0v1423h178v-1423h-178z" />
<glyph unicode="&#xcd;" horiz-adv-x="516" d="M27 1741l460 192l62 -161l-465 -175zM168 0v1423h178v-1423h-178z" />
<glyph unicode="&#xce;" horiz-adv-x="516" d="M-94 1630l270 281h158l270 -281h-198l-150 142l-147 -142h-203zM168 0v1423h178v-1423h-178z" />
<glyph unicode="&#xcf;" horiz-adv-x="516" d="M-31 1683v199h168v-199h-168zM168 0v1423h178v-1423h-178zM397 1683v199h168v-199h-168z" />
<glyph unicode="&#xd0;" horiz-adv-x="1308" d="M43 625v170h143v628h484q152 0 257 -49t163.5 -144t84 -215t25.5 -280q0 -129 -14.5 -234.5t-51 -200.5t-96 -159.5t-152.5 -102.5t-216 -38h-484v625h-143zM362 164h308q346 0 346 571q0 117 -15.5 205t-52.5 163t-106.5 114.5t-171.5 39.5h-308v-462h306v-170h-306 v-461z" />
<glyph unicode="&#xd1;" horiz-adv-x="1421" d="M186 0v1423h320l510 -1241h39v1241h178v-1423h-311l-519 1241h-38v-1241h-179zM350 1778q12 14 34 34.5t75 55.5t92 35q59 0 184 -54.5t150 -54.5q45 0 157 92l41 -133q-12 -14 -31.5 -33.5t-71.5 -53.5t-91 -34q-51 0 -178 55.5t-158 55.5q-23 0 -63.5 -24.5 t-71.5 -49.5l-29 -24z" />
<glyph unicode="&#xd2;" horiz-adv-x="1331" d="M113 702.5q0 374.5 128 558t425 183.5t425 -183.5t128 -558.5q0 -379 -126 -552t-427 -173q-299 0 -426 175.5t-127 550zM297 702q0 -299 81 -429t287.5 -130t287.5 128t81 431q0 299 -84 438.5t-284 139.5q-203 0 -286 -138.5t-83 -439.5zM399 1759l62 162l461 -192 l-58 -144z" />
<glyph unicode="&#xd3;" horiz-adv-x="1331" d="M113 702.5q0 374.5 128 558t425 183.5t425 -183.5t128 -558.5q0 -379 -126 -552t-427 -173q-299 0 -426 175.5t-127 550zM297 702q0 -299 81 -429t287.5 -130t287.5 128t81 431q0 299 -84 438.5t-284 139.5q-203 0 -286 -138.5t-83 -439.5zM389 1741l461 192l61 -161 l-465 -175z" />
<glyph unicode="&#xd4;" horiz-adv-x="1331" d="M113 702.5q0 374.5 128 558t425 183.5t425 -183.5t128 -558.5q0 -379 -126 -552t-427 -173q-299 0 -426 175.5t-127 550zM297 702q0 -299 81 -429t287.5 -130t287.5 128t81 431q0 299 -84 438.5t-284 139.5q-203 0 -286 -138.5t-83 -439.5zM322 1632l270 281h158 l270 -281h-199l-149 142l-148 -142h-202z" />
<glyph unicode="&#xd5;" horiz-adv-x="1331" d="M113 702.5q0 374.5 128 558t425 183.5t425 -183.5t128 -558.5q0 -379 -126 -552t-427 -173q-299 0 -426 175.5t-127 550zM297 702q0 -299 81 -429t287.5 -130t287.5 128t81 431q0 299 -84 438.5t-284 139.5q-203 0 -286 -138.5t-83 -439.5zM305 1778q12 14 33.5 34.5 t75 55.5t92.5 35q59 0 184 -54.5t150 -54.5q45 0 157 92l41 -133q-12 -14 -31.5 -33.5t-71.5 -53.5t-91 -34q-51 0 -178 55.5t-158 55.5q-23 0 -64 -24.5t-71 -49.5l-29 -24z" />
<glyph unicode="&#xd6;" horiz-adv-x="1331" d="M113 702.5q0 374.5 128 558t425 183.5t425 -183.5t128 -558.5q0 -379 -126 -552t-427 -173q-299 0 -426 175.5t-127 550zM297 702q0 -299 81 -429t287.5 -130t287.5 128t81 431q0 299 -84 438.5t-284 139.5q-203 0 -286 -138.5t-83 -439.5zM377 1671v199h168v-199h-168z M805 1671v199h168v-199h-168z" />
<glyph unicode="&#xd7;" d="M133 272l293 293l-289 289l123 123l285 -287l295 291l123 -121l-293 -297l288 -284l-122 -125l-289 288l-293 -292z" />
<glyph unicode="&#xd8;" horiz-adv-x="1343" d="M113 702q0 375 128 558.5t425 183.5q150 0 256 -47l112 239l119 -47l-123 -262q188 -172 189 -625q0 -379 -126 -552t-427 -173q-137 0 -248 39l-119 -256l-115 56l123 264q-194 159 -194 622zM297 702q0 -324 92 -446l459 983q-76 41 -182 41q-203 0 -286 -138.5 t-83 -439.5zM492 174q70 -31 174 -31q207 0 287.5 128t80.5 431q0 307 -88 445z" />
<glyph unicode="&#xd9;" horiz-adv-x="1318" d="M164 436v987h178v-987q0 -150 78 -218t233 -68q162 0 243 68.5t81 217.5v987h176v-987q0 -236 -122 -345t-378 -109q-248 0 -368.5 109t-120.5 345zM385 1759l61 162l461 -192l-57 -144z" />
<glyph unicode="&#xda;" horiz-adv-x="1318" d="M164 436v987h178v-987q0 -150 78 -218t233 -68q162 0 243 68.5t81 217.5v987h176v-987q0 -236 -122 -345t-378 -109q-248 0 -368.5 109t-120.5 345zM385 1741l461 192l61 -161l-465 -175z" />
<glyph unicode="&#xdb;" horiz-adv-x="1318" d="M164 436v987h178v-987q0 -150 78 -218t233 -68q162 0 243 68.5t81 217.5v987h176v-987q0 -236 -122 -345t-378 -109q-248 0 -368.5 109t-120.5 345zM309 1626l271 281h157l271 -281h-199l-150 141l-147 -141h-203z" />
<glyph unicode="&#xdc;" horiz-adv-x="1318" d="M164 436v987h178v-987q0 -150 78 -218t233 -68q162 0 243 68.5t81 217.5v987h176v-987q0 -236 -122 -345t-378 -109q-248 0 -368.5 109t-120.5 345zM371 1683v199h168v-199h-168zM799 1683v199h168v-199h-168z" />
<glyph unicode="&#xdd;" horiz-adv-x="1136" d="M45 1423h199l325 -624l322 624h201l-433 -813v-610h-176v610zM338 1741l461 192l61 -161l-465 -175z" />
<glyph unicode="&#xde;" horiz-adv-x="1234" d="M186 0v1423h179v-225h319q459 0 459 -467q0 -233 -116 -362t-343 -129h-319v-240h-179zM365 412h317q141 0 210 86t69 233q0 297 -279 297h-317v-616z" />
<glyph unicode="&#xdf;" horiz-adv-x="1245" d="M172 0v1108q0 205 98.5 290t315.5 85q221 0 315 -68.5t94 -228.5q0 -106 -37.5 -158.5t-128.5 -97.5q-76 -37 -101.5 -61.5t-25.5 -61.5q0 -31 32 -58.5t151 -82.5q147 -72 200.5 -130.5t53.5 -173.5q0 -215 -92.5 -297.5t-313.5 -82.5l-252 24l8 146q199 -8 234 -9 q135 0 185 45t50 164q0 59 -42 97t-164 94q-137 57 -183.5 110.5t-46.5 147.5q0 84 36 127t126 88q76 37 103.5 70.5t27.5 89.5q0 84 -52 116.5t-177 32.5t-182.5 -49t-57.5 -184v-1092h-174z" />
<glyph unicode="&#xe0;" horiz-adv-x="1089" d="M113 295q0 281 319 307l285 27v82q0 174 -160 174l-387 -27l-6 146q244 41 401 40q162 0 243 -80.5t81 -254.5v-484q12 -49 38.5 -69.5t78.5 -28.5l-11 -147q-166 0 -250 77q-160 -80 -335 -80q-131 0 -214 88.5t-83 229.5zM256 1380l61 162l461 -192l-57 -144zM289 299 q0 -76 39 -125t102.5 -49t135 14.5t110.5 28.5l41 14v314l-266 -21q-162 -12 -162 -176z" />
<glyph unicode="&#xe1;" horiz-adv-x="1089" d="M113 295q0 281 319 307l285 27v82q0 174 -160 174l-387 -27l-6 146q244 41 401 40q162 0 243 -80.5t81 -254.5v-484q12 -49 38.5 -69.5t78.5 -28.5l-11 -147q-166 0 -250 77q-160 -80 -335 -80q-131 0 -214 88.5t-83 229.5zM289 299q0 -76 39 -125t102.5 -49t135 14.5 t110.5 28.5l41 14v314l-266 -21q-162 -12 -162 -176zM322 1352l460 192l62 -162l-465 -174z" />
<glyph unicode="&#xe2;" horiz-adv-x="1089" d="M113 295q0 281 319 307l285 27v82q0 174 -160 174l-387 -27l-6 146q244 41 401 40q162 0 243 -80.5t81 -254.5v-484q12 -49 38.5 -69.5t78.5 -28.5l-11 -147q-166 0 -250 77q-160 -80 -335 -80q-131 0 -214 88.5t-83 229.5zM182 1208l258 312h140l260 -312h-191l-137 164 l-139 -164h-191zM289 299q0 -76 39 -125t102.5 -49t135 14.5t110.5 28.5l41 14v314l-266 -21q-162 -12 -162 -176z" />
<glyph unicode="&#xe3;" horiz-adv-x="1089" d="M113 295q0 281 319 307l285 27v82q0 174 -160 174l-387 -27l-6 146q244 41 401 40q162 0 243 -80.5t81 -254.5v-484q12 -49 38.5 -69.5t78.5 -28.5l-11 -147q-166 0 -250 77q-160 -80 -335 -80q-131 0 -214 88.5t-83 229.5zM170 1389q104 115 192 114q57 0 167 -49 t135 -49q20 0 57 20.5t63 40.5l27 21l39 -135q-96 -109 -184 -109q-51 0 -162 50t-142 50q-23 0 -60.5 -21.5t-63.5 -43.5l-29 -21zM289 299q0 -76 39 -125t102.5 -49t135 14.5t110.5 28.5l41 14v314l-266 -21q-162 -12 -162 -176z" />
<glyph unicode="&#xe4;" horiz-adv-x="1089" d="M113 295q0 281 319 307l285 27v82q0 174 -160 174l-387 -27l-6 146q244 41 401 40q162 0 243 -80.5t81 -254.5v-484q12 -49 38.5 -69.5t78.5 -28.5l-11 -147q-166 0 -250 77q-160 -80 -335 -80q-131 0 -214 88.5t-83 229.5zM260 1274v199h168v-199h-168zM289 299 q0 -76 39 -125t102.5 -49t135 14.5t110.5 28.5l41 14v314l-266 -21q-162 -12 -162 -176zM676 1274v199h168v-199h-168z" />
<glyph unicode="&#xe5;" horiz-adv-x="1089" d="M113 295q0 281 319 307l285 27v82q0 174 -160 174l-387 -27l-6 146q244 41 401 40q162 0 243 -80.5t81 -254.5v-484q12 -49 38.5 -69.5t78.5 -28.5l-11 -147q-166 0 -250 77q-160 -80 -335 -80q-131 0 -214 88.5t-83 229.5zM289 299q0 -76 39 -125t102.5 -49t135 14.5 t110.5 28.5l41 14v314l-266 -21q-162 -12 -162 -176zM311 1360q0 90 62.5 153.5t154.5 63.5q90 0 153.5 -63.5t63.5 -153.5q0 -92 -62 -154.5t-154.5 -62.5t-155 61.5t-62.5 155.5zM434 1360q0 -41 27.5 -69.5t68.5 -28.5q39 0 66 28.5t27 69.5q0 39 -27 66.5t-66 27.5 q-41 0 -68.5 -27.5t-27.5 -66.5z" />
<glyph unicode="&#xe6;" horiz-adv-x="1695" d="M119 295q0 160 85 225.5t273 85.5l256 23v82q0 174 -160 174q-68 0 -165 -6.5t-162 -12.5l-64 -6l-6 152q244 33 402 32q207 0 276 -139q98 139 309 139q410 0 410 -475l-10 -129h-656q2 -154 60.5 -231.5t193.5 -77.5q66 0 158 4t151 8l62 7l4 -134q-207 -39 -387 -39 q-207 0 -309 109l-62 -27q-174 -82 -366 -82q-133 0 -213 84t-80 234zM295 299q0 -82 39 -128t100 -46q147 0 328 68q-31 100 -31 301l-276 -23q-160 -12 -160 -172zM907 575h492q0 168 -56.5 245t-183.5 77q-252 0 -252 -322z" />
<glyph unicode="&#xe7;" horiz-adv-x="892" d="M113 528q0 264 100 390t319 126q53 0 121 -7t109 -13l43 -8l-6 -148q-147 16 -226 17q-158 0 -221 -83t-63 -274q0 -209 60.5 -300t223.5 -91l228 15l6 -148q-145 -25 -260 -27v-73q125 -2 178 -36t53 -128q0 -90 -52 -136t-144 -46q-41 0 -85 4t-69 8l-25 2l7 109 q76 -4 129 -5q88 0 88 74q0 66 -88 66h-80v166q-188 18 -267 149t-79 397z" />
<glyph unicode="&#xe8;" horiz-adv-x="1038" d="M106 504q0 266 111 403t313 137q408 0 408 -475l-10 -129h-645q0 -309 249 -309q66 0 157 4t151 8l57 7l4 -134q-203 -39 -381 -39q-221 0 -317.5 134.5t-96.5 392.5zM229 1380l62 162l461 -192l-58 -144zM281 575h483q0 166 -56.5 244t-177.5 78q-247 0 -249 -322z" />
<glyph unicode="&#xe9;" horiz-adv-x="1038" d="M106 504q0 266 111 403t313 137q408 0 408 -475l-10 -129h-645q0 -309 249 -309q66 0 157 4t151 8l57 7l4 -134q-203 -39 -381 -39q-221 0 -317.5 134.5t-96.5 392.5zM272 1352l461 192l62 -162l-465 -174zM281 575h483q0 166 -56.5 244t-177.5 78q-247 0 -249 -322z" />
<glyph unicode="&#xea;" horiz-adv-x="1038" d="M106 504q0 266 111 403t313 137q408 0 408 -475l-10 -129h-645q0 -309 249 -309q66 0 157 4t151 8l57 7l4 -134q-203 -39 -381 -39q-221 0 -317.5 134.5t-96.5 392.5zM205 1208l258 312h139l260 -312h-190l-137 164l-140 -164h-190zM281 575h483q0 166 -56.5 244 t-177.5 78q-247 0 -249 -322z" />
<glyph unicode="&#xeb;" horiz-adv-x="1038" d="M106 504q0 266 111 403t313 137q408 0 408 -475l-10 -129h-645q0 -309 249 -309q66 0 157 4t151 8l57 7l4 -134q-203 -39 -381 -39q-221 0 -317.5 134.5t-96.5 392.5zM272 1274v199h168v-199h-168zM281 575h483q0 166 -56.5 244t-177.5 78q-247 0 -249 -322zM688 1274 v199h168v-199h-168z" />
<glyph unicode="&#xec;" horiz-adv-x="540" d="M-74 1380l62 162l461 -192l-58 -144zM184 0v1022h172v-1022h-172z" />
<glyph unicode="&#xed;" horiz-adv-x="534" d="M53 1352l461 192l61 -162l-464 -174zM184 0v1022h172v-1022h-172z" />
<glyph unicode="&#xee;" horiz-adv-x="540" d="M-63 1208l258 312h139l260 -312h-191l-137 164l-139 -164h-190zM184 0v1022h172v-1022h-172z" />
<glyph unicode="&#xef;" horiz-adv-x="540" d="M10 1274v199h168v-199h-168zM184 0v1022h172v-1022h-172zM426 1274v199h168v-199h-168z" />
<glyph unicode="&#xf0;" d="M76 459q0 193 117.5 308.5t314.5 115.5q66 0 146.5 -17.5t127.5 -34.5l49 -16q-16 262 -290 393l-224 -161l-75 106l155 115q-84 27 -215 57l31 148q195 -35 340 -93l203 148l75 -107l-143 -104q330 -193 330 -598q0 -393 -112.5 -565t-368.5 -172q-221 0 -341 123 t-120 354zM260 459q0 -150 69.5 -233t207.5 -83q158 0 226 117t71 399q-168 70 -316 70q-119 0 -188.5 -76.5t-69.5 -193.5z" />
<glyph unicode="&#xf1;" horiz-adv-x="1175" d="M197 0v1022h174v-64q154 86 291 86q197 0 269.5 -120.5t72.5 -391.5v-532h-173v530q0 190 -38.5 273.5t-159.5 83.5q-55 0 -121 -17.5t-102 -33.5l-39 -19v-817h-174zM260 1389q104 115 193 114q57 0 166.5 -49t134.5 -49q20 0 57 20.5t63 40.5l27 21l39 -135 q-96 -109 -184 -109q-51 0 -162 50t-141 50q-23 0 -61 -21.5t-64 -43.5l-29 -21z" />
<glyph unicode="&#xf2;" horiz-adv-x="1091" d="M106 522q0 260 99.5 391t337.5 131q227 0 328.5 -135t101.5 -389q0 -266 -96.5 -404.5t-333.5 -138.5q-244 0 -340.5 135.5t-96.5 409.5zM199 1380l61 162l461 -192l-57 -144zM285 522q0 -205 52 -299t206 -94q150 0 202 97.5t52 293.5q0 186 -58.5 279.5t-195.5 93.5 q-143 0 -200.5 -89t-57.5 -282z" />
<glyph unicode="&#xf3;" horiz-adv-x="1091" d="M106 522q0 260 99.5 391t337.5 131q227 0 328.5 -135t101.5 -389q0 -266 -96.5 -404.5t-333.5 -138.5q-244 0 -340.5 135.5t-96.5 409.5zM281 1352l460 192l62 -162l-465 -174zM285 522q0 -205 52 -299t206 -94q150 0 202 97.5t52 293.5q0 186 -58.5 279.5t-195.5 93.5 q-143 0 -200.5 -89t-57.5 -282z" />
<glyph unicode="&#xf4;" horiz-adv-x="1091" d="M106 522q0 260 99.5 391t337.5 131q227 0 328.5 -135t101.5 -389q0 -266 -96.5 -404.5t-333.5 -138.5q-244 0 -340.5 135.5t-96.5 409.5zM186 1208l258 312h140l260 -312h-191l-137 164l-139 -164h-191zM285 522q0 -205 52 -299t206 -94q150 0 202 97.5t52 293.5 q0 186 -58.5 279.5t-195.5 93.5q-143 0 -200.5 -89t-57.5 -282z" />
<glyph unicode="&#xf5;" horiz-adv-x="1091" d="M106 522q0 260 99.5 391t337.5 131q227 0 328.5 -135t101.5 -389q0 -266 -96.5 -404.5t-333.5 -138.5q-244 0 -340.5 135.5t-96.5 409.5zM166 1389q104 115 192 114q57 0 167 -49t134 -49q20 0 57.5 20.5t63.5 40.5l27 21l39 -135q-96 -109 -184 -109q-51 0 -162 50 t-142 50q-23 0 -60.5 -21.5t-64.5 -43.5l-28 -21zM285 522q0 -205 52 -299t206 -94q150 0 202 97.5t52 293.5q0 186 -58.5 279.5t-195.5 93.5q-143 0 -200.5 -89t-57.5 -282z" />
<glyph unicode="&#xf6;" horiz-adv-x="1091" d="M106 522q0 260 99.5 391t337.5 131q227 0 328.5 -135t101.5 -389q0 -266 -96.5 -404.5t-333.5 -138.5q-244 0 -340.5 135.5t-96.5 409.5zM260 1274v199h168v-199h-168zM285 522q0 -205 52 -299t206 -94q150 0 202 97.5t52 293.5q0 186 -58.5 279.5t-195.5 93.5 q-143 0 -200.5 -89t-57.5 -282zM676 1274v199h168v-199h-168z" />
<glyph unicode="&#xf7;" d="M109 504v174h862v-174h-862zM453 119v217h176v-217h-176zM453 846v217h176v-217h-176z" />
<glyph unicode="&#xf8;" horiz-adv-x="1081" d="M106 522q0 260 99.5 391t337.5 131q80 0 143 -18l-8 -18l-10 -27l-41 -100q-37 12 -84 12q-143 0 -200.5 -89t-57.5 -282q0 -240 69 -321l-45 -113l-18 -27l-8 -20q-177 110 -177 481zM188 -186l95 227q51 -35 106 -45l-88 -223zM354 201l273 680q59 -18 96 -64 l-277 -676q-57 15 -92 60zM389 -4l14 31l9 26l34 88q43 -12 97 -12q150 0 202 97.5t52 293.5q0 209 -74 297l51 123l14 27l7 14q178 -119 178 -461q0 -266 -96.5 -404.5t-333.5 -138.5q-86 1 -154 19zM686 1026l86 215l113 -43l-90 -217q-48 31 -109 45z" />
<glyph unicode="&#xf9;" horiz-adv-x="1144" d="M172 489v533h172v-530q0 -201 40 -281t159 -80q51 0 113.5 18.5t101.5 34.5l37 19v819h172v-1022h-172v61q-156 -84 -281 -84q-197 0 -269.5 115.5t-72.5 396.5zM225 1380l62 162l461 -192l-58 -144z" />
<glyph unicode="&#xfa;" horiz-adv-x="1144" d="M172 489v533h172v-530q0 -201 40 -281t159 -80q51 0 113.5 18.5t101.5 34.5l37 19v819h172v-1022h-172v61q-156 -84 -281 -84q-197 0 -269.5 115.5t-72.5 396.5zM307 1352l461 192l61 -162l-464 -174z" />
<glyph unicode="&#xfb;" horiz-adv-x="1144" d="M172 489v533h172v-530q0 -201 40 -281t159 -80q51 0 113.5 18.5t101.5 34.5l37 19v819h172v-1022h-172v61q-156 -84 -281 -84q-197 0 -269.5 115.5t-72.5 396.5zM213 1208l258 312h139l260 -312h-190l-137 164l-140 -164h-190z" />
<glyph unicode="&#xfc;" horiz-adv-x="1144" d="M172 489v533h172v-530q0 -201 40 -281t159 -80q51 0 113.5 18.5t101.5 34.5l37 19v819h172v-1022h-172v61q-156 -84 -281 -84q-197 0 -269.5 115.5t-72.5 396.5zM287 1274v199h168v-199h-168zM702 1274v199h168v-199h-168z" />
<glyph unicode="&#xfd;" horiz-adv-x="983" d="M39 1022h172l238 -856h59l240 856h172l-410 -1473h-172l127 451h-148zM268 1352l461 192l62 -162l-465 -174z" />
<glyph unicode="&#xfe;" horiz-adv-x="1120" d="M186 -451v1915h174v-493q131 74 269 73q381 0 381 -518q0 -291 -105.5 -420t-341.5 -129l-203 15v-443h-174zM360 147q98 -18 201 -18q147 0 208.5 97.5t61.5 301.5q0 170 -56 265.5t-165 95.5q-55 0 -117.5 -15.5t-97.5 -29.5l-35 -17v-680z" />
<glyph unicode="&#xff;" horiz-adv-x="987" d="M53 1022h172l238 -856h59l240 856h172l-410 -1473h-172l127 451h-147zM205 1274v199h168v-199h-168zM621 1274v199h167v-199h-167z" />
<glyph unicode="&#x152;" horiz-adv-x="1871" d="M96 707q0 377 126 557t411 180q137 0 280 -21h842v-166h-665v-462h542v-158h-542v-471h665v-168h-840q-184 -20 -282 -21q-293 0 -415 180.5t-122 549.5zM281 709q0 -301 78.5 -432.5t293.5 -131.5q70 0 260 15v1100q-246 18 -264 18q-205 0 -286.5 -134t-81.5 -435z" />
<glyph unicode="&#x153;" horiz-adv-x="1794" d="M131 522q0 264 100.5 393t339.5 129q254 0 351 -178q100 178 335 178q414 0 414 -475l-10 -129h-655q2 -154 60 -231.5t194 -77.5q66 0 157.5 4t151.5 8l61 7l4 -134q-207 -39 -387 -39q-236 0 -332 160q-92 -160 -344 -160q-250 0 -345 132t-95 413zM307 522 q0 -213 52.5 -303t211.5 -90q158 0 208 93t50 298q0 197 -59 285t-199 88q-150 0 -207 -86t-57 -285zM1006 575h491q0 172 -53 243t-180 71q-258 -1 -258 -314z" />
<glyph unicode="&#x178;" horiz-adv-x="1136" d="M45 1423h199l325 -624l322 624h201l-433 -813v-610h-176v610zM285 1669v199h168v-199h-168zM713 1669v199h168v-199h-168z" />
<glyph unicode="&#x2c6;" horiz-adv-x="1705" d="M510 1208l258 312h139l260 -312h-190l-137 164l-140 -164h-190z" />
<glyph unicode="&#x2dc;" horiz-adv-x="925" d="M123 1389q104 115 192 114q57 0 167 -49t134 -49q20 0 57.5 20.5t63.5 40.5l27 21l39 -135q-96 -109 -185 -109q-51 0 -161.5 50t-141.5 50q-23 0 -60.5 -21.5t-66.5 -43.5l-26 -21z" />
<glyph unicode="&#x2000;" horiz-adv-x="966" />
<glyph unicode="&#x2001;" horiz-adv-x="1933" />
<glyph unicode="&#x2002;" horiz-adv-x="966" />
<glyph unicode="&#x2003;" horiz-adv-x="1933" />
<glyph unicode="&#x2004;" horiz-adv-x="643" />
<glyph unicode="&#x2005;" horiz-adv-x="483" />
<glyph unicode="&#x2006;" horiz-adv-x="321" />
<glyph unicode="&#x2007;" horiz-adv-x="321" />
<glyph unicode="&#x2008;" horiz-adv-x="241" />
<glyph unicode="&#x2009;" horiz-adv-x="385" />
<glyph unicode="&#x200a;" horiz-adv-x="106" />
<glyph unicode="&#x2010;" horiz-adv-x="901" d="M143 471v164h615v-164h-615z" />
<glyph unicode="&#x2011;" horiz-adv-x="901" d="M143 471v164h615v-164h-615z" />
<glyph unicode="&#x2012;" horiz-adv-x="901" d="M143 471v164h615v-164h-615z" />
<glyph unicode="&#x2013;" horiz-adv-x="1024" d="M0 475v160h1024v-160h-1024z" />
<glyph unicode="&#x2014;" horiz-adv-x="2048" d="M0 475v160h2048v-160h-2048z" />
<glyph unicode="&#x2018;" horiz-adv-x="403" d="M57 1055l109 456h162l-92 -456h-179z" />
<glyph unicode="&#x2019;" horiz-adv-x="403" d="M74 1055l92 456h178l-108 -456h-162z" />
<glyph unicode="&#x201a;" horiz-adv-x="403" d="M74 -176l92 457h178l-108 -457h-162z" />
<glyph unicode="&#x201c;" horiz-adv-x="829" d="M100 913l109 457h162l-92 -457h-179zM453 913l108 457h162l-92 -457h-178z" />
<glyph unicode="&#x201d;" horiz-adv-x="782" d="M98 1053l92 456h179l-109 -456h-162zM451 1053l92 456h178l-109 -456h-161z" />
<glyph unicode="&#x201e;" horiz-adv-x="782" d="M98 -176l92 457h179l-109 -457h-162zM451 -176l92 457h178l-109 -457h-161z" />
<glyph unicode="&#x2022;" d="M291 215v584h502v-584h-502z" />
<glyph unicode="&#x2026;" horiz-adv-x="1523" d="M164 0v252h188v-252h-188zM686 0v252h188v-252h-188zM1206 0v252h189v-252h-189z" />
<glyph unicode="&#x202f;" horiz-adv-x="385" />
<glyph unicode="&#x2039;" horiz-adv-x="901" d="M113 438v135l399 299v-178l-250 -184l250 -209v-180z" />
<glyph unicode="&#x203a;" horiz-adv-x="901" d="M123 131v180l250 209l-250 185v178l399 -299v-135z" />
<glyph unicode="&#x205f;" horiz-adv-x="483" />
<glyph unicode="&#x20ac;" horiz-adv-x="1148" d="M74 444v142h119q-4 33 -5 88q0 51 5 92h-119v141h127q27 248 139.5 360.5t361.5 112.5l363 -39l-12 -151q-193 29 -330 29q-176 0 -249 -75t-87 -239h533v-139h-543q-4 -41 -4 -92q0 -55 4 -88h543v-142h-533q14 -158 89 -231.5t251 -73.5l330 27l6 -150 q-199 -39 -361 -39q-250 0 -363.5 112t-137.5 355h-127z" />
<glyph unicode="&#x2122;" d="M14 1208v64h410v-64h-170v-528h-68v528h-172zM496 678v594h102l172 -496l178 496h103v-594h-66v528l-180 -506h-72l-172 506v-528h-65z" />
<glyph unicode="&#xe000;" horiz-adv-x="1020" d="M0 1020h1020v-1020h-1020v1020z" />
<glyph unicode="&#xfb01;" horiz-adv-x="1179" d="M846 0v1022h174v-1022h-174zM846 1229v194h174v-194h-174zM57 870v152h121v86q0 203 66.5 289t214.5 86l194 -17l-2 -143q-94 6 -155 6q-80 0 -112 -51t-32 -172v-84h285v-152h-285v-870h-174v870h-121z" />
<glyph unicode="&#xfb02;" horiz-adv-x="1189" d="M852 0v1464h172v-1464h-172zM57 870v152h121v86q0 203 66.5 289t214.5 86l194 -17l-2 -143q-94 6 -155 6q-80 0 -112 -51t-32 -172v-84h285v-152h-285v-870h-174v870h-121z" />
<glyph unicode="&#xfb03;" horiz-adv-x="1865" d="M1532 0v1022h174v-1022h-174zM1532 1229v194h174v-194h-174zM743 870v152h121v86q0 203 66.5 289t214.5 86l194 -17l-2 -143q-94 6 -155 6q-80 0 -112 -51t-32 -172v-84h285v-152h-285v-870h-174v870h-121zM57 870v152h121v86q0 203 66.5 289t214.5 86l194 -17l-2 -143 q-94 6 -155 6q-80 0 -112 -51t-32 -172v-84h285v-152h-285v-870h-174v870h-121z" />
<glyph unicode="&#xfb04;" horiz-adv-x="1875" d="M1538 0v1464h172v-1464h-172zM743 870v152h121v86q0 203 66.5 289t214.5 86l194 -17l-2 -143q-94 6 -155 6q-80 0 -112 -51t-32 -172v-84h285v-152h-285v-870h-174v870h-121zM57 870v152h121v86q0 203 66.5 289t214.5 86l194 -17l-2 -143q-94 6 -155 6q-80 0 -112 -51 t-32 -172v-84h285v-152h-285v-870h-174v870h-121z" />
<glyph horiz-adv-x="481" />
</font>
</defs>
</svg>
