<?xml version="1.0" standalone="no"?>
<!DOCTYPE svg PUBLIC "-//W3C//DTD SVG 1.1//EN" "http://www.w3.org/Graphics/SVG/1.1/DTD/svg11.dtd" >
<svg xmlns="http://www.w3.org/2000/svg">
<metadata>
This is a custom SVG webfont generated by Font Squirrel.
Copyright   : Generated in 2009 by FontLab Studio Copyright info pending
</metadata>
<defs>
<font id="webfontQd688E69" horiz-adv-x="1085" >
<font-face units-per-em="2048" ascent="1536" descent="-512" />
<missing-glyph horiz-adv-x="481" />
<glyph unicode=" "  horiz-adv-x="481" />
<glyph unicode="&#x09;" horiz-adv-x="481" />
<glyph unicode="&#xa0;" horiz-adv-x="481" />
<glyph unicode="!" horiz-adv-x="673" d="M272 0v207h136v-207h-136zM274 1432h129l-2 -971h-125z" />
<glyph unicode="&#x22;" horiz-adv-x="612" d="M92 1427h123l-4 -481h-117zM410 1427h122l-4 -481h-114z" />
<glyph unicode="#" d="M20 377v106h234v402h-234v106h234v375h115v-375h342v375h114v-375h234v-106h-234v-402h234v-106h-234v-377h-114v377h-342v-377h-115v377h-234zM369 483h342v402h-342v-402z" />
<glyph unicode="$" d="M119 1024q0 190 114.5 270t335.5 80q33 0 49 -2l39 246h82l-39 -250q135 -8 271 -27l-6 -114q-154 16 -281 24l-76 -499q117 -25 182.5 -46.5t121 -61.5t77 -100.5t21.5 -154.5q0 -213 -109.5 -309t-327.5 -96q-12 0 -39.5 1t-41.5 1l-35 -232l-82 15l33 223 q-137 8 -275 26l10 117q145 -18 283 -29l82 541q-211 45 -300 119t-89 258zM250 1026q0 -123 59.5 -172t216.5 -84l76 487h-33q-160 0 -239.5 -51t-79.5 -180zM508 100h63q154 0 231 69t77 218q0 121 -60.5 165t-228.5 79z" />
<glyph unicode="%" d="M51 1159q0 279 221 279q219 0 220 -281q0 -143 -58.5 -215t-161.5 -72q-104 0 -162.5 72t-58.5 217zM156 1159q0 -199 116 -198q63 0 89 48t26 148q0 98 -25.5 144.5t-89 46.5t-90 -46.5t-26.5 -142.5zM336 12l346 1434l96 -25l-348 -1431zM629 289q0 279 219 278.5 t219 -280.5q0 -143 -58.5 -215t-161 -72t-160.5 72t-58 217zM731 289q0 -199 117 -199q63 0 89 48t26 149q0 98 -26 144t-89 46q-117 0 -117 -188z" />
<glyph unicode="&#x26;" horiz-adv-x="1433" d="M104 426q0 295 324 408q-106 121 -106 292q0 137 94 220.5t246 83.5q168 0 253.5 -82t85.5 -230q0 -143 -74.5 -227t-248.5 -156l330 -327q41 123 61 284l119 -2q-29 -221 -86 -364l266 -258l-78 -86l-248 239q-82 -129 -191.5 -185t-268.5 -56q-478 0 -478 446zM229 428 q0 -334 357 -334q246 0 364 207l-442 447q-279 -87 -279 -320zM444 1116q0 -150 93 -239l63 -64q156 61 216.5 123.5t60.5 175.5q0 207 -215 207q-102 0 -160 -55.5t-58 -147.5z" />
<glyph unicode="'" horiz-adv-x="204" d="M37 1427h123l-4 -450h-117z" />
<glyph unicode="(" horiz-adv-x="532" d="M88 616.5q0 182.5 50 411.5t100 369l49 139h129q-23 -59 -54.5 -158.5t-86 -344.5t-54.5 -417q0 -342 178 -829l17 -43h-129q-23 51 -55.5 139t-88 319.5t-55.5 414z" />
<glyph unicode=")" horiz-adv-x="532" d="M84 -246q23 59 54.5 158.5t86 344.5t54.5 417q0 342 -179 829l-16 43h129q23 -51 55.5 -139t88 -319.5t55.5 -413.5t-50.5 -411.5t-99.5 -368.5l-49 -140h-129z" />
<glyph unicode="*" d="M236 924l233 170l-231 170l59 82l231 -170l90 270l99 -31l-90 -270h280v-103h-284l88 -270l-97 -29l-88 273l-233 -170z" />
<glyph unicode="+" d="M102 543v123h375v376h131v-376h377v-123h-377v-379h-131v379h-375z" />
<glyph unicode="," horiz-adv-x="348" d="M70 -252l90 455h135l-109 -455h-116z" />
<glyph unicode="-" horiz-adv-x="901" d="M143 496v116h615v-116h-615z" />
<glyph unicode="." horiz-adv-x="507" d="M174 0v207h135v-207h-135z" />
<glyph unicode="/" d="M197 29l569 1417l117 -43l-572 -1417z" />
<glyph unicode="0" d="M63 651q0 209 34 353.5t99.5 223.5t148.5 111.5t196 32.5q117 0 200.5 -33.5t148 -112.5t97.5 -223.5t33 -353.5q0 -371 -124 -520t-353 -149q-113 0 -196 31.5t-149.5 105t-100.5 207.5t-34 327zM197 649q0 -315 86 -434t260 -119t259 119t85 436q0 233 -40 368.5 t-112.5 185.5t-193.5 50q-178 0 -261 -130t-83 -476z" />
<glyph unicode="1" d="M160 1069l415 283h121v-1352h-125v1210l-352 -241z" />
<glyph unicode="2" d="M109 0v115l430 438q141 141 203.5 238.5t62.5 214.5q0 131 -78 189t-229 58l-369 -47l-12 113q225 53 401 53q418 0 418 -356q0 -147 -65.5 -257t-198.5 -243l-398 -397h699v-119h-864z" />
<glyph unicode="3" d="M111 27l16 112l68 -11q43 -7 152.5 -18.5t191.5 -11.5q307 4 307 277q0 145 -77 205.5t-214 66.5h-266v115h264q92 0 175 69.5t83 184.5q0 127 -68.5 183t-220.5 56q-80 0 -175 -11t-150 -21l-54 -11l-14 113q219 47 397 47q217 0 316.5 -84t99.5 -262q0 -53 -14.5 -100 t-34 -76t-47 -55.5t-46.5 -37.5l-42 -24l-25 -12q82 -27 129 -58.5t81 -102.5t34 -179q0 -401 -428 -401q-90 0 -199.5 12t-173.5 24z" />
<glyph unicode="4" d="M66 258v102l417 992h138l-410 -977h506v454h127v-454h172v-117h-172v-264h-127v264h-651z" />
<glyph unicode="5" d="M115 37l14 113q240 -49 414 -50q141 0 229 89.5t88 254.5q0 287 -303 287q-70 0 -150.5 -23.5t-125.5 -45.5l-45 -23l-107 18l41 695h764v-119h-649l-35 -473q172 88 317 88q197 0 310.5 -95.5t113.5 -303.5q0 -229 -120.5 -347t-323.5 -118q-84 0 -192.5 13t-174.5 28z " />
<glyph unicode="6" d="M82 684q0 688 510 688l356 -39l-12 -112q-184 35 -344 34q-377 0 -379 -505q203 90 352 90q211 0 327 -101.5t116 -306.5q0 -213 -123 -332.5t-338 -119.5q-229 0 -347 182t-118 522zM211 641q4 -250 86 -397.5t250 -147.5q154 0 242 88t88 248q0 147 -85 220t-235 73 q-156 0 -346 -84z" />
<glyph unicode="7" d="M119 1233v119h807v-195l-520 -1180l-121 39l510 1153v64h-676z" />
<glyph unicode="8" d="M51 348q0 145 64.5 223t189.5 138q-119 53 -175 123.5t-56 195.5q0 170 126 258t349 88t353 -88t130 -260q0 -127 -59.5 -197.5t-190.5 -119.5q131 -47 201 -124t70 -214q0 -391 -504 -391q-223 0 -360.5 86.5t-137.5 281.5zM186 362q0 -268 363 -268q176 0 272.5 63.5 t96.5 217.5q0 125 -69 181t-202 91h-213q-123 -33 -185.5 -98.5t-62.5 -186.5zM209 1016q0 -102 54 -160.5t171 -97.5h213q125 35 186.5 95t61.5 161q0 129 -87 186t-259 57q-170 0 -255 -56t-85 -185z" />
<glyph unicode="9" d="M86 932q0 205 128 322.5t327 117.5q236 0 354.5 -180t118.5 -524q0 -371 -133 -529.5t-383 -158.5l-359 43l17 110q184 -37 342 -37q381 0 387 498q-223 -78 -369 -78q-201 0 -315.5 105.5t-114.5 310.5zM217 932q0 -150 81 -225.5t228 -75.5q137 0 361 74 q-4 262 -89 407t-257 145q-143 0 -233.5 -86.5t-90.5 -238.5z" />
<glyph unicode=":" horiz-adv-x="333" d="M135 0v207h135v-207h-135zM135 676v209h135v-209h-135z" />
<glyph unicode=";" horiz-adv-x="385" d="M59 -248l95 461h137l-121 -461h-111zM143 676v209h136v-209h-136z" />
<glyph unicode="&#x3c;" d="M182 547v127l680 430v-131l-563 -359l563 -374v-136z" />
<glyph unicode="=" d="M123 332v121h840v-121h-840zM123 696v123h840v-123h-840z" />
<glyph unicode="&#x3e;" d="M219 104v136l563 374l-563 359v131l680 -430v-127z" />
<glyph unicode="?" horiz-adv-x="790" d="M33 1397q217 57 332 57q209 0 306 -79t97 -265q0 -92 -58.5 -186.5t-127 -158t-127 -142t-58.5 -146.5v-78h-125q-4 84 -4 95q0 66 38 134t92 126l109 113q54 56 92 118t38 117q0 127 -63.5 178t-217.5 51q-43 0 -119.5 -12t-132.5 -25l-55 -10zM266 2v203h135v-203h-135 z" />
<glyph unicode="@" horiz-adv-x="2017" d="M113 535q0 498 229 720t690 222q459 0 666 -208t207 -644v-35q0 -164 -17.5 -277.5t-44 -178t-75 -99.5t-95.5 -45t-119 -10q-98 0 -149 22.5t-80 95.5q-221 -117 -371 -116q-55 0 -98 8t-94 38.5t-85 85t-56.5 151.5t-22.5 233q0 276 92 410t328 134q45 0 108.5 -13 t102.5 -25l41 -15v35h121v-410q0 -256 14 -361.5t44 -133t105 -27.5q61 0 95 12.5t68 59.5t47.5 150.5t13.5 275.5v37q0 389 -172 562t-574 173q-410 0 -602 -191.5t-192 -635.5q0 -465 185 -648.5t609 -183.5l293 21l6 -117q-201 -20 -299 -21q-238 0 -401.5 45 t-283.5 151.5t-177 292.5t-57 460zM721 492q0 -125 20.5 -208t59.5 -121t74.5 -51.5t82.5 -13.5q141 0 332 101q-20 109 -20 385v297q-135 47 -236 47q-182 0 -247.5 -102.5t-65.5 -333.5z" />
<glyph unicode="A" horiz-adv-x="1236" d="M74 0l409 1427h277l405 -1427h-127l-120 391h-603l-114 -391h-127zM346 508h545l-229 807h-87z" />
<glyph unicode="B" horiz-adv-x="1271" d="M205 0v1427h483q201 0 309.5 -90t108.5 -260q0 -262 -186 -342q236 -76 235 -334q0 -401 -436 -401h-514zM330 115h385q143 0 227 71.5t84 219.5q0 82 -35 138t-90 81.5t-103 35t-96 9.5h-372v-555zM330 782h372q137 0 206 76t69 207q0 248 -293 248h-354v-531z" />
<glyph unicode="C" horiz-adv-x="1095" d="M119 709q0 182 20.5 308t73.5 228.5t155.5 152.5t256.5 50q82 0 176 -10.5t147 -20.5l53 -10l-8 -115q-211 37 -358 37q-123 0 -202 -41t-118 -129t-52 -189.5t-13 -260.5q0 -125 8 -210t31.5 -166t65.5 -128t112 -76t170 -29q57 0 146 9.5t151 17.5l59 8l6 -115 q-217 -41 -374 -40q-154 0 -255.5 49t-155.5 149.5t-74.5 225.5t-20.5 305z" />
<glyph unicode="D" horiz-adv-x="1323" d="M205 0v1427h497q139 0 240.5 -54t157 -153.5t81 -218t25.5 -266.5q0 -150 -24.5 -274.5t-79.5 -232t-157.5 -168t-242.5 -60.5h-497zM330 117h372q104 0 181.5 55t117 148.5t57 195.5t17.5 219q0 115 -17.5 212t-58.5 182t-116.5 133.5t-180.5 48.5h-372v-1194z" />
<glyph unicode="E" horiz-adv-x="1161" d="M205 0v1427h831v-116h-706v-527h583v-114h-583v-553h706v-117h-831z" />
<glyph unicode="F" horiz-adv-x="1140" d="M205 0v1427h833v-116h-708v-592h585v-115h-585v-604h-125z" />
<glyph unicode="G" horiz-adv-x="1251" d="M123 711q0 178 23.5 305t82 228.5t165 152.5t261.5 51q92 0 205 -13.5t178 -25.5l66 -12l-6 -115q-250 47 -432 47q-102 0 -175 -28.5t-119 -79t-73 -130t-36 -168.5t-9 -212q0 -154 16.5 -258.5t60.5 -189.5t126 -125t207 -40q55 0 130.5 8.5t129 16.5t55.5 8v481h-254 v113h379v-698q-285 -47 -447 -47q-299 0 -416.5 185.5t-117.5 545.5z" />
<glyph unicode="H" horiz-adv-x="1409" d="M205 0v1427h125v-649h749v649h125v-1427h-125v659h-749v-659h-125z" />
<glyph unicode="I" horiz-adv-x="489" d="M182 0v1427h125v-1427h-125z" />
<glyph unicode="J" horiz-adv-x="626" d="M80 -33q145 0 191 50.5t46 218.5v1194h125l2 -1211q0 -121 -16 -191.5t-62.5 -110.5t-109.5 -52t-176 -12v114z" />
<glyph unicode="K" horiz-adv-x="1218" d="M205 0v1427h125v-669l223 4l395 665h148l-430 -714l456 -713h-151l-414 645l-227 -4v-641h-125z" />
<glyph unicode="L" horiz-adv-x="1062" d="M205 0v1427h125v-1308h631v-119h-756z" />
<glyph unicode="M" horiz-adv-x="1740" d="M205 0v1427h231l434 -1249l439 1249h227v-1427h-125v1292h-29l-440 -1245h-147l-437 1245h-28v-1292h-125z" />
<glyph unicode="N" horiz-adv-x="1413" d="M205 0v1427h246l585 -1302h47v1302h127v-1427h-243l-592 1303h-45v-1303h-125z" />
<glyph unicode="O" horiz-adv-x="1337" d="M123 706.5q0 376.5 126 559t419 182.5q295 0 420.5 -182.5t125.5 -558.5q0 -385 -123.5 -556t-422.5 -171q-297 0 -421 175t-124 551.5zM254 707q0 -326 91 -468.5t323 -142.5q236 0 325.5 139.5t89.5 471.5q0 322 -94 473t-321.5 151t-320.5 -150t-93 -474z" />
<glyph unicode="P" horiz-adv-x="1247" d="M205 0v1427h497q442 0 443 -446q0 -225 -111.5 -355t-331.5 -130h-372v-496h-125zM330 612h372q158 0 236 101.5t78 267.5q0 330 -314 330h-372v-699z" />
<glyph unicode="Q" horiz-adv-x="1337" d="M123 707q0 180 24.5 309t85 230.5t169 151.5t266.5 50q307 0 426.5 -185.5t119.5 -555.5q0 -262 -51 -424t-180 -236l160 -283l-117 -57l-166 295q-86 -23 -192 -22q-160 0 -268.5 47t-168 145t-84 225.5t-24.5 309.5zM254 707q0 -158 16.5 -262.5t60.5 -187.5t127 -122 t210 -39q129 0 212 37t127 119t60 187.5t16 267.5q0 154 -17 261t-61 193t-128 128t-209 42q-242 0 -328 -152.5t-86 -471.5z" />
<glyph unicode="R" horiz-adv-x="1280" d="M205 0v1427h497q442 0 443 -423q0 -344 -273 -416l291 -588h-139l-279 563l-49 -2h-366v-561h-125zM330 676h375q164 0 237.5 89t73.5 238.5t-79 228.5t-235 79h-372v-635z" />
<glyph unicode="S" horiz-adv-x="1093" d="M115 1079q0 184 114.5 278.5t327.5 94.5l406 -39l-9 -113q-274 33 -393 33q-156 0 -237.5 -64.5t-81.5 -187.5q0 -139 75.5 -196.5t276.5 -98.5q219 -47 310 -124.5t91 -247.5q0 -223 -107.5 -326.5t-332.5 -103.5q-74 0 -180.5 8t-177.5 16l-70 10l10 115 q270 -33 412 -33q319 0 319 306q0 119 -71.5 175t-255.5 93q-233 49 -329.5 132t-96.5 273z" />
<glyph unicode="T" horiz-adv-x="1013" d="M18 1309v118h975v-118h-422v-1309h-125v1309h-428z" />
<glyph unicode="U" horiz-adv-x="1316" d="M176 418v1009h125v-1009q0 -317 350 -318q365 0 365 318v1009h125v-1009q0 -436 -490 -436q-475 0 -475 436z" />
<glyph unicode="V" horiz-adv-x="1202" d="M74 1427h129l348 -1312h106l342 1312h129l-372 -1427h-303z" />
<glyph unicode="W" horiz-adv-x="1820" d="M92 1427h127l270 -1312h66l285 1292h141l291 -1292h67l263 1312h127l-291 -1427h-258l-271 1241l-260 -1241h-258z" />
<glyph unicode="X" horiz-adv-x="1189" d="M80 0l434 709l-434 718h143l373 -626l371 626h143l-428 -718l428 -709h-143l-369 618l-375 -618h-143z" />
<glyph unicode="Y" horiz-adv-x="1122" d="M53 1427h142l368 -677l363 677h141l-442 -815v-612h-125v612z" />
<glyph unicode="Z" horiz-adv-x="1167" d="M133 -2v172l756 1096v45h-756v116h901v-172l-755 -1097v-41h755v-119h-901z" />
<glyph unicode="[" horiz-adv-x="614" d="M88 -252v1786h410v-117h-285v-1552h285v-117h-410z" />
<glyph unicode="\" horiz-adv-x="1083" d="M164 1415l127 21l618 -1416l-125 -20z" />
<glyph unicode="]" horiz-adv-x="614" d="M90 -135h285v1552h-285v117h410v-1786h-410v117z" />
<glyph unicode="^" d="M115 672l354 680h129l371 -680h-135l-299 557l-287 -557h-133z" />
<glyph unicode="_" d="M55 -172h975v-115h-975v115z" />
<glyph unicode="`" horiz-adv-x="1116" d="M276 1409l48 113l426 -195l-43 -100z" />
<glyph unicode="a" horiz-adv-x="1064" d="M123 289q0 272 305 303l322 31v94q0 111 -48.5 161t-144.5 50q-72 0 -166 -7.5t-153 -15.5l-58 -6l-6 107q227 37 387 36.5t235.5 -80t75.5 -247.5v-535q29 -80 136 -92l-9 -106q-150 0 -225 81q-174 -84 -368 -83q-125 0 -204 85t-79 224zM248 291q0 -88 48 -146.5 t122 -58.5q78 0 161 17.5t126 35.5l45 17v366l-308 -26q-194 -19 -194 -205z" />
<glyph unicode="b" horiz-adv-x="1105" d="M207 0v1479h123v-504q141 68 301 67q197 0 279.5 -133t82.5 -379q0 -272 -105.5 -411t-369.5 -139q-57 0 -135 5t-127 11zM330 98q125 -10 186 -10q109 0 181.5 33t107.5 97.5t48 136t13 173.5q0 190 -54 297t-189 107q-160 0 -293 -62v-772z" />
<glyph unicode="c" horiz-adv-x="894" d="M127 530q0 268 99.5 390t322.5 122q43 0 105.5 -5t103.5 -11l39 -6l-6 -109q-145 20 -224 21q-174 0 -243.5 -94.5t-69.5 -307.5q0 -236 64.5 -337t250.5 -101l226 17l4 -107q-156 -23 -252 -22q-240 0 -330 126.5t-90 423.5z" />
<glyph unicode="d" horiz-adv-x="1105" d="M127 504q0 270 102.5 404t323.5 134q90 0 238 -24v461h122v-1479h-122v66q-156 -86 -306 -86q-358 0 -358 524zM252 500q0 -410 244 -410q59 0 132.5 20.5t116.5 41.5l46 20v741q-129 20 -232 21q-164 0 -235.5 -108.5t-71.5 -325.5z" />
<glyph unicode="e" horiz-adv-x="1038" d="M119 508q0 270 109.5 402t303.5 132q393 0 394 -483l-4 -98h-678q4 -371 276 -371q66 0 157 4t150 8l58 7l4 -101q-211 -29 -375 -28q-211 0 -303 136t-92 392zM244 561h559q0 199 -66.5 287t-204.5 88q-135 0 -211.5 -91t-76.5 -284z" />
<glyph unicode="f" horiz-adv-x="679" d="M66 915v109h131v104q0 203 61 287t207 84l182 -12v-105q-104 6 -164 7q-92 0 -129 -58.5t-37 -204.5v-102h310v-109h-310v-915h-120v915h-131z" />
<glyph unicode="g" horiz-adv-x="1048" d="M111 -170q0 82 42 139.5t126 120.5q-53 33 -54 137q0 16 17.5 57.5t33.5 73.5l17 33q-168 84 -168 305q0 162 100.5 255t259.5 93q45 0 91.5 -6t70.5 -14l23 -6l313 6v-109h-207q80 -76 80 -219q0 -342 -377 -342q-47 0 -96 8q-39 -100 -39 -126q0 -47 14.5 -65.5 t62.5 -27t167 -8.5q211 0 299 -58.5t88 -223.5q0 -170 -117 -256t-328 -86q-213 0 -316 73.5t-103 245.5zM233 -162q0 -117 74 -168t225 -51q154 0 235 58.5t81 171t-59.5 146.5t-208.5 34l-218 8q-72 -59 -100.5 -98.5t-28.5 -100.5zM248 696q0 -238 231 -237 q252 0 252 237q0 242 -248 242q-113 0 -174 -63.5t-61 -178.5z" />
<glyph unicode="h" horiz-adv-x="1157" d="M193 0v1479h120v-508q172 72 314 71q201 0 270.5 -113.5t69.5 -396.5v-532h-123v530q0 223 -45 312.5t-187 89.5q-137 0 -299 -70v-862h-120z" />
<glyph unicode="i" horiz-adv-x="466" d="M172 0v1024h123v-1024h-123zM172 1276v154h123v-154h-123z" />
<glyph unicode="j" horiz-adv-x="495" d="M-49 -358q158 92 204 160.5t46 209.5v1012h123v-1014q0 -184 -61.5 -274t-258.5 -199zM201 1274v153h123v-153h-123z" />
<glyph unicode="k" horiz-adv-x="1007" d="M207 0v1479h123v-873l155 4l324 414h141l-356 -469l358 -555h-139l-326 492l-157 -7v-485h-123z" />
<glyph unicode="l" horiz-adv-x="483" d="M180 0v1479h123v-1479h-123z" />
<glyph unicode="m" horiz-adv-x="1777" d="M223 0v1024h121v-74q158 92 295 92q98 0 155.5 -25.5t102.5 -76.5q215 102 365 102q201 0 270.5 -113.5t69.5 -396.5v-532h-123v526q0 227 -44 316.5t-188 89.5q-137 0 -305 -88q39 -102 39 -312v-532h-123v528q0 221 -49 312.5t-184 91.5q-137 0 -281 -88v-844h-121z " />
<glyph unicode="n" horiz-adv-x="1167" d="M207 0v1024h123v-74q158 92 313 92q201 0 270.5 -113.5t69.5 -396.5v-532h-123v530q0 223 -45 312.5t-186 89.5q-68 0 -142.5 -21.5t-115.5 -42.5l-41 -22v-846h-123z" />
<glyph unicode="o" horiz-adv-x="1079" d="M121 528q0 266 95 390t327 124q219 0 317 -128t98 -388q0 -276 -91 -411t-324 -135q-238 0 -330 130.5t-92 417.5zM246 528q0 -236 60.5 -338t236.5 -102q174 0 231 105.5t57 332.5q0 209 -67.5 308.5t-220.5 99.5q-164 0 -230.5 -94.5t-66.5 -311.5z" />
<glyph unicode="p" horiz-adv-x="1107" d="M207 -461v1485h123v-74q141 92 305 92q360 0 360 -518q0 -283 -103.5 -413.5t-334.5 -130.5q-131 0 -227 22v-463h-123zM330 111q121 -23 221 -23q174 0 246.5 105.5t72.5 334.5q0 193 -63.5 298.5t-183.5 105.5q-66 0 -139.5 -21.5t-114.5 -44.5l-39 -22v-733z" />
<glyph unicode="q" horiz-adv-x="1103" d="M127 494q0 283 107.5 415.5t355.5 132.5l323 -18v-1485h-122v506q-125 -66 -279 -65q-207 0 -296 131t-89 383zM254 498q0 -199 59.5 -303.5t202.5 -104.5q68 0 136.5 16.5t103.5 32.5l35 17v766q-133 12 -199 12q-188 0 -263 -105.5t-75 -330.5z" />
<glyph unicode="r" horiz-adv-x="727" d="M188 0v1024h123v-145q164 125 359 165v-124q-180 -39 -359 -154v-766h-123z" />
<glyph unicode="s" horiz-adv-x="995" d="M127 754q0 152 101.5 220t248.5 68q70 0 158 -8t143 -16l53 -8l-4 -107q-215 31 -344 31q-231 0 -231 -176q0 -76 51 -112t205 -60q207 -33 282.5 -90.5t75.5 -198.5q0 -172 -99 -244.5t-286 -72.5l-344 36l8 107q221 -35 326 -35q139 0 204.5 44t65.5 159 q0 88 -52 120.5t-218 61.5q-188 33 -266 90.5t-78 190.5z" />
<glyph unicode="t" horiz-adv-x="749" d="M63 913v109h150v324h123v-324h323v-109h-323v-501q0 -186 30.5 -254t131.5 -68l172 10l8 -104q-119 -18 -191 -19q-150 0 -212 83t-62 288v565h-150z" />
<glyph unicode="u" horiz-adv-x="1142" d="M190 489v535h123v-530q0 -231 45 -317.5t187 -86.5q61 0 132 21.5t109 44.5l41 20v848h123v-1024h-123v72q-156 -92 -297 -92q-199 0 -269.5 112t-70.5 397z" />
<glyph unicode="v" horiz-adv-x="985" d="M68 1024h129l258 -920h73l265 920h125l-295 -1024h-263z" />
<glyph unicode="w" horiz-adv-x="1552" d="M70 1024h125l221 -913h47l248 893h131l248 -893h47l221 913h125l-252 -1024h-232l-225 844l-227 -844h-228z" />
<glyph unicode="x" horiz-adv-x="940" d="M72 1024h135l262 -422l264 422h133l-323 -512l323 -512h-137l-260 422l-260 -422h-135l321 512z" />
<glyph unicode="y" horiz-adv-x="985" d="M66 1024h124l265 -909h73l267 909h125l-437 -1485h-125l140 461h-138z" />
<glyph unicode="z" horiz-adv-x="983" d="M121 111l598 802h-598v111h739l2 -111l-596 -802h596v-111h-737z" />
<glyph unicode="{" horiz-adv-x="610" d="M12 584v106q115 29 161 82t46 148q0 27 -7 124t-7 138q0 186 88 269t293 91l4 -117q-150 -8 -203 -65t-53 -184q0 -35 7 -127.5t7 -120.5q0 -129 -45 -190.5t-160 -98.5q113 -37 159 -100.5t46 -190.5q0 -37 -7 -119t-7 -120q0 -125 54 -184.5t202 -67.5l-4 -117 q-203 8 -292 92t-89 268q0 43 7 136.5t7 115.5q0 92 -46 145.5t-161 86.5z" />
<glyph unicode="|" d="M469 -512v2048h125v-2048h-125z" />
<glyph unicode="}" horiz-adv-x="610" d="M4 -150q150 8 203 65.5t53 184.5q0 35 -7 127t-7 121q0 129 45 190.5t160 98.5q-113 37 -159 100.5t-46 190.5q0 37 7 118.5t7 120.5q0 125 -54 184.5t-202 67.5l4 117q203 -8 292 -92t89 -268q0 -43 -7 -136.5t-7 -115.5q0 -92 46 -145.5t161 -86.5v-106 q-115 -29 -161 -82t-46 -148q0 -27 7 -124t7 -138q0 -186 -88 -269t-293 -91z" />
<glyph unicode="~" d="M133 662q12 12 34.5 30.5t81 48t107.5 29.5q66 0 203 -52t180 -52q78 0 197 100l14 -121q-12 -12 -32.5 -29.5t-77 -47t-103.5 -29.5q-63 0 -202.5 53t-182.5 53q-80 0 -202 -102z" />
<glyph unicode="&#xa1;" horiz-adv-x="673" d="M272 815v207h136v-207h-136zM276 -410l3 971h124l3 -971h-130z" />
<glyph unicode="&#xa2;" horiz-adv-x="894" d="M96 508q0 221 91.5 326.5t269.5 113.5v252h110v-256l219 -20l-6 -113q-195 16 -272 16q-156 0 -218.5 -71.5t-62.5 -247.5q0 -180 61.5 -244.5t235.5 -64.5l260 14l4 -113q-133 -16 -219 -20v-250h-110v248q-193 8 -278 101t-85 329z" />
<glyph unicode="&#xa3;" d="M111 0v115h204v624h-163v113h163v115q0 246 67 336t224 90l301 -31l-4 -107q-215 20 -278 21q-109 0 -149 -61.5t-40 -247.5v-115h451v-113h-451v-624h342l160 32l23 -110l-166 -35q-106 0 -342 -1t-342 -1z" />
<glyph unicode="&#xa4;" horiz-adv-x="1083" d="M102 164l146 141q-68 94 -68 210t66 210l-144 143l88 88l142 -145q94 66 209.5 66t210.5 -66l143 145l88 -88l-145 -143q66 -94 65.5 -210t-65.5 -210l145 -141l-88 -88l-143 143q-94 -66 -210 -65.5t-210 67.5l-142 -145zM299 516q0 -102 70 -174q72 -70 173 -70t173 70 q72 72 71.5 174t-72 172t-173 70t-172.5 -70q-70 -70 -70 -172z" />
<glyph unicode="&#xa5;" horiz-adv-x="1105" d="M35 1352h141l379 -598l373 598h143l-371 -590h308v-111h-369l-21 -35v-161h392v-109h-392v-346h-126v346h-394v109h394v161l-21 35h-375v111h314z" />
<glyph unicode="&#xa6;" d="M467 358h125v-870h-125v870zM467 688v848h125v-848h-125z" />
<glyph unicode="&#xa7;" d="M147 543q0 82 45.5 157.5t71.5 96.5q-90 68 -90 229q0 158 98.5 235.5t280.5 77.5l330 -30l-6 -105q-219 27 -318 27q-135 0 -199.5 -48t-64.5 -153q0 -113 63.5 -153.5t233.5 -69.5q178 -33 255 -91.5t77 -201.5q0 -55 -19.5 -118.5t-37 -97.5t-29.5 -50q76 -59 75 -199 q0 -336 -376 -336q-57 0 -146.5 8.5t-148.5 16.5l-60 8l13 104q223 -31 335 -30q264 0 265 223q0 102 -62.5 136t-234.5 63q-184 31 -267.5 94.5t-83.5 206.5zM270 559q0 -96 59.5 -140t198.5 -67q147 -25 217 -55l17 33q12 25 25.5 76t13.5 94q0 100 -57.5 139t-196.5 63 q-150 27 -199 50q-78 -117 -78 -193z" />
<glyph unicode="&#xa8;" horiz-adv-x="1556" d="M207 1290v162h119v-162h-119zM608 1290v162h119v-162h-119z" />
<glyph unicode="&#xa9;" d="M20 889q0 227 149.5 386t373 159t374 -159t150.5 -386t-150.5 -385t-374 -158t-373 158t-149.5 385zM86 889q0 -201 130 -339t326.5 -138t327.5 138t131 339t-131 340t-327.5 139t-326.5 -139t-130 -340zM319 887q0 156 47.5 235.5t176.5 79.5l151 -14l-2 -66 q-84 14 -149 15q-100 0 -129 -57.5t-29 -192.5q0 -127 33 -186.5t125 -59.5l149 16l2 -65q-88 -16 -151 -17q-127 0 -175.5 79t-48.5 233z" />
<glyph unicode="&#xaa;" d="M258 952q0 154 168 166l192 12v39q0 53 -20 76t-72 23l-227 -15l-4 84q164 18 240 19q176 0 176 -189v-260q12 -43 67 -51l-6 -80q-80 4 -123 43q-125 -43 -231 -43q-74 0 -117 47t-43 129zM352 950q0 -88 76 -88q35 0 83 7.5t79 15.5l28 8v160l-180 -11 q-45 -2 -65.5 -23.5t-20.5 -68.5z" />
<glyph unicode="&#xab;" horiz-adv-x="1046" d="M102 459v104l371 283v-129l-264 -203l264 -223v-131zM553 459v104l371 283v-129l-262 -203l262 -223v-131z" />
<glyph unicode="&#xac;" d="M131 580v118h827v-456h-120v338h-707z" />
<glyph unicode="&#xad;" horiz-adv-x="901" d="M143 496v116h615v-116h-615z" />
<glyph unicode="&#xae;" d="M20 889q0 227 149.5 386t373 159t374 -159t150.5 -386t-150.5 -385t-374 -158t-373 158t-149.5 385zM86 889q0 -201 130 -339t326.5 -138t327.5 138t131 339t-131 340t-327.5 139t-326.5 -139t-130 -340zM334 565v645h186q131 0 183.5 -41t52.5 -143q0 -156 -121 -186 l133 -275h-72l-135 269h-162v-269h-65zM399 899h164q70 0 98.5 27.5t28.5 99.5q0 68 -39 93.5t-125 25.5h-127v-246z" />
<glyph unicode="&#xaf;" horiz-adv-x="933" d="M176 1305v108h578v-108h-578z" />
<glyph unicode="&#xb0;" d="M213 1155q0 127 80 206t207 79t205.5 -79t78.5 -206t-78.5 -206t-205.5 -79t-207 79t-80 206zM305 1155q0 -90 53.5 -143.5t141.5 -53.5q90 0 144 54.5t54 142.5q0 90 -54 144.5t-144 54.5q-88 0 -141.5 -54.5t-53.5 -144.5z" />
<glyph unicode="&#xb1;" d="M100 100v123h885v-123h-885zM100 584v123h377v309h131v-309h377v-123h-377v-283h-131v283h-377z" />
<glyph unicode="&#xb2;" horiz-adv-x="542" d="M49 979v98l189 191q55 55 80.5 94t25.5 86q0 84 -106 84l-177 -21l-6 101q117 25 203 24q199 0 199 -180q0 -68 -31 -121t-98 -116l-135 -140h274v-100h-418z" />
<glyph unicode="&#xb3;" horiz-adv-x="542" d="M55 981l6 96q115 -16 209 -16q111 0 111 96q0 100 -105 100h-133v97h131q33 0 62 30.5t29 73.5q0 78 -105 78l-190 -16l-7 96q115 20 205 20q209 0 209 -168q0 -102 -88 -155q55 -18 81 -49t26 -109q0 -197 -215 -197z" />
<glyph unicode="&#xb4;" horiz-adv-x="1169" d="M276 1327l426 195l48 -113l-431 -182z" />
<glyph unicode="&#xb5;" d="M184 -467v1491h123v-539q0 -225 45 -310t189 -85q135 0 280 84v850h123v-1024h-123v72q-156 -92 -291 -92q-82 0 -137 26.5t-68.5 46t-17.5 31.5v-551h-123z" />
<glyph unicode="&#x3bc;" d="M184 -467v1491h123v-539q0 -225 45 -310t189 -85q135 0 280 84v850h123v-1024h-123v72q-156 -92 -291 -92q-82 0 -137 26.5t-68.5 46t-17.5 31.5v-551h-123z" />
<glyph unicode="&#xb6;" d="M16 1061q0 164 108.5 268.5t272.5 104.5h674v-105h-176v-1329h-113v1329h-258v-1329h-112v694h-15q-164 0 -272.5 102.5t-108.5 264.5z" />
<glyph unicode="&#xb7;" horiz-adv-x="507" d="M174 520v207h135v-207h-135z" />
<glyph unicode="&#xb8;" horiz-adv-x="1705" d="M795 -416l4 84q84 -8 145 -8q92 0 92 84q0 76 -92 76h-96v182h78v-108q121 0 172 -32t51 -122q0 -168 -182 -168z" />
<glyph unicode="&#xb9;" horiz-adv-x="542" d="M68 1477l206 141h105v-639h-111v518l-149 -102z" />
<glyph unicode="&#xba;" d="M266 1069q0 287 248 287q125 0 186.5 -68.5t61.5 -218.5q0 -293 -248 -293t-248 293zM365 1069q0 -109 34.5 -156t114.5 -47q82 0 116 46t34 157q0 109 -35 153t-115 44t-114.5 -45.5t-34.5 -151.5z" />
<glyph unicode="&#xbb;" horiz-adv-x="1046" d="M123 164v133l262 223l-262 201v129l371 -283v-104zM573 164v133l265 223l-265 201v129l371 -283v-104z" />
<glyph unicode="&#xbf;" horiz-adv-x="790" d="M33 -86q0 92 58.5 186.5t127 158t126.5 142t58 146.5v78h125q4 -84 4 -95q0 -66 -37.5 -134t-92.5 -126l-108 -113q-54 -56 -92 -118t-38 -117q0 -127 63.5 -178t216.5 -51q43 0 120 12t132 25l56 10l16 -113q-217 -57 -332 -57q-209 0 -306 79t-97 265zM399 819v203h136 v-203h-136z" />
<glyph unicode="&#xc0;" horiz-adv-x="1236" d="M74 0l409 1427h277l405 -1427h-127l-120 391h-603l-114 -391h-127zM346 508h545l-229 807h-87zM358 1792l48 113l425 -195l-43 -98z" />
<glyph unicode="&#xc1;" horiz-adv-x="1236" d="M74 0l409 1427h277l405 -1427h-127l-120 391h-603l-114 -391h-127zM346 508h545l-229 807h-87zM389 1716l426 195l47 -113l-430 -182z" />
<glyph unicode="&#xc2;" horiz-adv-x="1236" d="M74 0l409 1427h277l405 -1427h-127l-120 391h-603l-114 -391h-127zM289 1636l274 269h109l272 -269h-145l-181 170l-180 -170h-149zM346 508h545l-229 807h-87z" />
<glyph unicode="&#xc3;" horiz-adv-x="1236" d="M74 0l409 1427h277l405 -1427h-127l-120 391h-603l-114 -391h-127zM272 1772q117 119 195 118q53 0 178 -59t152 -59q41 0 151 98l33 -94q-109 -117 -182 -117q-51 0 -177 60.5t-155 60.5q-20 0 -61 -25.5t-72 -52.5l-31 -27zM346 508h545l-229 807h-87z" />
<glyph unicode="&#xc4;" horiz-adv-x="1236" d="M74 0l409 1427h277l405 -1427h-127l-120 391h-603l-114 -391h-127zM346 508h545l-229 807h-87zM352 1694v161h119v-161h-119zM766 1694v161h119v-161h-119z" />
<glyph unicode="&#xc5;" horiz-adv-x="1236" d="M74 0l393 1374q-74 55 -74 162q0 94 62.5 149.5t163 55.5t164 -55.5t63.5 -149.5q0 -100 -72 -160l391 -1376h-127l-120 391h-603l-114 -391h-127zM346 508h545l-229 807h-87zM498 1536q0 -92 84 -109h73q86 16 86 109q0 111 -123 111q-120 0 -120 -111z" />
<glyph unicode="&#xc6;" horiz-adv-x="1716" d="M45 0l410 1427h1134v-116h-706v-527h583v-114h-583v-553h706v-117h-831v391h-469l-117 -391h-127zM317 508h441v803h-211z" />
<glyph unicode="&#xc7;" horiz-adv-x="1099" d="M119 709q0 182 20.5 308t73.5 228.5t155.5 152.5t256.5 50q82 0 176 -10.5t147 -20.5l53 -10l-8 -115q-211 37 -358 37q-123 0 -202 -41t-118 -129t-52 -189.5t-13 -260.5q0 -125 8 -210t31.5 -166t65.5 -128t112 -76t170 -29q57 0 146 9.5t151 17.5l59 8l6 -115 q-197 -37 -350 -40v-86q121 0 172 -32t51 -122q0 -168 -182 -168l-172 12l4 84q84 -8 146 -8q92 0 92 84q0 76 -92 76h-97v162q-262 16 -357 194.5t-95 532.5z" />
<glyph unicode="&#xc8;" horiz-adv-x="1161" d="M205 0v1427h831v-116h-706v-527h583v-114h-583v-553h706v-117h-831zM369 1792l47 113l426 -195l-43 -98z" />
<glyph unicode="&#xc9;" horiz-adv-x="1161" d="M205 0v1427h831v-116h-706v-527h583v-114h-583v-553h706v-117h-831zM420 1716l426 195l47 -113l-430 -182z" />
<glyph unicode="&#xca;" horiz-adv-x="1161" d="M205 0v1427h831v-116h-706v-527h583v-114h-583v-553h706v-117h-831zM295 1638l274 269h109l272 -269h-145l-180 170l-181 -170h-149z" />
<glyph unicode="&#xcb;" horiz-adv-x="1161" d="M205 0v1427h831v-116h-706v-527h583v-114h-583v-553h706v-117h-831zM375 1694v161h119v-161h-119zM788 1694v161h119v-161h-119z" />
<glyph unicode="&#xcc;" horiz-adv-x="489" d="M-12 1792l47 113l426 -195l-43 -98zM182 0v1427h125v-1427h-125z" />
<glyph unicode="&#xcd;" horiz-adv-x="489" d="M23 1716l426 195l47 -113l-430 -182zM182 0v1427h125v-1427h-125z" />
<glyph unicode="&#xce;" horiz-adv-x="489" d="M-84 1638l274 269h109l272 -269h-145l-180 170l-180 -170h-150zM182 0v1427h125v-1427h-125z" />
<glyph unicode="&#xcf;" horiz-adv-x="489" d="M-6 1700v162h119v-162h-119zM182 0v1427h125v-1427h-125zM408 1700v162h118v-162h-118z" />
<glyph unicode="&#xd0;" horiz-adv-x="1323" d="M47 655v119h158v653h497q139 0 240.5 -54t157 -153.5t81 -218t25.5 -266.5q0 -150 -24.5 -274.5t-79.5 -232t-157.5 -168t-242.5 -60.5h-497v655h-158zM330 117h372q104 0 181.5 55t117 148.5t57 195.5t17.5 219q0 115 -17.5 212t-58.5 182t-116.5 133.5t-180.5 48.5 h-372v-537h327v-119h-327v-538z" />
<glyph unicode="&#xd1;" horiz-adv-x="1413" d="M205 0v1427h246l585 -1302h47v1302h127v-1427h-243l-592 1303h-45v-1303h-125zM362 1767q117 119 195 119q53 0 178 -59.5t152 -59.5q41 0 151 99l33 -94q-109 -117 -182 -117q-51 0 -177 60.5t-155 60.5q-20 0 -61 -26t-72 -52l-31 -27z" />
<glyph unicode="&#xd2;" horiz-adv-x="1337" d="M123 706.5q0 376.5 126 559t419 182.5q295 0 420.5 -182.5t125.5 -558.5q0 -385 -123.5 -556t-422.5 -171q-297 0 -421 175t-124 551.5zM254 707q0 -326 91 -468.5t323 -142.5q236 0 325.5 139.5t89.5 471.5q0 322 -94 473t-321.5 151t-320.5 -150t-93 -474zM430 1792 l47 113l426 -195l-43 -98z" />
<glyph unicode="&#xd3;" horiz-adv-x="1337" d="M123 706.5q0 376.5 126 559t419 182.5q295 0 420.5 -182.5t125.5 -558.5q0 -385 -123.5 -556t-422.5 -171q-297 0 -421 175t-124 551.5zM254 707q0 -326 91 -468.5t323 -142.5q236 0 325.5 139.5t89.5 471.5q0 322 -94 473t-321.5 151t-320.5 -150t-93 -474zM424 1716 l426 195l47 -113l-430 -182z" />
<glyph unicode="&#xd4;" horiz-adv-x="1337" d="M123 706.5q0 376.5 126 559t419 182.5q295 0 420.5 -182.5t125.5 -558.5q0 -385 -123.5 -556t-422.5 -171q-297 0 -421 175t-124 551.5zM254 707q0 -326 91 -468.5t323 -142.5q236 0 325.5 139.5t89.5 471.5q0 322 -94 473t-321.5 151t-320.5 -150t-93 -474zM344 1645 l274 268h109l272 -268h-145l-180 170l-180 -170h-150z" />
<glyph unicode="&#xd5;" horiz-adv-x="1337" d="M123 706.5q0 376.5 126 559t419 182.5q295 0 420.5 -182.5t125.5 -558.5q0 -385 -123.5 -556t-422.5 -171q-297 0 -421 175t-124 551.5zM254 707q0 -326 91 -468.5t323 -142.5q236 0 325.5 139.5t89.5 471.5q0 322 -94 473t-321.5 151t-320.5 -150t-93 -474zM324 1767 q117 119 194 119q51 0 176 -59.5t154 -59.5q41 0 151 99l33 -94q-109 -117 -182 -117q-51 0 -177 60.5t-155 60.5q-20 0 -61 -26t-72 -52l-31 -27z" />
<glyph unicode="&#xd6;" horiz-adv-x="1337" d="M123 706.5q0 376.5 126 559t419 182.5q295 0 420.5 -182.5t125.5 -558.5q0 -385 -123.5 -556t-422.5 -171q-297 0 -421 175t-124 551.5zM254 707q0 -326 91 -468.5t323 -142.5q236 0 325.5 139.5t89.5 471.5q0 322 -94 473t-321.5 151t-320.5 -150t-93 -474zM418 1694 v161h119v-161h-119zM831 1694v161h119v-161h-119z" />
<glyph unicode="&#xd7;" d="M168 272l299 297l-297 297l92 92l291 -296l303 296l86 -86l-297 -303l297 -290l-92 -93l-297 297l-297 -299z" />
<glyph unicode="&#xd8;" horiz-adv-x="1343" d="M123 707q0 377 126 559t419 182q162 0 272 -55l111 235l92 -37l-119 -256q190 -168 190 -628q0 -385 -123.5 -556t-422.5 -171q-150 0 -258 45l-121 -258l-92 40l125 269q-199 156 -199 631zM254 707q0 -379 125 -510l508 1083q-90 51 -219 51q-227 0 -320.5 -150 t-93.5 -474zM461 135q80 -39 207 -39q236 0 325.5 139.5t89.5 471.5q0 365 -118 505z" />
<glyph unicode="&#xd9;" horiz-adv-x="1316" d="M176 418v1009h125v-1009q0 -317 350 -318q365 0 365 318v1009h125v-1009q0 -436 -490 -436q-475 0 -475 436zM416 1792l47 113l426 -195l-43 -98z" />
<glyph unicode="&#xda;" horiz-adv-x="1316" d="M176 418v1009h125v-1009q0 -317 350 -318q365 0 365 318v1009h125v-1009q0 -436 -490 -436q-475 0 -475 436zM416 1716l426 195l47 -113l-430 -182z" />
<glyph unicode="&#xdb;" horiz-adv-x="1316" d="M176 418v1009h125v-1009q0 -317 350 -318q365 0 365 318v1009h125v-1009q0 -436 -490 -436q-475 0 -475 436zM332 1636l274 269h109l272 -269h-145l-180 170l-181 -170h-149z" />
<glyph unicode="&#xdc;" horiz-adv-x="1316" d="M176 418v1009h125v-1009q0 -317 350 -318q365 0 365 318v1009h125v-1009q0 -436 -490 -436q-475 0 -475 436zM408 1700v162h118v-162h-118zM821 1700v162h119v-162h-119z" />
<glyph unicode="&#xdd;" horiz-adv-x="1122" d="M53 1427h142l368 -677l363 677h141l-442 -815v-612h-125v612zM340 1716l426 195l47 -113l-430 -182z" />
<glyph unicode="&#xde;" horiz-adv-x="1247" d="M205 0v1427h125v-237h372q442 0 443 -449q0 -225 -110.5 -354t-332.5 -129h-372v-258h-125zM330 379h372q160 0 237 98t77 264q0 330 -314 330h-372v-692z" />
<glyph unicode="&#xdf;" horiz-adv-x="1226" d="M188 0v1128q0 205 91.5 288t293.5 83q207 0 293 -66.5t86 -220.5q0 -102 -36.5 -158.5t-116.5 -97.5q-76 -39 -102.5 -64.5t-26.5 -64.5q0 -23 8 -38t48 -43.5t120 -67.5q158 -80 211 -136.5t53 -164.5q0 -219 -91 -307t-302 -88l-238 16l8 106q188 -8 224 -8 q154 0 212 61.5t58 215.5q0 70 -45 110.5t-182 106.5q-129 59 -171 108.5t-42 126.5q0 76 35.5 116t128.5 87q66 31 92 70t26 108q0 100 -55 139t-194.5 39t-200 -56t-60.5 -220v-1108h-125z" />
<glyph unicode="&#xe0;" horiz-adv-x="1093" d="M123 289q0 272 305 303l322 31v94q0 111 -48.5 161t-144.5 50q-72 0 -166 -7.5t-153 -15.5l-58 -6l-6 107q227 37 387 36.5t235.5 -80t75.5 -247.5v-535q29 -80 136 -92l-9 -106q-150 0 -225 81q-174 -84 -368 -83q-125 0 -204 85t-79 224zM248 291q0 -88 48 -146.5 t122 -58.5q78 0 161 17.5t126 35.5l45 17v366l-308 -26q-194 -19 -194 -205zM276 1409l48 113l426 -195l-43 -100z" />
<glyph unicode="&#xe1;" horiz-adv-x="1093" d="M123 289q0 272 305 303l322 31v94q0 111 -48.5 161t-144.5 50q-72 0 -166 -7.5t-153 -15.5l-58 -6l-6 107q227 37 387 36.5t235.5 -80t75.5 -247.5v-535q29 -80 136 -92l-9 -106q-150 0 -225 81q-174 -84 -368 -83q-125 0 -204 85t-79 224zM248 291q0 -88 48 -146.5 t122 -58.5q78 0 161 17.5t126 35.5l45 17v366l-308 -26q-194 -19 -194 -205zM326 1327l426 195l47 -113l-430 -182z" />
<glyph unicode="&#xe2;" horiz-adv-x="1093" d="M123 289q0 272 305 303l322 31v94q0 111 -48.5 161t-144.5 50q-72 0 -166 -7.5t-153 -15.5l-58 -6l-6 107q227 37 387 36.5t235.5 -80t75.5 -247.5v-535q29 -80 136 -92l-9 -106q-150 0 -225 81q-174 -84 -368 -83q-125 0 -204 85t-79 224zM203 1219l252 290h98l256 -290 h-139l-164 184l-164 -184h-139zM248 291q0 -88 48 -146.5t122 -58.5q78 0 161 17.5t126 35.5l45 17v366l-308 -26q-194 -19 -194 -205z" />
<glyph unicode="&#xe3;" horiz-adv-x="1093" d="M123 289q0 272 305 303l322 31v94q0 111 -48.5 161t-144.5 50q-72 0 -166 -7.5t-153 -15.5l-58 -6l-6 107q227 37 387 36.5t235.5 -80t75.5 -247.5v-535q29 -80 136 -92l-9 -106q-150 0 -225 81q-174 -84 -368 -83q-125 0 -204 85t-79 224zM184 1378q102 104 181 105 q49 0 160.5 -51.5t140.5 -51.5q18 0 52 20.5t60 41.5l25 20l28 -96q-92 -98 -165 -98q-47 0 -160 52t-144 52q-20 0 -57 -22.5t-63 -44.5l-27 -23zM248 291q0 -88 48 -146.5t122 -58.5q78 0 161 17.5t126 35.5l45 17v366l-308 -26q-194 -19 -194 -205z" />
<glyph unicode="&#xe4;" horiz-adv-x="1093" d="M123 289q0 272 305 303l322 31v94q0 111 -48.5 161t-144.5 50q-72 0 -166 -7.5t-153 -15.5l-58 -6l-6 107q227 37 387 36.5t235.5 -80t75.5 -247.5v-535q29 -80 136 -92l-9 -106q-150 0 -225 81q-174 -84 -368 -83q-125 0 -204 85t-79 224zM248 291q0 -88 48 -146.5 t122 -58.5q78 0 161 17.5t126 35.5l45 17v366l-308 -26q-194 -19 -194 -205zM276 1290v162h119v-162h-119zM678 1290v162h119v-162h-119z" />
<glyph unicode="&#xe5;" horiz-adv-x="1093" d="M123 289q0 272 305 303l322 31v94q0 111 -48.5 161t-144.5 50q-72 0 -166 -7.5t-153 -15.5l-58 -6l-6 107q227 37 387 36.5t235.5 -80t75.5 -247.5v-535q29 -80 136 -92l-9 -106q-150 0 -225 81q-174 -84 -368 -83q-125 0 -204 85t-79 224zM248 291q0 -88 48 -146.5 t122 -58.5q78 0 161 17.5t126 35.5l45 17v366l-308 -26q-194 -19 -194 -205zM317 1366q0 86 60.5 145.5t148.5 59.5q86 0 144.5 -59.5t58.5 -145.5q0 -88 -58.5 -147.5t-144.5 -59.5q-88 0 -148.5 59.5t-60.5 147.5zM416 1366q0 -47 31.5 -81t78.5 -34q45 0 77 34t32 81 t-32 80t-77 33q-47 0 -78.5 -33t-31.5 -80z" />
<glyph unicode="&#xe6;" horiz-adv-x="1695" d="M117 289q0 160 82 221t284 86l277 27v94q0 211 -195 211l-387 -21l-6 109q236 27 395 26q223 0 281 -168q98 168 332 168q199 0 298 -117.5t99 -365.5l-4 -98h-690q0 -186 64.5 -278.5t217.5 -92.5q63 0 156.5 4t153.5 8l61 7l4 -101q-219 -29 -383 -28q-205 0 -301 114 l-70 -31q-188 -84 -395 -83q-129 0 -201.5 79.5t-72.5 229.5zM242 291q0 -98 44 -151.5t120 -53.5q174 0 397 86q-47 113 -47 348l-326 -28q-96 -10 -142 -58.5t-46 -142.5zM881 561h573q0 201 -65.5 288t-210.5 87q-295 0 -297 -375z" />
<glyph unicode="&#xe7;" horiz-adv-x="894" d="M127 530q0 268 99.5 390t322.5 122q43 0 105.5 -5t103.5 -11l39 -6l-6 -109q-145 20 -224 21q-174 0 -243.5 -94.5t-69.5 -307.5q0 -236 64.5 -337t250.5 -101l226 17l4 -107q-156 -23 -252 -22h-4v-86q121 0 172 -32t51 -122q0 -168 -182 -168l-172 12l4 84 q84 -8 145 -8q92 0 92 84q0 76 -92 76h-96v164q-190 18 -264 146t-74 400z" />
<glyph unicode="&#xe8;" horiz-adv-x="1038" d="M119 508q0 270 109.5 402t303.5 132q393 0 394 -483l-4 -98h-678q4 -371 276 -371q66 0 157 4t150 8l58 7l4 -101q-211 -29 -375 -28q-211 0 -303 136t-92 392zM244 561h559q0 199 -66.5 287t-204.5 88q-135 0 -211.5 -91t-76.5 -284zM272 1409l47 113l426 -195l-43 -100 z" />
<glyph unicode="&#xe9;" horiz-adv-x="1038" d="M119 508q0 270 109.5 402t303.5 132q393 0 394 -483l-4 -98h-678q4 -371 276 -371q66 0 157 4t150 8l58 7l4 -101q-211 -29 -375 -28q-211 0 -303 136t-92 392zM244 561h559q0 199 -66.5 287t-204.5 88q-135 0 -211.5 -91t-76.5 -284zM293 1327l426 195l47 -113 l-430 -182z" />
<glyph unicode="&#xea;" horiz-adv-x="1038" d="M119 508q0 270 109.5 402t303.5 132q393 0 394 -483l-4 -98h-678q4 -371 276 -371q66 0 157 4t150 8l58 7l4 -101q-211 -29 -375 -28q-211 0 -303 136t-92 392zM225 1219l252 290h98l256 -290h-139l-164 184l-163 -184h-140zM244 561h559q0 199 -66.5 287t-204.5 88 q-135 0 -211.5 -91t-76.5 -284z" />
<glyph unicode="&#xeb;" horiz-adv-x="1038" d="M119 508q0 270 109.5 402t303.5 132q393 0 394 -483l-4 -98h-678q4 -371 276 -371q66 0 157 4t150 8l58 7l4 -101q-211 -29 -375 -28q-211 0 -303 136t-92 392zM244 561h559q0 199 -66.5 287t-204.5 88q-135 0 -211.5 -91t-76.5 -284zM287 1290v162h119v-162h-119z M688 1290v162h119v-162h-119z" />
<glyph unicode="&#xec;" horiz-adv-x="538" d="M-41 1409l47 113l426 -195l-43 -100zM207 0v1024h123v-1024h-123z" />
<glyph unicode="&#xed;" horiz-adv-x="534" d="M86 1327l426 195l47 -113l-430 -182zM207 0v1024h123v-1024h-123z" />
<glyph unicode="&#xee;" horiz-adv-x="538" d="M-37 1219l252 290h98l256 -290h-139l-164 184l-164 -184h-139zM207 0v1024h123v-1024h-123z" />
<glyph unicode="&#xef;" horiz-adv-x="538" d="M35 1290v162h119v-162h-119zM207 0v1024h123v-1024h-123zM436 1290v162h119v-162h-119z" />
<glyph unicode="&#xf0;" d="M90 449q0 195 116 311.5t310 116.5q156 0 356 -80q-12 289 -319 458l-231 -161l-58 80l189 131q-115 49 -248 84l31 104q199 -49 325 -111l205 144l57 -80l-166 -117q344 -207 344 -606q0 -403 -106.5 -572t-353.5 -169q-213 0 -332 121t-119 346zM219 449 q0 -168 82 -260.5t240 -92.5q180 0 254.5 129t76.5 459q-203 80 -350 80q-139 0 -221 -88t-82 -227z" />
<glyph unicode="&#xf1;" horiz-adv-x="1175" d="M211 0v1024h123v-74q158 92 313 92q201 0 270.5 -113.5t69.5 -396.5v-532h-123v530q0 223 -45 312.5t-186 89.5q-68 0 -142.5 -21.5t-115.5 -42.5l-41 -22v-846h-123zM283 1378q102 104 180 105q49 0 160.5 -51.5t140.5 -51.5q18 0 52 20.5t61 41.5l24 20l29 -96 q-92 -98 -166 -98q-47 0 -159.5 52t-143.5 52q-20 0 -57 -22.5t-64 -44.5l-27 -23z" />
<glyph unicode="&#xf2;" horiz-adv-x="1093" d="M121 528q0 266 95 390t327 124q219 0 317 -128t98 -388q0 -276 -91 -411t-324 -135q-238 0 -330 130.5t-92 417.5zM242 1409l47 113l426 -195l-43 -100zM246 528q0 -236 60.5 -338t236.5 -102q174 0 231 105.5t57 332.5q0 209 -67.5 308.5t-220.5 99.5 q-164 0 -230.5 -94.5t-66.5 -311.5z" />
<glyph unicode="&#xf3;" horiz-adv-x="1093" d="M121 528q0 266 95 390t327 124q219 0 317 -128t98 -388q0 -276 -91 -411t-324 -135q-238 0 -330 130.5t-92 417.5zM246 528q0 -236 60.5 -338t236.5 -102q174 0 231 105.5t57 332.5q0 209 -67.5 308.5t-220.5 99.5q-164 0 -230.5 -94.5t-66.5 -311.5zM324 1327l426 195 l47 -113l-430 -182z" />
<glyph unicode="&#xf4;" horiz-adv-x="1093" d="M121 528q0 266 95 390t327 124q219 0 317 -128t98 -388q0 -276 -91 -411t-324 -135q-238 0 -330 130.5t-92 417.5zM223 1219l252 290h98l256 -290h-139l-164 184l-164 -184h-139zM246 528q0 -236 60.5 -338t236.5 -102q174 0 231 105.5t57 332.5q0 209 -67.5 308.5 t-220.5 99.5q-164 0 -230.5 -94.5t-66.5 -311.5z" />
<glyph unicode="&#xf5;" horiz-adv-x="1093" d="M121 528q0 266 95 390t327 124q219 0 317 -128t98 -388q0 -276 -91 -411t-324 -135q-238 0 -330 130.5t-92 417.5zM199 1378q102 104 180 105q49 0 160.5 -51.5t140.5 -51.5q18 0 52 20.5t59 41.5l26 20l29 -96q-92 -98 -166 -98q-47 0 -159.5 52t-143.5 52 q-20 0 -57 -22.5t-64 -44.5l-27 -23zM246 528q0 -236 60.5 -338t236.5 -102q174 0 231 105.5t57 332.5q0 209 -67.5 308.5t-220.5 99.5q-164 0 -230.5 -94.5t-66.5 -311.5z" />
<glyph unicode="&#xf6;" horiz-adv-x="1093" d="M121 528q0 266 95 390t327 124q219 0 317 -128t98 -388q0 -276 -91 -411t-324 -135q-238 0 -330 130.5t-92 417.5zM246 528q0 -236 60.5 -338t236.5 -102q174 0 231 105.5t57 332.5q0 209 -67.5 308.5t-220.5 99.5q-164 0 -230.5 -94.5t-66.5 -311.5zM295 1290v162h119 v-162h-119zM696 1290v162h119v-162h-119z" />
<glyph unicode="&#xf7;" d="M123 543v125h838v-125h-838zM477 150v190h129v-190h-129zM477 866v191h129v-191h-129z" />
<glyph unicode="&#xf8;" horiz-adv-x="1079" d="M121 528q0 266 95 390t327 124q84 0 155 -22l-6 -16l-10 -29l-25 -60q-49 18 -114 19q-164 0 -230.5 -94.5t-66.5 -311.5q0 -299 100 -383l-27 -65l-16 -27l-8 -18q-94 55 -134 175.5t-40 317.5zM199 -201l96 236q33 -20 86 -35l-94 -231zM346 145l311 770q37 -12 76 -45 l-313 -766q-41 12 -74 41zM381 0l10 25l8 26l21 53q47 -16 123 -16q174 0 231 105.5t57 332.5q0 248 -98 344l31 74l14 27l4 12q176 -111 176 -457q0 -276 -91 -411t-324 -135q-99 0 -162 20zM698 1020l90 219l89 -31l-95 -225q-37 25 -84 37z" />
<glyph unicode="&#xf9;" horiz-adv-x="1142" d="M190 489v535h123v-530q0 -231 45 -317.5t187 -86.5q61 0 132 21.5t109 44.5l41 20v848h123v-1024h-123v72q-156 -92 -297 -92q-199 0 -269.5 112t-70.5 397zM268 1409l47 113l426 -195l-43 -100z" />
<glyph unicode="&#xfa;" horiz-adv-x="1142" d="M190 489v535h123v-530q0 -231 45 -317.5t187 -86.5q61 0 132 21.5t109 44.5l41 20v848h123v-1024h-123v72q-156 -92 -297 -92q-199 0 -269.5 112t-70.5 397zM350 1327l426 195l47 -113l-430 -182z" />
<glyph unicode="&#xfb;" horiz-adv-x="1142" d="M190 489v535h123v-530q0 -231 45 -317.5t187 -86.5q61 0 132 21.5t109 44.5l41 20v848h123v-1024h-123v72q-156 -92 -297 -92q-199 0 -269.5 112t-70.5 397zM250 1219l252 290h98l256 -290h-139l-164 184l-164 -184h-139z" />
<glyph unicode="&#xfc;" horiz-adv-x="1142" d="M190 489v535h123v-530q0 -231 45 -317.5t187 -86.5q61 0 132 21.5t109 44.5l41 20v848h123v-1024h-123v72q-156 -92 -297 -92q-199 0 -269.5 112t-70.5 397zM322 1290v162h118v-162h-118zM723 1290v162h119v-162h-119z" />
<glyph unicode="&#xfd;" horiz-adv-x="983" d="M53 1024h125l264 -909h74l266 909h125l-436 -1485h-125l139 461h-137zM301 1327l426 195l47 -113l-430 -182z" />
<glyph unicode="&#xfe;" horiz-adv-x="1120" d="M207 -461v1940h123v-523q141 86 299 86q367 0 366 -512q0 -287 -102 -418.5t-334 -131.5l-229 16v-457h-123zM330 111q119 -23 225 -23q172 0 243.5 106.5t71.5 335.5q0 193 -64.5 297.5t-184.5 104.5q-68 0 -140.5 -20.5t-111.5 -41.5l-39 -20v-739z" />
<glyph unicode="&#xff;" horiz-adv-x="985" d="M66 1024h124l265 -909h73l267 909h125l-437 -1485h-125l140 461h-138zM240 1290v162h118v-162h-118zM641 1290v162h119v-162h-119z" />
<glyph unicode="&#x152;" horiz-adv-x="1902" d="M115 707q0 375 122.5 558t413.5 183q152 0 301 -21h826v-116h-701v-527h578v-114h-578v-553h701v-119h-822q-225 -18 -305 -18q-299 0 -417.5 178t-118.5 549zM246 708.5q0 -321.5 88 -466t328 -144.5q61 0 290 17v1194q-287 20 -290 20q-233 0 -324.5 -149.5t-91.5 -471 z" />
<glyph unicode="&#x153;" horiz-adv-x="1794" d="M127 528q0 272 97.5 393t332.5 121q279 0 363 -211q94 211 356 211q201 0 300 -116.5t99 -366.5l-4 -98h-690q0 -186 64.5 -278.5t218.5 -92.5q63 0 156 4t153 8l61 7l4 -101q-219 -29 -383 -28q-252 0 -340 190q-41 -98 -125.5 -144t-232.5 -46q-250 0 -340 124.5 t-90 423.5zM254 528q0 -246 57.5 -343t245.5 -97q96 0 156.5 26.5t91.5 87t40 133.5t9 191q0 219 -69.5 313.5t-227.5 94.5q-174 0 -238.5 -88.5t-64.5 -317.5zM979 561h573q0 203 -64.5 288t-209.5 85q-297 0 -299 -373z" />
<glyph unicode="&#x178;" horiz-adv-x="1122" d="M53 1427h142l368 -677l363 677h141l-442 -815v-612h-125v612zM307 1692v161h119v-161h-119zM721 1692v161h119v-161h-119z" />
<glyph unicode="&#x2c6;" horiz-adv-x="1705" d="M537 1219l251 290h99l256 -290h-139l-164 184l-164 -184h-139z" />
<glyph unicode="&#x2dc;" horiz-adv-x="909" d="M145 1378q102 104 181 105q49 0 160.5 -51.5t140.5 -51.5q18 0 52 20.5t58 41.5l27 20l29 -96q-92 -98 -166 -98q-47 0 -160 52t-143 52q-20 0 -57.5 -22.5t-63.5 -44.5l-27 -23z" />
<glyph unicode="&#x2000;" horiz-adv-x="956" />
<glyph unicode="&#x2001;" horiz-adv-x="1912" />
<glyph unicode="&#x2002;" horiz-adv-x="956" />
<glyph unicode="&#x2003;" horiz-adv-x="1912" />
<glyph unicode="&#x2004;" horiz-adv-x="636" />
<glyph unicode="&#x2005;" horiz-adv-x="477" />
<glyph unicode="&#x2006;" horiz-adv-x="317" />
<glyph unicode="&#x2007;" horiz-adv-x="317" />
<glyph unicode="&#x2008;" horiz-adv-x="237" />
<glyph unicode="&#x2009;" horiz-adv-x="380" />
<glyph unicode="&#x200a;" horiz-adv-x="104" />
<glyph unicode="&#x2010;" horiz-adv-x="901" d="M143 496v116h615v-116h-615z" />
<glyph unicode="&#x2011;" horiz-adv-x="901" d="M143 496v116h615v-116h-615z" />
<glyph unicode="&#x2012;" horiz-adv-x="901" d="M143 496v116h615v-116h-615z" />
<glyph unicode="&#x2013;" horiz-adv-x="1024" d="M0 496v114h1024v-114h-1024z" />
<glyph unicode="&#x2014;" horiz-adv-x="2048" d="M0 496v114h2048v-114h-2048z" />
<glyph unicode="&#x2018;" horiz-adv-x="374" d="M66 1067l104 434h111l-86 -434h-129z" />
<glyph unicode="&#x2019;" horiz-adv-x="374" d="M94 1067l86 434h129l-104 -434h-111z" />
<glyph unicode="&#x201a;" horiz-adv-x="374" d="M94 -176l86 434h129l-104 -434h-111z" />
<glyph unicode="&#x201c;" horiz-adv-x="761" d="M109 993l104 434h111l-86 -434h-129zM432 993l105 434h110l-86 -434h-129z" />
<glyph unicode="&#x201d;" horiz-adv-x="698" d="M109 1063l86 434h129l-105 -434h-110zM432 1063l86 434h129l-104 -434h-111z" />
<glyph unicode="&#x201e;" horiz-adv-x="698" d="M109 -176l86 434h129l-105 -434h-110zM432 -176l86 434h129l-104 -434h-111z" />
<glyph unicode="&#x2022;" d="M289 219v590h508v-590h-508z" />
<glyph unicode="&#x2026;" horiz-adv-x="1523" d="M193 0v207h135v-207h-135zM713 0v207h135v-207h-135zM1233 0v207h135v-207h-135z" />
<glyph unicode="&#x202f;" horiz-adv-x="380" />
<glyph unicode="&#x2039;" horiz-adv-x="729" d="M102 459v104l371 283v-129l-264 -203l264 -223v-131z" />
<glyph unicode="&#x203a;" horiz-adv-x="729" d="M123 164v133l262 223l-262 201v129l371 -283v-104z" />
<glyph unicode="&#x205f;" horiz-adv-x="477" />
<glyph unicode="&#x20ac;" horiz-adv-x="1118" d="M43 473v107h121q0 10 -1 44.5t-1 51.5q0 18 1 56t1 52h-121v107h129q23 254 134.5 373.5t367.5 119.5l360 -38l-8 -113q-190 35 -342 35q-201 0 -284 -91.5t-97 -285.5l586 -2v-105h-594q0 -14 -1 -52t-1 -56q0 -16 1 -51t1 -45l594 -2v-105h-586q14 -197 97 -287 t286 -90l340 33l8 -111q-199 -39 -360 -38q-256 0 -368.5 118.5t-133.5 374.5h-129z" />
<glyph unicode="&#x2122;" d="M14 1208v64h410v-64h-170v-528h-68v528h-172zM496 678v594h102l172 -496l178 496h103v-594h-66v528l-180 -506h-72l-172 506v-528h-65z" />
<glyph unicode="&#xe000;" horiz-adv-x="1025" d="M0 1025h1025v-1025h-1025v1025z" />
<glyph unicode="&#xfb01;" horiz-adv-x="1146" d="M852 0v1024h123v-1024h-123zM852 1276v154h123v-154h-123zM66 915v109h131v104q0 203 61 287t207 84l182 -12v-105q-104 6 -164 7q-92 0 -129 -58.5t-37 -204.5v-102h310v-109h-310v-915h-120v915h-131z" />
<glyph unicode="&#xfb02;" horiz-adv-x="1163" d="M860 0v1479h123v-1479h-123zM66 915v109h131v104q0 203 61 287t207 84l182 -12v-105q-104 6 -164 7q-92 0 -129 -58.5t-37 -204.5v-102h310v-109h-310v-915h-120v915h-131z" />
<glyph unicode="&#xfb03;" horiz-adv-x="1826" d="M1532 0v1024h123v-1024h-123zM1532 1276v154h123v-154h-123zM746 915v109h131v104q0 203 61 287t207 84l182 -12v-105q-104 6 -164 7q-92 0 -129 -58.5t-37 -204.5v-102h310v-109h-310v-915h-120v915h-131zM66 915v109h131v104q0 203 61 287t207 84l182 -12v-105 q-104 6 -164 7q-92 0 -129 -58.5t-37 -204.5v-102h310v-109h-310v-915h-120v915h-131z" />
<glyph unicode="&#xfb04;" horiz-adv-x="1843" d="M1540 0v1479h123v-1479h-123zM746 915v109h131v104q0 203 61 287t207 84l182 -12v-105q-104 6 -164 7q-92 0 -129 -58.5t-37 -204.5v-102h310v-109h-310v-915h-120v915h-131zM66 915v109h131v104q0 203 61 287t207 84l182 -12v-105q-104 6 -164 7q-92 0 -129 -58.5 t-37 -204.5v-102h310v-109h-310v-915h-120v915h-131z" />
<glyph horiz-adv-x="481" />
</font>
</defs>
</svg>
